<svg width="580" height="805" xmlns="http://www.w3.org/2000/svg" viewBox="0 0 580 805">
    <path id="svg_3" fill="#A2BC5C"
          d="m556.09236,786.57496c0,5.754 -115.429,10.419 -257.818,10.419s-257.818,-4.665 -257.818,-10.419c0,-5.754 115.429,-10.419 257.818,-10.419s257.818,4.665 257.818,10.419z"/>
    <path id="svg_4" fill="#F9A51E"
          d="m409.10436,763.16796c0.84,4.501 1.782,9.224 4.742,12.718c2.959,3.494 8.642,5.131 12.184,2.229c3.1,-2.539 3.267,-7.137 3.177,-11.143c-2.037,-91.05 -4.073,-182.1 -6.11,-273.15c-0.224,-10.011 -0.524,-20.361 -4.792,-29.42c-4.267,-9.058 -13.638,-16.517 -23.575,-15.287c-8.441,1.044 -15.029,7.869 -19.444,15.138c-24.7,40.663 -4.706,92.534 3.276,135.292c10.18,54.541 20.361,109.082 30.542,163.623z"/>
    <path id="svg_5" fill="#CE8111"
          d="m380.40436,571.81496c2.292,5.047 4.84,10.391 9.575,13.273c3.479,2.118 7.677,2.604 11.727,3.042c3.051,0.33 6.103,0.659 9.154,0.989c0.846,0.091 1.758,0.17 2.493,-0.259c0.698,-0.407 1.08,-1.182 1.423,-1.913c3.488,-7.434 7.013,-14.986 8.353,-23.087c0.346,-2.094 0.519,-4.354 -0.463,-6.236c-0.891,-1.708 -2.588,-2.823 -4.243,-3.809c-6.367,-3.796 -13.194,-6.819 -20.283,-8.985c-2.255,-0.689 -4.588,-1.297 -6.941,-1.143c-3.789,0.247 -7.229,2.472 -9.748,5.313c-7.454,8.404 -5.346,13.351 -1.047,22.815z"/>
    <path id="svg_6" fill="#F9A51E"
          d="m162.10036,528.91196c9.901,27.841 31.902,52.537 31.137,82.077c-0.089,3.419 -0.49,6.865 0.063,10.24c0.833,5.084 3.743,9.544 6.477,13.911c21.761,34.75 36.381,73.951 42.69,114.464c1.266,8.127 2.248,16.467 5.81,23.881c3.562,7.414 10.343,13.884 18.542,14.541c15.159,-48.939 -6.666,-100.535 -19.05,-150.249c-1.384,-5.554 -2.659,-11.246 -2.198,-16.952c0.551,-6.815 3.532,-13.161 6.409,-19.364c18.125,-39.08 34.283,-81.184 30.103,-124.059c-4.376,-44.887 -44.636,-77.63 -89.884,-58.877c-37.158,15.401 -41.439,78.497 -30.099,110.387z"/>
    <path id="svg_7" fill="#CE8111"
          d="m196.29536,607.49096c0.383,1.038 0.816,2.143 1.73,2.767c0.765,0.523 1.734,0.615 2.658,0.692c5.942,0.492 11.883,0.985 17.825,1.477c0.573,0.048 1.199,0.082 1.67,-0.248c0.346,-0.243 0.544,-0.64 0.727,-1.021c4.844,-10.11 8.944,-20.576 12.257,-31.286c-10.682,-6.026 -22.319,-10.354 -34.342,-12.774c-1.032,-0.208 -2.145,-0.393 -3.102,0.044c-0.821,0.375 -1.381,1.145 -1.895,1.888c-1.95,2.818 -4.617,6.03 -5.841,9.24c-1.42,3.726 -0.492,5.116 0.929,9.024c2.448,6.736 4.905,13.471 7.384,20.197z"/>
    <path id="svg_8" fill="#A86D5D"
          d="m519.04036,169.81296c1.049,10.708 4.563,21.037 5.943,31.708c1.376,10.643 0.609,21.44 -0.421,32.123c-2.453,25.44 -6.381,50.738 -11.759,75.724c-4.975,23.112 -11.418,46.466 -24.82,65.941c-3.842,-12.99 -2.631,-26.843 -2.352,-40.386c0.807,-39.232 -6.512,-78.23 -6.856,-117.469c-0.208,-23.677 2.125,-47.375 0.694,-71.01c-0.924,-15.256 -3.368,-30.939 1.099,-45.556c0.736,-2.409 1.685,-4.813 3.33,-6.72c1.706,-1.978 4.074,-3.305 6.561,-4.105c6.164,-1.983 13.272,-0.734 18.389,3.233c4.586,3.554 7.82,9.579 7.748,15.455c-0.076,6.253 1.899,11.806 2.534,18.205c1.416,14.266 -1.489,28.584 -0.09,42.857z"/>
    <path id="svg_9" fill="#FFAD1D"
          d="m406.53236,73.75696c-10.236,-3.961 -19.063,-10.773 -28.432,-16.491c-9.368,-5.718 -19.961,-10.504 -30.904,-9.662c-10.291,0.792 -19.974,6.51 -30.274,5.848c-1.899,-0.122 -3.848,-0.457 -5.673,0.081c-1.825,0.538 -3.474,2.333 -3.043,4.186c0.436,1.876 2.56,2.699 4.27,3.586c4.307,2.235 7.209,6.39 10.257,10.167c7.919,9.813 17.901,17.954 29.105,23.738c9.46,4.884 20.076,8.124 30.681,7.186c11.435,-1.012 21.929,-6.766 31.203,-13.531c2.68,-1.955 5.43,-4.195 6.453,-7.351c3.149,-9.708 -8.714,-5.85 -13.643,-7.757z"/>
    <path id="svg_10" fill="#FFC8C7"
          d="m347.43536,86.11296c-3.381,-2.739 -6.282,-6.013 -9.165,-9.271c-4.436,-5.012 -8.872,-10.023 -13.308,-15.035c-0.439,-0.496 -0.906,-1.17 -0.609,-1.762c0.208,-0.414 0.707,-0.58 1.164,-0.663c3.283,-0.592 6.533,1.095 9.863,1.299c3.767,0.23 7.381,-1.443 11.133,-1.86c3.857,-0.429 7.741,0.483 11.417,1.726c5.285,1.786 10.445,4.352 14.281,8.403c3.836,4.051 6.188,9.775 5.21,15.267c-0.97,5.454 -6.518,11.516 -12.473,10.686c-5.91,-0.824 -12.982,-5.12 -17.513,-8.79z"/>
    <path id="svg_11" fill="#A86D5D"
          d="m397.63136,29.99196c9.605,-12.297 27.364,-17.484 42.078,-12.29c0.022,-1.276 0.045,-2.551 0.067,-3.827c13.612,0.036 27.087,6.268 35.93,16.617c2.87,-0.918 5.89,0.804 8.217,2.719c4.225,3.477 7.708,7.849 10.154,12.743c1.546,3.093 2.694,6.412 4.68,9.242c2.144,3.054 5.154,5.382 7.613,8.188c4.964,5.663 7.493,13.036 9.327,20.34c3.451,13.738 4.856,27.989 4.154,42.137c-15.333,1.31 -30.666,2.62 -45.998,3.93c-0.345,0.03 -0.704,0.057 -1.029,-0.066c-0.889,-0.337 -1.017,-1.52 -1.002,-2.47c0.177,-11.438 -0.284,-23.014 -3.365,-34.031c-3.082,-11.016 -8.995,-21.526 -18.106,-28.443c-5.187,-3.938 -11.33,-6.596 -17.734,-7.756c-5.8,-1.051 -8.336,-0.529 -10.849,-6.16c-2.424,-5.433 -4.724,-10.123 -9.368,-14.088c-1.452,-1.24 -12.992,-9.061 -14.769,-6.785z"/>
    <path id="svg_12" fill="#FFC024"
          d="m380.59836,356.11396c-8.372,9.5 11.786,49.578 16.895,60.953c4.686,10.433 14.917,15.948 24.632,20.067c8.445,3.581 17.695,6.697 26.365,3.88c10.394,-3.377 34.251,-10.749 36.057,-22.522c7.167,-46.713 8.31,-96.537 10.145,-145.275c0.895,-23.757 1.768,-47.521 1.876,-71.299c0.178,-39.204 -1.914,-79.38 -15.546,-115.453c-2.078,-5.5 -4.632,-11.157 -9.114,-14.357c-4.696,-3.352 -10.78,-3.375 -16.113,-1.605c-11.145,3.7 -19.589,14.446 -24.304,26.407c-16.233,41.184 -9.546,87.781 -11.968,131.53c-2.825,51.035 -10.37,95.274 -38.925,127.674z"/>
    <path id="svg_13" fill="#FFAD1D"
          d="m418.53936,239.38896c2.014,-6.083 5.284,-11.657 8.475,-17.213c15.465,-26.931 29.602,-54.624 42.342,-82.946c2.878,-6.397 5.714,-12.926 6.706,-19.871c-0.289,2.021 -10.773,7.475 -12.613,8.714c-4.333,2.918 -8.701,5.782 -13.104,8.594c-8.906,5.687 -17.972,11.094 -27.114,16.389c-7.572,4.385 -7.909,8.115 -7.221,16.508c0.894,10.9 1.559,21.818 1.986,32.746c0.482,12.352 0.663,24.717 0.543,37.079z"/>
    <path id="svg_14" fill="#FFAD1D"
          d="m366.41936,21.09496c-0.392,-0.576 -0.81,-1.223 -0.705,-1.911c0.111,-0.725 0.761,-1.229 1.375,-1.63c2.788,-1.821 5.893,-3.155 9.134,-3.92c6.745,13.558 16.563,25.576 28.503,34.889c1.951,1.521 4.079,3.144 4.756,5.523c0.91,3.202 -1.159,6.471 -3.455,8.881c-7.282,7.646 -24.69,16.648 -25.821,0.456c-1.064,-15.205 -5.13,-29.57 -13.787,-42.288z"/>
    <path id="svg_15" fill="#FFC024"
          d="m388.20736,53.30496c-10.091,4.85 -16.652,15.085 -21.883,24.985c-3.147,5.955 -5.673,12.307 -9.792,17.636c-6.454,8.347 -16.177,13.399 -25.635,18.076c-9.458,4.677 -19.26,9.456 -26.111,17.48c-6.851,8.024 -8.271,19.443 -4.38,29.25c12.837,32.354 44.665,33.754 52.61,33.184c39.367,-2.822 69.359,-18.412 100.343,-37.064c42.74,-25.729 36.023,-70.207 34.522,-75.508c-8.668,-30.618 -65.287,-44.566 -99.674,-28.039z"/>
    <path id="svg_16" fill="#A86D5D"
          d="m353.01636,193.91696c16.969,-1.216 32.195,-4.807 46.511,-9.99c0.962,-4.806 0.888,-9.854 0.326,-14.749c-1.562,-13.606 -6.979,-27.103 -16.911,-36.533c-4.628,-4.395 -10.119,-7.816 -15.911,-10.5c-7.297,-3.381 -15.192,-5.468 -23.197,-6.218c-6.149,-0.576 -12.304,-0.311 -18.271,0.736c-7.695,3.921 -15.21,8.299 -20.777,14.819c-6.851,8.024 -8.271,19.443 -4.38,29.25c12.837,32.354 44.666,33.754 52.61,33.185z"/>
    <path id="svg_17" fill="#A86D5D"
          d="m363.21136,27.46196c-2.903,0.846 -6.297,1.616 -8.736,-0.171c-2.536,-1.858 -2.729,-5.643 -1.784,-8.641c1.332,-4.224 4.382,-7.757 7.995,-10.318c3.613,-2.561 7.78,-4.229 11.987,-5.61c1.499,-0.492 3.039,-0.956 4.617,-0.936c3.501,0.044 6.725,2.676 7.767,6.019c1.041,3.343 0.006,7.166 -2.35,9.762c-4.69,5.164 -13.11,8.035 -19.496,9.895z"/>
    <path id="svg_18" fill="#FFC024"
          d="m501.15836,22.06996c1.872,1.771 3.743,3.541 5.615,5.312c-9.48,12.932 -17.089,27.233 -22.518,42.321c-1.985,5.515 -3.763,11.287 -7.524,15.782c-3.762,4.495 -10.173,7.398 -15.593,5.168c-7.267,-2.99 -9.476,-13.157 -8.474,-20.189c0.878,-6.159 5.68,-8.215 10.467,-11.377c14.886,-9.832 26.59,-23.518 38.027,-37.017z"/>
    <path id="svg_19" fill="#A86D5D"
          d="m487.97136,24.91396c0.498,2.756 1.85,5.283 3.374,7.632c1.983,3.055 4.331,5.935 7.31,8.031s6.649,3.359 10.271,2.97c1.359,-0.146 2.71,-0.529 3.859,-1.27c1.799,-1.16 2.96,-3.101 3.7,-5.109c2.19,-5.946 0.958,-13.022 -3.113,-17.878c-6.798,-8.108 -28.215,-9.933 -25.401,5.624z"/>
    <path id="svg_20" fill="#FFAD1D"
          d="m429.00036,74.50196c2.325,-2.074 5.463,-2.942 8.508,-3.601c3.991,-0.864 8.462,-1.4 11.896,0.81c3.466,2.23 4.85,6.697 4.815,10.819c-0.083,9.823 -7.465,19.119 -17.013,21.426c-18.038,4.358 -17.744,-20.945 -8.206,-29.454z"/>
    <path id="svg_21" fill="#FFAD1D"
          d="m365.83136,79.83196c-0.663,2.086 -1.267,4.246 -1.123,6.43s1.169,4.426 3.081,5.493c2.727,1.522 6.119,0.247 8.911,-1.153c3.127,-1.568 6.216,-3.308 8.753,-5.715c2.537,-2.407 4.502,-5.561 4.906,-9.035c0.419,-3.606 -0.967,-7.392 -3.662,-9.825c-10.276,-9.276 -18.22,5.484 -20.866,13.805z"/>
    <path id="svg_22" fill="#6B470D"
          d="m424.26036,89.30296c-1.537,2.781 -1.702,6.279 -0.436,9.194c0.55,1.265 1.349,2.413 2.282,3.428c1.866,2.031 4.472,3.594 7.227,3.453c3.096,-0.158 5.786,-2.494 7.062,-5.319c1.275,-2.826 1.338,-6.057 0.957,-9.133c-0.121,-0.977 -0.289,-1.962 -0.706,-2.853c-0.764,-1.631 -2.33,-2.805 -4.052,-3.336c-4.771,-1.472 -9.855,0.078 -12.334,4.566z"/>
    <path id="svg_23" fill="#FFFFFF"
          d="m425.77336,90.33696c-1.24,1.835 -1.13,4.728 0.748,5.902c0.35,0.218 0.751,0.37 1.163,0.373c1.065,0.007 1.885,-0.94 2.376,-1.885c0.491,-0.946 0.848,-2.017 1.672,-2.692c0.812,-0.665 1.995,-0.867 2.606,-1.72c1.513,-2.111 -1.35,-3.604 -3.121,-3.425c-1.96,0.197 -4.363,1.847 -5.444,3.447z"/>
    <path id="svg_24" fill="#6B470D"
          d="m366.21536,77.04096c-1.428,2.151 -2.07,5.133 -1.688,7.838c0.166,1.174 0.512,2.286 0.966,3.306c0.909,2.039 2.371,3.792 4.192,4.103c2.046,0.349 4.159,-1.237 5.423,-3.467c1.264,-2.23 1.799,-4.999 2.02,-7.704c0.07,-0.859 0.111,-1.733 -0.025,-2.564c-0.25,-1.523 -1.093,-2.778 -2.136,-3.504c-2.891,-2.015 -6.448,-1.479 -8.752,1.992z"/>
    <path id="svg_25" fill="#FFFFFF"
          d="m367.04536,78.16796c-1.09,1.384 -1.459,3.888 -0.412,5.192c0.195,0.243 0.434,0.436 0.703,0.503c0.694,0.173 1.375,-0.512 1.839,-1.249c0.465,-0.736 0.862,-1.601 1.503,-2.053c0.632,-0.445 1.435,-0.433 1.964,-1.071c1.31,-1.579 -0.331,-3.311 -1.515,-3.435c-1.311,-0.136 -3.132,0.906 -4.082,2.113z"/>
    <path id="svg_26" fill="#FFC024"
          d="m320.47436,384.71496c-38.515,9.329 -78.545,7.014 -118.05,7.6c-20.323,0.302 -42.275,2.031 -57.79,15.935c-14.248,12.769 -19.992,33.277 -22.157,52.91c-2.787,25.278 -0.246,52.709 14.477,72.824c19.302,26.371 53.748,33.381 85.155,36.053c33.19,2.824 66.586,2.92 99.79,0.286c41.427,-3.286 85,-12.02 115.905,-41.417c21.692,-20.634 34.988,-49.75 41.765,-79.782c6.777,-30.032 7.496,-61.197 7.346,-92.073c-0.103,-21.241 -3.702,-47.374 -22.542,-54.673c-26.298,-10.185 -55.025,24.452 -70.341,41.175c-19.563,21.362 -46.445,34.595 -73.558,41.162z"/>
    <path id="svg_27" fill="#FFC024"
          d="m85.18036,461.40796c-11.427,23.429 -15.256,49.714 -19.096,75.496c-3.841,25.782 -8.003,52.066 -19.991,75.213c1.607,3.342 6.751,3.389 9.587,1c2.836,-2.39 3.943,-6.202 4.907,-9.783c9.552,-35.475 19.104,-70.95 28.656,-106.425c2.454,-9.115 5.037,-18.495 10.813,-25.96c7.62,-9.849 20.224,-15.158 32.673,-15.43c5.91,-0.129 11.982,0.758 17.632,-0.981c9.345,-2.876 15.525,-13.55 13.368,-23.086c-11.043,-48.824 -69.678,11.766 -78.549,29.956z"/>
    <path id="svg_28" fill="#A86D5D"
          d="m25.97236,608.00696c-3.333,9.792 -2.111,20.45 -2.313,30.792c-0.201,10.342 -2.425,21.654 -10.491,28.13c3.128,-1.059 5.929,-3.065 7.938,-5.686c0.829,5.026 -1.322,10.188 -4.646,14.048c-3.324,3.859 -7.722,6.619 -12.127,9.177c17.981,-1.505 35.348,-9.518 48.163,-22.221c15.511,-15.376 30.789,-46.061 18.989,-67.398c-11.776,-21.296 -39.511,-4.474 -45.513,13.158z"/>
    <path id="svg_29" fill="#FFC024"
          d="m483.01936,85.59496c10.93,1.004 21.865,-1.172 32.799,-2.127c10.934,-0.955 22.55,-0.531 31.977,5.09c8.865,5.286 14.995,14.713 24.514,18.701c1.755,0.735 3.65,1.302 5.045,2.595c1.395,1.294 2.074,3.634 0.864,5.102c-1.225,1.486 -3.493,1.279 -5.419,1.313c-4.852,0.087 -9.299,2.518 -13.708,4.545c-11.457,5.267 -24.017,8.12 -36.626,8.318c-10.645,0.167 -21.595,-1.652 -30.676,-7.208c-9.792,-5.992 -16.632,-15.812 -21.931,-25.996c-1.531,-2.943 -2.998,-6.172 -2.511,-9.454c1.499,-10.094 10.409,-1.363 15.672,-0.879z"/>
    <path id="svg_30" fill="#FFC8C7"
          d="m528.81836,92.13296c10.19,2.708 18.54,11.719 28.756,14.285c0.81,0.203 1.657,0.379 2.332,0.942c0.675,0.563 1.116,1.65 0.758,2.524c-0.282,0.687 -0.939,1.024 -1.544,1.306c-2.92,1.361 -5.84,2.721 -8.76,4.082c-3.259,1.519 -6.546,3.047 -9.998,3.776c-6.224,1.315 -12.658,-0.041 -18.68,-2.304c-6.022,-2.263 -11.771,-5.42 -17.746,-7.849c-3.522,-1.432 -7.119,-2.608 -10.765,-3.522c-3.599,-0.902 -7.504,-1.702 -10.067,-4.792c-4.072,-4.909 3.806,-4.35 5.653,-4.353c4.49,-0.008 8.94,-0.872 13.34,-1.84c8.757,-1.926 17.823,-4.62 26.721,-2.255z"/>
    <path id="svg_31" fill="#6B470D"
          d="m332.72136,180.69896c4.425,0.424 8.945,0.514 13.26,-0.555c8.74,-2.165 15.686,-8.828 21.002,-16.096c-1.729,4.597 -4.055,8.969 -6.901,12.972c-1.954,2.748 -4.184,5.351 -6.948,7.282c-4.692,3.277 -10.68,4.388 -16.372,3.791c-5.692,-0.597 -11.119,-2.795 -16.085,-5.639c-4.855,-2.781 -10.213,-6.697 -12.268,-12.129c7.463,5.776 14.752,9.461 24.312,10.374z"/>
    <path id="svg_32" fill="#6B470D"
          d="m308.30236,146.98396c-0.37,2.016 -0.362,4.382 1.146,5.77c0.38,0.35 0.895,0.624 1.4,0.512c0.566,-0.125 0.934,-0.708 1.009,-1.282c0.075,-0.575 -0.078,-1.151 -0.205,-1.717c-0.888,-3.947 -0.555,-8.159 0.942,-11.917c-2.509,2.076 -3.69,5.355 -4.292,8.634z"/>
    <path id="svg_33" fill="#6B470D"
          d="m324.46236,148.50696c-0.37,2.016 -0.362,4.382 1.146,5.77c0.38,0.35 0.895,0.624 1.4,0.512c0.566,-0.125 0.934,-0.708 1.009,-1.282c0.075,-0.575 -0.078,-1.151 -0.205,-1.717c-0.888,-3.947 -0.555,-8.159 0.942,-11.917c-2.51,2.076 -3.691,5.355 -4.292,8.634z"/>
    <path id="svg_34" fill="#A86D5D"
          d="m241.19636,779.73396c-0.163,2.182 -0.313,4.451 0.486,6.487c1.766,4.496 7.293,6.087 12.112,6.418c6.382,0.439 12.843,-0.296 18.963,-2.158c1.173,-0.357 2.395,-0.795 3.179,-1.737c0.947,-1.136 1.285,-2.752 1.066,-4.215c-1.678,-11.211 -2.466,-21.396 -5.017,-32.631c-0.385,2.121 -5.358,6.145 -14.225,6.854c-10.71,0.857 -14.398,-3.33 -14.398,-3.33s-1.679,17.79 -2.166,24.312z"/>
    <path id="svg_35" fill="#A86D5D"
          d="m401.46436,767.19296c-0.322,1.988 -0.641,4.057 -0.122,5.988c1.146,4.261 5.776,6.153 9.9,6.835c5.462,0.903 11.09,0.734 16.518,-0.493c1.04,-0.235 2.13,-0.542 2.884,-1.344c0.911,-0.968 1.336,-2.423 1.27,-3.782c-0.511,-10.413 -1.951,-19.486 -3.213,-29.99c-0.508,1.915 -3.518,4.887 -11.217,4.843c-9.299,-0.053 -11.79,-4.341 -11.79,-4.341s-3.267,16.34 -4.23,22.284z"/>
    <path id="svg_36" fill="#FFAD1D"
          d="m238.81936,556.07996c57.695,16.468 99.158,3.153 117.729,-13.665c11.691,-10.588 15.078,-38.311 18.921,-53.609c5.426,21.13 28.611,39.672 48.229,49.215c-13.642,15.792 -33.104,25.631 -53.186,31.309c-20.081,5.678 -41.007,7.543 -61.752,9.816c-37.024,4.056 -75.369,9.372 -110.822,-2.048c-8.934,-2.878 -18.289,-7.524 -21.983,-16.152c-4.81,-11.235 1.847,-23.708 7.101,-34.743c6.922,-14.539 11.645,-30.123 13.96,-46.059c1.863,-12.824 14.43,-7.445 8.901,1.274c9.89,1.688 20.804,-0.694 27.639,10.223c8.27,13.208 16.007,50.774 5.263,64.439z"/>
    <path id="svg_37" fill="#FFC024"
          d="m435.41336,588.61196c7.391,19.373 4.515,41.326 -2.468,60.85c-9.19,25.696 -27.471,50.067 -51.473,60.729c4.793,6.715 11.068,13.844 15.86,20.558c39.246,-31.57 68.083,-74.531 85.112,-121.932c8.823,-24.557 12.753,-51.498 5.465,-76.553c-11.847,-40.725 -54.896,-84.988 -87.563,-80.95c-25.934,3.205 -33.935,60.137 -15.671,83.274c15.913,20.161 40.647,27.577 50.738,54.024z"/>
    <path id="svg_38" fill="#A86D5D"
          d="m375.55236,713.06296c-1.734,1.025 -3.528,2.104 -4.679,3.738c-2.541,3.608 -1.032,8.376 1.083,11.982c2.802,4.775 6.533,8.992 10.95,12.378c0.846,0.649 1.779,1.29 2.878,1.357c1.326,0.08 2.717,-0.524 3.719,-1.444c7.675,-7.056 13.725,-13.969 20.99,-21.66c-1.797,0.835 -6.007,0.424 -10.9,-5.521c-5.91,-7.18 -4.209,-11.837 -4.209,-11.837s-14.648,7.944 -19.832,11.007z"/>
    <path id="svg_39" fill="#FFC024"
          d="m115.12336,515.22596c6.017,28.93 24.451,56.392 19.67,85.552c-0.553,3.375 -1.421,6.734 -1.332,10.153c0.133,5.15 2.409,9.965 4.523,14.663c16.826,37.39 25.972,78.216 26.705,119.211c0.147,8.224 -0.015,16.62 2.504,24.45s8.356,15.163 16.389,16.93c21.682,-46.418 7.086,-100.506 1.588,-151.443c-0.614,-5.691 -1.103,-11.503 0.131,-17.093c1.474,-6.676 5.291,-12.558 8.985,-18.311c23.278,-36.248 45.019,-75.759 46.716,-118.804c1.777,-45.064 -33.649,-82.986 -81.029,-70.569c-38.909,10.198 -51.742,72.123 -44.85,105.261z"/>
    <path id="svg_40" fill="#A86D5D"
          d="m160.94336,779.29996c-0.318,2.165 -0.629,4.417 0.024,6.505c1.441,4.61 6.842,6.59 11.625,7.263c6.334,0.892 12.831,0.618 19.068,-0.803c1.195,-0.272 2.445,-0.623 3.295,-1.506c1.025,-1.066 1.477,-2.653 1.363,-4.128c-0.876,-11.302 -0.416,-21.719 -3.124,-32.614c-0.534,2.088 -5.341,5.458 -14.236,5.534c-10.744,0.093 -14.021,-4.31 -14.021,-4.31s-3.045,17.589 -3.994,24.059z"/>
    <path id="svg_41" fill="#A86D5D"
          d="m415.78236,45.51696c0.598,3.07 0.477,6.242 1.001,9.326c0.271,1.595 0.819,3.308 2.19,4.161c0.913,0.568 2.045,0.652 3.117,0.579c3.581,-0.244 5.74,-3.113 8.97,-4.682c7.881,-3.827 14.922,-4.649 26.189,-2.292c0.3,0.063 0.897,-1.325 1.15,-1.498c0.251,-0.171 0.322,-0.506 0.358,-0.808c0.194,-1.627 -0.003,-3.3 -0.571,-4.836c-0.675,-1.826 -1.845,-3.421 -3.036,-4.96c-1.964,-2.538 -4.034,-5.011 -6.423,-7.152c-5.268,-4.724 -12.004,-7.707 -18.993,-8.768c-6.989,-1.061 -14.214,-0.236 -20.906,2.047c-1.03,0.351 -5.888,2.103 -5.516,3.789c0.132,0.599 1.732,0.925 2.23,1.18c1.057,0.541 2.053,1.247 2.976,1.991c3.69,2.977 6.355,7.251 7.264,11.923z"/>
    <path id="svg_42" fill="#FFAD1D"
          d="m478.51836,113.51896c3.12,4.069 7.041,7.869 12.166,7.705c1.611,8.591 3.427,18.161 3.821,26.823c-0.583,-1.851 -2.094,-4.405 -3.015,-6.113c-3.683,-6.826 -10.405,-11.38 -15.633,-17.109c-4.211,-4.614 -7.492,-10.072 -9.593,-15.954c-1.043,-2.919 -1.801,-5.972 -1.846,-9.071c-0.055,-3.739 0.927,-7.759 3.013,-10.894c0.889,3.754 1.118,7.095 2.752,10.684c2.204,4.843 4.891,9.84 8.335,13.929z"/>
    <path id="svg_43" fill="#CE8111"
          d="m424.24836,187.33596c-1.5,3.863 -1.108,8.174 -0.57,12.282c0.967,7.381 2.335,14.709 4.097,21.942c0.11,0.451 0.228,0.917 0.516,1.281c0.391,0.497 1.026,0.722 1.629,0.912c7.107,2.238 14.716,2.862 22.093,1.813c1.2,-0.171 2.452,-0.41 3.391,-1.177c0.711,-0.58 1.171,-1.406 1.599,-2.218c3.314,-6.28 5.79,-13 7.344,-19.929c0.198,-0.885 0.381,-1.819 0.119,-2.687c-0.255,-0.846 -0.897,-1.513 -1.526,-2.134c-6.588,-6.502 -14.208,-11.955 -22.487,-16.094c-5.6,-2.798 -13.864,-0.017 -16.205,6.009z"/>
    <path id="svg_44" fill="#CE8111"
          d="m466.91136,152.21496c-0.432,0.229 -0.883,0.491 -1.112,0.923c-0.195,0.367 -0.2,0.802 -0.2,1.218c-0.001,5.618 -0.003,11.237 -0.004,16.855c0,0.424 0.009,0.877 0.25,1.226c0.219,0.316 0.589,0.486 0.939,0.646c3.259,1.486 6.346,3.35 9.18,5.541c1.072,0.829 2.276,1.757 3.622,1.593c1.19,-7.037 2.381,-14.074 3.572,-21.111c0.126,-0.744 0.251,-1.51 0.084,-2.245c-0.494,-2.176 -4.971,-6.34 -7.071,-7.074c-2.984,-1.047 -6.631,1.033 -9.26,2.428z"/>
    <path id="svg_45" fill="#CE8111"
          d="m461.54836,236.80296c-0.616,1.365 -1.213,3 -0.448,4.287c0.368,0.619 0.992,1.033 1.59,1.434c7.28,4.887 13.643,11.133 18.666,18.32c2.687,-10.097 4.761,-20.345 6.832,-30.587c1.208,-5.971 2.75,-27.142 -9.03,-24.351c-7.463,1.769 -14.595,24.21 -17.61,30.897z"/>
    <path id="svg_46" fill="#CE8111"
          d="m417.69836,275.67896c-2.711,8.873 -5.421,17.745 -8.132,26.618c-0.272,0.89 -0.544,1.844 -0.271,2.733c0.204,0.663 0.686,1.198 1.155,1.71c8.494,9.272 16.989,18.543 25.483,27.815c6.348,-8.74 16.413,-14.019 23.663,-22.028c1.293,-1.428 2.531,-3.02 2.921,-4.907c0.332,-1.61 0.013,-3.274 -0.306,-4.886c-1.267,-6.408 -2.534,-12.817 -3.801,-19.225c-0.396,-2.003 -0.872,-4.153 -2.391,-5.518c-1.308,-1.176 -3.135,-1.533 -4.866,-1.844c-3.665,-0.66 -8.139,-0.78 -11.614,-2.094c-5.684,-2.149 -3.555,-3.832 -8.041,-7.207c-6.839,-5.145 -11.951,2.78 -13.8,8.833z"/>
    <path id="svg_47" fill="#CE8111"
          d="m468.43136,336.19496c-1.294,0.588 -2.671,1.25 -3.37,2.487c-0.518,0.917 -0.58,2.013 -0.628,3.065c-0.721,15.921 -0.943,31.865 -0.663,47.799c0.011,0.602 0.053,1.277 0.5,1.681c0.445,0.402 1.118,0.379 1.716,0.332c6.116,-0.483 12.231,-0.965 18.347,-1.448c5.087,-19.232 7.328,-39.214 6.627,-59.096c-7.325,-1.211 -16.062,2.242 -22.529,5.18z"/>
    <path id="svg_48" fill="#CE8111"
          d="m398.15436,352.47796c-3.398,3.226 -5.618,7.464 -8.338,11.279c-2.814,3.948 -6.205,7.485 -10.03,10.464c-1.759,1.37 -3.646,2.66 -4.917,4.492c-2.421,3.492 -2.1,8.181 -1.112,12.314c2.118,8.863 6.898,17.072 13.561,23.288c1.07,0.999 2.236,1.973 3.645,2.371c1.394,0.393 2.878,0.18 4.311,-0.036c9.267,-1.396 18.533,-2.792 27.8,-4.188c1.466,-0.221 3.009,-0.474 4.161,-1.408c1.372,-1.112 1.894,-2.94 2.341,-4.648c2.291,-8.743 4.581,-17.487 6.872,-26.23c0.461,-1.762 0.91,-3.695 0.141,-5.346c-0.627,-1.347 -1.941,-2.218 -3.191,-3.02c-2.54,-1.629 -5.08,-3.258 -7.621,-4.886c-1.783,-1.143 -3.589,-2.306 -5,-3.885c-6.611,-7.402 -10.338,-22.224 -22.623,-10.561z"/>
    <path id="svg_49" fill="#CE8111"
          d="m147.38536,425.62996c-5.719,11.303 -5.683,25.34 0.094,36.613c1.575,3.073 3.605,6.003 6.424,7.998c1.906,1.349 4.103,2.223 6.316,2.966c5.824,1.954 11.925,3.081 18.062,3.336c2.192,0.091 4.455,0.059 6.479,-0.786c3.52,-1.468 5.612,-5.041 7.437,-8.39c5.188,-9.526 10.235,-19.128 15.138,-28.804c1.825,-3.602 3.678,-7.664 2.523,-11.533c-0.636,-2.131 -2.119,-3.896 -3.652,-5.505c-7.018,-7.364 -20.083,-17.165 -30.854,-17.098c-11.344,0.072 -23.247,11.875 -27.967,21.203z"/>
    <path id="svg_50" fill="#CE8111"
          d="m204.40936,402.55096c0.076,0.689 0.54,1.264 0.985,1.795c7.163,8.55 14.327,17.1 21.49,25.65c0.622,0.742 1.269,1.505 2.137,1.932c1.629,0.802 3.568,0.238 5.29,-0.337c6.701,-2.238 13.401,-4.476 20.102,-6.713c2.735,-0.913 5.629,-1.935 7.418,-4.197c1.372,-1.735 1.902,-3.974 2.318,-6.147c0.903,-4.714 1.442,-9.498 1.613,-14.295c0.083,-2.34 -0.011,-4.927 -1.6,-6.646c-1.816,-1.964 -4.844,-2.035 -7.518,-1.965c-7.184,0.188 -53.89,-4.146 -52.235,10.923z"/>
    <path id="svg_51" fill="#CE8111"
          d="m274.28336,432.14996c-0.023,0.985 0.302,1.942 0.633,2.87c3.456,9.697 7.953,19.022 13.389,27.764c0.723,1.162 1.629,2.426 2.984,2.615c0.98,0.136 1.931,-0.34 2.806,-0.802c6.966,-3.675 13.933,-7.349 20.899,-11.024c3.331,-1.757 6.762,-3.595 9.104,-6.543c4.361,-5.489 3.884,-13.255 3.19,-20.231c-0.499,-5.015 -1.48,-10.803 -5.878,-13.263c-5.509,-3.08 -23.124,-3.572 -29.673,-2.581c-7.617,1.153 -17.276,13.521 -17.454,21.195z"/>
    <path id="svg_52" fill="#CE8111"
          d="m311.47436,400.06796c1.331,0.707 2.877,0.863 4.377,1.007c12.102,1.156 24.204,2.312 36.306,3.468c0.876,0.084 1.807,0.157 2.59,-0.244c0.884,-0.453 1.376,-1.406 1.791,-2.309c4.672,-10.161 6.659,-21.541 5.707,-32.684c-4.979,1.429 -9.957,2.859 -14.935,4.288c-3.367,0.967 -6.739,1.935 -10.017,3.17c-4.886,1.84 -9.536,4.261 -14.402,6.152c-3.923,1.525 -12.674,1.942 -14.925,5.578c-1.972,3.18 0.434,9.943 3.508,11.574z"/>
    <path id="svg_53" fill="#CE8111"
          d="m344.62636,427.90796c-0.646,1.414 -0.863,2.982 -1.034,4.528c-1.155,10.466 -0.492,21.13 1.952,31.372c0.189,0.791 0.422,1.635 1.049,2.153c0.571,0.472 1.353,0.574 2.09,0.65c6.27,0.644 12.6,0.71 18.883,0.195c0.928,-0.076 1.906,-0.183 2.656,-0.734c0.886,-0.651 1.262,-1.772 1.589,-2.822c2.932,-9.422 5.865,-18.845 8.798,-28.268c0.341,-1.094 0.675,-2.313 0.185,-3.349c-0.403,-0.853 -1.271,-1.371 -2.09,-1.838c-3.078,-1.755 -6.155,-3.509 -9.234,-5.265c-6.88,-3.922 -20.651,-5.799 -24.844,3.378z"/>
    <path id="svg_54" fill="#CE8111"
          d="m434.59836,433.19796c0.932,7.917 2.272,15.785 4.013,23.564c0.382,1.708 0.875,3.556 2.28,4.599c0.903,0.67 2.05,0.898 3.16,1.077c4.321,0.697 8.72,0.914 13.088,0.645c1.803,-0.111 3.716,-0.349 5.116,-1.49c1.084,-0.882 1.715,-2.191 2.293,-3.463c3.658,-8.058 6.522,-16.475 8.537,-25.092c-0.662,2.83 -20.653,-10.086 -22.279,-10.581c-5.994,-1.825 -17.087,3.281 -16.208,10.741z"/>
    <path id="svg_55" fill="#CE8111"
          d="m388.59236,466.96196c-0.517,1.036 -0.36,2.268 -0.178,3.412c0.828,5.181 1.94,10.316 3.329,15.375c0.417,1.519 0.972,3.18 2.343,3.956c0.892,0.505 1.968,0.532 2.993,0.546c5.225,0.07 10.45,0.141 15.674,0.211c0.318,0.004 0.649,0.006 0.934,-0.133c0.617,-0.3 0.769,-1.094 0.845,-1.775c0.581,-5.171 1.864,-10.713 1.788,-15.91c-0.113,-7.713 -0.071,-5.792 -7.032,-8.602c-6.228,-2.513 -16.299,-5.891 -20.696,2.92z"/>
    <path id="svg_56" fill="#CE8111"
          d="m184.18936,496.96796c-0.711,0.263 -1.463,0.576 -1.875,1.212c-0.465,0.717 -0.377,1.646 -0.266,2.493c1.23,9.37 3.149,18.65 5.737,27.739c0.958,3.365 2.445,7.167 5.781,8.221c1.428,0.451 2.967,0.299 4.456,0.142c4.709,-0.496 9.419,-0.991 14.128,-1.487c1.569,-0.165 3.258,-0.383 4.406,-1.465c0.882,-0.832 1.29,-2.036 1.665,-3.189c2.226,-6.837 4.453,-13.675 6.679,-20.512c0.611,-1.877 1.217,-3.957 0.436,-5.771c-0.574,-1.334 -1.798,-2.26 -3.005,-3.068c-12.574,-8.426 -23.511,-9.725 -38.142,-4.315z"/>
    <path id="svg_57" fill="#CE8111"
          d="m126.05136,491.70096c-0.491,0.347 -0.991,0.732 -1.24,1.279c-0.3,0.66 -0.179,1.425 -0.053,2.138c1.249,7.056 2.497,14.112 3.745,21.168c0.215,1.212 0.563,2.605 1.683,3.115c0.743,0.338 1.607,0.17 2.405,-0.004c3.708,-0.81 7.416,-1.62 11.124,-2.431c0.823,-0.18 1.68,-0.375 2.336,-0.904c0.889,-0.716 1.235,-1.894 1.523,-2.999c1.639,-6.284 2.93,-12.659 3.865,-19.086c0.155,-1.067 0.277,-2.247 -0.326,-3.141c-0.442,-0.657 -1.195,-1.027 -1.927,-1.329c-7.913,-3.276 -16.163,-2.726 -23.135,2.194z"/>
    <path id="svg_58" fill="#CE8111"
          d="m254.52736,491.89296c3.611,-3.832 7.221,-7.664 10.832,-11.496c2.678,-2.842 5.494,-5.969 5.942,-9.848c0.859,-7.419 -7.058,-12.921 -8.81,-20.181c-0.237,-0.981 -0.385,-2.046 -1.057,-2.799c-1.319,-1.477 -3.71,-0.902 -5.566,-0.212c-7.739,2.88 -28.02,6.223 -25.337,17.276c0.949,3.908 24.789,26.418 23.996,27.26z"/>
    <path id="svg_59" fill="#CE8111"
          d="m305.27736,495.26796c2.043,4.766 4.43,9.384 7.136,13.808c0.582,0.951 1.27,1.965 2.341,2.274c0.726,0.209 1.502,0.052 2.241,-0.107c4.835,-1.036 9.874,-2.168 13.687,-5.316c4.251,-3.509 6.34,-9.061 7.039,-14.528c0.421,-3.288 0.341,-6.854 -1.492,-9.615c-2.514,-3.786 -7.457,-4.94 -11.922,-5.789c-5.29,2.409 -10.58,4.817 -15.871,7.227c-4.762,2.169 -5.007,7.737 -3.159,12.046z"/>
    <path id="svg_60" fill="#CE8111"
          d="m434.25136,486.27196c-0.763,0.259 -1.557,0.574 -2.053,1.209c-0.57,0.73 -0.628,1.724 -0.662,2.649c-0.391,10.556 -0.781,21.113 -1.172,31.669c-0.019,0.525 -0.023,1.101 0.308,1.51c0.325,0.401 0.875,0.521 1.382,0.616c6.524,1.226 13.048,2.451 19.573,3.677c0.849,0.159 1.784,0.305 2.528,-0.134c0.832,-0.491 1.126,-1.533 1.349,-2.473c1.535,-6.482 3.07,-12.963 4.606,-19.445c0.399,-1.686 0.801,-3.424 0.527,-5.135c-0.316,-1.975 -1.497,-3.695 -2.732,-5.268c-7.016,-8.934 -12.466,-12.665 -23.654,-8.875z"/>
    <path id="svg_61" fill="#CE8111"
          d="m158.08436,540.40796c-0.912,0.019 -1.857,0.067 -2.665,0.49c-1.541,0.807 -2.117,2.683 -2.548,4.368c-1.839,7.187 -3.677,14.374 -5.516,21.561c-0.222,0.868 -0.446,1.771 -0.274,2.651c0.169,0.867 0.702,1.613 1.234,2.318c4.02,5.341 8.71,10.178 13.924,14.361c3.997,-5.283 7.994,-10.565 11.992,-15.848c3.458,-4.57 7.098,-10.339 4.89,-15.628c-1.193,-2.856 -3.87,-4.809 -5.491,-7.445c-0.833,-1.354 -1.384,-2.884 -2.36,-4.14c-2.71,-3.483 -9.353,-2.768 -13.186,-2.688z"/>
    <path id="svg_62" fill="#CE8111"
          d="m393.55736,529.31696c1.41,2.68 2.821,5.36 4.232,8.04c1.263,2.4 2.795,5.026 5.405,5.764c1.63,0.461 3.363,0.074 5.023,-0.264c5.078,-1.033 10.252,-1.595 15.433,-1.676c-1.854,-8.48 -6.895,-29.286 -16.878,-29.588c-8.641,-0.26 -17.218,10.118 -13.215,17.724z"/>
    <path id="svg_63" fill="#CE8111"
          d="m164.45336,596.78696c-1.161,1.367 -2.295,2.828 -2.78,4.554c-0.379,1.347 -0.339,2.774 -0.23,4.169c0.343,4.42 1.34,8.79 2.948,12.922c0.21,0.539 0.52,1.151 1.091,1.246c0.593,0.098 1.092,-0.418 1.471,-0.885c4.337,-5.352 21.078,-20.243 18.927,-27.114c-3.957,-12.64 -17.713,0.734 -21.427,5.108z"/>
    <path id="svg_64" fill="#CE8111"
          d="m150.66336,628.56696c-2.511,-1.29 -5.565,1.447 -5.706,4.266c-0.142,2.82 1.56,5.362 3.188,7.667c2.114,2.993 4.228,5.986 6.343,8.98c0.615,0.871 1.393,1.833 2.46,1.847c0.422,0.005 0.828,-0.145 1.222,-0.294c0.536,-0.202 1.072,-0.403 1.609,-0.605c1.723,-0.648 3.59,-1.419 4.451,-3.046c1.139,-2.153 0.024,-4.759 -1.084,-6.928c-1.553,-3.039 -3.162,-6.153 -5.709,-8.424c-2.548,-2.271 -6.283,-3.542 -9.448,-2.265l2.674,-1.198z"/>
    <path id="svg_65" fill="#CE8111"
          d="m457.93736,543.09096c-1.362,1.226 -2.771,2.518 -3.428,4.229c-1.054,2.746 0.077,5.8 1.232,8.504c2.027,4.749 4.16,9.452 6.397,14.105c0.326,0.678 0.691,1.396 1.348,1.763c0.701,0.393 1.564,0.293 2.36,0.181c4.066,-0.57 8.132,-1.141 12.197,-1.711c0.768,-0.108 1.59,-0.24 2.154,-0.774c0.633,-0.6 0.771,-1.542 0.866,-2.41c0.734,-6.69 4.705,-29.397 -0.902,-33.921c-7.447,-6.008 -17.915,6.157 -22.224,10.034z"/>
    <path id="svg_66" fill="#CE8111"
          d="m462.03236,592.36396c-4.868,-2.398 -11.551,0.421 -13.231,5.581c-0.838,2.572 -0.544,5.361 -0.889,8.044c-0.249,1.934 -0.833,3.836 -0.806,5.786c0.027,1.95 0.844,4.067 2.609,4.896c3.081,1.447 6.243,-1.716 8.188,-4.51c2.292,-3.292 4.585,-6.583 6.877,-9.875c1.19,-1.709 2.435,-3.61 2.253,-5.684c-0.182,-2.075 -2.652,-3.949 -4.365,-2.765l-0.636,-1.473z"/>
    <path id="svg_67" fill="#CE8111"
          d="m222.91936,619.64196c-0.488,0.409 -0.991,0.835 -1.269,1.407c-0.32,0.657 -0.305,1.421 -0.272,2.151c0.274,6.167 1.314,12.3 3.088,18.213c0.391,1.304 0.926,2.728 2.145,3.335c0.601,0.3 1.291,0.353 1.961,0.402c4.504,0.327 9.007,0.654 13.51,0.98c-2.497,-0.181 -4.22,-28.072 -4.26,-30.989c-0.066,-4.797 0.765,-6.326 -3.866,-4.465c-3.95,1.588 -7.842,6.292 -11.037,8.966z"/>
    <path id="svg_68" fill="#CE8111"
          d="m220.94836,664.44496c0.488,1.411 1.023,2.894 2.168,3.851c1.01,0.845 2.351,1.157 3.641,1.423c3.955,0.813 7.951,1.431 11.967,1.851c0.18,-2.901 0.357,-5.839 -0.198,-8.692c-1.947,-10.003 -12.58,-11.841 -20.727,-8.177c0.56,3.27 2.054,6.573 3.149,9.744z"/>
    <path id="svg_69" fill="#CE8111"
          d="m388.50336,622.17196c0.273,1.089 0.592,2.229 1.389,3.019c1.224,1.214 3.159,1.235 4.882,1.173c3.47,-0.124 7.322,-0.434 9.687,-2.975c0.91,-0.977 1.505,-2.202 2.023,-3.433c1.766,-4.196 2.793,-8.703 3.019,-13.25c0.042,-0.845 0.044,-1.743 -0.389,-2.471c-2.502,-4.207 -15.954,-5.156 -19.965,-2.608c-6.333,4.022 -2.078,14.822 -0.646,20.545z"/>
    <path id="svg_70" fill="#CE8111"
          d="m414.26536,622.28396c-0.795,2.082 -0.769,4.374 -0.733,6.602c0.05,3.109 0.1,6.219 0.151,9.328c0.019,1.166 0.047,2.371 0.54,3.427c1.351,2.89 5.249,3.243 8.439,3.181c0.864,-0.017 1.816,-0.068 2.441,-0.665c0.586,-0.56 0.71,-1.436 0.793,-2.242c0.757,-7.362 3.203,-22.19 -0.678,-28.531c-4.087,2.067 -9.185,4.268 -10.953,8.9z"/>
    <path id="svg_71" fill="#CE8111"
          d="m398.95636,671.62596c0.274,0.788 0.578,1.619 1.23,2.139c0.6,0.479 1.404,0.614 2.172,0.635c7.684,0.203 15.68,-12.297 7.411,-17.002c-9.953,-5.662 -13.215,7.32 -10.813,14.228z"/>
    <path id="svg_72" fill="#9B5D51"
          d="m4.33436,684.46596c17.981,-1.505 35.348,-9.518 48.163,-22.221c15.511,-15.376 30.789,-46.061 18.989,-67.397c-1.751,-3.167 -3.858,-5.485 -6.191,-7.088c0.453,1.319 0.785,2.683 0.996,4.054c0.705,4.584 0.203,9.266 -0.543,13.844c-3.704,22.731 -14.056,45.093 -32.095,59.411c1.551,-2.717 2.656,-5.688 3.26,-8.757c-4.113,5.366 -8.744,10.335 -13.807,14.816c5.629,-9.2 8.566,-20.026 8.359,-30.809c-1.545,5.246 -4.475,10.078 -8.412,13.873c0.142,-3.238 0.23,-6.479 0.276,-9.72c-0.867,8.604 -3.552,17.154 -10.16,22.458c3.128,-1.059 5.929,-3.065 7.938,-5.686c0.829,5.026 -1.322,10.188 -4.646,14.048c-3.325,3.857 -7.723,6.616 -12.127,9.174z"/>
    <g id="svg_73">
        <path id="svg_74" fill="#9B5D51"
              d="m405.20936,27.50496c13.355,2.162 19.981,16.205 16.55,28.507c-0.488,1.749 2.339,2.497 2.698,0.744c2.414,-11.796 -5.409,-29.416 -19.215,-29.501c-0.138,0 -0.178,0.227 -0.033,0.25l0,0z"/>
    </g>
    <g id="svg_75">
        <path id="svg_76" fill="#9B5D51"
              d="m415.59236,22.64096c8.674,4.303 15.062,15.427 15.256,24.965c0.009,0.467 0.693,0.461 0.721,0c0.563,-9.362 -6.906,-21.992 -15.911,-25.12c-0.091,-0.031 -0.153,0.112 -0.066,0.155l0,0z"/>
    </g>
    <g id="svg_77">
        <path id="svg_78" fill="#9B5D51"
              d="m430.84936,31.56596c1.792,4.158 2.593,8.275 2.653,12.791c0.005,0.387 0.563,0.376 0.594,0c0.37,-4.505 -0.732,-9.05 -2.99,-12.941c-0.099,-0.169 -0.33,-0.02 -0.257,0.15l0,0z"/>
    </g>
    <g id="svg_79">
        <path id="svg_80" fill="#9B5D51"
              d="m441.96636,18.85996c2.312,4.438 3.314,8.916 3.295,13.948c-0.018,4.81 -1.61,9.165 -2.466,13.826c-0.176,0.958 0.983,1.448 1.55,0.653c4.947,-6.937 5.482,-23.178 -2.119,-28.688c-0.165,-0.12 -0.341,0.107 -0.26,0.261l0,0z"/>
    </g>
    <g id="svg_81">
        <path id="svg_82" fill="#9B5D51"
              d="m451.74636,25.59396c1.273,7.177 0.659,13.731 -1.844,20.556c-0.123,0.336 0.425,0.569 0.581,0.245c3.124,-6.469 3.636,-14.024 1.426,-20.846c-0.033,-0.106 -0.181,-0.062 -0.163,0.045l0,0z"/>
    </g>
    <g id="svg_83">
        <path id="svg_84" fill="#9B5D51"
              d="m457.37636,31.89796c0.053,4.608 -0.978,8.655 -2.1,13.059c-0.15,0.589 0.711,0.995 1.007,0.425c2.117,-4.066 2.309,-9.11 1.467,-13.534c-0.04,-0.214 -0.376,-0.161 -0.374,0.05l0,0z"/>
    </g>
    <g id="svg_85">
        <path id="svg_86" fill="#9B5D51"
              d="m464.04336,26.79396c1.342,4.347 2.019,8.257 1.078,12.792c-0.807,3.889 -2.573,7.466 -3.645,11.276c-0.188,0.668 0.776,1.083 1.124,0.474c3.871,-6.787 7.187,-17.871 1.797,-24.748c-0.134,-0.171 -0.413,0.015 -0.354,0.206l0,0z"/>
    </g>
    <path id="svg_87" fill="#CE8111"
          d="m374.98136,67.59896c2.017,-0.816 4.233,-1.26 6.381,-0.917c2.148,0.343 4.216,1.549 5.288,3.442c0.179,0.316 0.337,0.657 0.615,0.892c0.278,0.234 0.723,0.322 0.996,0.083c0.117,-0.103 0.186,-0.25 0.235,-0.398c0.281,-0.852 -0.016,-1.785 -0.417,-2.587c-1.432,-2.86 -4.295,-4.957 -7.453,-5.459c-0.646,-0.103 -1.306,-0.142 -1.953,-0.045c-1.861,0.279 -3.949,1.826 -5.236,3.15c-1.774,1.824 -0.8,2.787 1.544,1.839z"/>
    <path id="svg_88" fill="#CE8111"
          d="m442.61836,73.87496c3.555,0.822 6.919,3.261 7.969,6.756c0.237,0.789 0.392,1.676 1.025,2.204c0.961,0.802 2.551,0.232 3.195,-0.841c0.643,-1.073 0.578,-2.422 0.371,-3.656c-0.323,-1.926 -0.957,-3.829 -2.092,-5.417c-2.805,-3.928 -8.106,-5.226 -12.931,-5.107c-2.094,0.052 -4.214,0.322 -6.136,1.154c-1.401,0.606 -6.901,4.798 -3.217,5.654c1.5,0.349 4.228,-0.871 5.791,-1.027c2.01,-0.201 4.049,-0.177 6.025,0.28z"/>
    <path id="svg_89" fill="#FFFFFF" opacity="0.3"
          d="m359.01136,12.73496c-1.476,1.442 -2.778,3.272 -2.808,5.335c-0.03,2.063 1.721,4.216 3.766,3.944c0.47,-0.063 0.93,-0.25 1.274,-0.577c0.442,-0.42 0.653,-1.021 0.853,-1.598c0.733,-2.119 1.575,-4.318 3.27,-5.787c1.234,-1.07 2.807,-1.649 4.203,-2.497c0.635,-0.385 1.26,-0.859 1.565,-1.536c1.333,-2.971 -4.154,-2.522 -5.641,-1.94c-2.27,0.888 -4.769,2.982 -6.482,4.656z"/>
    <path id="svg_90" fill="#FFFFFF" opacity="0.3"
          d="m495.60936,15.90996c-1.421,0.479 -2.834,1.231 -3.633,2.501c-0.874,1.39 -0.825,3.317 0.162,4.63c0.986,1.313 2.861,1.895 4.4,1.324c0.913,-0.338 1.656,-1.016 2.512,-1.48c2.856,-1.546 6.519,-0.44 9.042,1.605c0.41,0.332 0.937,0.711 1.415,0.486c0.17,-0.08 0.298,-0.226 0.409,-0.378c2.029,-2.79 -0.975,-6.463 -3.302,-8.008c-3.01,-1.997 -7.735,-1.783 -11.005,-0.68z"/>
    <path id="svg_91" fill="#FFFFFF" opacity="0.36"
          d="m186.14736,408.70196c-11.137,6.302 -20.495,17.146 -21.643,29.891c-0.314,3.484 0.038,7.169 1.895,10.134c1.857,2.965 5.493,4.992 8.895,4.178c3.568,-0.854 5.781,-4.313 7.67,-7.458c4.072,-6.78 8.416,-13.499 14.128,-18.969c5.711,-5.47 12.962,-9.65 20.836,-10.382c7.784,-0.724 16.768,1.59 22.653,-3.556c1.117,-0.977 2.063,-2.248 2.27,-3.717c1.404,-10.002 -17.688,-12.117 -24.123,-10.901c-11.036,2.084 -22.765,5.225 -32.581,10.78z"/>
</svg>