<svg width="291" height="200" xmlns="http://www.w3.org/2000/svg">
 <g>
  <title>Layer 1</title>
  <path id="svg_345" fill="#FFC024" d="m282.55714,350.87662c6.89,9.095 -10.62,44.676 -15.224,54.925c-4.223,9.401 -13.442,14.371 -22.197,18.082c-7.61,3.226 -15.945,6.035 -23.758,3.497c-9.366,-3.043 -30.864,-9.686 -32.492,-20.295c-6.459,-42.094 -89.408,-270.432 -77.125,-302.938c1.873,-4.956 27.501,-6.312 31.541,-9.195c4.232,-3.021 9.714,-3.041 14.52,-1.446c10.043,3.334 35.69,19.178 35.449,30.761c-0.859,41.222 15.627,129.37 89.286,226.609z"/>
  <path id="svg_373" fill="#FFAD1D" d="m108.25814,71.97062c-10.236,-3.961 -19.063,-10.773 -28.432,-16.491c-9.368,-5.718 -19.961,-10.504 -30.904,-9.662c-10.291,0.792 -19.973,6.51 -30.274,5.848c-1.899,-0.122 -3.848,-0.457 -5.673,0.081c-1.825,0.538 -3.474,2.332 -3.043,4.186c0.436,1.876 2.56,2.699 4.27,3.586c4.307,2.235 7.209,6.39 10.257,10.167c7.919,9.813 17.901,17.954 29.105,23.738c9.46,4.884 20.076,8.124 30.681,7.186c11.435,-1.012 21.929,-6.766 31.203,-13.531c2.68,-1.955 5.43,-4.195 6.453,-7.35c3.15,-9.708 -8.714,-5.851 -13.643,-7.758z"/>
  <path id="svg_374" fill="#FFC8C7" d="m49.16214,84.32762c-3.381,-2.739 -6.282,-6.013 -9.165,-9.271c-4.436,-5.012 -8.872,-10.023 -13.307,-15.035c-0.439,-0.496 -0.906,-1.17 -0.61,-1.762c0.208,-0.414 0.707,-0.58 1.164,-0.663c3.283,-0.592 6.533,1.095 9.863,1.299c3.767,0.23 7.382,-1.443 11.133,-1.86c3.856,-0.429 7.741,0.483 11.417,1.726c5.285,1.786 10.445,4.352 14.281,8.403c3.836,4.051 6.188,9.775 5.21,15.267c-0.97,5.454 -6.518,11.516 -12.473,10.686c-5.91,-0.824 -12.983,-5.121 -17.513,-8.79z"/>
  <path id="svg_375" fill="#A86D5D" d="m99.35814,28.20562c9.605,-12.297 27.364,-17.484 42.078,-12.29c0.023,-1.276 0.045,-2.551 0.068,-3.827c13.612,0.036 27.087,6.268 35.929,16.617c2.87,-0.918 5.89,0.804 8.217,2.719c4.224,3.477 7.708,7.849 10.154,12.743c1.546,3.093 2.694,6.412 4.681,9.242c2.144,3.054 5.154,5.382 7.613,8.188c4.964,5.663 7.493,13.036 9.327,20.34c3.451,13.738 4.856,27.989 4.154,42.137c-15.333,1.31 -30.666,2.62 -45.999,3.93c-0.345,0.03 -0.704,0.057 -1.029,-0.066c-0.889,-0.337 -1.017,-1.52 -1.002,-2.47c0.177,-11.438 -0.283,-23.014 -3.365,-34.031c-3.082,-11.017 -8.995,-21.526 -18.106,-28.443c-5.187,-3.938 -11.33,-6.596 -17.734,-7.756c-5.8,-1.05 -8.337,-0.529 -10.848,-6.16c-2.424,-5.433 -4.724,-10.123 -9.368,-14.088c-1.453,-1.239 -12.993,-9.06 -14.77,-6.785z"/>
  <path id="svg_376" fill="#FFAD1D" d="m68.14614,19.30862c-0.392,-0.576 -0.81,-1.223 -0.705,-1.911c0.111,-0.725 0.761,-1.229 1.375,-1.63c2.787,-1.821 5.893,-3.155 9.134,-3.921c6.745,13.558 16.563,25.576 28.503,34.889c1.95,1.521 4.079,3.144 4.756,5.523c0.91,3.202 -1.159,6.471 -3.455,8.881c-7.282,7.646 -24.69,16.648 -25.821,0.456c-1.064,-15.204 -5.13,-29.569 -13.787,-42.287z"/>
  <path id="svg_377" fill="#FFC024" d="m89.93414,51.51862c-10.091,4.85 -16.652,15.085 -21.883,24.984c-3.146,5.955 -5.673,12.307 -9.792,17.636c-6.454,8.347 -16.177,13.399 -25.635,18.076s-19.26,9.456 -26.111,17.48c-6.851,8.024 -8.271,19.443 -4.38,29.25c12.837,32.354 44.666,33.754 52.61,33.184c39.367,-2.822 69.359,-18.412 100.344,-37.064c42.74,-25.729 36.023,-70.207 34.522,-75.508c-8.669,-30.616 -65.288,-44.565 -99.675,-28.038z"/>
  <path id="svg_378" fill="#A86D5D" d="m54.74314,192.13062c16.969,-1.216 32.195,-4.807 46.51,-9.99c0.962,-4.806 0.888,-9.854 0.326,-14.749c-1.562,-13.606 -6.979,-27.103 -16.911,-36.533c-4.628,-4.395 -10.12,-7.816 -15.911,-10.499c-7.297,-3.381 -15.193,-5.468 -23.197,-6.218c-6.149,-0.576 -12.304,-0.311 -18.271,0.736c-7.695,3.921 -15.21,8.299 -20.777,14.819c-6.851,8.024 -8.271,19.443 -4.38,29.25c12.838,32.353 44.666,33.753 52.611,33.184z"/>
  <path id="svg_379" fill="#A86D5D" d="m64.93714,25.67662c-2.903,0.846 -6.297,1.616 -8.736,-0.171c-2.536,-1.858 -2.729,-5.643 -1.784,-8.641c1.332,-4.223 4.382,-7.757 7.995,-10.318c3.613,-2.561 7.78,-4.229 11.987,-5.61c1.499,-0.492 3.04,-0.956 4.617,-0.936c3.501,0.044 6.725,2.676 7.766,6.019s0.006,7.166 -2.35,9.762c-4.688,5.163 -13.108,8.034 -19.495,9.895z"/>
  <path id="svg_380" fill="#FFC024" d="m202.88514,20.28362c1.872,1.771 3.743,3.542 5.615,5.312c-9.48,12.932 -17.089,27.233 -22.518,42.321c-1.984,5.515 -3.763,11.287 -7.524,15.782c-3.762,4.495 -10.172,7.398 -15.593,5.168c-7.267,-2.99 -9.476,-13.157 -8.474,-20.189c0.878,-6.159 5.68,-8.215 10.467,-11.377c14.886,-9.832 26.589,-23.518 38.027,-37.017z"/>
  <path id="svg_381" fill="#A86D5D" d="m189.69714,23.12862c0.498,2.755 1.85,5.283 3.374,7.632c1.983,3.055 4.331,5.935 7.309,8.031c2.979,2.096 6.649,3.359 10.271,2.97c1.359,-0.146 2.71,-0.529 3.859,-1.27c1.799,-1.16 2.96,-3.101 3.7,-5.109c2.19,-5.946 0.958,-13.022 -3.113,-17.878c-6.796,-8.108 -28.213,-9.933 -25.4,5.624z"/>
  <path id="svg_382" fill="#FFAD1D" d="m130.72614,72.71662c2.325,-2.074 5.463,-2.942 8.508,-3.601c3.991,-0.864 8.462,-1.4 11.896,0.81c3.466,2.23 4.85,6.697 4.815,10.819c-0.083,9.823 -7.465,19.119 -17.013,21.426c-18.037,4.358 -17.743,-20.946 -8.206,-29.454z"/>
  <path id="svg_383" fill="#FFAD1D" d="m67.55814,78.04562c-0.663,2.086 -1.267,4.246 -1.123,6.43c0.144,2.184 1.169,4.426 3.081,5.493c2.727,1.523 6.119,0.247 8.911,-1.153c3.126,-1.568 6.216,-3.308 8.753,-5.715c2.537,-2.407 4.502,-5.561 4.906,-9.035c0.419,-3.606 -0.967,-7.392 -3.662,-9.825c-10.276,-9.276 -18.221,5.485 -20.866,13.805z"/>
  <path id="svg_384" fill="#FFC024" d="m184.74614,83.80962c10.93,1.005 21.865,-1.171 32.799,-2.127c10.934,-0.955 22.55,-0.531 31.977,5.09c8.865,5.286 14.995,14.713 24.514,18.701c1.755,0.735 3.65,1.302 5.045,2.595c1.395,1.294 2.074,3.634 0.864,5.103c-1.225,1.486 -3.494,1.279 -5.419,1.313c-4.852,0.086 -9.299,2.518 -13.708,4.545c-11.457,5.267 -24.017,8.12 -36.626,8.318c-10.645,0.167 -21.595,-1.652 -30.676,-7.208c-9.792,-5.992 -16.632,-15.812 -21.931,-25.996c-1.531,-2.943 -2.998,-6.172 -2.511,-9.453c1.499,-10.096 10.409,-1.365 15.672,-0.881z"/>
  <path id="svg_385" fill="#FFC8C7" d="m230.54514,90.34762c10.19,2.708 18.54,11.719 28.756,14.285c0.81,0.203 1.657,0.379 2.332,0.942c0.675,0.562 1.116,1.65 0.758,2.524c-0.282,0.687 -0.939,1.024 -1.544,1.306c-2.92,1.361 -5.84,2.721 -8.76,4.082c-3.259,1.519 -6.546,3.047 -9.998,3.776c-6.224,1.315 -12.658,-0.041 -18.68,-2.304s-11.771,-5.42 -17.746,-7.849c-3.522,-1.431 -7.119,-2.608 -10.765,-3.522c-3.599,-0.902 -7.504,-1.702 -10.067,-4.792c-4.072,-4.909 3.806,-4.35 5.653,-4.353c4.49,-0.008 8.939,-0.872 13.34,-1.84c8.757,-1.927 17.822,-4.62 26.721,-2.255z"/>
  <path id="svg_386" fill="#6B470D" d="m10.02914,145.19862c-0.37,2.016 -0.362,4.382 1.146,5.77c0.38,0.35 0.895,0.624 1.4,0.512c0.566,-0.125 0.934,-0.708 1.009,-1.282c0.075,-0.575 -0.078,-1.151 -0.205,-1.717c-0.888,-3.947 -0.554,-8.159 0.942,-11.917c-2.51,2.075 -3.691,5.355 -4.292,8.634z"/>
  <path id="svg_387" fill="#6B470D" d="m26.18914,146.72162c-0.37,2.016 -0.362,4.382 1.146,5.77c0.38,0.35 0.895,0.624 1.4,0.512c0.566,-0.125 0.934,-0.708 1.009,-1.282s-0.078,-1.151 -0.205,-1.717c-0.888,-3.947 -0.554,-8.159 0.942,-11.917c-2.51,2.075 -3.691,5.355 -4.292,8.634z"/>
  <path id="svg_388" fill="#A86D5D" d="m117.50914,43.73062c0.598,3.07 0.477,6.242 1.001,9.326c0.271,1.595 0.819,3.308 2.19,4.161c0.913,0.568 2.045,0.652 3.117,0.579c3.581,-0.244 5.74,-3.113 8.97,-4.682c7.881,-3.827 14.922,-4.649 26.189,-2.292c0.3,0.063 0.897,-1.325 1.15,-1.498c0.251,-0.171 0.322,-0.506 0.358,-0.808c0.194,-1.627 -0.004,-3.299 -0.572,-4.836c-0.675,-1.826 -1.845,-3.421 -3.036,-4.961c-1.964,-2.538 -4.034,-5.011 -6.423,-7.153c-5.268,-4.724 -12.004,-7.707 -18.993,-8.768s-14.214,-0.236 -20.906,2.047c-1.03,0.351 -5.888,2.103 -5.516,3.789c0.132,0.599 1.732,0.925 2.23,1.18c1.057,0.541 2.053,1.247 2.976,1.991c3.691,2.979 6.355,7.254 7.265,11.925z"/>
  <path id="svg_389" fill="#FFAD1D" d="m181.73814,111.23462c3.12,4.069 9.779,6.416 15.595,10.974c-2.085,8.506 -2.665,22.736 -2.271,31.398c-0.583,-1.851 -12.25,-24.839 -17.478,-30.568c-4.211,-4.614 -7.492,-10.072 -9.593,-15.954c-1.042,-2.919 -1.801,-5.972 -1.846,-9.071c-0.055,-3.739 0.927,-7.759 3.013,-10.894c0.889,3.754 1.118,7.095 2.752,10.684c2.204,4.844 6.384,9.341 9.828,13.431z"/>
  <path id="svg_404" fill="#CE8111" d="m76.70814,65.81262c2.017,-0.816 4.233,-1.26 6.381,-0.917c2.149,0.343 4.216,1.549 5.288,3.442c0.179,0.316 0.337,0.658 0.615,0.892c0.277,0.234 0.723,0.322 0.996,0.083c0.117,-0.103 0.186,-0.25 0.235,-0.398c0.281,-0.852 -0.016,-1.785 -0.417,-2.587c-1.432,-2.86 -4.295,-4.957 -7.453,-5.459c-0.646,-0.103 -1.306,-0.142 -1.953,-0.045c-1.861,0.279 -3.949,1.826 -5.236,3.15c-1.774,1.825 -0.8,2.787 1.544,1.839z"/>
  <path id="svg_405" fill="#CE8111" d="m144.34514,72.08862c3.555,0.822 6.919,3.261 7.969,6.756c0.237,0.789 0.392,1.676 1.025,2.204c0.961,0.801 2.551,0.232 3.195,-0.841c0.643,-1.073 0.578,-2.422 0.371,-3.656c-0.323,-1.926 -0.957,-3.829 -2.092,-5.417c-2.806,-3.927 -8.106,-5.225 -12.931,-5.107c-2.094,0.052 -4.214,0.322 -6.136,1.154c-1.401,0.607 -6.901,4.798 -3.217,5.654c1.5,0.349 4.228,-0.871 5.791,-1.027c2.01,-0.201 4.049,-0.176 6.025,0.28z"/>
  <path id="svg_406" fill="#FFFFFF" opacity="0.3" d="m60.73814,10.94862c-1.476,1.442 -2.778,3.272 -2.808,5.335c-0.03,2.063 1.721,4.216 3.766,3.943c0.47,-0.063 0.93,-0.25 1.274,-0.577c0.442,-0.42 0.653,-1.022 0.853,-1.598c0.733,-2.12 1.575,-4.318 3.27,-5.787c1.234,-1.069 2.807,-1.649 4.203,-2.497c0.635,-0.385 1.26,-0.859 1.564,-1.536c1.333,-2.971 -4.154,-2.522 -5.641,-1.94c-2.269,0.889 -4.768,2.983 -6.481,4.657z"/>
  <path id="svg_407" fill="#FFFFFF" opacity="0.3" d="m197.33614,14.12462c-1.421,0.479 -2.834,1.231 -3.633,2.501c-0.874,1.39 -0.825,3.317 0.162,4.63c0.986,1.313 2.861,1.895 4.4,1.324c0.913,-0.338 1.656,-1.016 2.512,-1.479c2.856,-1.547 6.519,-0.44 9.042,1.604c0.41,0.332 0.937,0.711 1.415,0.486c0.17,-0.08 0.298,-0.226 0.409,-0.378c2.029,-2.79 -0.975,-6.463 -3.302,-8.008c-3.01,-1.997 -7.735,-1.783 -11.005,-0.68z"/>
  <path id="svg_408" fill="#6B470D" d="m71.54114,84.48362c0.77,0.189 1.526,0.462 2.195,0.887c1.732,1.1 2.728,3.256 2.445,5.288c1.262,-2.555 2.001,-5.367 2.157,-8.212c0.057,-1.035 0.031,-2.103 -0.362,-3.063c-0.92,-2.245 -3.741,-3.286 -6.104,-2.734s-4.259,2.36 -5.568,4.403c-1.755,2.739 -2.74,6.133 -2.518,9.393c1.171,-4.158 2.539,-7.244 7.755,-5.962z"/>
  <path id="svg_409" fill="#6B470D" d="m131.05714,85.02262c4.857,-1.55 10.761,-0.311 13.854,3.737c2.267,2.967 2.775,6.997 2.102,10.668c-0.673,3.671 -2.41,7.055 -4.291,10.28c0.9,-5.142 -0.36,-11.235 -4.869,-13.878c-2.159,-1.266 -4.766,-1.558 -7.265,-1.41c-4.304,0.254 -7.959,1.821 -11.629,3.943c0.752,-6.022 6.482,-11.548 12.098,-13.34z"/>
  <path id="svg_410" fill="#FFFFFF" d="m19.20414,169.56862c3.35,0.988 6.955,1.499 10.328,0.593c3.374,-0.905 6.458,-3.46 7.224,-6.868c-0.407,4.416 -1.373,8.979 -4.151,12.437c-2.778,3.457 -7.791,5.44 -11.815,3.577c-1.663,-0.77 -3.002,-2.095 -4.195,-3.487c-3.825,-4.463 -6.508,-9.896 -7.727,-15.645c1.058,4.992 5.807,8.058 10.336,9.393z"/>
 </g>

</svg>