<svg width="680" height="630" xmlns="http://www.w3.org/2000/svg" viewBox="0 0 680 630">

    <path id="svg_342" fill="#FFC024"
          d="m525.46014,426.67662c7.289,10.897 12.336,23.124 18.942,34.448c6.607,11.324 15.243,22.109 27.154,27.587c9.14,4.203 19.511,4.948 29.554,4.364c0.235,2.195 0.469,4.391 0.704,6.587c-18.743,4.03 -40.288,2.685 -54.295,-10.406c-6.575,-6.146 -10.862,-14.282 -15.223,-22.155c-3.94,-7.113 -8.037,-14.139 -12.287,-21.072c-2.022,-3.299 -4.129,-6.634 -7.091,-9.123c-4.432,-3.724 -10.29,-5.169 -15.458,-7.776c-7.108,-3.586 -32.445,-34.601 -15.216,-36.859c7.49,-0.982 17.772,8.164 23.055,12.42c7.772,6.262 14.611,13.688 20.161,21.985z"/>
    <path id="svg_343" fill="#F9A51E"
          d="m206.13114,451.64662c-10.136,11.823 -109.965,58.914 -116.642,66.596s-9.213,19.993 -2.922,27.994c8.055,10.246 23.956,7.693 36.499,4.151c28.927,-8.168 57.892,-16.349 86.066,-26.824c8.798,-3.271 17.684,-6.865 24.855,-12.921c7.171,-6.057 12.462,-15.05 11.845,-24.416c-3.547,-53.838 -25.467,-51.182 -39.701,-34.58z"/>
    <ellipse id="svg_344" fill="#A2BC5C" ry="30.677" rx="295.962" cy="580.99462" cx="303.95014"/>
    <path id="svg_345" fill="#FFC024"
          d="m282.55714,350.87662c6.89,9.095 -10.62,44.676 -15.224,54.925c-4.223,9.401 -13.442,14.371 -22.197,18.082c-7.61,3.226 -15.945,6.035 -23.758,3.497c-9.366,-3.043 -30.864,-9.686 -32.492,-20.295c-6.459,-42.094 -89.408,-270.432 -77.125,-302.938c1.873,-4.956 27.501,-6.312 31.541,-9.195c4.232,-3.021 9.714,-3.041 14.52,-1.446c10.043,3.334 35.69,19.178 35.449,30.761c-0.859,41.222 15.627,129.37 89.286,226.609z"/>
    <path id="svg_346" fill="#FFC024"
          d="m336.73514,376.64962c34.706,8.406 70.778,6.32 106.377,6.849c18.314,0.272 38.095,1.83 52.075,14.359c12.839,11.507 24.986,60.886 26.937,78.578c2.512,22.778 -6.749,16.598 -20.017,34.724c-17.394,23.764 -48.433,30.08 -76.735,32.488c-29.908,2.545 -60.002,2.631 -89.923,0.258c-37.33,-2.961 -77.48,12.002 -105.33,-14.488c-19.547,-18.593 -30.643,-67.664 -36.749,-94.726s-6.755,-55.146 -6.62,-82.969c0.093,-19.14 3.335,-42.689 20.313,-49.267c23.697,-9.178 49.584,22.034 63.386,37.104c17.631,19.247 41.854,31.172 66.286,37.09z"/>
    <path id="svg_347" fill="#FFAD1D"
          d="m398.34814,534.18562c-50.529,5.608 -63.271,2.591 -80.005,-12.564c-10.535,-9.541 -37.941,-31.927 -41.404,-45.712c-4.89,19.041 -15.542,30.287 -33.22,38.886c12.293,14.231 2.881,24.056 20.977,29.172c18.096,5.117 53.647,10.119 79.264,10.681c33.555,0.736 71.247,5.65 103.194,-4.641c8.05,-2.593 16.48,-6.78 19.809,-14.555c4.334,-10.124 -1.665,-21.364 -6.399,-31.308c-6.237,-13.102 -10.494,-27.144 -12.579,-41.504c-1.679,-11.556 -13.003,-6.708 -8.021,1.148c-8.912,1.521 -10.802,-4.784 -29.38,8.669c-25.525,18.485 -21.918,49.414 -12.236,61.728z"/>
    <path id="svg_348" fill="#FFAD1D"
          d="m118.93214,164.25562c5.78,22.802 7.875,33.377 15.122,56.508c4.503,-3.724 47.597,-39.995 44.561,-77.906c-6.446,18.563 -35.395,20.59 -59.683,21.398z"/>
    <path id="svg_349" fill="#A86D5D"
          d="m612.10814,476.83362c7.679,-0.944 15.295,1.58 22.898,3.013c7.603,1.433 16.225,1.534 22.199,-3.382c-1.253,2.129 -3.15,3.872 -5.376,4.943c3.553,1.375 7.661,0.589 10.995,-1.255c3.334,-1.844 6.026,-4.642 8.573,-7.476c-3.85,12.935 -12.372,24.426 -23.631,31.867c-13.629,9.007 -38.43,15.503 -52.249,3.602c-13.791,-11.877 2.764,-29.613 16.591,-31.312z"/>
    <path id="svg_350" fill="#9B5D51"
          d="m671.39714,472.67662c-3.851,12.935 -12.372,24.426 -23.631,31.867c-13.629,9.007 -38.43,15.503 -52.249,3.602c-2.051,-1.766 -3.426,-3.663 -4.243,-5.616c0.896,0.534 1.844,0.985 2.816,1.349c3.249,1.217 6.754,1.565 10.219,1.719c17.209,0.762 35.164,-3.399 48.404,-14.419c-2.226,0.72 -4.57,1.076 -6.91,1.048c4.557,-2.192 8.903,-4.823 12.958,-7.845c-7.597,2.715 -15.972,3.211 -23.835,1.412c4.077,-0.329 8.063,-1.736 11.444,-4.039c-2.393,-0.391 -4.779,-0.822 -7.159,-1.284c6.432,0.681 13.102,0.021 17.996,-4.006c-1.254,2.129 -3.15,3.872 -5.376,4.943c3.553,1.375 7.661,0.589 10.995,-1.255c3.332,-1.844 6.025,-4.642 8.571,-7.476z"/>
    <path id="svg_351" fill="#CE8111"
          d="m177.60314,163.58062c1.286,0.551 2.579,1.238 3.403,2.369c0.932,1.278 1.134,2.929 1.306,4.501c1.357,12.371 2.713,24.741 4.07,37.112c0.168,1.537 0.337,3.098 0.083,4.624c-0.94,5.656 -6.98,8.724 -12.281,10.908c-4.228,1.742 -9.253,3.437 -13.14,1.029c-1.565,-0.969 -2.697,-2.487 -3.76,-3.99c-6.374,-9.008 -11.658,-18.785 -15.703,-29.052c-0.75,-1.905 -1.47,-3.912 -1.256,-5.948c0.279,-2.653 2.077,-4.867 3.841,-6.869c3.259,-3.701 6.662,-7.274 10.2,-10.71c6.843,-6.647 14.391,-7.762 23.237,-3.974z"/>
    <path id="svg_352" fill="#CE8111"
          d="m197.78014,207.98762c-0.547,0.04 -1.125,0.109 -1.561,0.442c-0.404,0.307 -0.624,0.793 -0.813,1.264c-2.92,7.258 -2.142,15.584 0.502,22.947c2.644,7.363 7.02,13.958 11.354,20.471c0.66,0.991 1.622,2.115 2.785,1.86c0.462,-0.101 0.846,-0.413 1.21,-0.716c1.522,-1.263 3.044,-2.527 4.566,-3.79c1.992,-1.653 4.136,-3.583 4.373,-6.161c0.131,-1.427 -0.358,-2.83 -0.84,-4.179c-2.782,-7.783 -5.565,-15.564 -8.345,-23.348c-2.894,-8.106 -4.429,-8.79 -13.231,-8.79z"/>
    <path id="svg_353" fill="#CE8111"
          d="m174.40414,243.02062c3.712,1.277 7.508,3.11 9.567,6.452c3.557,5.775 0.582,13.4 2.232,19.979c0.655,2.611 2.043,5.052 2.229,7.737c0.284,4.103 -2.402,7.981 -5.89,10.16c-3.489,2.179 -7.665,2.942 -11.754,3.389c-1.751,0.191 -3.603,0.317 -5.195,-0.435c-1.365,-0.645 -2.366,-1.856 -3.284,-3.055c-6.55,-8.55 -11.33,-18.451 -13.95,-28.898c-0.271,-1.08 -0.521,-2.203 -0.33,-3.3c0.23,-1.327 1.074,-2.457 1.931,-3.496c2.726,-3.305 6.68,-8.009 10.59,-9.957c4.284,-2.135 9.391,-0.111 13.854,1.424z"/>
    <path id="svg_354" fill="#CE8111"
          d="m218.81014,271.20562c0.806,-0.022 1.63,-0.041 2.395,0.214c1.096,0.366 1.929,1.246 2.714,2.094c4.493,4.854 9.035,9.773 12.196,15.583c3.162,5.81 4.849,12.698 3.232,19.112c-1.429,5.668 -5.235,10.391 -8.938,14.913c-1.425,1.74 -3.002,3.58 -5.184,4.125c-1.627,0.406 -3.337,0.018 -4.955,-0.424c-8.367,-2.288 -16.322,-6.07 -23.379,-11.114c-2.33,-1.665 -4.674,-3.621 -5.58,-6.338c-0.722,-2.167 -0.426,-4.529 -0.053,-6.783c1.184,-7.159 3.063,-14.182 4.938,-21.191c3.412,-12.751 11.956,-9.9 22.614,-10.191z"/>
    <path id="svg_355" fill="#CE8111"
          d="m280.11714,360.37762c1.202,1.257 2.508,2.673 2.535,4.412c0.026,1.691 -1.172,3.128 -2.353,4.339c-2.337,2.398 -4.876,4.599 -7.582,6.57c-2.539,1.85 -5.422,3.557 -8.563,3.52c-2.792,-0.033 -5.365,-1.439 -7.753,-2.886c-5.398,-3.27 -10.772,-7.201 -13.468,-12.907c-2.447,-5.178 -2.374,-11.143 -2.252,-16.869c0.031,-1.443 0.067,-2.917 0.562,-4.272c0.707,-1.935 2.26,-3.411 3.525,-5.038c6.636,-8.536 10.602,-11.7 16.93,-1.133c5.233,8.738 11.376,16.899 18.419,24.264z"/>
    <path id="svg_356" fill="#CE8111"
          d="m199.55814,325.91962c1.257,0.201 2.546,0.413 3.65,1.049c1.194,0.688 2.069,1.817 2.805,2.982c5.134,8.132 4.615,18.741 1.565,27.861c-0.771,2.306 -1.737,4.635 -3.476,6.334c-1.579,1.543 -3.663,2.439 -5.695,3.302c-2.398,1.018 -4.797,2.036 -7.195,3.054c-0.73,0.31 -1.51,0.626 -2.293,0.495c-0.919,-0.154 -1.619,-0.886 -2.223,-1.596c-8.596,-10.112 -11.934,-23.558 -14.784,-36.52c-3.722,-16.925 18.75,-8.384 27.646,-6.961z"/>
    <path id="svg_357" fill="#CE8111"
          d="m430.86414,400.67462c-1.695,2.122 -4.88,2.014 -7.594,1.889c-9.398,-0.433 -18.889,1.279 -27.544,4.969c-0.809,0.345 -1.727,0.71 -2.536,0.364c-0.323,-0.138 -0.59,-0.378 -0.85,-0.614c-3.677,-3.347 -7.185,-6.879 -10.507,-10.578c-1.477,-1.645 -3.019,-3.71 -2.476,-5.853c0.333,-1.314 1.401,-2.315 2.541,-3.049c4.087,-2.63 9.269,-2.636 14.128,-2.555c10.014,0.167 20.053,0.137 30.061,0.501c3.782,0.138 5.829,-0.265 6.947,3.603c0.789,2.726 -0.457,9.177 -2.17,11.323z"/>
    <path id="svg_358" fill="#CE8111"
          d="m296.22614,394.85762c0.412,3.101 -0.837,6.16 -2.125,9.011c-2.57,5.691 -5.405,11.262 -8.491,16.69c-1.227,2.158 -2.788,4.508 -5.233,4.94c-1.483,0.263 -2.984,-0.258 -4.379,-0.828c-5.92,-2.417 -11.414,-5.873 -16.157,-10.162c-3.406,-3.081 -6.554,-6.853 -7.256,-11.392c-1.152,-7.451 5.186,-14.66 12.566,-16.201c3.351,-0.7 6.781,-0.39 10.153,-0.855c2.956,-0.407 6.333,-2.291 9.3,-2.09c5.055,0.343 10.96,5.903 11.622,10.887z"/>
    <path id="svg_359" fill="#CE8111"
          d="m321.95714,375.64062c2.269,1.417 4.147,3.382 6.358,4.887c3.8,2.588 8.828,4.091 10.757,8.265c1.754,3.795 0.168,8.218 -1.42,12.085c-0.818,1.992 -1.662,4.027 -3.1,5.63c-3.903,4.351 -10.649,4.179 -16.471,3.658c-2.186,-0.195 -4.532,-0.458 -6.177,-1.91c-1.727,-1.524 -2.242,-3.966 -2.661,-6.231c-0.545,-2.948 -1.09,-5.896 -1.635,-8.845c-0.483,-2.613 -1.159,-5.523 -3.405,-6.942c-2.328,-1.471 -6.056,-1.163 -7.099,-3.712c-0.313,-0.764 -0.274,-1.619 -0.23,-2.443c0.298,-5.612 2.417,-10.091 8.506,-9.239c5.015,0.703 12.241,2.089 16.577,4.797z"/>
    <path id="svg_360" fill="#CE8111"
          d="m374.72514,396.37762c0.99,1.057 1.535,2.442 2.059,3.791c2.631,6.779 5.261,13.557 7.892,20.336c0.227,0.585 0.458,1.204 0.359,1.823c-0.139,0.871 -0.885,1.504 -1.611,2.005c-4.349,3 -9.743,4.189 -15.026,4.275s-10.522,-0.861 -15.72,-1.805c-2.978,-0.541 -6.001,-1.095 -8.717,-2.431c-2.716,-1.335 -5.135,-3.578 -5.976,-6.485c-1.059,-3.659 0.536,-7.565 2.609,-10.76c2.073,-3.196 4.681,-6.114 6.002,-9.687c0.433,-1.171 0.742,-2.436 1.562,-3.378c3.29,-3.776 23.195,-1.297 26.567,2.316z"/>
    <path id="svg_361" fill="#CE8111"
          d="m325.20114,430.12762c0.919,1.772 1.287,3.775 1.547,5.755c0.611,4.638 0.698,9.345 0.26,14.003c-0.284,3.019 -1.067,6.434 -3.729,7.885c-1.208,0.659 -2.624,0.793 -3.994,0.914c-4.42,0.391 -8.84,0.782 -13.261,1.173c-2.037,0.18 -4.22,0.33 -5.994,-0.686c-1.359,-0.778 -2.272,-2.131 -3.118,-3.449c-2.965,-4.62 -5.699,-9.389 -8.189,-14.282c-0.536,-1.054 -1.075,-2.236 -0.766,-3.377c0.207,-0.766 0.768,-1.379 1.324,-1.944c7.754,-7.87 28.319,-20.642 35.92,-5.992z"/>
    <path id="svg_362" fill="#CE8111"
          d="m393.14914,450.85462c0.989,0.97 1.938,2.044 2.39,3.354c0.682,1.978 0.127,4.149 -0.487,6.149c-1.178,3.835 -2.568,7.605 -4.161,11.286c-0.593,1.37 -1.25,2.776 -2.392,3.738c-1.117,0.941 -2.574,1.353 -3.986,1.729c-3.543,0.942 -7.278,1.811 -10.838,0.932c-1.41,-0.348 -2.795,-1 -3.726,-2.115c-0.804,-0.963 -1.208,-2.19 -1.551,-3.397c-1.481,-5.206 -2.149,-10.643 -1.974,-16.053c0.038,-1.177 0.122,-2.38 0.581,-3.465c0.738,-1.743 2.332,-2.949 3.862,-4.062c8.666,-6.303 14.69,-5.547 22.282,1.904z"/>
    <path id="svg_363" fill="#CE8111"
          d="m225.46414,419.58962c-0.496,0.882 -1.017,1.793 -1.839,2.383c-0.918,0.659 -2.09,0.832 -3.214,0.949c-2.756,0.286 -5.536,0.348 -8.302,0.187c-3.54,-0.206 -7.302,-0.895 -9.848,-3.361c-1.303,-1.262 -2.184,-2.901 -2.858,-4.585c-1.34,-3.348 -1.936,-6.938 -2.522,-10.496c-0.829,-5.026 -1.625,-10.365 0.338,-15.065c4.451,-10.659 23.633,-15.654 33.759,-11.656c3.674,1.451 6.957,2.468 7.777,6.327c0.746,3.512 -1.317,8.982 -2.366,12.306c-2.564,8.121 -6.771,15.62 -10.925,23.011z"/>
    <path id="svg_364" fill="#CE8111"
          d="m342.86314,459.32262c0.359,-0.514 0.752,-1.038 1.313,-1.318c0.991,-0.496 2.179,-0.094 3.197,0.345c4.249,1.833 8.237,4.267 11.809,7.208c0.433,0.356 0.889,0.772 0.962,1.327c0.063,0.475 -0.172,0.934 -0.4,1.355c-2.026,3.751 -4.053,7.502 -6.079,11.252c-0.33,0.612 -0.675,1.241 -1.221,1.672c-0.879,0.694 -2.093,0.739 -3.213,0.716c-4.071,-0.083 -8.133,-0.648 -12.072,-1.679c-0.658,-0.172 -1.408,-0.444 -1.62,-1.091c-0.125,-0.381 -0.021,-0.795 0.083,-1.183c0.958,-3.579 1.646,-7.402 2.941,-10.874c1.044,-2.796 3.121,-5.058 4.3,-7.73z"/>
    <path id="svg_365" fill="#CE8111"
          d="m315.28114,486.58062c-7.584,-1.576 -9.521,1.48 -10.8,4.997c-1.279,3.516 0.167,8.931 0.07,12.671c-0.073,2.8 -0.221,6.286 2.241,7.623c1.024,0.557 2.25,0.546 3.415,0.521c2.707,-0.057 5.414,-0.114 8.121,-0.172c2.303,-0.049 4.884,-0.218 6.423,-1.933c1.133,-1.262 1.401,-3.058 1.573,-4.745c0.448,-4.403 0.575,-8.839 0.379,-13.261c-0.032,-0.714 -0.088,-1.473 -0.514,-2.047c-0.477,-0.642 -1.302,-0.901 -2.072,-1.121c-2.944,-0.843 -5.89,-1.688 -8.836,-2.533l0,0z"/>
    <path id="svg_366" fill="#FFC024"
          d="m101.11614,532.95562c-8.935,7.355 -5.692,27.718 3.913,34.367c9.441,6.535 22.129,7.586 34.058,8.174c55.118,2.717 110.526,0.916 165.245,-5.586c1.974,-0.235 4.079,-0.528 5.548,-1.727c3.818,-3.113 0.379,-8.883 1.791,-13.323c-10.308,-1.086 -21.665,-7.069 -32.013,-7.709c-35.184,-2.176 -69.531,3.046 -104.825,3.123c24.581,-0.422 48.151,1.224 72.435,-1.527c11.966,-1.355 29.296,-2.916 36.873,-8.097c7.577,-5.181 -15.293,-70.851 -23.884,-79.83c-8.839,-9.241 -145.966,61.29 -159.141,72.135z"/>
    <path id="svg_367" fill="#FFAD1D"
          d="m163.67414,551.31762c12.575,-0.818 24.982,-3.297 37.266,-6.108c13.234,-3.028 26.502,-6.495 38.598,-12.659c12.096,-6.164 23.06,-15.272 29.318,-27.32c6.258,-12.048 7.22,-27.251 0.529,-39.063c7.833,9.789 15.849,19.925 19.295,31.979c2.852,9.979 2.357,20.625 0.761,30.88c-0.44,2.829 -0.974,5.682 -2.192,8.273c-2.743,5.835 -8.61,9.606 -14.631,11.911c-17.7,6.777 -37.396,3.293 -56.33,2.429c-14.504,-0.661 -29.033,0.281 -43.499,1.514c-12.952,1.104 -26.587,2.333 -38.418,-3.051c4.353,1.981 9.881,1.328 14.465,1.203c4.941,-0.134 9.866,0.336 14.838,0.012z"/>
    <path id="svg_368" fill="#FFC024"
          d="m414.44614,465.28862c-13.236,21.027 -20.993,49.525 -4.455,68.067c4.49,5.034 10.395,8.732 9.98,15.801c-0.24,4.075 -55.966,25.566 -85.574,39.283c-6.03,2.794 -13.084,7.572 -11.874,14.107c0.847,4.572 5.798,7.433 10.446,7.543c4.648,0.109 9.063,-1.848 13.33,-3.693c32.444,-14.027 66.748,-23.747 101.728,-28.825c16.384,-2.379 33.046,-3.773 48.795,-8.88c1.753,-0.568 3.713,-1.4 4.272,-3.156c1.284,-4.033 -5.996,-6.97 -4.886,-11.054c9.691,-7.46 19.467,-15 27.314,-24.38c7.847,-9.38 13.717,-20.884 14.234,-33.103c0.395,-9.326 -4.371,-23.556 -7.811,-32.234c-3.087,-7.788 -17.564,-42.525 -23.671,-48.261c-6.119,-5.749 -1.362,22.973 -9.121,19.765c-7.04,-2.911 -15.854,-8.661 -23.489,-9.037c-7.16,-0.352 -16.861,4.637 -23.199,7.591c-13.422,6.254 -29.168,16.762 -36.019,30.466z"/>
    <path id="svg_369" fill="#CE8111"
          d="m483.09214,393.49262c1.654,1.72 2.604,3.98 3.518,6.184c2.175,5.243 4.35,10.487 6.525,15.731c1.169,2.819 2.362,5.855 1.735,8.842c-0.401,1.908 -1.514,3.587 -2.723,5.117c-4.043,5.117 -9.447,9.15 -15.503,11.57c-1.131,0.452 -2.328,0.855 -3.542,0.752c-2.51,-0.214 -4.296,-2.44 -5.81,-4.453c-6.928,-9.216 -14.67,-17.819 -23.108,-25.676c-1.559,-1.452 -3.188,-2.941 -4.03,-4.897c-1.986,-4.612 1.339,-10.124 5.858,-12.311c4.52,-2.188 9.79,-1.932 14.8,-1.591c4.35,0.296 8.569,0.443 12.826,-0.63c3.563,-0.898 6.459,-1.753 9.454,1.362z"/>
    <path id="svg_370" fill="#CE8111"
          d="m442.58914,429.85962c0.535,0.831 0.641,1.866 0.617,2.854c-0.164,6.543 -5.196,11.799 -9.902,16.347c-2.56,2.474 -5.12,4.949 -7.68,7.423c-0.653,0.631 -1.356,1.289 -2.245,1.473c-1.232,0.255 -2.433,-0.464 -3.486,-1.151c-4.253,-2.776 -8.557,-5.595 -11.964,-9.361c-3.407,-3.766 -5.873,-8.65 -5.69,-13.725c0.209,-5.827 3.763,-10.93 7.18,-15.654c1.166,-1.612 2.511,-3.344 4.459,-3.748c1.332,-0.277 2.702,0.132 3.99,0.571c5.123,1.749 10.401,3.898 14.642,7.3c2.793,2.241 8.217,4.782 10.079,7.671z"/>
    <path id="svg_371" fill="#FFAD1D"
          d="m426.32914,544.41562c11.452,5.213 24.221,6.979 36.804,6.963c-22.477,4.17 -45.574,0.162 -68.082,-3.842c4.479,-1.172 9.06,-4.306 9.503,-8.914c0.338,-3.52 -1.807,-6.722 -3.323,-9.917c-1.479,-3.118 -2.559,-6.626 -2.668,-10.079c3.744,1.306 7.795,11.028 11.018,14.27c4.801,4.831 10.556,8.7 16.748,11.519z"/>
    <path id="svg_372" fill="#A86D5D"
          d="m339.36714,617.21262c-1.708,0.985 -3.492,1.993 -5.458,2.139c-4.34,0.323 -7.792,-3.544 -9.943,-7.328c-2.849,-5.011 -4.776,-10.544 -5.656,-16.241c-0.168,-1.092 -0.29,-2.255 0.168,-3.26c0.553,-1.213 1.733,-2.118 3.006,-2.512c9.759,-3.017 19.614,-7.668 29.64,-9.016c-1.572,1.141 -4.079,7.094 -1.191,14.571c3.488,9.032 9.551,5.406 9.551,5.406s-15.011,13.298 -20.117,16.241z"/>
    <path id="svg_373" fill="#FFAD1D"
          d="m108.25814,71.97062c-10.236,-3.961 -19.063,-10.773 -28.432,-16.491c-9.368,-5.718 -19.961,-10.504 -30.904,-9.662c-10.291,0.792 -19.973,6.51 -30.274,5.848c-1.899,-0.122 -3.848,-0.457 -5.673,0.081c-1.825,0.538 -3.474,2.332 -3.043,4.186c0.436,1.876 2.56,2.699 4.27,3.586c4.307,2.235 7.209,6.39 10.257,10.167c7.919,9.813 17.901,17.954 29.105,23.738c9.46,4.884 20.076,8.124 30.681,7.186c11.435,-1.012 21.929,-6.766 31.203,-13.531c2.68,-1.955 5.43,-4.195 6.453,-7.35c3.15,-9.708 -8.714,-5.851 -13.643,-7.758z"/>
    <path id="svg_374" fill="#FFC8C7"
          d="m49.16214,84.32762c-3.381,-2.739 -6.282,-6.013 -9.165,-9.271c-4.436,-5.012 -8.872,-10.023 -13.307,-15.035c-0.439,-0.496 -0.906,-1.17 -0.61,-1.762c0.208,-0.414 0.707,-0.58 1.164,-0.663c3.283,-0.592 6.533,1.095 9.863,1.299c3.767,0.23 7.382,-1.443 11.133,-1.86c3.856,-0.429 7.741,0.483 11.417,1.726c5.285,1.786 10.445,4.352 14.281,8.403c3.836,4.051 6.188,9.775 5.21,15.267c-0.97,5.454 -6.518,11.516 -12.473,10.686c-5.91,-0.824 -12.983,-5.121 -17.513,-8.79z"/>
    <path id="svg_375" fill="#A86D5D"
          d="m99.35814,28.20562c9.605,-12.297 27.364,-17.484 42.078,-12.29c0.023,-1.276 0.045,-2.551 0.068,-3.827c13.612,0.036 27.087,6.268 35.929,16.617c2.87,-0.918 5.89,0.804 8.217,2.719c4.224,3.477 7.708,7.849 10.154,12.743c1.546,3.093 2.694,6.412 4.681,9.242c2.144,3.054 5.154,5.382 7.613,8.188c4.964,5.663 7.493,13.036 9.327,20.34c3.451,13.738 4.856,27.989 4.154,42.137c-15.333,1.31 -30.666,2.62 -45.999,3.93c-0.345,0.03 -0.704,0.057 -1.029,-0.066c-0.889,-0.337 -1.017,-1.52 -1.002,-2.47c0.177,-11.438 -0.283,-23.014 -3.365,-34.031c-3.082,-11.017 -8.995,-21.526 -18.106,-28.443c-5.187,-3.938 -11.33,-6.596 -17.734,-7.756c-5.8,-1.05 -8.337,-0.529 -10.848,-6.16c-2.424,-5.433 -4.724,-10.123 -9.368,-14.088c-1.453,-1.239 -12.993,-9.06 -14.77,-6.785z"/>
    <path id="svg_376" fill="#FFAD1D"
          d="m68.14614,19.30862c-0.392,-0.576 -0.81,-1.223 -0.705,-1.911c0.111,-0.725 0.761,-1.229 1.375,-1.63c2.787,-1.821 5.893,-3.155 9.134,-3.921c6.745,13.558 16.563,25.576 28.503,34.889c1.95,1.521 4.079,3.144 4.756,5.523c0.91,3.202 -1.159,6.471 -3.455,8.881c-7.282,7.646 -24.69,16.648 -25.821,0.456c-1.064,-15.204 -5.13,-29.569 -13.787,-42.287z"/>
    <path id="svg_377" fill="#FFC024"
          d="m89.93414,51.51862c-10.091,4.85 -16.652,15.085 -21.883,24.984c-3.146,5.955 -5.673,12.307 -9.792,17.636c-6.454,8.347 -16.177,13.399 -25.635,18.076s-19.26,9.456 -26.111,17.48c-6.851,8.024 -8.271,19.443 -4.38,29.25c12.837,32.354 44.666,33.754 52.61,33.184c39.367,-2.822 69.359,-18.412 100.344,-37.064c42.74,-25.729 36.023,-70.207 34.522,-75.508c-8.669,-30.616 -65.288,-44.565 -99.675,-28.038z"/>
    <path id="svg_378" fill="#A86D5D"
          d="m54.74314,192.13062c16.969,-1.216 32.195,-4.807 46.51,-9.99c0.962,-4.806 0.888,-9.854 0.326,-14.749c-1.562,-13.606 -6.979,-27.103 -16.911,-36.533c-4.628,-4.395 -10.12,-7.816 -15.911,-10.499c-7.297,-3.381 -15.193,-5.468 -23.197,-6.218c-6.149,-0.576 -12.304,-0.311 -18.271,0.736c-7.695,3.921 -15.21,8.299 -20.777,14.819c-6.851,8.024 -8.271,19.443 -4.38,29.25c12.838,32.353 44.666,33.753 52.611,33.184z"/>
    <path id="svg_379" fill="#A86D5D"
          d="m64.93714,25.67662c-2.903,0.846 -6.297,1.616 -8.736,-0.171c-2.536,-1.858 -2.729,-5.643 -1.784,-8.641c1.332,-4.223 4.382,-7.757 7.995,-10.318c3.613,-2.561 7.78,-4.229 11.987,-5.61c1.499,-0.492 3.04,-0.956 4.617,-0.936c3.501,0.044 6.725,2.676 7.766,6.019s0.006,7.166 -2.35,9.762c-4.688,5.163 -13.108,8.034 -19.495,9.895z"/>
    <path id="svg_380" fill="#FFC024"
          d="m202.88514,20.28362c1.872,1.771 3.743,3.542 5.615,5.312c-9.48,12.932 -17.089,27.233 -22.518,42.321c-1.984,5.515 -3.763,11.287 -7.524,15.782c-3.762,4.495 -10.172,7.398 -15.593,5.168c-7.267,-2.99 -9.476,-13.157 -8.474,-20.189c0.878,-6.159 5.68,-8.215 10.467,-11.377c14.886,-9.832 26.589,-23.518 38.027,-37.017z"/>
    <path id="svg_381" fill="#A86D5D"
          d="m189.69714,23.12862c0.498,2.755 1.85,5.283 3.374,7.632c1.983,3.055 4.331,5.935 7.309,8.031c2.979,2.096 6.649,3.359 10.271,2.97c1.359,-0.146 2.71,-0.529 3.859,-1.27c1.799,-1.16 2.96,-3.101 3.7,-5.109c2.19,-5.946 0.958,-13.022 -3.113,-17.878c-6.796,-8.108 -28.213,-9.933 -25.4,5.624z"/>
    <path id="svg_382" fill="#FFAD1D"
          d="m130.72614,72.71662c2.325,-2.074 5.463,-2.942 8.508,-3.601c3.991,-0.864 8.462,-1.4 11.896,0.81c3.466,2.23 4.85,6.697 4.815,10.819c-0.083,9.823 -7.465,19.119 -17.013,21.426c-18.037,4.358 -17.743,-20.946 -8.206,-29.454z"/>
    <path id="svg_383" fill="#FFAD1D"
          d="m67.55814,78.04562c-0.663,2.086 -1.267,4.246 -1.123,6.43c0.144,2.184 1.169,4.426 3.081,5.493c2.727,1.523 6.119,0.247 8.911,-1.153c3.126,-1.568 6.216,-3.308 8.753,-5.715c2.537,-2.407 4.502,-5.561 4.906,-9.035c0.419,-3.606 -0.967,-7.392 -3.662,-9.825c-10.276,-9.276 -18.221,5.485 -20.866,13.805z"/>
    <path id="svg_384" fill="#FFC024"
          d="m184.74614,83.80962c10.93,1.005 21.865,-1.171 32.799,-2.127c10.934,-0.955 22.55,-0.531 31.977,5.09c8.865,5.286 14.995,14.713 24.514,18.701c1.755,0.735 3.65,1.302 5.045,2.595c1.395,1.294 2.074,3.634 0.864,5.103c-1.225,1.486 -3.494,1.279 -5.419,1.313c-4.852,0.086 -9.299,2.518 -13.708,4.545c-11.457,5.267 -24.017,8.12 -36.626,8.318c-10.645,0.167 -21.595,-1.652 -30.676,-7.208c-9.792,-5.992 -16.632,-15.812 -21.931,-25.996c-1.531,-2.943 -2.998,-6.172 -2.511,-9.453c1.499,-10.096 10.409,-1.365 15.672,-0.881z"/>
    <path id="svg_385" fill="#FFC8C7"
          d="m230.54514,90.34762c10.19,2.708 18.54,11.719 28.756,14.285c0.81,0.203 1.657,0.379 2.332,0.942c0.675,0.562 1.116,1.65 0.758,2.524c-0.282,0.687 -0.939,1.024 -1.544,1.306c-2.92,1.361 -5.84,2.721 -8.76,4.082c-3.259,1.519 -6.546,3.047 -9.998,3.776c-6.224,1.315 -12.658,-0.041 -18.68,-2.304s-11.771,-5.42 -17.746,-7.849c-3.522,-1.431 -7.119,-2.608 -10.765,-3.522c-3.599,-0.902 -7.504,-1.702 -10.067,-4.792c-4.072,-4.909 3.806,-4.35 5.653,-4.353c4.49,-0.008 8.939,-0.872 13.34,-1.84c8.757,-1.927 17.822,-4.62 26.721,-2.255z"/>
    <path id="svg_386" fill="#6B470D"
          d="m10.02914,145.19862c-0.37,2.016 -0.362,4.382 1.146,5.77c0.38,0.35 0.895,0.624 1.4,0.512c0.566,-0.125 0.934,-0.708 1.009,-1.282c0.075,-0.575 -0.078,-1.151 -0.205,-1.717c-0.888,-3.947 -0.554,-8.159 0.942,-11.917c-2.51,2.075 -3.691,5.355 -4.292,8.634z"/>
    <path id="svg_387" fill="#6B470D"
          d="m26.18914,146.72162c-0.37,2.016 -0.362,4.382 1.146,5.77c0.38,0.35 0.895,0.624 1.4,0.512c0.566,-0.125 0.934,-0.708 1.009,-1.282s-0.078,-1.151 -0.205,-1.717c-0.888,-3.947 -0.554,-8.159 0.942,-11.917c-2.51,2.075 -3.691,5.355 -4.292,8.634z"/>
    <path id="svg_388" fill="#A86D5D"
          d="m117.50914,43.73062c0.598,3.07 0.477,6.242 1.001,9.326c0.271,1.595 0.819,3.308 2.19,4.161c0.913,0.568 2.045,0.652 3.117,0.579c3.581,-0.244 5.74,-3.113 8.97,-4.682c7.881,-3.827 14.922,-4.649 26.189,-2.292c0.3,0.063 0.897,-1.325 1.15,-1.498c0.251,-0.171 0.322,-0.506 0.358,-0.808c0.194,-1.627 -0.004,-3.299 -0.572,-4.836c-0.675,-1.826 -1.845,-3.421 -3.036,-4.961c-1.964,-2.538 -4.034,-5.011 -6.423,-7.153c-5.268,-4.724 -12.004,-7.707 -18.993,-8.768s-14.214,-0.236 -20.906,2.047c-1.03,0.351 -5.888,2.103 -5.516,3.789c0.132,0.599 1.732,0.925 2.23,1.18c1.057,0.541 2.053,1.247 2.976,1.991c3.691,2.979 6.355,7.254 7.265,11.925z"/>
    <path id="svg_389" fill="#FFAD1D"
          d="m181.73814,111.23462c3.12,4.069 9.779,6.416 15.595,10.974c-2.085,8.506 -2.665,22.736 -2.271,31.398c-0.583,-1.851 -12.25,-24.839 -17.478,-30.568c-4.211,-4.614 -7.492,-10.072 -9.593,-15.954c-1.042,-2.919 -1.801,-5.972 -1.846,-9.071c-0.055,-3.739 0.927,-7.759 3.013,-10.894c0.889,3.754 1.118,7.095 2.752,10.684c2.204,4.844 6.384,9.341 9.828,13.431z"/>
    <g id="svg_390">
        <path id="svg_391" fill="#9B5D51"
              d="m106.93614,25.71962c13.355,2.162 19.981,16.205 16.55,28.507c-0.488,1.749 2.339,2.497 2.698,0.744c2.415,-11.795 -5.409,-29.416 -19.215,-29.501c-0.138,-0.001 -0.178,0.226 -0.033,0.25l0,0z"/>
    </g>
    <g id="svg_392">
        <path id="svg_393" fill="#9B5D51"
              d="m117.31914,20.85462c8.673,4.303 15.062,15.427 15.256,24.965c0.01,0.467 0.693,0.461 0.721,0c0.563,-9.362 -6.906,-21.992 -15.911,-25.12c-0.091,-0.031 -0.153,0.113 -0.066,0.155l0,0z"/>
    </g>
    <g id="svg_394">
        <path id="svg_395" fill="#9B5D51"
              d="m132.57614,29.78062c1.792,4.159 2.593,8.276 2.653,12.791c0.005,0.387 0.563,0.376 0.594,0c0.37,-4.505 -0.732,-9.05 -2.99,-12.941c-0.099,-0.17 -0.33,-0.021 -0.257,0.15l0,0z"/>
    </g>
    <g id="svg_396">
        <path id="svg_397" fill="#9B5D51"
              d="m143.69214,17.07462c2.312,4.438 3.314,8.916 3.295,13.947c-0.018,4.81 -1.61,9.165 -2.465,13.826c-0.176,0.958 0.983,1.448 1.55,0.653c4.947,-6.937 5.481,-23.178 -2.119,-28.688c-0.165,-0.119 -0.341,0.107 -0.261,0.262l0,0z"/>
    </g>
    <g id="svg_398">
        <path id="svg_399" fill="#9B5D51"
              d="m153.47314,23.80762c1.273,7.177 0.66,13.731 -1.844,20.555c-0.123,0.336 0.425,0.57 0.581,0.245c3.124,-6.469 3.636,-14.024 1.426,-20.846c-0.033,-0.104 -0.182,-0.06 -0.163,0.046l0,0z"/>
    </g>
    <g id="svg_400">
        <path id="svg_401" fill="#9B5D51"
              d="m159.10314,30.11262c0.053,4.608 -0.978,8.655 -2.1,13.059c-0.15,0.588 0.711,0.995 1.007,0.425c2.117,-4.066 2.309,-9.11 1.467,-13.534c-0.04,-0.214 -0.377,-0.162 -0.374,0.05l0,0z"/>
    </g>
    <g id="svg_402">
        <path id="svg_403" fill="#9B5D51"
              d="m165.76914,25.00762c1.342,4.347 2.019,8.257 1.078,12.792c-0.807,3.889 -2.573,7.466 -3.645,11.276c-0.188,0.668 0.776,1.083 1.124,0.474c3.87,-6.787 7.187,-17.871 1.797,-24.748c-0.133,-0.171 -0.413,0.015 -0.354,0.206l0,0z"/>
    </g>
    <path id="svg_404" fill="#CE8111"
          d="m76.70814,65.81262c2.017,-0.816 4.233,-1.26 6.381,-0.917c2.149,0.343 4.216,1.549 5.288,3.442c0.179,0.316 0.337,0.658 0.615,0.892c0.277,0.234 0.723,0.322 0.996,0.083c0.117,-0.103 0.186,-0.25 0.235,-0.398c0.281,-0.852 -0.016,-1.785 -0.417,-2.587c-1.432,-2.86 -4.295,-4.957 -7.453,-5.459c-0.646,-0.103 -1.306,-0.142 -1.953,-0.045c-1.861,0.279 -3.949,1.826 -5.236,3.15c-1.774,1.825 -0.8,2.787 1.544,1.839z"/>
    <path id="svg_405" fill="#CE8111"
          d="m144.34514,72.08862c3.555,0.822 6.919,3.261 7.969,6.756c0.237,0.789 0.392,1.676 1.025,2.204c0.961,0.801 2.551,0.232 3.195,-0.841c0.643,-1.073 0.578,-2.422 0.371,-3.656c-0.323,-1.926 -0.957,-3.829 -2.092,-5.417c-2.806,-3.927 -8.106,-5.225 -12.931,-5.107c-2.094,0.052 -4.214,0.322 -6.136,1.154c-1.401,0.607 -6.901,4.798 -3.217,5.654c1.5,0.349 4.228,-0.871 5.791,-1.027c2.01,-0.201 4.049,-0.176 6.025,0.28z"/>
    <path id="svg_406" fill="#FFFFFF" opacity="0.3"
          d="m60.73814,10.94862c-1.476,1.442 -2.778,3.272 -2.808,5.335c-0.03,2.063 1.721,4.216 3.766,3.943c0.47,-0.063 0.93,-0.25 1.274,-0.577c0.442,-0.42 0.653,-1.022 0.853,-1.598c0.733,-2.12 1.575,-4.318 3.27,-5.787c1.234,-1.069 2.807,-1.649 4.203,-2.497c0.635,-0.385 1.26,-0.859 1.564,-1.536c1.333,-2.971 -4.154,-2.522 -5.641,-1.94c-2.269,0.889 -4.768,2.983 -6.481,4.657z"/>
    <path id="svg_407" fill="#FFFFFF" opacity="0.3"
          d="m197.33614,14.12462c-1.421,0.479 -2.834,1.231 -3.633,2.501c-0.874,1.39 -0.825,3.317 0.162,4.63c0.986,1.313 2.861,1.895 4.4,1.324c0.913,-0.338 1.656,-1.016 2.512,-1.479c2.856,-1.547 6.519,-0.44 9.042,1.604c0.41,0.332 0.937,0.711 1.415,0.486c0.17,-0.08 0.298,-0.226 0.409,-0.378c2.029,-2.79 -0.975,-6.463 -3.302,-8.008c-3.01,-1.997 -7.735,-1.783 -11.005,-0.68z"/>
    <path id="svg_408" fill="#6B470D"
          d="m71.54114,84.48362c0.77,0.189 1.526,0.462 2.195,0.887c1.732,1.1 2.728,3.256 2.445,5.288c1.262,-2.555 2.001,-5.367 2.157,-8.212c0.057,-1.035 0.031,-2.103 -0.362,-3.063c-0.92,-2.245 -3.741,-3.286 -6.104,-2.734s-4.259,2.36 -5.568,4.403c-1.755,2.739 -2.74,6.133 -2.518,9.393c1.171,-4.158 2.539,-7.244 7.755,-5.962z"/>
    <path id="svg_409" fill="#6B470D"
          d="m131.05714,85.02262c4.857,-1.55 10.761,-0.311 13.854,3.737c2.267,2.967 2.775,6.997 2.102,10.668c-0.673,3.671 -2.41,7.055 -4.291,10.28c0.9,-5.142 -0.36,-11.235 -4.869,-13.878c-2.159,-1.266 -4.766,-1.558 -7.265,-1.41c-4.304,0.254 -7.959,1.821 -11.629,3.943c0.752,-6.022 6.482,-11.548 12.098,-13.34z"/>
    <path id="svg_410" fill="#FFFFFF"
          d="m19.20414,169.56862c3.35,0.988 6.955,1.499 10.328,0.593c3.374,-0.905 6.458,-3.46 7.224,-6.868c-0.407,4.416 -1.373,8.979 -4.151,12.437c-2.778,3.457 -7.791,5.44 -11.815,3.577c-1.663,-0.77 -3.002,-2.095 -4.195,-3.487c-3.825,-4.463 -6.508,-9.896 -7.727,-15.645c1.058,4.992 5.807,8.058 10.336,9.393z"/>
    <path id="svg_411" fill="#CE8111"
          d="m228.11614,440.71462c-1.671,0.968 -3.39,2.031 -4.388,3.684c-1.015,1.682 -1.142,3.748 -1.052,5.711c0.29,6.296 2.513,12.321 4.71,18.228c1.093,2.938 2.39,6.119 5.143,7.617c2.302,1.252 5.183,1.008 7.596,-0.013c2.413,-1.021 4.457,-2.733 6.461,-4.421c4.703,-3.959 9.525,-8.066 12.348,-13.527c1.416,-2.739 2.266,-6.073 0.98,-8.875c-0.668,-1.454 -1.84,-2.606 -2.987,-3.722c-3.561,-3.466 -9.068,-11.375 -14.484,-11.55c-4.487,-0.145 -10.6,4.709 -14.327,6.868z"/>
    <path id="svg_412" fill="#CE8111"
          d="m243.39314,493.42862c-1.535,0.786 -3.133,1.627 -4.114,3.045c-1.239,1.79 -1.251,4.125 -1.217,6.302c0.039,2.515 0.077,5.029 0.116,7.544c0.028,1.835 0.078,3.754 0.962,5.362c0.879,1.599 2.461,2.666 3.984,3.671c2.027,1.337 4.136,2.707 6.535,3.079c2.086,0.324 4.214,-0.139 6.233,-0.755c2.941,-0.897 6,-2.32 7.425,-5.045c0.928,-1.774 1.025,-3.854 1.025,-5.856c0,-4.882 -0.465,-9.765 -1.386,-14.56c-0.187,-0.975 -0.402,-1.969 -0.916,-2.819c-3.677,-6.084 -14.104,-2.296 -18.647,0.032z"/>
    <path id="svg_413" fill="#CE8111"
          d="m189.34714,498.05162c-0.621,1.588 0.14,3.349 0.887,4.882c0.694,1.424 1.453,2.922 2.796,3.762c1.155,0.723 2.574,0.849 3.933,0.946c3.209,0.228 6.467,0.394 9.614,-0.27c3.147,-0.664 6.218,-2.257 8.034,-4.912c4.563,-6.674 -1.842,-12.644 -8.579,-12.963c-4.46,-0.21 -15.015,4.284 -16.685,8.555z"/>
    <path id="svg_414" fill="#CE8111"
          d="m190.33314,529.68562c-0.548,0.681 -1.054,1.482 -1.014,2.356c0.023,0.494 0.221,0.965 0.471,1.391c1.458,2.488 4.465,3.524 7.222,4.368c2.51,0.769 5.021,1.538 7.531,2.307c3.3,1.011 7.236,1.914 9.918,-0.259c2.279,-1.847 2.625,-5.134 2.796,-8.063c0.139,-2.374 0.033,-5.24 -2.008,-6.46c-0.986,-0.589 -2.195,-0.62 -3.343,-0.634c-7.677,-0.093 -16.162,-1.892 -21.573,4.994z"/>
    <path id="svg_415" fill="#CE8111"
          d="m162.63314,509.88662c-3.782,1.791 -7.331,4.072 -10.531,6.769c-0.281,0.237 -0.575,0.503 -0.655,0.862c-0.083,0.377 0.092,0.758 0.263,1.105c0.631,1.282 1.262,2.564 1.893,3.846c0.646,1.313 1.396,2.727 2.743,3.3c0.668,0.284 1.412,0.324 2.137,0.347c3.845,0.12 7.9,-0.19 11.128,-2.282c3.228,-2.092 5.257,-6.453 3.615,-9.932c-0.544,-1.153 -1.471,-2.144 -2.641,-2.65c-2.829,-1.224 -6.481,0.496 -9.024,-1.246l1.072,-0.119z"/>
    <path id="svg_416" fill="#CE8111"
          d="m353.60114,508.78062c-1.861,1.363 -3.347,3.428 -3.447,5.733c-0.075,1.733 0.626,3.402 1.434,4.936c1.054,2.001 2.549,4.057 4.766,4.501c2.199,0.44 4.376,-0.87 5.992,-2.425c1.616,-1.555 2.97,-3.43 4.889,-4.592c0.961,-0.582 2.044,-0.97 2.921,-1.673c0.877,-0.703 1.528,-1.871 1.178,-2.939c-0.308,-0.938 -1.258,-1.484 -2.132,-1.944c-5.887,-3.095 -9.523,-6.008 -15.601,-1.597z"/>
    <path id="svg_417" fill="#CE8111"
          d="m488.00514,467.23862c0.682,3.336 1.365,6.671 2.048,10.007c0.408,1.993 0.85,4.063 2.095,5.671c1.119,1.445 2.78,2.369 4.467,3.071c5.818,2.421 12.283,2.617 18.582,2.78c1.318,0.034 2.676,0.062 3.906,-0.411c3.099,-1.189 4.223,-4.941 4.725,-8.222c1.856,-12.127 0.359,-28.554 -14.445,-30.984c-4.609,-0.757 -11.28,0.605 -15.512,2.354c-7.081,2.928 -7.237,9.03 -5.866,15.734z"/>
    <path id="svg_418" fill="#CE8111"
          d="m435.25314,463.92462c0.77,8.673 0.747,17.417 -0.067,26.086c-0.064,0.677 -0.126,1.394 0.17,2.007c0.461,0.955 1.605,1.327 2.629,1.603c5.011,1.351 10.022,2.701 15.033,4.052c0.611,0.165 1.245,0.331 1.87,0.233c0.869,-0.136 1.573,-0.752 2.225,-1.343c4.548,-4.12 9.096,-8.239 13.645,-12.359c0.887,-0.803 1.784,-1.618 2.45,-2.612c1.718,-2.562 1.663,-5.878 1.546,-8.961c-0.193,-5.057 -0.743,-10.826 -4.813,-13.833c-2.441,-1.803 -5.644,-2.165 -8.679,-2.179c-9.706,-0.046 -16.988,4.412 -26.009,7.306z"/>
    <path id="svg_419" fill="#CE8111"
          d="m411.60314,507.60762c-0.014,1.115 0.749,2.071 1.472,2.92c2.568,3.018 5.137,6.035 7.705,9.053c1.008,1.184 2.132,2.439 3.657,2.745c1.51,0.303 3.028,-0.408 4.356,-1.189c3.82,-2.246 7.192,-5.25 9.863,-8.785c0.583,-0.772 1.148,-1.604 1.309,-2.558c0.174,-1.032 -0.146,-2.083 -0.558,-3.045c-2.395,-5.59 -7.709,-9.276 -12.763,-12.658c-0.732,-0.49 -1.557,-1.002 -2.428,-0.867c-3.48,0.54 -12.57,10.998 -12.613,14.384z"/>
    <path id="svg_420" fill="#CE8111"
          d="m472.72214,505.02662c2.933,4.972 6.344,9.662 10.169,13.985c0.432,0.489 0.91,0.997 1.546,1.147c0.783,0.184 1.57,-0.226 2.267,-0.628c4.091,-2.357 8.072,-4.905 11.927,-7.631c0.817,-0.578 1.643,-1.178 2.241,-1.98c0.827,-1.109 1.152,-2.51 1.332,-3.882c0.317,-2.42 0.244,-4.892 -0.217,-7.289c-0.109,-0.566 -0.256,-1.161 -0.666,-1.567c-0.52,-0.515 -1.317,-0.592 -2.047,-0.64c-4.604,-0.304 -10.072,-1.625 -14.343,0.16c-1.191,0.498 -12.065,8.568 -12.209,8.325z"/>
    <path id="svg_421" fill="#CE8111"
          d="m487.18414,536.70962c1.567,2.205 3.205,4.359 4.912,6.457c0.493,0.606 1.087,1.258 1.868,1.291c0.563,0.024 1.079,-0.287 1.556,-0.587c2.524,-1.586 5.047,-3.172 7.571,-4.757c4.426,-2.781 6.962,-10.227 -0.39,-11.497c-5.087,-0.878 -12.009,6.153 -15.517,9.093z"/>
    <path id="svg_422" fill="#CE8111"
          d="m446.52814,529.46462c-0.758,1.98 -1.227,4.071 -1.386,6.186c-0.044,0.59 -0.058,1.214 0.216,1.739c0.314,0.604 0.946,0.963 1.553,1.272c2.289,1.166 4.7,2.09 7.182,2.752c0.268,0.072 0.553,0.14 0.819,0.059c0.372,-0.113 0.598,-0.48 0.789,-0.819c1.899,-3.364 3.798,-6.728 5.698,-10.093c0.269,-0.477 0.547,-0.99 0.507,-1.536c-0.1,-1.366 -1.887,-1.777 -3.256,-1.816c-2.243,-0.064 -4.485,-0.127 -6.728,-0.191c-1.04,-0.03 -2.128,-0.05 -3.064,0.406c-0.936,0.456 -1.649,1.55 -1.315,2.536l-1.015,-0.495z"/>
    <path id="svg_423" fill="#EA9B1C"
          d="m280.10614,493.85962c4.534,21.5 14.545,41.823 28.828,58.521c-0.274,-0.32 -9.046,1.089 -10.199,1.06c-3.028,-0.074 -6.928,-0.222 -9.752,-1.464c-4.912,-2.161 -3.422,-8.247 -3.549,-12.716c-0.431,-15.257 -2.886,-30.363 -5.328,-45.401z"/>
    <path id="svg_424" fill="#EA9B1C"
          d="m362.74714,563.88762c11.481,-0.818 23.532,0.479 33.112,-2.031c3.896,-1.021 13.056,-5.077 21.457,-10.672c-12.868,-7.185 -18.972,-16.642 -24.949,-30.113c0.252,4.674 2.436,10.119 2.688,14.793c0.069,1.281 0.134,2.594 -0.246,3.818c-0.486,1.564 -1.654,2.826 -2.929,3.855c-3.762,3.035 -8.57,4.421 -13.295,5.44c-10.282,2.217 -20.81,3.03 -31.306,3.725c-8.634,0.572 -17.29,1.066 -25.946,0.848c-4.306,-0.108 -9.2,-2.886 -13.475,-3.426c-1.409,-0.178 -9.28,-0.066 -10.093,0.837c-3.164,3.515 9.921,8.043 11.386,8.452c8.044,2.246 16.31,3.644 24.625,4.373c9.632,0.844 19.331,0.788 28.971,0.101z"/>
    <path id="svg_425" fill="#A86D5D"
          d="m301.35314,543.63762c1.952,-0.279 3.983,-0.552 5.862,0.044c4.149,1.315 5.914,6.188 6.504,10.5c0.781,5.711 0.511,11.564 -0.791,17.18c-0.25,1.076 -0.57,2.201 -1.369,2.964c-0.964,0.92 -2.396,1.322 -3.725,1.214c-10.181,-0.83 -19.57,-0.452 -29.378,-2.93c1.883,-0.474 4.937,-4.794 5.037,-12.809c0.121,-9.681 -3.834,-12.65 -3.834,-12.65s15.859,-2.68 21.694,-3.513z"/>
</svg>