<svg xmlns="http://www.w3.org/2000/svg" width="109.694" height="185.154" viewBox="0 0 109.694 185.154">
  <g id="Grupo_422" data-name="Grupo 422" transform="translate(-160.153 -373.423)">
    <path id="Caminho_1554" data-name="Caminho 1554" d="M5043.349-1767.337c-1.815,7.052-4.837,19.139-17.529,43.921s-13.5,62.255,0,87.439,25.185,28,25.185,28-14.1-29.416-14.508-58.427,15.313-54.2,19.746-83.208-9.267-43.518-9.267-43.518S5045.159-1774.389,5043.349-1767.337Z" transform="translate(-4815.314 2166.549)" fill="#f37335"/>
    <path id="Caminho_1555" data-name="Caminho 1555" d="M17.29,16.3c-1.146,4.457-3.056,12.1-11.08,27.763s-8.533,39.353,0,55.272,15.919,17.7,15.919,17.7S13.215,98.445,12.96,80.106s9.679-34.258,12.48-52.6S19.582,0,19.582,0,18.436,11.844,17.29,16.3Z" transform="translate(178.462 384.557) rotate(9)" fill="#fff" opacity="0"/>
    <path id="Caminho_1556" data-name="Caminho 1556" d="M17.29,16.3c-1.147,4.457-3.056,12.1-11.08,27.763s-8.533,39.352,0,55.272,15.919,17.7,15.919,17.7S13.215,98.445,12.96,80.106s9.679-34.258,12.48-52.6S19.582,0,19.582,0,18.436,11.844,17.29,16.3Z" transform="translate(243.853 419.315) rotate(1)" fill="#fff" opacity="0"/>
  </g>
</svg>
