<svg xmlns="http://www.w3.org/2000/svg" width="58" height="58" viewBox="0 0 58 58">
  <g id="target_566958" transform="translate(0 -0.001)">
    <g id="Grupo_221" data-name="Grupo 221" transform="translate(0 0.001)">
      <g id="Grupo_220" data-name="Grupo 220">
        <path id="Caminho_834" data-name="Caminho 834" d="M30.224,27.833c-.01-.01-.012-.023-.022-.033l-9.7-9.7V12.009a1.7,1.7,0,0,0-.5-1.2L9.811.5a1.7,1.7,0,0,0-2.9,1.2V6.8H1.7A1.7,1.7,0,0,0,.5,9.7L10.807,20.007a1.7,1.7,0,0,0,1.2.5H18.1l9.7,9.7c.01.01.023.012.033.022a1.692,1.692,0,0,0,2.392-2.392Z" transform="translate(0 -0.001)" fill="#f37335"/>
      </g>
    </g>
    <g id="Grupo_223" data-name="Grupo 223" transform="translate(0 0.001)">
      <g id="Grupo_222" data-name="Grupo 222">
        <path id="Caminho_835" data-name="Caminho 835" d="M29,0a28.745,28.745,0,0,0-12.16,2.834l5.213,5.213A22.144,22.144,0,1,1,8.049,22.054L2.837,16.841A28.75,28.75,0,0,0,0,29,29,29,0,1,0,29,0Z" transform="translate(-0.003 -0.002)" fill="#f37335"/>
      </g>
    </g>
    <g id="Grupo_225" data-name="Grupo 225" transform="translate(13.707 13.708)">
      <g id="Grupo_224" data-name="Grupo 224">
        <path id="Caminho_836" data-name="Caminho 836" d="M136.295,121a15.113,15.113,0,0,0-5.1.939v2.047l3.928,3.928a8.359,8.359,0,0,1,1.169-.118,8.5,8.5,0,1,1-8.5,8.5,8.358,8.358,0,0,1,.118-1.169l-3.928-3.928h-2.047a15.113,15.113,0,0,0-.939,5.1A15.293,15.293,0,1,0,136.295,121Z" transform="translate(-121.002 -121.001)" fill="#f37335"/>
      </g>
    </g>
  </g>
</svg>
