<svg xmlns="http://www.w3.org/2000/svg" width="131.289" height="79.617" viewBox="0 0 131.289 79.617">
  <path id="União_13" data-name="União 13" d="M-14732.094-4263.522a13.373,13.373,0,0,0-4.035.622,17.313,17.313,0,0,0-17.211-15.474,17.242,17.242,0,0,0-6.8,1.394c.02-.4.063-.789.063-1.191a19.831,19.831,0,0,0-19.832-19.829,19.826,19.826,0,0,0-18.879,13.775,13.332,13.332,0,0,0-4.762-.888,13.368,13.368,0,0,0-12.5,8.625,13.318,13.318,0,0,0-6.828-1.886,13.383,13.383,0,0,0-13.383,13.386,13.325,13.325,0,0,0,.984,5.035,17.867,17.867,0,0,0-11.719,16.767,17.878,17.878,0,0,0,17.879,17.88,17.808,17.808,0,0,0,13.566-6.256,24.316,24.316,0,0,0,15.813,5.822,24.349,24.349,0,0,0,8.359-1.471,21.707,21.707,0,0,0,14.828,5.827,21.8,21.8,0,0,0,18.633-10.479,13.3,13.3,0,0,0,7.109,2.062,13.382,13.382,0,0,0,12.461-8.506,13.318,13.318,0,0,0,6.258,1.557,13.386,13.386,0,0,0,13.383-13.387,13.384,13.384,0,0,0-13.383-13.385Z" transform="translate(14848.5 4299.501)" fill="#f37335" stroke="#fff" stroke-width="3"/>
</svg>
