<svg xmlns="http://www.w3.org/2000/svg" width="274.864" height="82.313" viewBox="0 0 274.864 82.313">
  <path id="Caminho_2053" data-name="Caminho 2053" d="M12987.953,18346.3h-.351a24.317,24.317,0,0,0-28.743-15.566,27.313,27.313,0,0,0-50.649,2.486,24.282,24.282,0,0,0-25.729,10.553,22.285,22.285,0,0,0-16.961.049,24.233,24.233,0,0,0-16.115-7.557,33.832,33.832,0,0,0-65.477-6.141c-.607-.047-1.217-.092-1.838-.092a22.456,22.456,0,0,0-21.576,16.268h-4.122a20.151,20.151,0,1,0,0,40.3h231.561a20.151,20.151,0,1,0,0-40.3Z" transform="translate(-12734.74 -18305.787)" fill="#f37335" stroke="#fff" stroke-width="3"/>
</svg>
