<svg xmlns="http://www.w3.org/2000/svg" width="125.427" height="74.824" viewBox="0 0 125.427 74.824">
  <path id="Caminho_2065" data-name="Caminho 2065" d="M1641.924,1404.991c.007-.2.016-.4.016-.607a18.286,18.286,0,0,0-24.129-17.329,26.937,26.937,0,0,0-52.965,4.957,14.658,14.658,0,0,0-18.9,12.7,17.2,17.2,0,0,0-13.8,16.809h0a17.19,17.19,0,0,0,17.14,17.14h88.147a17.19,17.19,0,0,0,17.14-17.14h0A17.2,17.2,0,0,0,1641.924,1404.991Z" transform="translate(-1530.64 -1365.34)" fill="#f37335" stroke="#fff" stroke-width="3"/>
</svg>
