<svg xmlns="http://www.w3.org/2000/svg" width="19.182" height="19.182" viewBox="0 0 19.182 19.182">
  <g id="Grupo_360" data-name="Grupo 360" transform="translate(-44.79 -241.502)">
    <ellipse id="Elipse_633" data-name="Elipse 633" cx="7.516" cy="7.516" rx="7.516" ry="7.516" transform="translate(46.79 243.969)" fill="#ffcc29"/>
    <g id="Camada_x0020_1" transform="translate(46.79 243.502)">
      <g id="Caminho_906" data-name="Caminho 906" transform="translate(-0.02 0.02)" fill="#ffcc29" stroke-linecap="round" stroke-linejoin="round" fill-rule="evenodd">
        <path d="M 7.611348628997803 16.16239166259766 C 6.452468872070312 16.16239166259766 5.327198505401611 15.93500137329102 4.266788482666016 15.48654079437256 C 3.243478536605835 15.05369091033936 2.324918746948242 14.43452072143555 1.536548614501953 13.64621067047119 C 0.7481386661529541 12.85776138305664 0.1289486438035965 11.93917083740234 -0.3038513660430908 10.91592121124268 C -0.7523113489151001 9.855661392211914 -0.9797013401985168 8.730381011962891 -0.9797013401985168 7.571341037750244 C -0.9797013401985168 6.412331104278564 -0.7523113489151001 5.287051200866699 -0.3038413524627686 4.226760864257812 C 0.1289286464452744 3.20353102684021 0.7481286525726318 2.284950971603394 1.536528587341309 1.496541023254395 C 2.324978590011597 0.7081210017204285 3.243538618087769 0.08892101049423218 4.26672887802124 -0.3438789844512939 C 5.327138423919678 -0.7923589944839478 6.452418804168701 -1.019749045372009 7.611348628997803 -1.019749045372009 C 8.758238792419434 -1.019749045372009 9.872658729553223 -0.7969189882278442 10.92366886138916 -0.3574489951133728 C 11.84225845336914 0.02667101100087166 12.27712821960449 1.086511015892029 11.89307880401611 2.0051109790802 C 11.61128902435303 2.679050922393799 10.95719909667969 3.114500999450684 10.2266788482666 3.114500999450684 C 9.986838340759277 3.114500999450684 9.752608299255371 3.067410945892334 9.530498504638672 2.97455096244812 C 8.923078536987305 2.720561027526855 8.277388572692871 2.5917809009552 7.611328601837158 2.5917809009552 C 6.281228542327881 2.5917809009552 5.030748844146729 3.109750986099243 4.090238571166992 4.0502610206604 C 3.149718761444092 4.990780830383301 2.631748676300049 6.241250991821289 2.631748676300049 7.571341037750244 C 2.631748676300049 8.901431083679199 3.149718761444092 10.15192127227783 4.090238571166992 11.09245109558105 C 5.030658721923828 12.03294086456299 6.281128406524658 12.55088138580322 7.611328601837158 12.55088138580322 C 8.941498756408691 12.55088138580322 10.19197845458984 12.03294086456299 11.13239860534668 11.09246063232422 C 12.07291889190674 10.15195083618164 12.5908784866333 8.901471138000488 12.5908784866333 7.571341037750244 C 12.5908784866333 7.126750946044922 12.53262901306152 6.686631202697754 12.41775894165039 6.26322078704834 C 12.15708827972412 5.30216121673584 12.72682857513428 4.308280944824219 13.68776893615723 4.047640800476074 C 13.84245872497559 4.005711078643799 14.00165843963623 3.984461069107056 14.1610689163208 3.984461069107056 C 14.97400856018066 3.984461069107056 15.6904182434082 4.532731056213379 15.90324878692627 5.317750930786133 C 16.10174942016602 6.049291133880615 16.20241928100586 6.807580947875977 16.20241928100586 7.571341037750244 C 16.20241928100586 8.730271339416504 15.97502899169922 9.855541229248047 15.52657890319824 10.91590118408203 C 15.0937385559082 11.93919086456299 14.47454833984375 12.8577709197998 13.68617820739746 13.6461706161499 C 12.89782905578613 14.4345006942749 11.97924900054932 15.05367088317871 10.9559383392334 15.48652076721191 C 9.89556884765625 15.93500137329102 8.770298957824707 16.16239166259766 7.611348628997803 16.16239166259766 Z" stroke="none"/>
        <path d="M 7.611348628997803 -0.01974868774414062 C 6.586898803710938 -0.01974868774414062 5.592708587646484 0.1810808181762695 4.656298637390137 0.5771207809448242 C 3.752278327941895 0.9595108032226562 2.940548896789551 1.506760597229004 2.24363899230957 2.203651428222656 C 1.546749114990234 2.900530815124512 0.9995288848876953 3.712261199951172 0.6171588897705078 4.616311073303223 C 0.2210988998413086 5.552700996398926 0.02029895782470703 6.546940803527832 0.02029895782470703 7.571341037750244 C 0.02029895782470703 8.595810890197754 0.2210988998413086 9.590001106262207 0.6171588897705078 10.52637100219727 C 0.9995288848876953 11.43040084838867 1.546778678894043 12.24219131469727 2.24363899230957 12.9390811920166 C 2.940568923950195 13.63597106933594 3.752278327941895 14.18313121795654 4.656298637390137 14.56552124023438 C 5.592708587646484 14.96154117584229 6.586918830871582 15.16239070892334 7.611348628997803 15.16239070892334 C 8.635798454284668 15.16239070892334 9.629988670349121 14.96156120300293 10.56636810302734 14.56552124023438 C 11.47039890289307 14.18313121795654 12.28214836120605 13.63597106933594 12.97905921936035 12.9390811920166 C 13.67591857910156 12.24219131469727 14.22316837310791 11.43040084838867 14.60555839538574 10.52637100219727 C 15.00157833099365 9.590001106262207 15.20241832733154 8.595810890197754 15.20241832733154 7.571341037750244 C 15.20241832733154 6.89586067199707 15.11344909667969 6.225690841674805 14.93808841705322 5.579421043395996 C 14.82165908813477 5.149971961975098 14.3792085647583 4.896274566650391 13.94956874847412 5.012770652770996 L 13.949538230896 5.012770652770996 C 13.52006912231445 5.129261016845703 13.26637840270996 5.571890830993652 13.38286876678467 6.001380920410156 C 13.52089881896973 6.510141372680664 13.5908784866333 7.038331031799316 13.5908784866333 7.571341037750244 C 13.5908784866333 9.168540954589844 12.968918800354 10.67017078399658 11.83952903747559 11.79955101013184 C 10.71012878417969 12.92901134490967 9.208548545837402 13.55088138580322 7.611328601837158 13.55088138580322 C 6.014108657836914 13.55088138580322 4.51249885559082 12.92901134490967 3.38312816619873 11.79955101013184 C 2.253748893737793 10.67017078399658 1.631748199462891 9.168540954589844 1.631748199462891 7.571341037750244 C 1.631748199462891 5.974141120910645 2.253728866577148 4.472551345825195 3.38312816619873 3.343160629272461 C 4.51249885559082 2.213781356811523 6.014108657836914 1.591780662536621 7.611328601837158 1.591780662536621 C 8.41050910949707 1.591780662536621 9.185988426208496 1.746590614318848 9.916238784790039 2.05194091796875 C 10.32669734954834 2.22354793548584 10.79879856109619 2.029960632324219 10.97046852111816 1.619391441345215 C 11.14211845397949 1.208821296691895 10.94847869873047 0.7368307113647461 10.53789901733398 0.5651407241821289 C 9.609739303588867 0.1770410537719727 8.625068664550781 -0.01974868774414062 7.611348628997803 -0.01974868774414062 M 7.611348628997803 -2.019749641418457 C 8.891378402709961 -2.019749641418457 10.13559913635254 -1.770878791809082 11.3094482421875 -1.280049324035645 C 12.73673820495605 -0.6832094192504883 13.41241836547852 0.9635410308837891 12.81569862365723 2.390841484069824 C 12.37788867950439 3.43795108795166 11.36164855957031 4.114500999450684 10.2266788482666 4.114500999450684 C 9.853718757629395 4.114500999450684 9.489718437194824 4.041380882263184 9.144779205322266 3.897161483764648 C 8.660139083862305 3.694511413574219 8.144238471984863 3.591780662536621 7.611328601837158 3.591780662536621 C 6.548338890075684 3.591780662536621 5.548978805541992 4.005730628967285 4.797348976135254 4.757370948791504 C 4.045698165893555 5.509011268615723 3.631748199462891 6.508360862731934 3.631748199462891 7.571341037750244 C 3.631748199462891 8.634330749511719 4.045698165893555 9.63369083404541 4.797338485717773 10.38534164428711 C 5.548918724060059 11.13697052001953 6.548258781433105 11.55088043212891 7.611328601837158 11.55088043212891 C 8.674379348754883 11.55088043212891 9.673728942871094 11.13696098327637 10.42527866363525 10.38537120819092 C 11.17693901062012 9.633720397949219 11.5908784866333 8.634350776672363 11.5908784866333 7.571341037750244 C 11.5908784866333 7.215160846710205 11.54436874389648 6.863141059875488 11.4526481628418 6.525060653686523 C 11.0476188659668 5.031761169433594 11.93286895751953 3.487510681152344 13.4259786605835 3.082521438598633 C 13.66620826721191 3.017411231994629 13.9133882522583 2.984460830688477 14.1610689163208 2.984460830688477 C 15.42440891265869 2.984460830688477 16.5377082824707 3.83634090423584 16.86839866638184 5.05608081817627 C 17.08999824523926 5.872760772705078 17.20241928100586 6.719150543212891 17.20241928100586 7.571341037750244 C 17.20241928100586 8.86482048034668 16.94845962524414 10.12114143371582 16.44758796691895 11.30542087554932 C 15.96431827545166 12.44794082641602 15.27316856384277 13.47336101531982 14.3932991027832 14.35326099395752 C 13.51341819763184 15.23312091827393 12.48800849914551 15.92425060272217 11.34549903869629 16.40752029418945 C 10.16117858886719 16.90842056274414 8.904848098754883 17.16239166259766 7.611348628997803 17.16239166259766 C 6.317928314208984 17.16239166259766 5.061598777770996 16.90843200683594 3.877278327941895 16.40756034851074 C 2.734728813171387 15.92428112030029 1.709338188171387 15.23315143585205 0.8294687271118164 14.35333061218262 C -0.0504913330078125 13.47333145141602 -0.7416410446166992 12.44791126251221 -1.224851608276367 11.30547142028809 C -1.725730895996094 10.1212911605835 -1.979701995849609 8.864940643310547 -1.979701995849609 7.571341037750244 C -1.979701995849609 6.27777099609375 -1.725730895996094 5.021421432495117 -1.224851608276367 3.837210655212402 C -0.7416515350341797 2.694761276245117 -0.0504913330078125 1.669341087341309 0.8294382095336914 0.7894306182861328 C 1.709388732910156 -0.09049892425537109 2.73478889465332 -0.7816591262817383 3.877159118652344 -1.26486873626709 C 5.061528205871582 -1.765778541564941 6.317868232727051 -2.019749641418457 7.611348628997803 -2.019749641418457 Z" stroke="none" fill="#ffcc29"/>
      </g>
      <g id="Caminho_907" data-name="Caminho 907" transform="translate(-1700.643 -881.009)" fill="#ffcc29" stroke-linecap="round" stroke-linejoin="round" fill-rule="evenodd">
        <path d="M 1707.839599609375 892.7318115234375 C 1707.357543945312 892.7318115234375 1706.904174804688 892.5440673828125 1706.56298828125 892.2031860351562 L 1703.871459960938 889.5115966796875 C 1703.530395507812 889.1704711914062 1703.342651367188 888.7169799804688 1703.342651367188 888.2346801757812 C 1703.342651367188 887.7523193359375 1703.530395507812 887.298828125 1703.87158203125 886.9578247070312 C 1704.212646484375 886.6168212890625 1704.666015625 886.428955078125 1705.148315429688 886.428955078125 C 1705.630615234375 886.428955078125 1706.083984375 886.6168212890625 1706.425170898438 886.9578247070312 L 1707.689575195312 888.2222290039062 L 1712.181640625 882.6038208007812 C 1712.526000976562 882.1728515625 1713.040283203125 881.9255981445312 1713.592529296875 881.9255981445312 C 1714.00048828125 881.9255981445312 1714.400756835938 882.0661010742188 1714.719604492188 882.3211669921875 C 1715.09619140625 882.6221313476562 1715.333129882812 883.052001953125 1715.386596679688 883.5313110351562 C 1715.440063476562 884.0108642578125 1715.303466796875 884.4824829101562 1715.002075195312 884.8592529296875 L 1709.25 892.0536499023438 C 1708.929931640625 892.4542846679688 1708.452270507812 892.7005615234375 1707.939697265625 892.72900390625 C 1707.907348632812 892.7308349609375 1707.873413085938 892.7318115234375 1707.839599609375 892.7318115234375 Z" stroke="none"/>
        <path d="M 1707.839599609375 891.7318115234375 C 1707.8544921875 891.7318115234375 1707.869384765625 891.7313842773438 1707.88427734375 891.7305297851562 C 1708.113037109375 891.7178344726562 1708.325927734375 891.6082763671875 1708.468994140625 891.42919921875 L 1714.22119140625 884.2345581054688 C 1714.499267578125 883.886962890625 1714.442626953125 883.3799438476562 1714.094970703125 883.10205078125 C 1713.747680664062 882.8240966796875 1713.240478515625 882.8807983398438 1712.962646484375 883.228271484375 L 1707.772705078125 889.7195434570312 L 1705.718017578125 887.6649780273438 C 1705.4033203125 887.3502807617188 1704.893310546875 887.3502807617188 1704.57861328125 887.6649780273438 C 1704.263916015625 887.9796142578125 1704.263916015625 888.48974609375 1704.57861328125 888.8045043945312 L 1707.269775390625 891.4957885742188 C 1707.42138671875 891.6472778320312 1707.62646484375 891.7318115234375 1707.839599609375 891.7318115234375 M 1707.839599609375 893.7318115234375 C 1707.090576171875 893.7318115234375 1706.38623046875 893.440185546875 1705.856201171875 892.9105834960938 L 1703.164306640625 890.2186889648438 C 1702.634399414062 889.6885986328125 1702.342651367188 888.9840698242188 1702.342651367188 888.2346801757812 C 1702.342651367188 887.4851684570312 1702.634521484375 886.7805786132812 1703.16455078125 886.2506103515625 C 1703.694458007812 885.7207641601562 1704.39892578125 885.428955078125 1705.148315429688 885.428955078125 C 1705.897705078125 885.428955078125 1706.602172851562 885.7207641601562 1707.132202148438 886.250732421875 L 1707.606323242188 886.724853515625 L 1711.400512695312 881.9793090820312 C 1711.935791015625 881.3097534179688 1712.734741210938 880.9255981445312 1713.592529296875 880.9255981445312 C 1714.226684570312 880.9255981445312 1714.848754882812 881.1439208984375 1715.344360351562 881.540283203125 C 1715.92919921875 882.0077514648438 1716.29736328125 882.6756591796875 1716.38037109375 883.4204711914062 C 1716.463500976562 884.1656494140625 1716.251342773438 884.8984375 1715.782958984375 885.4839477539062 L 1710.031127929688 892.6781005859375 C 1709.533813476562 893.300537109375 1708.791625976562 893.6832275390625 1707.9951171875 893.7274780273438 C 1707.945556640625 893.7302856445312 1707.892211914062 893.7318115234375 1707.839599609375 893.7318115234375 Z" stroke="none" fill="#ffcc29"/>
      </g>
    </g>
    <g id="Camada_x0020_1-2" data-name="Camada_x0020_1" transform="translate(46.79 243.502)">
      <path id="Caminho_906-2" data-name="Caminho 906" d="M13.95,5.013A.806.806,0,0,0,13.383,6,5.975,5.975,0,1,1,9.916,2.052.806.806,0,1,0,10.538.565a7.593,7.593,0,0,0-5.882,14A7.6,7.6,0,0,0,14.938,5.579a.806.806,0,0,0-.989-.567Z" transform="translate(-0.02 0.02)" fill="#fff" fill-rule="evenodd"/>
      <path id="Caminho_907-2" data-name="Caminho 907" d="M1705.718,887.665a.806.806,0,0,0-1.139,1.14l2.691,2.691a.806.806,0,0,0,.57.236h.045a.806.806,0,0,0,.585-.3l5.752-7.195a.806.806,0,1,0-1.259-1.006l-5.19,6.491Z" transform="translate(-1700.643 -881.009)" fill="#fff" fill-rule="evenodd"/>
    </g>
  </g>
</svg>
