<svg xmlns="http://www.w3.org/2000/svg" width="20.128" height="13.414" viewBox="0 0 20.128 13.414">
  <g id="Camada_x0020_1" transform="translate(0 0.274)">
    <path id="Caminho_32" data-name="Caminho 32" d="M10.064,1.433A5,5,0,1,1,6.53,2.9,4.983,4.983,0,0,1,10.064,1.433ZM.221,6.274A15.332,15.332,0,0,1,4.146,1.9,9.5,9.5,0,0,1,9.551,0,10.107,10.107,0,0,1,15.13,1.64a17.286,17.286,0,0,1,4.759,4.606l.249.343-.249.343a16.942,16.942,0,0,1-3.713,3.807,10.385,10.385,0,0,1-6.1,2.121,10.341,10.341,0,0,1-6.115-2.118A17,17,0,0,1,.242,6.929L.01,6.61l.211-.343Zm4.291-3.5A14.235,14.235,0,0,0,1.027,6.565,15.847,15.847,0,0,0,4.322,9.87a9.713,9.713,0,0,0,5.748,2,9.766,9.766,0,0,0,5.738-2,15.859,15.859,0,0,0,3.274-3.277,16.129,16.129,0,0,0-4.278-4.046A9.508,9.508,0,0,0,9.562,1,8.846,8.846,0,0,0,4.513,2.782Zm8.465.737A4.119,4.119,0,1,0,14.186,6.43a4.112,4.112,0,0,0-1.208-2.914Z" transform="translate(-0.01 0.005)" fill="#8bc756"/>
    <line id="Linha_1" data-name="Linha 1" x2="12" y2="12" transform="translate(4.064 0.433)" fill="none" stroke="#8bc756" stroke-linecap="round" stroke-width="1"/>
  </g>
</svg>
