<svg xmlns="http://www.w3.org/2000/svg" width="112" height="197.275" viewBox="0 0 112 197.275">
  <g id="Grupo_421" data-name="Grupo 421" transform="translate(-160 -366.725)">
    <rect id="Retângulo_441" data-name="Retângulo 441" width="112" height="84" rx="19" transform="translate(160 480)" fill="#f37335"/>
    <path id="Retângulo_442" data-name="Retângulo 442" d="M6,0H50a6,6,0,0,1,6,6v8a0,0,0,0,1,0,0H0a0,0,0,0,1,0,0V6A6,6,0,0,1,6,0Z" transform="translate(188 462)" fill="#f37335"/>
    <path id="Caminho_1553" data-name="Caminho 1553" d="M4,0A4,4,0,0,1,8,4L7.888,89.716h-8L0,4A4,4,0,0,1,4,0Z" transform="translate(213 367)" fill="#f37335"/>
    <path id="Caminho_1551" data-name="Caminho 1551" d="M4,0A4,4,0,0,1,8,4V93l-4.535-.251L0,91.69V4A4,4,0,0,1,4,0Z" transform="translate(184.71 369.064) rotate(-17)" fill="#f37335"/>
    <path id="Caminho_1552" data-name="Caminho 1552" d="M5.88-.52,8,0V89a4,4,0,1,1-8,0V1.278Z" transform="translate(220.65 458) rotate(-163)" fill="#f37335"/>
    <path id="Caminho_1554" data-name="Caminho 1554" d="M5024.162-1785.427c-.542,2.105-1.444,5.714-5.233,13.112s-4.03,18.585,0,26.1,7.519,8.36,7.519,8.36-4.21-8.781-4.331-17.443,4.571-16.179,5.895-24.841-2.767-12.992-2.767-12.992S5024.7-1787.532,5024.162-1785.427Z" transform="translate(-4805.271 2287.489)" fill="#fff"/>
    <path id="Caminho_1555" data-name="Caminho 1555" d="M5.162,4.867a35.757,35.757,0,0,1-3.308,8.288c-2.4,4.676-2.547,11.748,0,16.5S6.606,34.94,6.606,34.94A30.562,30.562,0,0,1,3.869,23.914c-.076-5.475,2.89-10.227,3.726-15.7S5.846,0,5.846,0,5.5,3.536,5.162,4.867Z" transform="translate(204.092 497.687) rotate(9)" fill="#fff"/>
    <path id="Caminho_1556" data-name="Caminho 1556" d="M5.162,4.867a35.763,35.763,0,0,1-3.308,8.288c-2.4,4.676-2.547,11.748,0,16.5S6.606,34.94,6.606,34.94A30.562,30.562,0,0,1,3.869,23.914c-.076-5.475,2.89-10.227,3.726-15.7S5.846,0,5.846,0,5.5,3.536,5.162,4.867Z" transform="translate(223.613 508.063) rotate(1)" fill="#fff"/>
  </g>
</svg>
