<svg xmlns="http://www.w3.org/2000/svg" width="166.506" height="166.506" viewBox="0 0 166.506 166.506">
  <g id="observar" transform="translate(-46.915 -0.002)">
    <path id="Caminho_2070" data-name="Caminho 2070" d="M544.533,164.469a10.8,10.8,0,1,1-9.732-9.73,27.274,27.274,0,1,0,9.732,9.732Z" transform="translate(-414.377 -118.499)" fill="#f37335"/>
    <path id="Caminho_2071" data-name="Caminho 2071" d="M869.062,506.253a8.433,8.433,0,0,1-1.638,5.758,7.874,7.874,0,0,1-.811.938l-10.6,10.6a8.464,8.464,0,0,1-12.106-.144l-.522-.549-5.4-5.664h0l-18.434-19.336-8.607-9.029a8.99,8.99,0,0,1-2.317-4.478,9.133,9.133,0,0,1-.168-1.756v-.036a9,9,0,0,1,.925-3.912l-8.224-8.224a60.193,60.193,0,0,0,6.61-5.711q.736-.736,1.437-1.489a60.141,60.141,0,0,0,4.282-5.132l8.229,8.228a8.994,8.994,0,0,1,10.171,1.566l28.365,27.041,6.21,5.924a8.407,8.407,0,0,1,2.593,5.407Z" transform="translate(-655.67 -359.518)" fill="#f37335"/>
    <path id="Caminho_2072" data-name="Caminho 2072" d="M797.43,442a59.89,59.89,0,0,1-4.282,5.132q-.7.752-1.437,1.489a60.007,60.007,0,0,1-6.611,5.711l0,0,1.523,1.523,1.93,1.93a60.208,60.208,0,0,0,6.61-5.711q.736-.736,1.437-1.489a60.277,60.277,0,0,0,4.282-5.132Z" transform="translate(-643.066 -346.89)" fill="#fff"/>
    <path id="Caminho_2073" data-name="Caminho 2073" d="M446.477,19.217c-.557-.6-1.115-1.188-1.691-1.764a57.249,57.249,0,0,0-5.084-4.529,59.51,59.51,0,0,0-77.7,3.09l-.568.536c-.306.295-.62.6-.925.9a59.4,59.4,0,0,0-14.731,24.283c-.011.032-.021.062-.032.095s-.011.052-.022.084a59.569,59.569,0,0,0-2.657,18.7c.032,1.848.146,3.7.346,5.537a61.392,61.392,0,0,0,1.345,7.639c.032.116.062.241.095.357v.011a58.211,58.211,0,0,0,2.533,7.766h-.011c.557,1.377,1.166,2.722,1.829,4.067.357.736.736,1.45,1.123,2.175a59.333,59.333,0,0,0,6.684,9.752c.893,1.061,1.829,2.092,2.795,3.1.23.241.463.484.7.714.579.579,1.166,1.145,1.764,1.691a62.469,62.469,0,0,0,6.514,5.222c.62.42,1.25.841,1.881,1.25,1.218.766,2.46,1.491,3.71,2.175a59.8,59.8,0,0,0,14.279,5.453q2.443.584,4.928.966a59.654,59.654,0,0,0,9.067.693c.966,0,1.932-.032,2.9-.073a59.354,59.354,0,0,0,32.614-11.663h.011c.514-.379,1.02-.777,1.524-1.177a62.183,62.183,0,0,0,5.085-4.538c.484-.493.966-.988,1.429-1.491a57.684,57.684,0,0,0,4.286-5.128,60.937,60.937,0,0,0,4.035-6.189,59.654,59.654,0,0,0-8.059-69.707Zm-43.833,85.135A44.759,44.759,0,1,1,447.4,59.593,44.759,44.759,0,0,1,402.644,104.352Z" transform="translate(-296.138 0)" fill="#f37335"/>
  </g>
</svg>
