<svg xmlns="http://www.w3.org/2000/svg" width="132.043" height="134.104" viewBox="0 0 132.043 134.104">
  <g id="_2606889_6156" data-name="2606889_6156" transform="translate(-47.512 -46.811)">
    <g id="Object" transform="translate(47.512 46.811)">
      <g id="Grupo_357" data-name="Grupo 357">
        <path id="Caminho_928" data-name="Caminho 928" d="M446.452,472.81l4.66-4.66-3.7-3.7-4.677,4.641Z" transform="translate(-405.421 -420.835)" fill="none" stroke="#c52e08" stroke-width="1"/>
        <path id="Caminho_929" data-name="Caminho 929" d="M405.865,521.951a2.667,2.667,0,0,0,3.648.115l0,0-3.751-3.751A2.665,2.665,0,0,0,405.865,521.951Z" transform="translate(-376.919 -461.621)" fill="none" stroke="#c52e08" stroke-width="1"/>
        <path id="Caminho_930" data-name="Caminho 930" d="M496.918,411.731l3.671,3.671.906-.9,3.754-3.755-4.8-4.8a5.786,5.786,0,0,1-1.929,4.194Z" transform="translate(-446.452 -376.532)" fill="none" stroke="#c52e08" stroke-width="1"/>
        <path id="Caminho_931" data-name="Caminho 931" d="M659.47,472.789l3.743-3.743-4.679-4.645-3.713,3.713,3.732,3.731-.013.016Z" transform="translate(-566.025 -420.799)" fill="none" stroke="#c52e08" stroke-width="1"/>
        <path id="Caminho_932" data-name="Caminho 932" d="M604.534,410.492l-3.689,3.693,1.307,1.31,3.35,3.349,3.678-3.682-.195-.2-3.862-3.831A6.024,6.024,0,0,1,604.534,410.492Z" transform="translate(-525.151 -379.976)" fill="none" stroke="#c52e08" stroke-width="1"/>
        <path id="Caminho_945" data-name="Caminho 945" d="M344.89,394.748c.541.623,1.1,1.238,1.689,1.83s1.207,1.15,1.833,1.688l.735.737.059-.057a33.968,33.968,0,0,0,22.716,7.532c.191-.011.382-.026.569-.026a11.913,11.913,0,0,1,6.909,2.127l3.018,3.018,4.847,4.844,33.808-33.808-5.345-5.34a11.9,11.9,0,0,1-3.476-8.091,40.168,40.168,0,0,0-.33-18.766,39.831,39.831,0,0,0-9.115-17.1c-.5-.554-.97-1.122-1.5-1.657l-.065-.062.015-.011-6.833-6.78-4.679-4.641-8.478-8.415-4.1-4.064-.134-.133a5.475,5.475,0,0,0-.486-.409,5.71,5.71,0,0,0-3.693-1.356,5.818,5.818,0,0,0-5.8,5.837,5.749,5.749,0,0,0,1.351,3.655,6.084,6.084,0,0,0,.59.646l3.862,3.831.195.2,8.48,8.414,4.679,4.645,5.871,5.821.068.069a2.669,2.669,0,0,1-3.678,3.862l-.25-.252-5.755-5.757-.93-.928.013-.016-3.732-3.732-8.445-8.446-3.35-3.349-1.307-1.31-8.448-8.445-23.919-23.915-.087-.1-.1-.092a5.979,5.979,0,0,0-8.56,8.339l.2.214.211.191L337.1,308.262l5.928,5.932,4.8,4.8,5.57,5.566a41.124,41.124,0,0,0-5.657,3.667l-4.573-4.573-3.671-3.671-8.2-8.2-14.878-14.871-.18-.206a5.985,5.985,0,1,0-8.464,8.464l.16.145,14.882,14.881,8.2,8.2,3.7,3.7,4.729,4.728a40.168,40.168,0,0,0-3.476,5.844l-5.913-5.913-3.718-3.72-8.207-8.205-12.012-12.009-.017.023-.195-.215a5.969,5.969,0,0,0-8.641,8.231l.191.215.214.195,11.979,11.978,8.22,8.22,3.751,3.751,8.851,8.846a13.273,13.273,0,0,1,24.576-.939,13.284,13.284,0,1,1,21.5,14.855v0L355.538,388.87l-.455.187-.453-.187-20.264-20.13a13.719,13.719,0,0,1-1.484-1.474,13.386,13.386,0,0,1-2.2-3.667l-25.4-25.4-5.986-5.986-.042-.046-.046-.038a5.986,5.986,0,0,0-8.809,8.082l.386.428.424.385,8.113,8.113,30.294,30.291-.025.026Z" transform="translate(-289.031 -284.782)" fill="rgba(197,46,8,0.97)"/>
        <g id="Grupo_358" data-name="Grupo 358">
          <path id="Caminho_933" data-name="Caminho 933" d="M355.977,489.391l25.4,25.4c-.081-.2-.2-.378-.267-.584a13.163,13.163,0,0,1,.061-8.946l-8.851-8.846,0,0a2.657,2.657,0,0,1-3.747-3.755l-8.22-8.22-.807.8.012.011-.065.062A41.615,41.615,0,0,0,355.977,489.391Z" transform="translate(-339.724 -435.979)" fill="rgba(255,255,255,0.4)"/>
          <path id="Caminho_934" data-name="Caminho 934" d="M289.023,585.821l33.811,33.808,4.845-4.844,3.018-3.018a11.92,11.92,0,0,1,6.909-2.127c.191,0,.382.015.569.026a33.9,33.9,0,0,0,19.236-5.069,33.559,33.559,0,0,1-8.212-4.908l-.059.057-.735-.737c-.627-.538-1.238-1.1-1.833-1.688s-1.148-1.207-1.689-1.83l-15.3-15.3.025-.026-30.295-30.291a40.843,40.843,0,0,0-2.418,12.96,39.721,39.721,0,0,0,.948,9.553,11.894,11.894,0,0,1-3.484,8.091Z" transform="translate(-289.023 -485.525)" fill="rgba(255,255,255,0.4)"/>
          <path id="Caminho_935" data-name="Caminho 935" d="M417.134,443.494l4.677-4.641-8.2-8.205-4.679,4.641Z" transform="translate(-379.82 -395.239)" fill="rgba(255,255,255,0.4)"/>
          <path id="Caminho_936" data-name="Caminho 936" d="M778.4,484.534l-.046.038-.038.046-3.968,3.969a40.459,40.459,0,0,1,5.08,11.815l6.97-6.971.425-.385.385-.428a5.985,5.985,0,0,0-8.808-8.083Z" transform="translate(-656.538 -434.748)" fill="rgba(255,255,255,0.4)"/>
          <path id="Caminho_937" data-name="Caminho 937" d="M730.075,420.741c.532.535,1,1.1,1.5,1.657l9.618-9.617.213-.195.191-.215a5.967,5.967,0,0,0-8.635-8.232l-.193.215-.022-.024-9.557,9.557,6.833,6.78-.015.011Z" transform="translate(-617.798 -373.845)" fill="rgba(255,255,255,0.4)"/>
          <path id="Caminho_938" data-name="Caminho 938" d="M677.714,483.534l-3.743,3.743,5.755,5.757.251.252a2.669,2.669,0,0,0,3.678-3.862l-.068-.069Z" transform="translate(-580.525 -435.287)" fill="rgba(255,255,255,0.4)"/>
          <path id="Caminho_939" data-name="Caminho 939" d="M582.626,313.431a5.711,5.711,0,0,1,3.693,1.356l9.53-9.534.214-.191.191-.214a5.976,5.976,0,0,0-8.552-8.339l-.1.092-.091.1L566.045,318.17l8.448,8.445,3.69-3.693a5.748,5.748,0,0,1-1.351-3.655A5.818,5.818,0,0,1,582.626,313.431Z" transform="translate(-498.798 -292.406)" fill="rgba(255,255,255,0.4)"/>
          <path id="Caminho_940" data-name="Caminho 940" d="M681.592,338.478l-.18.206L668.993,351.1l8.478,8.415L689.9,347.088l.157-.145a5.985,5.985,0,0,0-8.465-8.464Z" transform="translate(-576.756 -324.116)" fill="rgba(255,255,255,0.4)"/>
          <path id="Caminho_941" data-name="Caminho 941" d="M464.777,383.394l-1.642,1.628,8.2,8.2,1.6-1.593a5.787,5.787,0,0,0,1.929-4.194l-5.928-5.932a5.8,5.8,0,0,0-4.03,1.753Z" transform="translate(-420.869 -358.028)" fill="rgba(255,255,255,0.4)"/>
          <path id="Caminho_942" data-name="Caminho 942" d="M512.039,430.367l4.573,4.573a41.132,41.132,0,0,1,5.657-3.667l-5.57-5.566-3.754,3.755Z" transform="translate(-457.902 -391.498)" fill="rgba(255,255,255,0.4)"/>
          <path id="Caminho_943" data-name="Caminho 943" d="M463.965,490.27a40.159,40.159,0,0,1,3.476-5.844l-4.729-4.728-4.66,4.66Z" transform="translate(-417.021 -432.383)" fill="rgba(255,255,255,0.4)"/>
          <path id="Caminho_944" data-name="Caminho 944" d="M628.476,441.866l3.713-3.713-8.48-8.414-3.678,3.682Z" transform="translate(-539.679 -394.55)" fill="rgba(255,255,255,0.4)"/>
          <path id="Caminho_946" data-name="Caminho 946" d="M481.8,541.968a13.273,13.273,0,0,0-24.576.939,13.164,13.164,0,0,0-.061,8.945c.072.206.186.386.267.585a13.391,13.391,0,0,0,2.2,3.667,13.67,13.67,0,0,0,1.484,1.474l20.264,20.13.453.187.455-.187L503.3,556.826v0a13.282,13.282,0,1,0-21.5-14.855Z" transform="translate(-415.78 -473.621)" fill="rgba(255,255,255,0.4)"/>
        </g>
      </g>
    </g>
  </g>
</svg>
