<svg xmlns="http://www.w3.org/2000/svg" width="29.751" height="29.754" viewBox="0 0 29.751 29.754">
  <g id="Camada_x0020_1" transform="translate(0)">
    <g id="_2174860689440" transform="translate(0 0)">
      <path id="Caminho_701" data-name="Caminho 701" d="M29.751,14.867a14.827,14.827,0,0,1-4.358,10.519h0a14.877,14.877,0,1,1,0-21.037h0A14.821,14.821,0,0,1,29.751,14.867Zm-5.629,9.248a13.09,13.09,0,1,0-9.251,3.824,13.047,13.047,0,0,0,9.251-3.824Z" transform="translate(0 0.01)" fill="#fefefe"/>
      <g id="Grupo_83" data-name="Grupo 83" transform="translate(7.855 5.278)">
        <path id="Caminho_702" data-name="Caminho 702" d="M25.106,21.183a1.144,1.144,0,1,1-2.073-.97,8.306,8.306,0,0,1,3.841-4.053,7.457,7.457,0,0,1,3.988-.733,6.755,6.755,0,0,1,3.519,1.357l.069.058a5.094,5.094,0,0,1,1.843,2.977l.01.058c.593,3.1-1.329,4.961-3.21,6.774-1.23,1.185-2.433,2.35-2.433,3.683a1.148,1.148,0,1,1-2.3,0c0-2.3,1.556-3.8,3.142-5.335,1.432-1.384,2.9-2.8,2.542-4.7l-.007-.031a2.826,2.826,0,0,0-1.021-1.638l-.055-.041a4.435,4.435,0,0,0-2.316-.881,5.17,5.17,0,0,0-2.768.507,6.059,6.059,0,0,0-2.772,2.967Z" transform="translate(-22.925 -15.394)" fill="#fefefe"/>
        <ellipse id="Elipse_11" data-name="Elipse 11" cx="1.449" cy="1.449" rx="1.449" ry="1.449" transform="translate(5.076 16.815)" fill="#fefefe"/>
      </g>
    </g>
  </g>
</svg>
