<svg id="Camada_x0020_1" xmlns="http://www.w3.org/2000/svg" width="16.207" height="16.207" viewBox="0 0 16.207 16.207">
  <path id="Caminho_908" data-name="Caminho 908" d="M14.89,5.353a.86.86,0,0,0-.6,1.055,6.378,6.378,0,1,1-3.7-4.216A.86.86,0,1,0,11.248.6,8.105,8.105,0,0,0,4.969,15.55,8.109,8.109,0,0,0,15.945,5.957a.86.86,0,0,0-1.055-.6Z" transform="translate(-0.02 0.02)" fill="#f37335" fill-rule="evenodd"/>
  <path id="Caminho_909" data-name="Caminho 909" d="M1705.811,887.985a.86.86,0,0,0-1.217,1.216l2.873,2.873a.861.861,0,0,0,.608.252h.048a.86.86,0,0,0,.624-.322l6.141-7.68a.86.86,0,1,0-1.343-1.074l-5.541,6.93Z" transform="translate(-1700.394 -880.88)" fill="#f37335" fill-rule="evenodd"/>
</svg>
