<svg xmlns="http://www.w3.org/2000/svg" width="28.448" height="25.449" viewBox="0 0 28.448 25.449">
  <g id="Componente_8_1" data-name="Componente 8 – 1" transform="translate(0.25 0.25)">
    <g id="_2023317046128" transform="translate(5.853 5.907)">
      <path id="Caminho_473" data-name="Caminho 473" d="M148.7,177.272H133.387a.336.336,0,1,1,0-.672H148.7a.336.336,0,1,1,0,.672Z" transform="translate(-132.923 -176.471)" fill="#fefefe" fill-rule="evenodd"/>
      <path id="Caminho_474" data-name="Caminho 474" d="M132.924,176.253a.21.21,0,1,0,0,.421h15.312a.21.21,0,1,0,0-.421Zm15.312.674H132.924a.464.464,0,0,1,0-.928h15.312a.464.464,0,1,1,0,.928Z" transform="translate(-132.46 -176)" fill="#fefefe" fill-rule="evenodd"/>
      <path id="Caminho_475" data-name="Caminho 475" d="M148.7,205.684H133.387a.337.337,0,0,1,0-.674H148.7a.337.337,0,0,1,0,.674Z" transform="translate(-132.923 -198.779)" fill="#fefefe" fill-rule="evenodd"/>
      <path id="Caminho_476" data-name="Caminho 476" d="M132.924,204.663a.21.21,0,1,0,0,.421h15.312a.21.21,0,1,0,0-.421Zm15.312.674H132.924a.464.464,0,0,1,0-.928h15.312a.464.464,0,1,1,0,.928Z" transform="translate(-132.46 -198.308)" fill="#fefefe" fill-rule="evenodd"/>
      <path id="Caminho_477" data-name="Caminho 477" d="M148.7,234.087H133.387a.338.338,0,0,1,0-.677H148.7a.338.338,0,0,1,0,.677Z" transform="translate(-132.923 -221.079)" fill="#fefefe" fill-rule="evenodd"/>
      <path id="Caminho_478" data-name="Caminho 478" d="M132.924,233.081a.21.21,0,1,0,0,.421h15.312a.21.21,0,1,0,0-.421Zm15.312.677H132.924a.464.464,0,1,1,0-.928h15.312a.464.464,0,1,1,0,.928Z" transform="translate(-132.46 -220.624)" fill="#fefefe" fill-rule="evenodd"/>
    </g>
    <rect id="Retângulo_24" data-name="Retângulo 24" width="27.948" height="24.949" rx="4" fill="none" stroke="#fefefe" stroke-miterlimit="22.926" stroke-width="0.5"/>
  </g>
</svg>
