<svg xmlns="http://www.w3.org/2000/svg" width="169.685" height="92.616" viewBox="0 0 169.685 92.616">
  <path id="Interseção_9" data-name="Interseção 9" d="M73.079,88.481c-4.252-2.4-8.671-4.846-13.363-4.846s-9.107,2.449-13.358,4.846a42.343,42.343,0,0,1-7.342,3.561A85.165,85.165,0,0,1,9.5,59.735a9.722,9.722,0,0,1,2.222-.277c3.274,0,6.873,2.014,10.636,4.135,4.253,2.4,8.669,4.848,13.36,4.848s9.109-2.451,13.363-4.848c3.76-2.121,7.364-4.135,10.632-4.135s6.873,2.014,10.635,4.135c4.256,2.4,8.671,4.848,13.362,4.848s9.106-2.451,13.363-4.848c3.761-2.121,7.363-4.135,10.633-4.135s6.819,2.014,10.633,4.135c4.257,2.4,8.672,4.848,13.363,4.848s9.107-2.451,13.362-4.848c3.761-2.121,7.361-4.135,10.633-4.135a11.776,11.776,0,0,1,4.161.883A85.175,85.175,0,0,1,130.02,92.453c-2.794-.523-5.78-2.211-8.948-3.972-4.257-2.4-8.672-4.846-13.363-4.846S98.6,86.083,94.346,88.481c-3.761,2.121-7.36,4.135-10.633,4.135S76.846,90.6,73.079,88.481Zm47.993-29.734c-4.257-2.4-8.672-4.844-13.363-4.844S98.6,56.352,94.346,58.747c-3.761,2.126-7.36,4.142-10.633,4.142s-6.868-2.016-10.635-4.142c-4.252-2.4-8.671-4.844-13.363-4.844s-9.107,2.449-13.358,4.844c-3.764,2.126-7.364,4.142-10.637,4.142s-6.869-2.016-10.634-4.142c-4.253-2.4-8.619-4.844-13.363-4.844a16.036,16.036,0,0,0-4.662.734A84.066,84.066,0,0,1,1.018,33.908l.074-.041c3.761-2.121,7.364-4.135,10.633-4.135s6.873,2.014,10.636,4.135c4.253,2.4,8.669,4.846,13.36,4.846s9.109-2.451,13.363-4.846c3.76-2.121,7.364-4.135,10.632-4.135s6.873,2.014,10.635,4.135c4.256,2.4,8.671,4.846,13.362,4.846s9.106-2.451,13.363-4.846c3.761-2.121,7.363-4.135,10.633-4.135s6.819,2.014,10.633,4.135c4.257,2.4,8.672,4.846,13.363,4.846s9.107-2.451,13.362-4.846c3.761-2.121,7.361-4.135,10.633-4.135s6.816,2.014,10.635,4.135c.708.4,1.422.8,2.143,1.192a84.117,84.117,0,0,1-6.167,20.273A17.786,17.786,0,0,0,155.7,53.9c-4.69,0-9.105,2.449-13.361,4.844-3.761,2.126-7.36,4.142-10.634,4.142S124.885,60.873,121.072,58.747Zm0-29.726c-4.257-2.4-8.672-4.844-13.363-4.844S98.6,26.625,94.346,29.021c-3.761,2.126-7.36,4.137-10.633,4.137s-6.868-2.011-10.635-4.137c-4.252-2.4-8.671-4.844-13.363-4.844s-9.107,2.449-13.358,4.844c-3.764,2.126-7.364,4.137-10.637,4.137s-6.869-2.011-10.634-4.137c-4.253-2.4-8.619-4.844-13.363-4.844C7.7,24.176,3.945,25.941.3,27.941q-.3-3.559-.3-7.2A84.986,84.986,0,0,1,1.7,3.8C5.238,1.809,8.629,0,11.724,0,15,0,18.6,2.02,22.361,4.141c4.253,2.4,8.669,4.844,13.36,4.844S44.83,6.538,49.084,4.141C52.844,2.02,56.447,0,59.716,0s6.873,2.02,10.635,4.141c4.256,2.4,8.671,4.844,13.362,4.844s9.106-2.447,13.363-4.844C100.837,2.02,104.439,0,107.709,0s6.819,2.02,10.633,4.141c4.257,2.4,8.672,4.844,13.363,4.844s9.107-2.447,13.362-4.844C148.828,2.02,152.428,0,155.7,0s6.816,2.02,10.635,4.141c.637.36,1.28.722,1.925,1.073a85.062,85.062,0,0,1,1.424,15.528q0,4.248-.413,8.394c-.069-.035-.14-.076-.208-.115-4.256-2.4-8.672-4.844-13.364-4.844s-9.105,2.449-13.361,4.844c-3.761,2.126-7.36,4.137-10.634,4.137S124.885,31.147,121.072,29.021Z" fill="#f37335"/>
</svg>
