<svg xmlns="http://www.w3.org/2000/svg" width="169.687" height="92.615" viewBox="0 0 169.687 92.615">
  <path id="Interseção_9" data-name="Interseção 9" d="M121.07,88.479c-4.254-2.4-8.672-4.846-13.361-4.846s-9.108,2.45-13.361,4.846c-3.763,2.123-7.363,4.138-10.634,4.138S76.841,90.6,73.077,88.479c-4.253-2.4-8.671-4.846-13.361-4.846a16.171,16.171,0,0,0-4.824.791A85.2,85.2,0,0,1,40.243,67.742,44.094,44.094,0,0,0,49.082,63.6c3.763-2.123,7.363-4.138,10.634-4.138s6.872,2.015,10.635,4.138c4.253,2.4,8.671,4.846,13.361,4.846s9.107-2.45,13.361-4.846c3.763-2.123,7.362-4.138,10.634-4.138s6.817,2.015,10.634,4.138c4.253,2.4,8.672,4.846,13.361,4.846s9.108-2.45,13.361-4.846c3.763-2.123,7.362-4.138,10.634-4.138s6.818,2.015,10.634,4.138c4.254,2.4,8.671,4.846,13.361,4.846q.658,0,1.309-.062a85.227,85.227,0,0,1-16.258,17.776,20.7,20.7,0,0,0-9.046-2.523c-4.69,0-9.107,2.45-13.361,4.846-3.763,2.123-7.362,4.138-10.634,4.138S124.887,90.6,121.07,88.479Zm47.992-29.728c-4.253-2.4-8.671-4.846-13.361-4.846s-9.107,2.45-13.361,4.846c-3.763,2.123-7.362,4.138-10.634,4.138s-6.818-2.015-10.634-4.138c-4.254-2.4-8.672-4.846-13.361-4.846s-9.108,2.45-13.361,4.846c-3.763,2.123-7.363,4.138-10.634,4.138s-6.871-2.015-10.635-4.138c-4.253-2.4-8.671-4.846-13.361-4.846s-9.107,2.45-13.361,4.846c-3.22,1.817-6.319,3.554-9.2,4.018a84.069,84.069,0,0,1-9.683-26.194,19.656,19.656,0,0,0,8.245,2.139c4.69,0,9.108-2.45,13.361-4.846,3.763-2.124,7.363-4.138,10.634-4.138s6.872,2.014,10.635,4.138c4.253,2.4,8.671,4.846,13.361,4.846s9.107-2.45,13.361-4.846c3.763-2.124,7.362-4.138,10.634-4.138s6.817,2.014,10.634,4.138c4.253,2.4,8.672,4.846,13.361,4.846s9.108-2.45,13.361-4.846c3.763-2.124,7.362-4.138,10.634-4.138s6.818,2.014,10.634,4.138c4.254,2.4,8.671,4.846,13.361,4.846s9.108-2.45,13.361-4.846c.589-.33,1.176-.656,1.759-.974a84.049,84.049,0,0,1-9.536,28.521,13.858,13.858,0,0,1-5.584,1.473C176.424,62.889,172.879,60.874,169.061,58.751Zm0-29.728c-4.253-2.4-8.671-4.847-13.361-4.847s-9.107,2.451-13.361,4.847c-3.763,2.123-7.362,4.137-10.634,4.137s-6.818-2.014-10.634-4.137c-4.254-2.4-8.672-4.847-13.361-4.847S98.6,26.627,94.347,29.023c-3.763,2.123-7.363,4.137-10.634,4.137s-6.871-2.014-10.635-4.137c-4.253-2.4-8.671-4.847-13.361-4.847s-9.107,2.451-13.361,4.847c-3.763,2.123-7.362,4.137-10.634,4.137-2.867,0-5.985-1.546-9.245-3.358A85.634,85.634,0,0,1,27.157,6.7,20.057,20.057,0,0,0,35.72,8.986c4.69,0,9.108-2.45,13.361-4.846C52.844,2.017,56.444,0,59.716,0s6.872,2.014,10.635,4.138c4.253,2.4,8.671,4.846,13.361,4.846s9.107-2.45,13.361-4.846C100.837,2.017,104.436,0,107.708,0s6.817,2.014,10.634,4.138c4.253,2.4,8.672,4.846,13.361,4.846s9.108-2.45,13.361-4.846C148.829,2.017,152.428,0,155.7,0s6.818,2.014,10.634,4.138c4.254,2.4,8.671,4.846,13.361,4.846s9.108-2.45,13.361-4.846l.9-.5a84.937,84.937,0,0,1,1.73,17.1q0,2.792-.179,5.54c-1.761.817-3.48,1.785-5.173,2.739-3.764,2.123-7.363,4.137-10.635,4.137S172.879,31.146,169.061,29.023Z" transform="translate(-25.996 -0.003)" fill="#f37335"/>
</svg>
