<svg xmlns="http://www.w3.org/2000/svg" width="36.539" height="143.962" viewBox="0 0 36.539 143.962">
  <g id="Caminho_2084" data-name="Caminho 2084" transform="translate(-116.485 -4.665)" fill="#f37335" stroke-linejoin="round">
    <path d="M 124.5337142944336 147.1268310546875 C 123.5268478393555 147.1268463134766 122.5365905761719 146.7826232910156 121.7453689575195 146.1575317382812 C 120.8020629882812 145.4122924804688 120.2054061889648 144.3441925048828 120.0653686523438 143.1500091552734 C 119.9254684448242 141.9570617675781 120.2579498291016 140.7810821533203 121.0016555786133 139.8382110595703 L 121.4282455444336 139.2917785644531 L 121.8428802490234 138.749267578125 L 122.7616424560547 137.5471649169922 L 122.7633285522461 137.5484771728516 C 129.0036010742188 129.1731262207031 133.8647003173828 119.9242172241211 137.2218017578125 110.0349807739258 C 140.7210693359375 99.72719573974609 142.4953308105469 88.91659545898438 142.4953308105469 77.90348815917969 C 142.4953308105469 66.12132263183594 140.4720611572266 54.60054397583008 136.4817352294922 43.66117858886719 C 132.4729461669922 32.67094421386719 126.6044235229492 22.54414367675781 119.0392074584961 13.56210708618164 L 117.7355194091797 12.01425266265869 L 118.1395874023438 11.84108352661133 C 117.6987686157227 10.20353317260742 118.2052688598633 8.382147789001465 119.5863342285156 7.2206711769104 C 120.3961715698242 6.539652824401855 121.4242630004883 6.164652824401855 122.4813003540039 6.164652824401855 C 123.8139343261719 6.164652824401855 125.0697708129883 6.749089241027832 125.9267730712891 7.768143653869629 C 129.9984741210938 12.60227108001709 133.6695404052734 17.81750679016113 136.8372650146484 23.26812553405762 C 140.0423889160156 28.78312492370605 142.7726593017578 34.60905456542969 144.9522247314453 40.58407211303711 C 149.3128967285156 52.53887176513672 151.5239562988281 65.09487152099609 151.5239562988281 77.90334320068359 C 151.5239562988281 89.88163757324219 149.5851135253906 101.6663589477539 145.7613220214844 112.9301605224609 C 142.1003112792969 123.7148590087891 136.7711029052734 133.8276062011719 129.9108428955078 143.0120544433594 L 129.9398803710938 143.0339660644531 L 128.9942626953125 144.2369995117188 L 128.0698089599609 145.4131317138672 C 127.208610534668 146.5032348632812 125.9205932617188 147.1268005371094 124.5337142944336 147.1268310546875 Z" stroke="none"/>
    <path d="M 122.4813079833984 7.664642333984375 C 121.7997131347656 7.664642333984375 121.1141967773438 7.895706176757812 120.5517883300781 8.368637084960938 C 119.283935546875 9.434921264648438 119.12060546875 11.32763671875 120.1868591308594 12.59562683105469 L 120.1865081787109 12.59577941894531 C 127.7496795654297 21.57542419433594 133.7859191894531 31.89316558837891 137.8909149169922 43.14716339111328 C 141.8401489257812 53.97388458251953 143.9953308105469 65.67880249023438 143.9953308105469 77.90348052978516 C 143.9953308105469 89.32554626464844 142.1126403808594 100.2942428588867 138.6421813964844 110.5171661376953 C 135.0340270996094 121.1460266113281 129.7257232666016 130.9692687988281 123.04638671875 139.6601257324219 L 123.0421142578125 139.6659240722656 L 123.03466796875 139.6601257324219 L 122.6150817871094 140.2091064453125 L 122.1808776855469 140.7652893066406 C 121.1535339355469 142.0656890869141 121.3748474121094 143.9531860351562 122.6752624511719 144.9805297851562 C 123.9756622314453 146.0079040527344 125.8631286621094 145.7865753173828 126.8905029296875 144.4861602783203 L 127.81494140625 143.31005859375 L 127.8074798583984 143.3043975830078 C 134.9046020507812 134.0686798095703 140.5324249267578 123.6672058105469 144.3409423828125 112.4479827880859 C 148.0252685546875 101.5950469970703 150.0239562988281 89.97608184814453 150.0239562988281 77.90334320068359 C 150.0239562988281 64.98918151855469 147.7359313964844 52.59288024902344 143.5430297851562 41.09810638427734 C 139.1989135742188 29.18912506103516 132.8014678955078 18.25849914550781 124.7787780761719 8.733596801757812 C 124.1854553222656 8.028091430664062 123.3364105224609 7.664642333984375 122.4813079833984 7.664642333984375 M 122.4813079833984 4.664642333984375 C 124.2578430175781 4.664642333984375 125.9320983886719 5.443939208984375 127.0747985839844 6.802719116210938 C 131.2015075683594 11.7021484375 134.9229278564453 16.98890686035156 138.1341400146484 22.514404296875 C 141.3835754394531 28.10562133789062 144.151611328125 34.01218414306641 146.3613891601562 40.07004547119141 C 150.7823638916016 52.19010162353516 153.0239562988281 64.9190673828125 153.0239562988281 77.90334320068359 C 153.0239562988281 90.04595947265625 151.058349609375 101.992919921875 147.1817321777344 113.4123687744141 C 143.3323364257812 124.7518997192383 137.6639709472656 135.3586120605469 130.3323974609375 144.9417724609375 C 130.2830505371094 145.0178985595703 130.2300720214844 145.0920562744141 130.1735382080078 145.1639862060547 L 129.2490997314453 146.340087890625 C 129.24755859375 146.3420257568359 129.2460479736328 146.3439788818359 129.2445068359375 146.3459167480469 C 128.0993041992188 147.7954711914062 126.3822631835938 148.6268310546875 124.5336608886719 148.6268310546875 C 123.1907806396484 148.6268310546875 121.8703002929688 148.1678619384766 120.8154754638672 147.3345031738281 C 119.5578002929688 146.3409271240234 118.7622985839844 144.9168701171875 118.5755767822266 143.3247222900391 C 118.3893127441406 141.7363739013672 118.8312530517578 140.1704711914062 119.8200073242188 138.9142456054688 L 120.2405242919922 138.3756103515625 L 120.6511077880859 137.8384094238281 C 120.7000579833984 137.7743530273438 120.7514038085938 137.7125244140625 120.804931640625 137.6530456542969 C 127.3156890869141 129.1416320800781 132.3605651855469 119.6887435913086 135.8014068603516 109.5528030395508 C 139.2478485107422 99.40066528320312 140.9953155517578 88.75230407714844 140.9953155517578 77.90348052978516 C 140.9953155517578 66.29720306396484 139.0026245117188 54.94938659667969 135.0725555419922 44.17520141601562 C 131.1241149902344 33.35040283203125 125.3437194824219 23.37577819824219 117.8919372558594 14.52839660644531 C 117.8768463134766 14.51048278808594 117.8619842529297 14.49240112304688 117.8473510742188 14.47418212890625 C 115.7659759521484 11.94241333007812 116.1063079833984 8.187454223632812 118.6208190917969 6.072677612304688 C 119.7006683349609 5.164642333984375 121.0716247558594 4.664642333984375 122.4813079833984 4.664642333984375 Z" stroke="none" fill="#fff"/>
  </g>
</svg>
