<svg xmlns="http://www.w3.org/2000/svg" width="22.26" height="71.171" viewBox="0 0 22.26 71.171">
  <g id="Caminho_2084" data-name="Caminho 2084" transform="translate(-74.219 -42.457)" fill="#f37335" stroke-linejoin="round">
    <path d="M 80.39435577392578 112.1276931762695 C 79.36428070068359 112.1276931762695 78.38565063476562 111.7972793579102 77.56425476074219 111.1721725463867 C 75.51231384277344 109.610221862793 75.11370086669922 106.6701507568359 76.67555236816406 104.6181488037109 C 79.52286529541016 100.8774566650391 81.73693084716797 96.73674774169922 83.25627899169922 92.31102752685547 C 84.82770538330078 87.73374938964844 85.62447357177734 82.93309020996094 85.62447357177734 78.04241180419922 C 85.62447357177734 73.15223693847656 84.82769012451172 68.35157012939453 83.25627136230469 63.77373123168945 C 81.73681640625 59.34772109985352 79.52275085449219 55.20703125 76.67559051513672 51.46672058105469 C 75.91892242431641 50.47291946411133 75.59457397460938 49.24375915527344 75.76238250732422 48.00580215454102 C 75.93019104003906 46.76784133911133 76.57007598876953 45.66936111450195 77.56416320800781 44.9127197265625 C 78.38531494140625 44.28747940063477 79.36408996582031 43.9569206237793 80.39449310302734 43.9569206237793 C 81.86859893798828 43.9569206237793 83.22581481933594 44.62911987304688 84.11813354492188 45.8011589050293 C 87.57211303710938 50.33847045898438 90.25871276855469 55.36352920532227 92.10335540771484 60.73683929443359 L 92.18462371826172 60.97357940673828 L 92.18462371826172 60.97557830810547 C 94.03853607177734 66.46086883544922 94.97833251953125 72.20119476318359 94.97846984863281 78.04222869873047 C 94.97846984863281 83.96804046630859 94.01113891601562 89.79047393798828 92.10335540771484 95.34783172607422 C 90.25885009765625 100.7208786010742 87.572265625 105.7459487915039 84.11820220947266 110.2834320068359 C 83.22563171386719 111.4555587768555 81.86840057373047 112.1276931762695 80.39435577392578 112.1276931762695 Z" stroke="none"/>
    <path d="M 80.39450073242188 45.4569091796875 C 79.72367095947266 45.45687103271484 79.04763031005859 45.66849517822266 78.47265625 46.10628509521484 C 77.07649230957031 47.16897583007812 76.80633544921875 49.16228485107422 77.86913299560547 50.55817413330078 C 80.81378936767578 54.42657470703125 83.10347747802734 58.70903015136719 84.67501068115234 63.28673553466797 C 86.30034637451172 68.02159881591797 87.12446594238281 72.98606872558594 87.12446594238281 78.04241180419922 C 87.12446594238281 83.0987548828125 86.30048370361328 88.06334686279297 84.67501068115234 92.79808044433594 C 83.10347747802734 97.37579345703125 80.81365966796875 101.6582336425781 77.86913299560547 105.5266342163086 C 76.80647277832031 106.9227981567383 77.07675933837891 108.9159545898438 78.47265625 109.9785232543945 C 79.86898040771484 111.0411376953125 81.86174774169922 110.7707138061523 82.92466735839844 109.3748779296875 C 86.28131103515625 104.9653549194336 88.89218902587891 100.0821685791016 90.68462371826172 94.86078643798828 C 92.53844451904297 89.46062469482422 93.47846984863281 83.80216217041016 93.47846984863281 78.04227447509766 C 93.47833251953125 72.28253173828125 92.53829956054688 66.62406921386719 90.68462371826172 61.22400665283203 L 90.68462371826172 61.223876953125 C 88.89218902587891 56.00265502929688 86.28157806396484 51.11959838867188 82.92466735839844 46.70978546142578 C 82.29950714111328 45.88865661621094 81.35242462158203 45.45697021484375 80.39450073242188 45.4569091796875 M 80.39429473876953 42.4569091796875 C 80.39437866210938 42.4569091796875 80.39459991455078 42.4569091796875 80.39469909667969 42.4569091796875 C 82.34110260009766 42.45704650878906 84.13323974609375 43.34477996826172 85.31159210205078 44.89248657226562 C 88.86293792724609 49.55770111083984 91.62528991699219 54.72458648681641 93.52207946777344 60.24978637695312 C 93.52389526367188 60.25506591796875 93.52568054199219 60.26033020019531 93.5274658203125 60.26561737060547 C 95.48545837402344 65.9752197265625 96.47832489013672 71.95606231689453 96.47846984863281 78.04221343994141 C 96.47846984863281 84.13412475585938 95.48380279541016 90.12040710449219 93.52207946777344 95.83485412597656 C 91.62543487548828 101.3598175048828 88.86308288574219 106.5267028808594 85.31174468994141 111.1919784545898 C 84.13288879394531 112.7400512695312 82.34068298339844 113.627685546875 80.39434814453125 113.627685546875 C 79.03335571289062 113.627685546875 77.74061584472656 113.1913452148438 76.65586853027344 112.3658294677734 C 73.9456787109375 110.3028335571289 73.419189453125 106.4197845458984 75.48194885253906 103.7096710205078 C 78.23202514648438 100.0967330932617 80.37034606933594 96.09782409667969 81.83755493164062 91.823974609375 C 83.35504913330078 87.40378570556641 84.12446594238281 82.76699829101562 84.12446594238281 78.04241180419922 C 84.12446594238281 73.31829833984375 83.35503387451172 68.68148040771484 81.83753967285156 64.26075744628906 C 80.3702392578125 59.98667907714844 78.23192596435547 55.98778533935547 75.48203277587891 52.37525177001953 C 74.48272705078125 51.06275177001953 74.05433654785156 49.4393310546875 74.27597045898438 47.80429840087891 C 74.49761199951172 46.16927337646484 75.34273529052734 44.71845245361328 76.65567016601562 43.71912384033203 C 77.74004364013672 42.89347839355469 79.03296661376953 42.4569091796875 80.39429473876953 42.4569091796875 Z" stroke="none" fill="#fff"/>
  </g>
</svg>
