<svg xmlns="http://www.w3.org/2000/svg" width="27.811" height="99.499" viewBox="0 0 27.811 99.499">
  <g id="Caminho_2084" data-name="Caminho 2084" transform="translate(-91.302 -27.423)" fill="#f37335" stroke-linejoin="round">
    <path d="M 98.46256256103516 125.4227294921875 C 97.45851135253906 125.4227828979492 96.50704193115234 125.0978622436523 95.71101379394531 124.4831161499023 C 93.74498748779297 122.9646759033203 93.38080596923828 120.1298751831055 94.89913940429688 118.1638412475586 C 99.32957458496094 112.4152908325195 102.7579498291016 106.0268402099609 105.088134765625 99.17713165283203 C 105.3642272949219 98.36567687988281 105.6111068725586 97.58694458007812 105.9136657714844 96.57318878173828 C 107.6614151000977 90.73229217529297 108.5850524902344 84.27685546875 108.5850524902344 77.90374755859375 C 108.5850524902344 70.31199645996094 107.3123474121094 62.87825012207031 104.8022994995117 55.80902481079102 C 102.2816162109375 48.70978546142578 98.58409881591797 42.13601303100586 93.81240081787109 36.27031707763672 L 93.81339263916016 36.26934814453125 L 93.81236267089844 36.27018356323242 C 93.05330657958984 35.33665084838867 92.70323181152344 34.16333389282227 92.82659912109375 32.96634674072266 C 92.94998931884766 31.76935958862305 93.53206634521484 30.69210624694824 94.46559906005859 29.93305206298828 C 95.26629638671875 29.28202438354492 96.27492523193359 28.9234790802002 97.30567932128906 28.9234790802002 C 98.66885375976562 28.9234790802002 99.94346618652344 29.5295581817627 100.8027114868164 30.58630561828613 C 106.234619140625 37.26365280151367 110.4409103393555 44.73867797851562 113.3045349121094 52.8034782409668 C 116.163818359375 60.85663986206055 117.6135787963867 69.30162811279297 117.6135787963867 77.90387725830078 C 117.6135787963867 86.16742706298828 116.2723083496094 94.29958343505859 113.6270294189453 102.074462890625 C 110.9796142578125 109.8558349609375 107.0782165527344 117.1216506958008 102.0312042236328 123.6700668334961 C 101.1706314086914 124.7842788696289 99.87025451660156 125.4226531982422 98.46256256103516 125.4227294921875 Z" stroke="none"/>
    <path d="M 97.30567932128906 30.42346954345703 C 96.63954925537109 30.42352294921875 95.96895599365234 30.64395904541016 95.41189575195312 31.09689331054688 C 94.12445831298828 32.14370727539062 93.92936706542969 34.03643798828125 94.97618103027344 35.32386016845703 L 94.97602844238281 35.32373809814453 C 99.78372955322266 41.23371887207031 103.6133575439453 47.97750854492188 106.2158279418945 55.30710601806641 C 108.7210388183594 62.36270904541016 110.0850524902344 69.96883392333984 110.0850524902344 77.90373229980469 C 110.0850524902344 84.65090942382812 109.099723815918 91.15806579589844 107.3510131835938 97.00216674804688 C 107.0274963378906 98.08610534667969 106.7748718261719 98.87649536132812 106.5082092285156 99.66021728515625 C 104.0999984741211 106.7392883300781 100.5523986816406 113.285888671875 96.08631134033203 119.0806732177734 C 95.07192993164062 120.3941955566406 95.31446838378906 122.2815475463867 96.62785339355469 123.2959213256836 C 97.94138336181641 124.3103179931641 99.8287353515625 124.0677490234375 100.8431243896484 122.75439453125 C 105.7177581787109 116.4296188354492 109.5858535766602 109.2953948974609 112.2069702148438 101.5913238525391 C 114.7394866943359 94.14787292480469 116.1135711669922 86.17999267578125 116.1135711669922 77.90387725830078 C 116.1135711669922 69.28642272949219 114.6249542236328 61.00560760498047 111.890998840332 53.30538940429688 C 109.0583953857422 45.32799530029297 104.8838424682617 37.98016357421875 99.63888549804688 31.53262329101562 C 99.04501342773438 30.80222320556641 98.17910003662109 30.42340850830078 97.30567932128906 30.42346954345703 M 97.30544281005859 27.42347717285156 C 97.30548095703125 27.42347717285156 97.30548095703125 27.42347717285156 97.30548095703125 27.42347717285156 C 99.12218475341797 27.42333221435547 100.8210983276367 28.23123168945312 101.9665679931641 29.64003753662109 C 107.5065841674805 36.45029449462891 111.7969665527344 44.07492065429688 114.7180709838867 52.30156707763672 C 117.6347122192383 60.51633453369141 119.1135711669922 69.13016510009766 119.1135711669922 77.90387725830078 C 119.1135711669922 86.33213806152344 117.7454147338867 94.62684631347656 115.0470809936523 102.5576171875 C 112.3465270996094 110.4952239990234 108.3670654296875 117.9065628051758 103.2192840576172 124.5857467651367 C 102.0714721679688 126.0718231201172 100.3383865356445 126.922721862793 98.46249389648438 126.922721862793 C 97.14275360107422 126.922721862793 95.83999633789062 126.4779357910156 94.79421234130859 125.6703033447266 C 92.17355346679688 123.6462936401367 91.68809509277344 119.8676605224609 93.71192932128906 117.2470245361328 C 98.04069519042969 111.6304016113281 101.3910293579102 105.3875045776367 103.6680526733398 98.69403076171875 C 103.9376678466797 97.90163421630859 104.1793670654297 97.13910675048828 104.4763107299805 96.14418029785156 C 106.1831817626953 90.43994903564453 107.0850524902344 84.13320922851562 107.0850524902344 77.90373229980469 C 107.0850524902344 70.48346710205078 105.841438293457 63.21857452392578 103.3887405395508 56.31090545654297 C 100.9255294799805 49.37350463867188 97.31209564208984 42.94936370849609 92.64881134033203 37.21688842773438 C 92.64459991455078 37.21171569824219 92.64038848876953 37.20650482177734 92.63622283935547 37.20130920410156 C 91.63298797607422 35.95939636230469 91.17071533203125 34.40155029296875 91.33451080322266 32.81254577636719 C 91.49897003173828 31.21700286865234 92.27487182617188 29.78105163574219 93.519287109375 28.76923370361328 C 94.58652496337891 27.9014892578125 95.93113708496094 27.42356109619141 97.30548095703125 27.42347717285156 L 97.30544281005859 27.42347717285156 Z" stroke="none" fill="#fff"/>
  </g>
</svg>
