<svg xmlns="http://www.w3.org/2000/svg" width="33.767" height="128.953" viewBox="0 0 33.767 128.953">
  <g id="Caminho_2084" data-name="Caminho 2084" transform="translate(-107.652 -12.191)" fill="#f37335" stroke-linejoin="round">
    <path d="M 115.657096862793 139.6433563232422 C 114.6443481445312 139.6434020996094 113.6865158081055 139.3133850097656 112.8871459960938 138.6889801025391 C 110.9303970336914 137.1604919433594 110.5819625854492 134.3250122070312 112.1104431152344 132.3682403564453 L 112.7822418212891 131.5027008056641 C 112.823860168457 131.4423217773438 112.8667678833008 131.3831329345703 112.9101943969727 131.3262176513672 C 118.7400665283203 123.6641387939453 123.2457656860352 115.1783905029297 126.30078125 106.1064453125 C 129.3461761474609 97.06277465820312 130.8903198242188 87.57390594482422 130.8903198242188 77.90345764160156 C 130.8903198242188 67.49922180175781 129.1063232421875 57.32722473144531 125.5879135131836 47.67002487182617 C 122.0516815185547 37.96380996704102 116.8760833740234 29.01999092102051 110.2048950195312 21.08699226379395 L 110.2049942016602 21.08712577819824 C 108.6080322265625 19.18800735473633 108.853645324707 16.34374237060547 110.7525329589844 14.74675846099854 C 111.5623626708984 14.06575775146484 112.590461730957 13.69074153900146 113.6474990844727 13.69074153900146 C 114.9801330566406 13.69074153900146 116.2359466552734 14.27519130706787 117.0929641723633 15.29422473907471 C 124.4579162597656 24.05184173583984 130.1659240722656 33.90975952148438 134.0585174560547 44.59415817260742 C 137.9470367431641 55.26775741577148 139.9186706542969 66.47462463378906 139.9186706542969 77.90345764160156 C 139.9186706542969 88.51589202880859 138.2108001708984 98.96864318847656 134.8425140380859 108.9713592529297 C 131.4682769775391 118.9909439086914 126.5003280639648 128.3520355224609 120.0766448974609 136.7946624755859 C 120.0276260375977 136.8587799072266 119.9775772094727 136.9207916259766 119.9263610839844 136.98095703125 L 119.6539993286133 137.3422241210938 L 119.6456985473633 137.3532257080078 L 119.6372146606445 137.3640594482422 L 119.2067489624023 137.9137420654297 C 118.3485946655273 139.0123443603516 117.0543823242188 139.6432952880859 115.657096862793 139.6433563232422 Z" stroke="none"/>
    <path d="M 113.6475067138672 15.19073486328125 C 112.9659118652344 15.19078063964844 112.2804107666016 15.42181396484375 111.7180023193359 15.89474487304688 C 110.4501495361328 16.96101379394531 110.2867889404297 18.85374450683594 111.3530426025391 20.1217041015625 L 111.3529052734375 20.12158203125 C 118.0355834960938 28.06819915771484 123.369255065918 37.19840240478516 126.9972915649414 47.15654754638672 C 130.4865112304688 56.73361968994141 132.3903198242188 67.08778381347656 132.3903198242188 77.90345001220703 C 132.3903198242188 87.95199584960938 130.7490844726562 97.59681701660156 127.7223510742188 106.5851593017578 C 124.5821838378906 115.9098663330078 119.9472198486328 124.554801940918 114.1026153564453 132.2362518310547 C 114.0652313232422 132.2852325439453 114.0296325683594 132.3351745605469 113.9958343505859 132.3855285644531 L 113.2925415039062 133.2916107177734 C 112.2717132568359 134.5985107421875 112.5036315917969 136.4859924316406 113.8105316162109 137.5068664550781 C 115.117431640625 138.5277404785156 117.0048980712891 138.2958068847656 118.0257873535156 136.9889068603516 L 118.4562530517578 136.439208984375 L 118.7579956054688 136.0389404296875 C 118.8010711669922 135.9897155761719 118.8427276611328 135.9389343261719 118.8828887939453 135.8863677978516 C 125.1162719726562 127.6938705444336 130.0636291503906 118.4619979858398 133.4209442138672 108.4926528930664 C 136.6615600585938 98.86909484863281 138.4186706542969 88.58101654052734 138.4186706542969 77.90347290039062 C 138.4186706542969 66.39916229248047 136.3817749023438 55.35332489013672 132.6491394042969 45.10763549804688 C 128.7832336425781 34.49643707275391 123.0881805419922 24.75364685058594 115.9449768066406 16.25968933105469 C 115.3516540527344 15.55418395996094 114.5026092529297 15.190673828125 113.6475067138672 15.19073486328125 M 113.6472625732422 12.19071960449219 C 113.6472778320312 12.19071960449219 113.6472930908203 12.19071960449219 113.6472930908203 12.19071960449219 C 115.4238433837891 12.19061279296875 117.0981597900391 12.96990966796875 118.2409820556641 14.32878112792969 C 125.7191696166992 23.2210693359375 131.51513671875 33.23105621337891 135.4678955078125 44.08071136474609 C 139.4165496826172 54.91934204101562 141.4186706542969 66.29896545410156 141.4186706542969 77.90347290039062 C 141.4186706542969 88.67896270751953 139.6844177246094 99.29276275634766 136.2640686035156 109.4500350952148 C 132.837646484375 119.6246337890625 127.7930374145508 129.1302490234375 121.2703857421875 137.7029266357422 C 121.2691497802734 137.7045440673828 121.2679138183594 137.7061614990234 121.2666778564453 137.7077941894531 C 121.2128372192383 137.7782592773438 121.1567230224609 137.8483276367188 121.0990600585938 137.9171447753906 L 120.8518218994141 138.2451019287109 C 120.8407516479492 138.2597961425781 120.8295288085938 138.2743988037109 120.8181838989258 138.2888946533203 L 120.3877105712891 138.8385772705078 C 119.2443695068359 140.30224609375 117.5192718505859 141.1433563232422 115.6569976806641 141.1433563232422 C 114.3257141113281 141.1433563232422 113.0140991210938 140.6915283203125 111.9637603759766 139.8710784912109 C 109.3576049804688 137.8352813720703 108.8914947509766 134.0604858398438 110.9226531982422 131.4521484375 L 111.5732727050781 130.6139221191406 C 111.6204681396484 130.5465393066406 111.6688385009766 130.4803466796875 111.7177886962891 130.4161987304688 C 117.4473114013672 122.8860015869141 121.876350402832 114.5447616577148 124.8792419433594 105.6277313232422 C 127.8725662231445 96.73861694335938 129.3903198242188 87.41079711914062 129.3903198242188 77.90345001220703 C 129.3903198242188 67.67488861083984 127.6368179321289 57.67565155029297 124.1785507202148 48.18350982666016 C 120.7024688720703 38.64248657226562 115.6148223876953 29.85072326660156 109.0568695068359 22.05242919921875 C 109.0542297363281 22.04928588867188 109.0515899658203 22.046142578125 109.0489501953125 22.04298400878906 C 106.9286804199219 19.51089477539062 107.2584533691406 15.72535705566406 109.7870788574219 13.59877014160156 C 110.86669921875 12.69087219238281 112.2375640869141 12.19084167480469 113.6472625732422 12.19071960449219 Z" stroke="none" fill="#fff"/>
  </g>
</svg>
