<svg xmlns="http://www.w3.org/2000/svg" width="25.29" height="85.77" viewBox="0 0 25.29 85.77">
  <g id="Caminho_2084" data-name="Caminho 2084" transform="translate(-82.52 -34.54)" fill="#f37335" stroke-linejoin="round">
    <path d="M 89.28534698486328 118.809928894043 C 88.2725830078125 118.8099822998047 87.31475067138672 118.4799575805664 86.51539611816406 117.8555297851562 C 85.56758117675781 117.1151657104492 84.96479797363281 116.0499114990234 84.81809234619141 114.8560104370117 C 84.67138671875 113.6621170043945 84.99833679199219 112.4826278686523 85.73871612548828 111.5348052978516 C 89.46698760986328 106.7567443847656 92.35714721679688 101.4248504638672 94.32845306396484 95.68782806396484 C 96.28804016113281 89.98450469970703 97.28164672851562 84.00115203857422 97.28164672851562 77.90401458740234 C 97.28164672851562 71.60784149169922 96.22630310058594 65.44428253173828 94.14495086669922 59.58459091186523 C 92.05431365966797 53.6987419128418 88.98789215087891 48.24909591674805 85.03085327148438 43.38701248168945 L 83.03948211669922 40.94017791748047 L 84.03978729248047 40.94017791748047 C 83.91510772705078 39.50148391723633 84.48137664794922 38.02706146240234 85.68378448486328 37.04937744140625 C 86.48451232910156 36.39831924438477 87.49313354492188 36.03977966308594 88.52390289306641 36.03977966308594 C 89.88707733154297 36.03977966308594 91.16170501708984 36.6458625793457 92.02092742919922 37.7026252746582 C 96.63768768310547 43.37490844726562 100.2129974365234 49.72594451904297 102.6470642089844 56.57872009277344 C 105.0777130126953 63.42193222045898 106.3101577758789 70.5968017578125 106.3101577758789 77.90401458740234 C 106.3101577758789 84.99340057373047 105.1508407592773 91.96233367919922 102.8644180297852 98.61721801757812 C 100.5789642333984 105.2686157226562 97.20512390136719 111.4797897338867 92.83661651611328 117.0782699584961 C 91.97682189941406 118.1789321899414 90.6826171875 118.8098602294922 89.28534698486328 118.809928894043 Z" stroke="none"/>
    <path d="M 88.52388763427734 37.53977966308594 C 87.85775756835938 37.53977966308594 87.18715667724609 37.76026153564453 86.63010406494141 38.21319580078125 C 85.34268188476562 39.260009765625 85.14757537841797 41.15274047851562 86.19438934326172 42.44017028808594 L 86.19425201416016 42.440185546875 C 90.19924163818359 47.36116790771484 93.39002990722656 52.97770690917969 95.55844116210938 59.08251953125 C 97.64530944824219 64.95774078369141 98.78163909912109 71.29311370849609 98.78163909912109 77.90400695800781 C 98.78163909912109 84.30506134033203 97.71358489990234 90.45167541503906 95.74705505371094 96.17527770996094 C 93.70088958740234 102.1301116943359 90.69580078125 107.6202621459961 86.92081451416016 112.4581832885742 C 85.89996337890625 113.7650604248047 86.13189697265625 115.6525726318359 87.43878936767578 116.6734313964844 C 88.74566650390625 117.6943130493164 90.63316345214844 117.4623565673828 91.65403747558594 116.1554870605469 C 95.85770416259766 110.7682952880859 99.19171905517578 104.68994140625 101.4458160400391 98.12982177734375 C 103.6260681152344 91.78395843505859 104.8101577758789 84.97976684570312 104.8101577758789 77.90400695800781 C 104.8101577758789 70.61014556884766 103.5492248535156 63.60022735595703 101.2335891723633 57.08078002929688 C 98.83490753173828 50.32762145996094 95.29931640625 44.10677337646484 90.85709381103516 38.64893341064453 C 90.26322174072266 37.91853332519531 89.39731597900391 37.53977966308594 88.52388763427734 37.53977966308594 M 88.52389526367188 34.53978729248047 C 90.34061431884766 34.53978729248047 92.03943634033203 35.34768676757812 93.18478393554688 36.75635528564453 C 97.90952301025391 42.56128692626953 101.5689849853516 49.06198120117188 104.0605621337891 56.07666015625 C 106.5486145019531 63.08152770996094 107.8101577758789 70.42530059814453 107.8101577758789 77.90400695800781 C 107.8101577758789 85.15960693359375 106.6234664916992 92.29251861572266 104.2830276489258 99.1046142578125 C 101.9434127807617 105.9136047363281 98.49017333984375 112.2712631225586 94.01920318603516 118.0010375976562 C 92.87258911132812 119.4688415527344 91.14749145507812 120.309928894043 89.28526306152344 120.309928894043 C 87.95394897460938 120.309928894043 86.64231872558594 119.8580932617188 85.59200286865234 119.0376281738281 C 82.98343658447266 116.9999694824219 82.51895904541016 113.2199859619141 84.55661010742188 110.6114120483398 C 88.18192291259766 105.96533203125 90.99268341064453 100.7798919677734 92.90988159179688 95.20037841796875 C 94.8154296875 89.65426635742188 95.78163909912109 83.83489227294922 95.78163909912109 77.90400695800781 C 95.78163909912109 71.77934265136719 94.75541687011719 65.78471374511719 92.73148345947266 60.08664703369141 C 90.69834899902344 54.36270141601562 87.71605682373047 49.06269073486328 83.86745452880859 44.3338623046875 C 83.85941314697266 44.32398986816406 83.85143280029297 44.31404876708984 83.84353637695312 44.30409240722656 C 82.84781646728516 43.06439971923828 82.38951873779297 41.51211547851562 82.55271911621094 39.92884063720703 C 82.71718597412109 38.33330535888672 83.49308013916016 36.89736938476562 84.73748016357422 35.88554382324219 C 85.8048095703125 35.01771545410156 87.14950561523438 34.53978729248047 88.52389526367188 34.53978729248047 Z" stroke="none" fill="#fff"/>
  </g>
</svg>
