<svg xmlns="http://www.w3.org/2000/svg" width="30.816" height="114.331" viewBox="0 0 30.816 114.331">
  <g id="Caminho_2084" data-name="Caminho 2084" transform="translate(-99.45 -19.771)" fill="#f37335" stroke-linejoin="round">
    <path d="M 107.0065460205078 132.6017303466797 C 105.9937744140625 132.6017303466797 105.0359802246094 132.2716979980469 104.236686706543 131.6473236083984 C 102.2823181152344 130.1206359863281 101.9323425292969 127.2902908325195 103.4543914794922 125.3338165283203 L 103.9449691772461 124.6911544799805 L 104.4310836791992 124.0400466918945 C 109.4095611572266 117.3762435913086 113.2481002807617 110.0365524291992 115.8403472900391 102.224494934082 C 118.4264221191406 94.43096923828125 119.7376861572266 86.24832153320312 119.7376861572266 77.90387725830078 C 119.7376861572266 68.89070892333984 118.2097015380859 60.08255386352539 115.1961898803711 51.7241096496582 C 112.1737594604492 43.3416633605957 107.7286682128906 35.58121490478516 101.9844055175781 28.65835380554199 L 101.6387634277344 28.24180030822754 L 101.6387634277344 28.1810359954834 C 100.4511566162109 26.29360771179199 100.819694519043 23.76480674743652 102.5829162597656 22.30586242675781 C 103.3899002075195 21.6382007598877 104.4104537963867 21.27054023742676 105.4566345214844 21.27054023742676 C 106.8065032958984 21.27054023742676 108.0738220214844 21.86652374267578 108.9336700439453 22.90569305419922 C 115.3203277587891 30.60270881652832 120.2788543701172 39.27534103393555 123.6701736450195 48.68109130859375 C 127.0516510009766 58.05953979492188 128.7662048339844 67.89146423339844 128.7662048339844 77.90373992919922 C 128.7662048339844 87.16049194335938 127.2926406860352 96.29486083984375 124.3864212036133 105.0530776977539 C 121.4732208251953 113.8319396972656 117.1922225952148 122.0362319946289 111.6623306274414 129.4380950927734 L 111.6576080322266 129.4443969726562 L 111.6528396606445 129.4506683349609 L 111.114990234375 130.155029296875 L 111.1105117797852 130.160888671875 L 111.1059799194336 130.1667022705078 L 110.5585021972656 130.8692626953125 C 109.6980972290039 131.9707489013672 108.4038391113281 132.6017303466797 107.0065460205078 132.6017303466797 Z" stroke="none"/>
    <path d="M 105.4566192626953 22.77052307128906 C 104.7806396484375 22.77052307128906 104.1005859375 22.99702453613281 103.5391616821289 23.46151733398438 C 102.2581939697266 24.52145385742188 102.0789566040039 26.41942596435547 103.1387557983398 27.70037078857422 L 103.1387557983398 27.70050811767578 C 108.9071884155273 34.65248870849609 113.4980239868164 42.59209442138672 116.6072769165039 51.21533966064453 C 119.6037902832031 59.52664184570312 121.237678527832 68.51223754882812 121.237678527832 77.90389251708984 C 121.237678527832 86.59405517578125 119.8416595458984 94.92882537841797 117.2640075683594 102.696907043457 C 114.5924072265625 110.7481384277344 110.6353073120117 118.2417907714844 105.6330261230469 124.9374237060547 L 105.1424102783203 125.5945739746094 L 104.6421051025391 126.2499542236328 C 103.6212615966797 127.5568389892578 103.8531951904297 129.4443359375 105.1600723266602 130.4652252197266 C 106.4669723510742 131.486083984375 108.3544464111328 131.2541351318359 109.3753433227539 129.9472351074219 L 109.9228057861328 129.2446899414062 L 110.4606399536133 128.5403289794922 C 115.8166732788086 121.3711853027344 120.0694427490234 113.2995452880859 122.962776184082 104.5806579589844 C 125.7544097900391 96.16769409179688 127.2662124633789 87.19715881347656 127.2662124633789 77.90373992919922 C 127.2662124633789 67.84677124023438 125.4995727539062 58.17725372314453 122.2591094970703 49.18987274169922 C 118.8967895507812 39.86460876464844 113.9613265991211 31.31392669677734 107.7779922485352 23.8619384765625 C 107.1826324462891 23.14241027832031 106.3229446411133 22.77052307128906 105.4566192626953 22.77052307128906 M 105.4566268920898 19.77052307128906 C 107.255012512207 19.77052307128906 108.9435729980469 20.56471252441406 110.0893402099609 21.94944763183594 C 116.5859451293945 29.77895355224609 121.6308441162109 38.60267639160156 125.0812759399414 48.17232513427734 C 128.5217437744141 57.71442413330078 130.2662048339844 67.71752166748047 130.2662048339844 77.90373992919922 C 130.2662048339844 87.32130432128906 128.7669677734375 96.61460876464844 125.8101119995117 105.5254745483398 C 122.846061706543 114.4574737548828 118.4903564453125 122.8048706054688 112.8639907836914 130.3358612060547 C 112.8577117919922 130.3442535400391 112.8513946533203 130.3526306152344 112.8450241088867 130.3609619140625 L 112.3071899414062 131.0653228759766 C 112.3012237548828 131.0731353759766 112.2952117919922 131.0809326171875 112.289176940918 131.0886840820312 L 111.7417068481445 131.7912445068359 C 110.5939102172852 133.2605895996094 108.8687896728516 134.1017150878906 107.0065383911133 134.1017150878906 C 105.6752243041992 134.1017150878906 104.3635940551758 133.6498565673828 103.3132781982422 132.8294067382812 C 100.7099914550781 130.7958221435547 100.2421417236328 127.026969909668 102.2656173706055 124.4189758300781 L 102.7485122680664 123.7863998413086 L 103.2290954589844 123.142692565918 C 108.1113739013672 116.6076736450195 111.8752288818359 109.4111022949219 114.4166717529297 101.7520904541016 C 116.9521102905273 94.11123657226562 118.237678527832 86.08753967285156 118.237678527832 77.90389251708984 C 118.237678527832 69.06462097167969 116.7396087646484 60.42764282226562 113.7850952148438 52.23284149169922 C 110.8217926025391 44.01434326171875 106.4630737304688 36.40497589111328 100.8300476074219 29.61617279052734 C 100.8227844238281 29.60742950439453 100.8156127929688 29.59869384765625 100.8084716796875 29.58987426757812 C 98.71688842773438 27.03664398193359 99.08090209960938 23.25665283203125 101.6266403198242 21.15019226074219 C 102.7020111083984 20.26046752929688 104.062141418457 19.77052307128906 105.4566268920898 19.77052307128906 Z" stroke="none" fill="#fff"/>
  </g>
</svg>
