<svg xmlns="http://www.w3.org/2000/svg" width="62.933" height="67.76" viewBox="0 0 62.933 67.76">
  <g id="Caminho_2084" data-name="Caminho 2084" transform="translate(3 -44.162)" fill="#f37335" stroke-linejoin="round">
    <path d="M 37.25571441650391 110.4222564697266 C 37.25553512573242 110.4222564697266 37.25547409057617 110.4222564697266 37.25529479980469 110.4222564697266 C 35.84667587280273 110.4221572875977 34.53468704223633 109.9154281616211 33.46114730834961 108.9568481445312 L 16.06333541870117 93.42293548583984 L 16.06333541870117 93.69925689697266 L 14.56335639953613 93.69927978515625 L 3.793345928192139 93.69940948486328 L 3.793326139450073 93.69940948486328 C 0.8745760321617126 93.69940948486328 -1.499993920326233 91.3248291015625 -1.499993920326233 88.40606689453125 L -1.499993920326233 67.67872619628906 C -1.499993920326233 64.75997924804688 0.8745760321617126 62.38540649414062 3.793326139450073 62.38540649414062 L 14.56333637237549 62.38540649414062 L 16.06333541870117 62.38540649414062 L 16.06333541870117 62.6618537902832 L 33.46117782592773 47.12792587280273 C 34.53488540649414 46.16923522949219 35.84696578979492 45.66249465942383 37.25556564331055 45.66249465942383 C 38.71464538574219 45.66249465942383 40.16374588012695 46.23755645751953 41.23128509521484 47.24022674560547 C 42.38195419311523 48.32096481323242 43.01565551757812 49.80030822753906 43.01565551757812 51.40574645996094 L 43.01565551757812 104.6787796020508 C 43.01565551757812 106.2843551635742 42.38195419311523 107.7638092041016 41.23129653930664 108.8445739746094 C 40.16383743286133 109.8471908569336 38.71474456787109 110.4222564697266 37.25571441650391 110.4222564697266 Z M 43.05979537963867 94.39199829101562 L 43.05979537963867 92.62603759765625 L 43.05979537963867 63.45893478393555 L 43.05979537963867 61.69301605224609 L 44.80245590209961 61.97869491577148 C 48.56905746459961 62.59616470336914 52.01872634887695 64.539794921875 54.51601791381836 67.45154571533203 C 57.04195785522461 70.39669799804688 58.43305587768555 74.15799713134766 58.43305587768555 78.04256439208984 C 58.43305587768555 81.92710876464844 57.04195785522461 85.6883544921875 54.51600646972656 88.63345336914062 C 52.01874542236328 91.54509735107422 48.56908416748047 93.48871612548828 44.80248641967773 94.10627746582031 L 43.05979537963867 94.39199829101562 Z" stroke="none"/>
    <path d="M 37.25556945800781 47.16249847412109 C 36.2874755859375 47.16246032714844 35.29856109619141 47.49827575683594 34.460205078125 48.246826171875 L 16.94531631469727 63.88525390625 L 16.94531631469727 92.19953155517578 L 34.460205078125 107.8379745483398 C 37.18919372558594 110.2747192382812 41.51565933227539 108.3375701904297 41.51565933227539 104.6787719726562 L 41.51565933227539 51.40573883056641 C 41.51565933227539 48.87097930908203 39.43891525268555 47.16258239746094 37.25556945800781 47.16249847412109 M 44.55979156494141 63.45893096923828 L 44.55979156494141 63.45907592773438 C 44.55979156494141 63.45907592773438 44.55979156494141 63.45907592773438 44.55979156494141 63.45893096923828 M 44.55979156494141 63.45907592773438 L 44.55979156494141 92.62603759765625 C 51.57578277587891 91.47571563720703 56.93304824829102 85.38652038574219 56.93304824829102 78.04256439208984 C 56.93304824829102 70.69859313964844 51.5757942199707 64.60910034179688 44.55979156494141 63.45893096923828 M 3.793327331542969 63.88540649414062 C 1.697914123535156 63.88540649414062 3.814697265625e-06 65.58332061767578 3.814697265625e-06 67.67872619628906 L 3.814697265625e-06 88.40606689453125 C 3.814697265625e-06 90.50148773193359 1.697914123535156 92.19940948486328 3.793327331542969 92.19940948486328 L 14.56332778930664 92.19927978515625 L 14.56332778930664 63.88540649414062 L 3.793327331542969 63.88540649414062 M 3.814697265625e-06 67.67872619628906 L 3.814697265625e-06 67.67874908447266 C 3.814697265625e-06 67.67874908447266 3.814697265625e-06 67.67874908447266 3.814697265625e-06 67.67872619628906 M 37.25542449951172 44.16249847412109 C 37.25547027587891 44.16249847412109 37.25564575195312 44.16249847412109 37.25569152832031 44.16249847412109 C 39.09220123291016 44.16257476806641 40.91555023193359 44.88584899902344 42.25818252563477 46.14687347412109 C 43.71393585205078 47.51413726806641 44.51565933227539 49.38177490234375 44.51565933227539 51.40573883056641 L 44.51565933227539 60.45925140380859 C 44.71924591064453 60.45632171630859 44.92074584960938 60.47388458251953 45.1145133972168 60.51011657714844 C 49.20222473144531 61.19693756103516 52.94296264648438 63.31336975097656 55.65460205078125 66.47502899169922 C 58.41360473632812 69.69189453125 59.93304824829102 73.79999542236328 59.93304824829102 78.04256439208984 C 59.93304824829102 82.28509521484375 58.41359329223633 86.39316558837891 55.65458297729492 89.60999298095703 C 52.92769241333008 92.78937530517578 49.15987014770508 94.91188049316406 45.04518127441406 95.58650207519531 C 44.86879730224609 95.61543273925781 44.69162750244141 95.62832641601562 44.51565933227539 95.625732421875 L 44.51565933227539 104.6787719726562 C 44.51565933227539 106.702880859375 43.71394729614258 108.5706024169922 42.25820159912109 109.9378814697266 C 40.91552734375 111.1989898681641 39.09207153320312 111.9222640991211 37.25540161132812 111.9222640991211 C 35.49794769287109 111.9222640991211 33.79564666748047 111.266487121582 32.46208190917969 110.0757293701172 L 15.59618759155273 95.01673889160156 C 15.27417373657227 95.13481903076172 14.92630004882812 95.19926452636719 14.56335830688477 95.19927978515625 L 3.793357849121094 95.19940948486328 C 0.0474700927734375 95.19940948486328 -2.999996185302734 92.15193176269531 -2.999996185302734 88.40606689453125 L -2.999996185302734 67.67872619628906 C -2.999996185302734 63.93287658691406 0.0474700927734375 60.88540649414062 3.793327331542969 60.88540649414062 L 14.56332778930664 60.88540649414062 C 14.92626953125 60.88540649414062 15.27425384521484 60.94989776611328 15.59626770019531 61.06797790527344 L 32.46215057373047 46.009033203125 C 33.79573822021484 44.81828308105469 35.49803924560547 44.16249847412109 37.25542449951172 44.16249847412109 Z" stroke="none" fill="#fff"/>
  </g>
</svg>
