<svg xmlns="http://www.w3.org/2000/svg" width="39.283" height="159.029" viewBox="0 0 39.283 159.029">
  <g id="Camada_x0020_1" transform="translate(-125.798 2.994)">
    <g id="Caminho_2084" data-name="Caminho 2084" transform="translate(0 0)" fill="#f37335" stroke-linejoin="round">
      <path d="M 134.0460662841797 154.5348052978516 C 133.0391998291016 154.5348510742188 132.0489654541016 154.1906280517578 131.2577514648438 153.5655670166016 C 129.3102874755859 152.0269622802734 128.9776611328125 149.1908721923828 130.5162658691406 147.243408203125 C 138.2965850830078 137.3897247314453 144.3167572021484 126.4102478027344 148.4093627929688 114.6102676391602 C 152.4854583740234 102.8585433959961 154.5522003173828 90.50843048095703 154.5522003173828 77.90294647216797 C 154.5522003173828 64.72377014160156 152.2921447753906 51.8341064453125 147.8348083496094 39.59206771850586 C 145.5996246337891 33.45358657836914 142.8022003173828 27.47054672241211 139.520263671875 21.8091869354248 C 136.2761840820312 16.21316719055176 132.5180969238281 10.86096668243408 128.3503875732422 5.901266574859619 C 126.7540435791016 4.002133369445801 126.9998397827148 1.158351898193359 128.8984985351562 -0.4384132027626038 C 129.7083435058594 -1.119433164596558 130.7364501953125 -1.494453191757202 131.79345703125 -1.494453191757202 C 133.1260833740234 -1.494453191757202 134.3819274902344 -0.9099932312965393 135.2389373779297 0.1090267896652222 C 139.7491607666016 5.476406574249268 143.8141479492188 11.2635669708252 147.3214111328125 17.31024742126465 C 150.8702239990234 23.42858695983887 153.8929901123047 29.89062690734863 156.3057250976562 36.516845703125 C 161.1330718994141 49.77512741088867 163.5807189941406 63.69944763183594 163.5807189941406 77.90306854248047 C 163.5807189941406 91.46444702148438 161.3393402099609 104.8029251098633 156.9188690185547 117.5479888916016 C 152.4926452636719 130.3093872070312 145.9861450195312 142.1778411865234 137.5801086425781 152.82373046875 C 136.7209625244141 153.9112091064453 135.4329376220703 154.5347595214844 134.0460662841797 154.5348052978516 Z" stroke="none"/>
      <path d="M 131.7934722900391 0.0055389404296875 C 131.1118927001953 0.005584716796875 130.4263763427734 0.2366180419921875 129.8639678955078 0.709564208984375 C 128.5961151123047 1.775833129882812 128.4327392578125 3.668548583984375 129.4990234375 4.936538696289062 L 129.4987640380859 4.936279296875 C 137.9343719482422 14.97488403320312 144.6658477783203 26.50511169433594 149.2442932128906 39.07884979248047 C 153.6488037109375 51.17588806152344 156.0522003173828 64.25021362304688 156.0522003173828 77.90293121337891 C 156.0522003173828 90.95736694335938 153.8602294921875 103.4723205566406 149.8265533447266 115.1017837524414 C 145.6373596191406 127.1803283691406 139.4621734619141 138.3340606689453 131.6932678222656 148.1732788085938 C 130.6658935546875 149.4736938476562 130.88720703125 151.3611450195312 132.1876068115234 152.3885192871094 C 133.4880218505859 153.4158630371094 135.37548828125 153.1945648193359 136.4028472900391 151.8941497802734 C 144.5833587646484 141.5339050292969 151.0870513916016 129.7844543457031 155.5016937255859 117.0564575195312 C 159.7641296386719 104.7670669555664 162.0807189941406 91.592041015625 162.0807189941406 77.90306854248047 C 162.0807189941406 63.5621337890625 159.5444793701172 49.79640960693359 154.896240234375 37.03006744384766 C 150.0805206298828 23.80439758300781 142.9873962402344 11.66166687011719 134.0909576416016 1.074493408203125 C 133.4976196289062 0.3690032958984375 132.6485748291016 0.0054931640625 131.7934722900391 0.0055389404296875 M 131.7932891845703 -2.994461059570312 C 131.7933044433594 -2.994461059570312 131.7933044433594 -2.994461059570312 131.7933349609375 -2.994461059570312 C 133.5698089599609 -2.994537353515625 135.2441101074219 -2.215286254882812 136.3869171142578 -0.8564605712890625 C 140.9531402587891 4.577560424804688 145.0683135986328 10.43620300292969 148.6189422607422 16.55763244628906 C 152.2119140625 22.75210571289062 155.2723388671875 29.29469299316406 157.7151794433594 36.00363159179688 C 162.6026153564453 49.42688751220703 165.0807189941406 63.52387237548828 165.0807189941406 77.90306854248047 C 165.0807189941406 91.63217163085938 162.8114929199219 105.1360168457031 158.3360443115234 118.0395202636719 C 153.8547668457031 130.9596710205078 147.2675323486328 142.9754943847656 138.7573547363281 153.7532806396484 C 137.6117248535156 155.2034301757812 135.8946838378906 156.0348052978516 134.0460205078125 156.0348052978516 C 132.7031402587891 156.0348052978516 131.3826751708984 155.5758666992188 130.3278503417969 154.7425231933594 C 129.0701293945312 153.7488708496094 128.2746429443359 152.3248291015625 128.0879364013672 150.7326965332031 C 127.9012451171875 149.1406555175781 128.3456420898438 147.5712432861328 129.3392639160156 146.3135375976562 C 137.0151824951172 136.5920867919922 142.9546508789062 125.7599792480469 146.9921722412109 114.1187438964844 C 151.0133361816406 102.5254135131836 153.0522003173828 90.34067535400391 153.0522003173828 77.90293121337891 C 153.0522003173828 64.89934539794922 150.8225860595703 52.182373046875 146.4253387451172 40.10523986816406 C 144.2202301025391 34.04936981201172 141.4604187011719 28.14678192138672 138.2225494384766 22.56147766113281 C 135.0218811035156 17.04034423828125 131.3140258789062 11.75971984863281 127.2020111083984 6.866287231445312 C 127.1980285644531 6.861557006835938 127.1940612792969 6.8568115234375 127.1901245117188 6.852066040039062 C 125.0750122070312 4.319992065429688 125.40625 0.538604736328125 127.9330444335938 -1.586410522460938 C 129.0127716064453 -2.494354248046875 130.3836364746094 -2.994369506835938 131.7932891845703 -2.994461059570312 Z" stroke="none" fill="#fff"/>
    </g>
  </g>
</svg>
