<svg xmlns="http://www.w3.org/2000/svg" width="17.115" height="41.433" viewBox="0 0 17.115 41.433">
  <g id="Camada_x0020_1" transform="translate(-55.342 -57.326)">
    <g id="Caminho_2084" data-name="Caminho 2084" transform="translate(0 0)" fill="#f37335" stroke-linejoin="round">
      <path d="M 61.51698684692383 97.25901794433594 C 60.51520538330078 97.25901794433594 59.55829620361328 96.94474792480469 58.74971389770508 96.35018157958984 C 57.74344635009766 95.61065673828125 57.085205078125 94.52313995361328 56.89657592773438 93.28817749023438 C 56.70794677734375 92.05329132080078 57.01146697998047 90.81887054443359 57.75121688842773 89.81230163574219 C 60.27107620239258 86.38375854492188 61.60299682617188 82.31381988525391 61.60299682617188 78.04241943359375 C 61.60299682617188 73.77091979980469 60.27108383178711 69.70097351074219 57.75125503540039 66.27256011962891 C 57.011474609375 65.26605987548828 56.70794677734375 64.03163909912109 56.89657592773438 62.79669189453125 C 57.085205078125 61.56169891357422 57.74344635009766 60.47415924072266 58.75003433227539 59.73440170288086 C 59.55855560302734 59.14007949829102 60.51541519165039 58.82588195800781 61.51703643798828 58.82588195800781 C 63.00064468383789 58.82588195800781 64.41040802001953 59.53890991210938 65.28813171386719 60.73323822021484 C 68.99652862548828 65.77839660644531 70.95671844482422 71.76384735107422 70.95671844482422 78.04241943359375 C 70.95671844482422 84.32093048095703 68.99653625488281 90.30637359619141 65.28807830810547 95.35167694091797 C 64.41024780273438 96.54598999023438 63.00048446655273 97.25901794433594 61.51698684692383 97.25901794433594 Z" stroke="none"/>
      <path d="M 61.51703643798828 60.32588195800781 C 60.86376953125 60.32582092285156 60.20498657226562 60.52655792236328 59.63832092285156 60.94309997558594 C 58.22463989257812 61.98204040527344 57.92095947265625 63.97067260742188 58.95990753173828 65.38421630859375 C 61.67026519775391 69.07186889648438 63.10299682617188 73.4490966796875 63.10299682617188 78.04241943359375 C 63.10299682617188 82.63556671142578 61.67041015625 87.01268005371094 58.95990753173828 90.70059967041016 C 57.92095947265625 92.11428070068359 58.22463989257812 94.10276794433594 59.63832092285156 95.1417236328125 C 61.05218505859375 96.18136596679688 63.040283203125 95.87712097167969 64.07945251464844 94.46328735351562 C 67.59724426269531 89.67738342285156 69.45671844482422 83.99875640869141 69.45671844482422 78.04241943359375 C 69.45671844482422 72.0860595703125 67.59738159179688 66.40757751464844 64.07945251464844 61.62152099609375 L 64.07943725585938 61.62152099609375 C 63.45698928833008 60.77455139160156 62.49336242675781 60.32596588134766 61.51703643798828 60.32588195800781 M 61.51673126220703 57.32588195800781 C 61.51691436767578 57.32583618164062 61.51718139648438 57.32588195800781 61.51731872558594 57.32588195800781 C 63.47623825073242 57.32605743408203 65.33773803710938 58.26776885986328 66.496826171875 59.84494781494141 C 70.39576721191406 65.14935302734375 72.45671844482422 71.44200134277344 72.45671844482422 78.04241943359375 C 72.45671844482422 84.64277648925781 70.39578247070312 90.93541717529297 66.4967041015625 96.24005126953125 C 65.33740234375 97.81732940673828 63.47580718994141 98.75901794433594 61.51697540283203 98.75901794433594 C 60.19326019287109 98.75901794433594 58.9290771484375 98.34394073486328 57.86112213134766 97.55865478515625 C 55.11733245849609 95.54217529296875 54.52553558349609 91.66848754882812 56.54252624511719 88.92401123046875 C 58.871826171875 85.7547607421875 60.10299682617188 81.99198913574219 60.10299682617188 78.04241943359375 C 60.10299682617188 74.0927734375 58.871826171875 70.33000183105469 56.5426025390625 67.16089630126953 C 55.5655517578125 65.83157348632812 55.16464996337891 64.20121765136719 55.41377258300781 62.57021331787109 C 55.66291046142578 60.93911743164062 56.53227996826172 59.50276184082031 57.86174011230469 58.52571105957031 C 58.92946624755859 57.74083709716797 60.19343566894531 57.32588195800781 61.51674652099609 57.32588195800781 L 61.51673126220703 57.32588195800781 Z" stroke="none" fill="#fff"/>
    </g>
  </g>
</svg>
