<svg xmlns="http://www.w3.org/2000/svg" width="19.759" height="56.731" viewBox="0 0 19.759 56.731">
  <g id="Caminho_2084" data-name="Caminho 2084" transform="translate(-65.052 -49.677)" fill="#f37335" stroke-linejoin="round">
    <path d="M 71.22775268554688 104.9078903198242 C 70.20710754394531 104.9078903198242 69.23554229736328 104.5827713012695 68.4180908203125 103.967658996582 C 67.41984558105469 103.2162475585938 66.77407073974609 102.1213073730469 66.59947204589844 100.8843994140625 C 66.42485046386719 99.64730834960938 66.74246215820312 98.41633605957031 67.49379730224609 97.41825103759766 C 71.72261810302734 91.79931640625 73.95790100097656 85.09922027587891 73.95790100097656 78.04241180419922 C 73.95790100097656 70.985595703125 71.72261810302734 64.28548431396484 67.49369812011719 58.66642761230469 C 66.74243927001953 57.66833877563477 66.42482757568359 56.4373893737793 66.59941101074219 55.20038986206055 C 66.77398681640625 53.96344757080078 67.41982269287109 52.8685188293457 68.41793060302734 52.11726760864258 C 69.23548889160156 51.50203704833984 70.20723724365234 51.1768798828125 71.22824096679688 51.1768798828125 C 72.69088745117188 51.1768798828125 74.08866119384766 51.87398910522461 74.96726989746094 53.04162979125977 L 75.26869201660156 53.44220733642578 L 75.26869201660156 53.44739532470703 C 80.53237152099609 60.61643981933594 83.31135559082031 69.10901641845703 83.31135559082031 78.04241180419922 C 83.31135559082031 87.14472961425781 80.42588806152344 95.78984832763672 74.96689605712891 103.0431594848633 C 74.08847808837891 104.2107162475586 72.69061279296875 104.9078903198242 71.22775268554688 104.9078903198242 Z" stroke="none"/>
    <path d="M 71.22824859619141 52.6768798828125 C 70.56313323974609 52.67686462402344 69.8924560546875 52.88492584228516 69.31996917724609 53.31573486328125 C 67.91815948486328 54.37083435058594 67.636962890625 56.36248779296875 68.69219970703125 57.76443481445312 C 73.11827087402344 63.64545440673828 75.45790100097656 70.65760803222656 75.45790100097656 78.04241180419922 C 75.45790100097656 85.42720794677734 73.11827087402344 92.43934631347656 68.69219970703125 98.32037353515625 C 67.636962890625 99.72218322753906 67.91829681396484 101.7139739990234 69.31996917724609 102.7690734863281 C 70.72247314453125 103.8244171142578 72.71371459960938 103.5430145263672 73.76840972900391 102.1411361694336 C 79.03021240234375 95.14984893798828 81.81135559082031 86.81660461425781 81.81135559082031 78.04241180419922 C 81.81135559082031 69.26805877685547 79.03034210205078 60.93508911132812 73.76869201660156 53.94379425048828 L 73.76869201660156 53.94351959228516 C 73.14452362060547 53.114013671875 72.1922607421875 52.67689514160156 71.22824859619141 52.6768798828125 M 71.22820281982422 49.6768798828125 C 71.22821807861328 49.6768798828125 71.22824096679688 49.6768798828125 71.22825622558594 49.6768798828125 C 73.15963745117188 49.67691802978516 75.00547027587891 50.59761810302734 76.16586303710938 52.13974761962891 C 76.17247772216797 52.14853668212891 76.17901611328125 52.15734100341797 76.18553161621094 52.16619110107422 C 81.82884216308594 59.6761474609375 84.81135559082031 68.62305450439453 84.81135559082031 78.04241180419922 C 84.81135559082031 87.47274780273438 81.82163238525391 96.42977905273438 76.16539001464844 103.9451599121094 C 75.00533294677734 105.4870758056641 73.15937042236328 106.4078826904297 71.22775268554688 106.4078826904297 C 69.87912750244141 106.4078826904297 68.59568786621094 105.9785308837891 67.51616668701172 105.1662139892578 C 66.19767761230469 104.1737365722656 65.34477996826172 102.7276611328125 65.11418914794922 101.0940475463867 C 64.88356018066406 99.46017456054688 65.30304718017578 97.83436584472656 66.29538726806641 96.51611328125 C 70.32686614990234 91.15940093994141 72.45790100097656 84.77120971679688 72.45790100097656 78.04241180419922 C 72.45790100097656 71.31360626220703 70.32686614990234 64.92540740966797 66.29519653320312 59.56842803955078 C 65.30303192138672 58.25027465820312 64.88355255126953 56.62451171875 65.11412811279297 54.99076843261719 C 65.34469604492188 53.35710906982422 66.19766235351562 51.91099548339844 67.51587677001953 50.91881561279297 C 68.59564208984375 50.10626983642578 69.87925720214844 49.6768798828125 71.22820281982422 49.6768798828125 Z" stroke="none" fill="#fff"/>
  </g>
</svg>
