<svg xmlns="http://www.w3.org/2000/svg" width="67.603" height="66" viewBox="0 0 67.603 66">
  <g id="Camada_x0020_1" transform="translate(-1345.05 -1270.121)">
    <g id="_2059304366336" transform="translate(1345.05 1270.121)">
      <path id="Caminho_466" data-name="Caminho 466" d="M67.592,33.015c0,2.4-5.072,4.2-5.583,6.443-.527,2.318,3.251,6.135,2.242,8.227-1.026,2.126-6.376,1.545-7.835,3.372s.284,6.92-1.549,8.385c-.963.767-2.685.346-4.409-.075-1.551-.379-3.105-.758-4.112-.273-2.091,1.009-2.716,6.354-5.036,6.881-2.244.51-5.121-4.023-7.521-4.023s-5.277,4.533-7.521,4.023c-2.32-.527-2.944-5.872-5.036-6.881-1.006-.486-2.561-.107-4.112.272-1.724.421-3.445.843-4.408.075-1.836-1.466-.085-6.55-1.549-8.385s-6.808-1.245-7.835-3.372C2.322,45.594,6.1,41.778,5.573,39.459,5.062,37.214-.01,35.416-.01,33.016s5.072-4.2,5.583-6.443c.528-2.318-3.251-6.135-2.242-8.227,1.026-2.127,6.376-1.545,7.835-3.372s-.285-6.92,1.549-8.385c.963-.768,2.684-.346,4.408.075,1.552.379,3.105.758,4.112.272C23.326,5.927,23.951.582,26.27.056c2.244-.51,5.121,4.023,7.521,4.023S39.068-.455,41.312.056c2.32.527,2.944,5.872,5.036,6.881,1.007.486,2.561.107,4.112-.272,1.724-.421,3.445-.843,4.409-.075,1.833,1.465.085,6.55,1.549,8.385s6.808,1.245,7.835,3.372c1.009,2.092-2.77,5.908-2.242,8.227.511,2.245,5.583,4.043,5.583,6.443Z" transform="translate(0.01 -0.016)" fill="#00a4ef" fill-rule="evenodd"/>
      <path id="Caminho_467" data-name="Caminho 467" d="M732.547,855.969,721.08,844.5l4.358-4.358,7.11,7.109L749.8,830l4.357,4.358Z" transform="translate(-702.845 -809.012)" fill="#0088c7" fill-rule="evenodd"/>
      <path id="Caminho_468" data-name="Caminho 468" d="M694.1,817.509,682.63,806.041l4.357-4.358,7.11,7.11,17.254-17.253,4.357,4.358Z" transform="translate(-665.368 -771.524)" fill="#fff" fill-rule="evenodd"/>
    </g>
  </g>
</svg>
