<svg xmlns="http://www.w3.org/2000/svg" width="325.869" height="194.355" viewBox="0 0 325.869 194.355">
  <g id="Grupo_417" data-name="Grupo 417" transform="translate(-51.486 -379.765)">
    <circle id="Elipse_889" data-name="Elipse 889" cx="0.807" cy="0.807" r="0.807" transform="translate(318.365 572.507)" fill="#f39121"/>
    <circle id="Elipse_776" data-name="Elipse 776" cx="2.42" cy="2.42" r="2.42" transform="translate(177.851 433.219)" fill="#f39121"/>
    <circle id="Elipse_777" data-name="Elipse 777" cx="2.824" cy="2.824" r="2.824" transform="translate(177.447 446.594)" fill="#f39121"/>
    <circle id="Elipse_778" data-name="Elipse 778" cx="3.227" cy="3.227" r="3.227" transform="translate(177.044 459.954)" fill="#f39121"/>
    <path id="Caminho_1520" data-name="Caminho 1520" d="M81.239,57.9A3.759,3.759,0,1,0,85,61.659,3.753,3.753,0,0,0,81.239,57.9Z" transform="translate(99.032 415.284)" fill="#f39121"/>
    <circle id="Elipse_779" data-name="Elipse 779" cx="3.227" cy="3.227" r="3.227" transform="translate(177.044 487.479)" fill="#f39121"/>
    <circle id="Elipse_780" data-name="Elipse 780" cx="2.824" cy="2.824" r="2.824" transform="translate(177.447 501.661)" fill="#f39121"/>
    <circle id="Elipse_781" data-name="Elipse 781" cx="2.42" cy="2.42" r="2.42" transform="translate(177.851 515.827)" fill="#f39121"/>
    <circle id="Elipse_784" data-name="Elipse 784" cx="2.42" cy="2.42" r="2.42" transform="translate(191.742 433.219)" fill="#f39121"/>
    <circle id="Elipse_785" data-name="Elipse 785" cx="2.824" cy="2.824" r="2.824" transform="translate(191.339 446.594)" fill="#f39121"/>
    <circle id="Elipse_786" data-name="Elipse 786" cx="3.227" cy="3.227" r="3.227" transform="translate(190.936 459.954)" fill="#f39121"/>
    <path id="Caminho_1521" data-name="Caminho 1521" d="M89.849,57.9a3.759,3.759,0,1,0,3.759,3.759A3.753,3.753,0,0,0,89.849,57.9Z" transform="translate(104.313 415.284)" fill="#f39121"/>
    <circle id="Elipse_787" data-name="Elipse 787" cx="3.227" cy="3.227" r="3.227" transform="translate(190.936 487.479)" fill="#f39121"/>
    <circle id="Elipse_788" data-name="Elipse 788" cx="2.824" cy="2.824" r="2.824" transform="translate(191.339 501.661)" fill="#f39121"/>
    <circle id="Elipse_791" data-name="Elipse 791" cx="2.42" cy="2.42" r="2.42" transform="translate(219.526 433.219)" fill="#f39121"/>
    <circle id="Elipse_792" data-name="Elipse 792" cx="2.824" cy="2.824" r="2.824" transform="translate(219.123 446.594)" fill="#f39121"/>
    <circle id="Elipse_793" data-name="Elipse 793" cx="3.227" cy="3.227" r="3.227" transform="translate(218.719 459.954)" fill="#f39121"/>
    <path id="Caminho_1522" data-name="Caminho 1522" d="M107.069,65.419a3.759,3.759,0,1,0-3.759-3.759,3.753,3.753,0,0,0,3.759,3.759Z" transform="translate(114.877 415.284)" fill="#f39121"/>
    <circle id="Elipse_794" data-name="Elipse 794" cx="3.227" cy="3.227" r="3.227" transform="translate(218.719 487.479)" fill="#f39121"/>
    <circle id="Elipse_795" data-name="Elipse 795" cx="2.824" cy="2.824" r="2.824" transform="translate(219.123 501.661)" fill="#f39121"/>
    <circle id="Elipse_796" data-name="Elipse 796" cx="2.42" cy="2.42" r="2.42" transform="translate(219.526 515.827)" fill="#f39121"/>
    <circle id="Elipse_797" data-name="Elipse 797" cx="2.017" cy="2.017" r="2.017" transform="translate(233.821 419.859)" fill="#f39121"/>
    <circle id="Elipse_798" data-name="Elipse 798" cx="2.42" cy="2.42" r="2.42" transform="translate(233.417 433.219)" fill="#f39121"/>
    <circle id="Elipse_799" data-name="Elipse 799" cx="2.824" cy="2.824" r="2.824" transform="translate(233.014 446.594)" fill="#f39121"/>
    <circle id="Elipse_800" data-name="Elipse 800" cx="3.227" cy="3.227" r="3.227" transform="translate(232.611 459.954)" fill="#f39121"/>
    <path id="Caminho_1523" data-name="Caminho 1523" d="M115.679,57.9a3.759,3.759,0,1,0,3.759,3.759A3.753,3.753,0,0,0,115.679,57.9Z" transform="translate(120.159 415.284)" fill="#f39121"/>
    <circle id="Elipse_801" data-name="Elipse 801" cx="3.227" cy="3.227" r="3.227" transform="translate(232.611 487.479)" fill="#f39121"/>
    <circle id="Elipse_802" data-name="Elipse 802" cx="2.824" cy="2.824" r="2.824" transform="translate(233.014 501.661)" fill="#f39121"/>
    <circle id="Elipse_803" data-name="Elipse 803" cx="2.42" cy="2.42" r="2.42" transform="translate(233.417 515.827)" fill="#f39121"/>
    <circle id="Elipse_804" data-name="Elipse 804" cx="2.824" cy="2.824" r="2.824" transform="translate(246.906 446.594)" fill="#f39121"/>
    <circle id="Elipse_805" data-name="Elipse 805" cx="3.227" cy="3.227" r="3.227" transform="translate(246.502 459.954)" fill="#f39121"/>
    <path id="Caminho_1524" data-name="Caminho 1524" d="M124.289,57.9a3.759,3.759,0,1,0,3.759,3.759A3.753,3.753,0,0,0,124.289,57.9Z" transform="translate(125.44 415.284)" fill="#f39121"/>
    <circle id="Elipse_806" data-name="Elipse 806" cx="3.227" cy="3.227" r="3.227" transform="translate(246.502 487.479)" fill="#f39121"/>
    <circle id="Elipse_807" data-name="Elipse 807" cx="2.824" cy="2.824" r="2.824" transform="translate(246.906 501.661)" fill="#f39121"/>
    <circle id="Elipse_808" data-name="Elipse 808" cx="2.42" cy="2.42" r="2.42" transform="translate(261.201 433.219)" fill="#f39121"/>
    <circle id="Elipse_809" data-name="Elipse 809" cx="2.824" cy="2.824" r="2.824" transform="translate(260.798 446.594)" fill="#f39121"/>
    <circle id="Elipse_810" data-name="Elipse 810" cx="3.227" cy="3.227" r="3.227" transform="translate(260.395 459.954)" fill="#f39121"/>
    <path id="Caminho_1525" data-name="Caminho 1525" d="M132.9,65.419a3.759,3.759,0,1,0-3.759-3.759,3.753,3.753,0,0,0,3.759,3.759Z" transform="translate(130.722 415.284)" fill="#f39121"/>
    <circle id="Elipse_811" data-name="Elipse 811" cx="3.227" cy="3.227" r="3.227" transform="translate(260.395 487.479)" fill="#f39121"/>
    <circle id="Elipse_812" data-name="Elipse 812" cx="2.824" cy="2.824" r="2.824" transform="translate(260.798 501.661)" fill="#f39121"/>
    <circle id="Elipse_813" data-name="Elipse 813" cx="3.227" cy="3.227" r="3.227" transform="translate(274.27 459.954)" fill="#f39121"/>
    <path id="Caminho_1526" data-name="Caminho 1526" d="M141.5,57.9a3.759,3.759,0,1,0,3.759,3.759A3.753,3.753,0,0,0,141.5,57.9Z" transform="translate(135.998 415.284)" fill="#f39121"/>
    <circle id="Elipse_814" data-name="Elipse 814" cx="3.227" cy="3.227" r="3.227" transform="translate(274.27 487.479)" fill="#f39121"/>
    <circle id="Elipse_815" data-name="Elipse 815" cx="2.824" cy="2.824" r="2.824" transform="translate(288.565 446.594)" fill="#f39121"/>
    <circle id="Elipse_816" data-name="Elipse 816" cx="3.227" cy="3.227" r="3.227" transform="translate(288.162 459.954)" fill="#f39121"/>
    <path id="Caminho_1527" data-name="Caminho 1527" d="M150.109,65.419a3.759,3.759,0,1,0-3.759-3.759,3.753,3.753,0,0,0,3.759,3.759Z" transform="translate(141.279 415.284)" fill="#f39121"/>
    <circle id="Elipse_817" data-name="Elipse 817" cx="3.227" cy="3.227" r="3.227" transform="translate(288.162 487.479)" fill="#f39121"/>
    <circle id="Elipse_818" data-name="Elipse 818" cx="2.824" cy="2.824" r="2.824" transform="translate(288.565 501.661)" fill="#f39121"/>
    <circle id="Elipse_819" data-name="Elipse 819" cx="2.42" cy="2.42" r="2.42" transform="translate(261.201 515.827)" fill="#f39121"/>
    <circle id="Elipse_820" data-name="Elipse 820" cx="2.017" cy="2.017" r="2.017" transform="translate(233.821 529.993)" fill="#f39121"/>
    <circle id="Elipse_825" data-name="Elipse 825" cx="3.227" cy="3.227" r="3.227" transform="translate(149.26 459.954)" fill="#f39121"/>
    <path id="Caminho_1530" data-name="Caminho 1530" d="M64.019,65.419a3.759,3.759,0,1,0-3.759-3.759,3.753,3.753,0,0,0,3.759,3.759Z" transform="translate(88.468 415.284)" fill="#f39121"/>
    <circle id="Elipse_826" data-name="Elipse 826" cx="3.227" cy="3.227" r="3.227" transform="translate(149.26 487.479)" fill="#f39121"/>
    <circle id="Elipse_827" data-name="Elipse 827" cx="3.227" cy="3.227" r="3.227" transform="translate(204.828 459.954)" fill="#f39121"/>
    <path id="Caminho_1531" data-name="Caminho 1531" d="M98.459,65.419A3.759,3.759,0,1,0,94.7,61.659a3.753,3.753,0,0,0,3.759,3.759Z" transform="translate(109.595 415.284)" fill="#f39121"/>
    <circle id="Elipse_828" data-name="Elipse 828" cx="3.227" cy="3.227" r="3.227" transform="translate(204.828 487.479)" fill="#f39121"/>
    <circle id="Elipse_833" data-name="Elipse 833" cx="2.824" cy="2.824" r="2.824" transform="translate(163.556 446.594)" fill="#f39121"/>
    <circle id="Elipse_834" data-name="Elipse 834" cx="3.227" cy="3.227" r="3.227" transform="translate(163.152 459.954)" fill="#f39121"/>
    <path id="Caminho_1533" data-name="Caminho 1533" d="M72.629,57.9a3.759,3.759,0,1,0,3.759,3.759A3.753,3.753,0,0,0,72.629,57.9Z" transform="translate(93.75 415.284)" fill="#f39121"/>
    <circle id="Elipse_835" data-name="Elipse 835" cx="3.227" cy="3.227" r="3.227" transform="translate(163.152 487.479)" fill="#f39121"/>
    <circle id="Elipse_836" data-name="Elipse 836" cx="2.824" cy="2.824" r="2.824" transform="translate(163.556 501.661)" fill="#f39121"/>
    <circle id="Elipse_839" data-name="Elipse 839" cx="2.017" cy="2.017" r="2.017" transform="translate(303.264 419.859)" fill="#f39121"/>
    <circle id="Elipse_840" data-name="Elipse 840" cx="2.42" cy="2.42" r="2.42" transform="translate(302.86 433.219)" fill="#f39121"/>
    <circle id="Elipse_841" data-name="Elipse 841" cx="2.824" cy="2.824" r="2.824" transform="translate(302.457 446.594)" fill="#f39121"/>
    <circle id="Elipse_842" data-name="Elipse 842" cx="3.227" cy="3.227" r="3.227" transform="translate(302.053 459.954)" fill="#f39121"/>
    <circle id="Elipse_843" data-name="Elipse 843" cx="3.227" cy="3.227" r="3.227" transform="translate(302.053 487.479)" fill="#f39121"/>
    <circle id="Elipse_844" data-name="Elipse 844" cx="2.824" cy="2.824" r="2.824" transform="translate(302.457 501.661)" fill="#f39121"/>
    <circle id="Elipse_845" data-name="Elipse 845" cx="2.42" cy="2.42" r="2.42" transform="translate(302.86 515.827)" fill="#f39121"/>
    <circle id="Elipse_846" data-name="Elipse 846" cx="2.017" cy="2.017" r="2.017" transform="translate(303.264 529.993)" fill="#f39121"/>
    <circle id="Elipse_847" data-name="Elipse 847" cx="1.613" cy="1.613" r="1.613" transform="translate(303.667 406.5)" fill="#f39121"/>
    <circle id="Elipse_848" data-name="Elipse 848" cx="1.613" cy="1.613" r="1.613" transform="translate(303.667 544.175)" fill="#f39121"/>
    <circle id="Elipse_889-2" data-name="Elipse 889" cx="0.807" cy="0.807" r="0.807" transform="translate(318.365 572.507)" fill="#f39121"/>
    <circle id="Elipse_900" data-name="Elipse 900" cx="0.807" cy="0.807" r="0.807" transform="translate(54.438 572.507)" fill="#f39121"/>
    <circle id="Elipse_901" data-name="Elipse 901" cx="0.807" cy="0.807" r="0.807" transform="translate(54.438 379.765)" fill="#f39121"/>
    <circle id="Elipse_902" data-name="Elipse 902" cx="1.21" cy="1.21" r="1.21" transform="translate(54.035 393.125)" fill="#f39121"/>
    <circle id="Elipse_903" data-name="Elipse 903" cx="1.21" cy="1.21" r="1.21" transform="translate(95.71 393.125)" fill="#f39121"/>
    <circle id="Elipse_904" data-name="Elipse 904" cx="2.017" cy="2.017" r="2.017" transform="translate(53.229 419.859)" fill="#f39121"/>
    <circle id="Elipse_905" data-name="Elipse 905" cx="2.42" cy="2.42" r="2.42" transform="translate(52.825 433.219)" fill="#f39121"/>
    <circle id="Elipse_906" data-name="Elipse 906" cx="2.824" cy="2.824" r="2.824" transform="translate(52.422 446.594)" fill="#f39121"/>
    <circle id="Elipse_907" data-name="Elipse 907" cx="3.227" cy="3.227" r="3.227" transform="translate(52.019 459.954)" fill="#f39121"/>
    <path id="Caminho_1541" data-name="Caminho 1541" d="M167.329,57.9a3.759,3.759,0,1,0,3.759,3.759A3.753,3.753,0,0,0,167.329,57.9Z" transform="translate(-112.084 415.284)" fill="#f39121"/>
    <circle id="Elipse_908" data-name="Elipse 908" cx="3.227" cy="3.227" r="3.227" transform="translate(52.019 487.479)" fill="#f39121"/>
    <circle id="Elipse_909" data-name="Elipse 909" cx="2.824" cy="2.824" r="2.824" transform="translate(52.422 501.661)" fill="#f39121"/>
    <circle id="Elipse_910" data-name="Elipse 910" cx="2.42" cy="2.42" r="2.42" transform="translate(52.825 515.827)" fill="#f39121"/>
    <circle id="Elipse_911" data-name="Elipse 911" cx="2.017" cy="2.017" r="2.017" transform="translate(53.229 529.993)" fill="#f39121"/>
    <circle id="Elipse_912" data-name="Elipse 912" cx="2.42" cy="2.42" r="2.42" transform="translate(66.717 433.219)" fill="#f39121"/>
    <circle id="Elipse_913" data-name="Elipse 913" cx="2.824" cy="2.824" r="2.824" transform="translate(66.313 446.594)" fill="#f39121"/>
    <circle id="Elipse_914" data-name="Elipse 914" cx="3.227" cy="3.227" r="3.227" transform="translate(65.91 459.954)" fill="#f39121"/>
    <path id="Caminho_1542" data-name="Caminho 1542" d="M175.939,57.9a3.759,3.759,0,1,0,3.759,3.759A3.753,3.753,0,0,0,175.939,57.9Z" transform="translate(-106.802 415.284)" fill="#f39121"/>
    <circle id="Elipse_915" data-name="Elipse 915" cx="3.227" cy="3.227" r="3.227" transform="translate(65.91 487.479)" fill="#f39121"/>
    <circle id="Elipse_916" data-name="Elipse 916" cx="2.824" cy="2.824" r="2.824" transform="translate(66.313 501.661)" fill="#f39121"/>
    <circle id="Elipse_917" data-name="Elipse 917" cx="2.42" cy="2.42" r="2.42" transform="translate(66.717 515.827)" fill="#f39121"/>
    <circle id="Elipse_918" data-name="Elipse 918" cx="2.017" cy="2.017" r="2.017" transform="translate(81.012 419.859)" fill="#f39121"/>
    <circle id="Elipse_919" data-name="Elipse 919" cx="2.42" cy="2.42" r="2.42" transform="translate(80.608 433.219)" fill="#f39121"/>
    <circle id="Elipse_920" data-name="Elipse 920" cx="2.824" cy="2.824" r="2.824" transform="translate(80.205 446.594)" fill="#f39121"/>
    <circle id="Elipse_921" data-name="Elipse 921" cx="3.227" cy="3.227" r="3.227" transform="translate(79.802 459.954)" fill="#f39121"/>
    <path id="Caminho_1543" data-name="Caminho 1543" d="M184.549,57.9a3.759,3.759,0,1,0,3.759,3.759A3.753,3.753,0,0,0,184.549,57.9Z" transform="translate(-101.521 415.284)" fill="#f39121"/>
    <circle id="Elipse_922" data-name="Elipse 922" cx="3.227" cy="3.227" r="3.227" transform="translate(79.802 487.479)" fill="#f39121"/>
    <circle id="Elipse_923" data-name="Elipse 923" cx="2.824" cy="2.824" r="2.824" transform="translate(80.205 501.661)" fill="#f39121"/>
    <circle id="Elipse_924" data-name="Elipse 924" cx="2.42" cy="2.42" r="2.42" transform="translate(80.608 515.827)" fill="#f39121"/>
    <circle id="Elipse_925" data-name="Elipse 925" cx="2.017" cy="2.017" r="2.017" transform="translate(81.012 529.993)" fill="#f39121"/>
    <circle id="Elipse_926" data-name="Elipse 926" cx="1.613" cy="1.613" r="1.613" transform="translate(53.632 406.5)" fill="#f39121"/>
    <circle id="Elipse_927" data-name="Elipse 927" cx="1.613" cy="1.613" r="1.613" transform="translate(53.632 544.175)" fill="#f39121"/>
    <circle id="Elipse_928" data-name="Elipse 928" cx="1.21" cy="1.21" r="1.21" transform="translate(54.035 558.341)" fill="#f39121"/>
    <circle id="Elipse_929" data-name="Elipse 929" cx="2.017" cy="2.017" r="2.017" transform="translate(94.904 419.859)" fill="#f39121"/>
    <circle id="Elipse_930" data-name="Elipse 930" cx="2.42" cy="2.42" r="2.42" transform="translate(94.5 433.219)" fill="#f39121"/>
    <circle id="Elipse_931" data-name="Elipse 931" cx="2.824" cy="2.824" r="2.824" transform="translate(94.097 446.594)" fill="#f39121"/>
    <circle id="Elipse_932" data-name="Elipse 932" cx="3.227" cy="3.227" r="3.227" transform="translate(93.694 459.954)" fill="#f39121"/>
    <path id="Caminho_1544" data-name="Caminho 1544" d="M193.159,57.9a3.759,3.759,0,1,0,3.759,3.759A3.753,3.753,0,0,0,193.159,57.9Z" transform="translate(-96.239 415.284)" fill="#f39121"/>
    <circle id="Elipse_933" data-name="Elipse 933" cx="3.227" cy="3.227" r="3.227" transform="translate(93.694 487.479)" fill="#f39121"/>
    <circle id="Elipse_934" data-name="Elipse 934" cx="2.824" cy="2.824" r="2.824" transform="translate(94.097 501.661)" fill="#f39121"/>
    <circle id="Elipse_935" data-name="Elipse 935" cx="2.824" cy="2.824" r="2.824" transform="translate(107.989 446.594)" fill="#f39121"/>
    <circle id="Elipse_936" data-name="Elipse 936" cx="3.227" cy="3.227" r="3.227" transform="translate(107.585 459.954)" fill="#f39121"/>
    <path id="Caminho_1545" data-name="Caminho 1545" d="M201.769,65.419a3.759,3.759,0,1,0-3.759-3.759,3.753,3.753,0,0,0,3.759,3.759Z" transform="translate(-90.957 415.284)" fill="#f39121"/>
    <circle id="Elipse_937" data-name="Elipse 937" cx="3.227" cy="3.227" r="3.227" transform="translate(107.585 487.479)" fill="#f39121"/>
    <circle id="Elipse_938" data-name="Elipse 938" cx="2.824" cy="2.824" r="2.824" transform="translate(107.989 501.661)" fill="#f39121"/>
    <circle id="Elipse_939" data-name="Elipse 939" cx="2.42" cy="2.42" r="2.42" transform="translate(94.5 515.827)" fill="#f39121"/>
    <circle id="Elipse_940" data-name="Elipse 940" cx="2.017" cy="2.017" r="2.017" transform="translate(94.904 529.993)" fill="#f39121"/>
    <circle id="Elipse_941" data-name="Elipse 941" cx="1.613" cy="1.613" r="1.613" transform="translate(95.307 406.5)" fill="#f39121"/>
    <circle id="Elipse_942" data-name="Elipse 942" cx="1.613" cy="1.613" r="1.613" transform="translate(95.307 544.175)" fill="#f39121"/>
    <circle id="Elipse_943" data-name="Elipse 943" cx="1.21" cy="1.21" r="1.21" transform="translate(95.71 558.341)" fill="#f39121"/>
    <circle id="Elipse_944" data-name="Elipse 944" cx="0.807" cy="0.807" r="0.807" transform="translate(54.438 572.507)" fill="#f39121"/>
    <circle id="Elipse_757" data-name="Elipse 757" cx="2.824" cy="2.824" r="2.824" transform="translate(121.438 446.594)" fill="#f39121"/>
    <circle id="Elipse_758" data-name="Elipse 758" cx="3.227" cy="3.227" r="3.227" transform="translate(121.034 459.954)" fill="#f39121"/>
    <path id="Caminho_1517" data-name="Caminho 1517" d="M3.759,57.9a3.759,3.759,0,1,0,3.759,3.759A3.753,3.753,0,0,0,3.759,57.9Z" transform="translate(120.502 415.284)" fill="#f39121"/>
    <circle id="Elipse_759" data-name="Elipse 759" cx="3.227" cy="3.227" r="3.227" transform="translate(121.034 487.479)" fill="#f39121"/>
    <circle id="Elipse_760" data-name="Elipse 760" cx="2.824" cy="2.824" r="2.824" transform="translate(121.438 501.661)" fill="#f39121"/>
    <circle id="Elipse_761" data-name="Elipse 761" cx="2.017" cy="2.017" r="2.017" transform="translate(136.136 419.859)" fill="#f39121"/>
    <circle id="Elipse_762" data-name="Elipse 762" cx="2.42" cy="2.42" r="2.42" transform="translate(135.733 433.219)" fill="#f39121"/>
    <circle id="Elipse_763" data-name="Elipse 763" cx="2.824" cy="2.824" r="2.824" transform="translate(135.33 446.594)" fill="#f39121"/>
    <circle id="Elipse_764" data-name="Elipse 764" cx="3.227" cy="3.227" r="3.227" transform="translate(134.926 459.954)" fill="#f39121"/>
    <path id="Caminho_1518" data-name="Caminho 1518" d="M12.369,57.9a3.759,3.759,0,1,0,3.759,3.759A3.753,3.753,0,0,0,12.369,57.9Z" transform="translate(125.784 415.284)" fill="#f39121"/>
    <circle id="Elipse_765" data-name="Elipse 765" cx="3.227" cy="3.227" r="3.227" transform="translate(134.926 487.479)" fill="#f39121"/>
    <circle id="Elipse_766" data-name="Elipse 766" cx="2.824" cy="2.824" r="2.824" transform="translate(135.33 501.661)" fill="#f39121"/>
    <circle id="Elipse_767" data-name="Elipse 767" cx="2.42" cy="2.42" r="2.42" transform="translate(135.733 515.827)" fill="#f39121"/>
    <circle id="Elipse_774" data-name="Elipse 774" cx="2.017" cy="2.017" r="2.017" transform="translate(136.136 529.993)" fill="#f39121"/>
    <path id="Caminho_1534" data-name="Caminho 1534" d="M59.169,61.659a3.759,3.759,0,1,0-3.759,3.759,3.753,3.753,0,0,0,3.759-3.759Z" transform="translate(318.186 415.284)" fill="#f39121"/>
    <circle id="Elipse_768" data-name="Elipse 768" cx="2.42" cy="2.42" r="2.42" transform="translate(357.284 433.219)" fill="#f39121"/>
    <circle id="Elipse_769" data-name="Elipse 769" cx="2.824" cy="2.824" r="2.824" transform="translate(356.88 446.594)" fill="#f39121"/>
    <circle id="Elipse_770" data-name="Elipse 770" cx="3.227" cy="3.227" r="3.227" transform="translate(356.477 459.954)" fill="#f39121"/>
    <path id="Caminho_1519" data-name="Caminho 1519" d="M46.8,57.9a3.759,3.759,0,1,0,3.759,3.759A3.753,3.753,0,0,0,46.8,57.9Z" transform="translate(312.904 415.284)" fill="#f39121"/>
    <circle id="Elipse_771" data-name="Elipse 771" cx="3.227" cy="3.227" r="3.227" transform="translate(356.477 487.479)" fill="#f39121"/>
    <circle id="Elipse_772" data-name="Elipse 772" cx="2.824" cy="2.824" r="2.824" transform="translate(356.88 501.661)" fill="#f39121"/>
    <circle id="Elipse_773" data-name="Elipse 773" cx="2.42" cy="2.42" r="2.42" transform="translate(357.284 515.827)" fill="#f39121"/>
    <circle id="Elipse_821" data-name="Elipse 821" cx="3.227" cy="3.227" r="3.227" transform="translate(314.818 459.954)" fill="#f39121"/>
    <path id="Caminho_1528" data-name="Caminho 1528" d="M20.979,57.9a3.759,3.759,0,1,0,3.759,3.759A3.753,3.753,0,0,0,20.979,57.9Z" transform="translate(297.065 415.284)" fill="#f39121"/>
    <circle id="Elipse_822" data-name="Elipse 822" cx="3.227" cy="3.227" r="3.227" transform="translate(314.818 487.479)" fill="#f39121"/>
    <circle id="Elipse_823" data-name="Elipse 823" cx="3.227" cy="3.227" r="3.227" transform="translate(342.602 459.954)" fill="#f39121"/>
    <path id="Caminho_1529" data-name="Caminho 1529" d="M38.2,65.419a3.759,3.759,0,1,0-3.759-3.759A3.753,3.753,0,0,0,38.2,65.419Z" transform="translate(307.629 415.284)" fill="#f39121"/>
    <circle id="Elipse_824" data-name="Elipse 824" cx="3.227" cy="3.227" r="3.227" transform="translate(342.602 487.479)" fill="#f39121"/>
    <circle id="Elipse_829" data-name="Elipse 829" cx="2.824" cy="2.824" r="2.824" transform="translate(329.113 446.594)" fill="#f39121"/>
    <circle id="Elipse_830" data-name="Elipse 830" cx="3.227" cy="3.227" r="3.227" transform="translate(328.709 459.954)" fill="#f39121"/>
    <path id="Caminho_1532" data-name="Caminho 1532" d="M29.589,57.9a3.759,3.759,0,1,0,3.759,3.759A3.753,3.753,0,0,0,29.589,57.9Z" transform="translate(302.347 415.284)" fill="#f39121"/>
    <circle id="Elipse_831" data-name="Elipse 831" cx="3.227" cy="3.227" r="3.227" transform="translate(328.709 487.479)" fill="#f39121"/>
    <circle id="Elipse_832" data-name="Elipse 832" cx="2.824" cy="2.824" r="2.824" transform="translate(329.113 501.661)" fill="#f39121"/>
  </g>
</svg>
