<svg xmlns="http://www.w3.org/2000/svg" width="326.996" height="180.996" viewBox="0 0 326.996 180.996">
  <g id="Grupo_423" data-name="Grupo 423" transform="translate(-51.502 -379.765)">
    <circle id="Elipse_754" data-name="Elipse 754" cx="0.807" cy="0.807" r="0.807" transform="translate(318.365 379.765)" fill="#f39121"/>
    <circle id="Elipse_755" data-name="Elipse 755" cx="1.21" cy="1.21" r="1.21" transform="translate(317.962 393.125)" fill="#f39121"/>
    <circle id="Elipse_756" data-name="Elipse 756" cx="1.21" cy="1.21" r="1.21" transform="translate(359.637 393.125)" fill="#f39121"/>
    <circle id="Elipse_757" data-name="Elipse 757" cx="2.824" cy="2.824" r="2.824" transform="translate(52.438 446.594)" fill="#f39121"/>
    <circle id="Elipse_758" data-name="Elipse 758" cx="3.227" cy="3.227" r="3.227" transform="translate(52.034 459.954)" fill="#f39121"/>
    <path id="Caminho_1517" data-name="Caminho 1517" d="M3.759,57.9a3.759,3.759,0,1,0,3.759,3.759A3.753,3.753,0,0,0,3.759,57.9Z" transform="translate(51.502 415.284)" fill="#f39121"/>
    <circle id="Elipse_759" data-name="Elipse 759" cx="3.227" cy="3.227" r="3.227" transform="translate(52.034 487.479)" fill="#f39121"/>
    <circle id="Elipse_760" data-name="Elipse 760" cx="2.824" cy="2.824" r="2.824" transform="translate(52.438 501.661)" fill="#f39121"/>
    <circle id="Elipse_761" data-name="Elipse 761" cx="2.017" cy="2.017" r="2.017" transform="translate(67.136 419.859)" fill="#f39121"/>
    <circle id="Elipse_762" data-name="Elipse 762" cx="2.42" cy="2.42" r="2.42" transform="translate(66.733 433.219)" fill="#f39121"/>
    <circle id="Elipse_763" data-name="Elipse 763" cx="2.824" cy="2.824" r="2.824" transform="translate(66.33 446.594)" fill="#f39121"/>
    <circle id="Elipse_764" data-name="Elipse 764" cx="3.227" cy="3.227" r="3.227" transform="translate(65.926 459.954)" fill="#f39121"/>
    <path id="Caminho_1518" data-name="Caminho 1518" d="M12.369,57.9a3.759,3.759,0,1,0,3.759,3.759A3.753,3.753,0,0,0,12.369,57.9Z" transform="translate(56.784 415.284)" fill="#f39121"/>
    <circle id="Elipse_765" data-name="Elipse 765" cx="3.227" cy="3.227" r="3.227" transform="translate(65.926 487.479)" fill="#f39121"/>
    <circle id="Elipse_766" data-name="Elipse 766" cx="2.824" cy="2.824" r="2.824" transform="translate(66.33 501.661)" fill="#f39121"/>
    <circle id="Elipse_767" data-name="Elipse 767" cx="2.42" cy="2.42" r="2.42" transform="translate(66.733 515.827)" fill="#f39121"/>
    <circle id="Elipse_768" data-name="Elipse 768" cx="2.42" cy="2.42" r="2.42" transform="translate(122.284 433.219)" fill="#f39121"/>
    <circle id="Elipse_769" data-name="Elipse 769" cx="2.824" cy="2.824" r="2.824" transform="translate(121.88 446.594)" fill="#f39121"/>
    <circle id="Elipse_770" data-name="Elipse 770" cx="3.227" cy="3.227" r="3.227" transform="translate(121.477 459.954)" fill="#f39121"/>
    <path id="Caminho_1519" data-name="Caminho 1519" d="M46.8,57.9a3.759,3.759,0,1,0,3.759,3.759A3.753,3.753,0,0,0,46.8,57.9Z" transform="translate(77.904 415.284)" fill="#f39121"/>
    <circle id="Elipse_771" data-name="Elipse 771" cx="3.227" cy="3.227" r="3.227" transform="translate(121.477 487.479)" fill="#f39121"/>
    <circle id="Elipse_772" data-name="Elipse 772" cx="2.824" cy="2.824" r="2.824" transform="translate(121.88 501.661)" fill="#f39121"/>
    <circle id="Elipse_773" data-name="Elipse 773" cx="2.42" cy="2.42" r="2.42" transform="translate(122.284 515.827)" fill="#f39121"/>
    <circle id="Elipse_774" data-name="Elipse 774" cx="2.017" cy="2.017" r="2.017" transform="translate(67.136 529.993)" fill="#f39121"/>
    <circle id="Elipse_775" data-name="Elipse 775" cx="2.017" cy="2.017" r="2.017" transform="translate(178.254 419.859)" fill="#f39121"/>
    <circle id="Elipse_776" data-name="Elipse 776" cx="2.42" cy="2.42" r="2.42" transform="translate(177.851 433.219)" fill="#f39121"/>
    <circle id="Elipse_777" data-name="Elipse 777" cx="2.824" cy="2.824" r="2.824" transform="translate(177.447 446.594)" fill="#f39121"/>
    <circle id="Elipse_778" data-name="Elipse 778" cx="3.227" cy="3.227" r="3.227" transform="translate(177.044 459.954)" fill="#f39121"/>
    <path id="Caminho_1520" data-name="Caminho 1520" d="M81.239,57.9A3.759,3.759,0,1,0,85,61.659,3.753,3.753,0,0,0,81.239,57.9Z" transform="translate(99.032 415.284)" fill="#f39121"/>
    <circle id="Elipse_779" data-name="Elipse 779" cx="3.227" cy="3.227" r="3.227" transform="translate(177.044 487.479)" fill="#f39121"/>
    <circle id="Elipse_780" data-name="Elipse 780" cx="2.824" cy="2.824" r="2.824" transform="translate(177.447 501.661)" fill="#f39121"/>
    <circle id="Elipse_781" data-name="Elipse 781" cx="2.42" cy="2.42" r="2.42" transform="translate(177.851 515.827)" fill="#f39121"/>
    <circle id="Elipse_782" data-name="Elipse 782" cx="2.017" cy="2.017" r="2.017" transform="translate(178.254 529.993)" fill="#f39121"/>
    <circle id="Elipse_784" data-name="Elipse 784" cx="2.42" cy="2.42" r="2.42" transform="translate(191.742 433.219)" fill="#f39121"/>
    <circle id="Elipse_785" data-name="Elipse 785" cx="2.824" cy="2.824" r="2.824" transform="translate(191.339 446.594)" fill="#f39121"/>
    <circle id="Elipse_786" data-name="Elipse 786" cx="3.227" cy="3.227" r="3.227" transform="translate(190.936 459.954)" fill="#f39121"/>
    <path id="Caminho_1521" data-name="Caminho 1521" d="M89.849,57.9a3.759,3.759,0,1,0,3.759,3.759A3.753,3.753,0,0,0,89.849,57.9Z" transform="translate(104.313 415.284)" fill="#f39121"/>
    <circle id="Elipse_787" data-name="Elipse 787" cx="3.227" cy="3.227" r="3.227" transform="translate(190.936 487.479)" fill="#f39121"/>
    <circle id="Elipse_788" data-name="Elipse 788" cx="2.824" cy="2.824" r="2.824" transform="translate(191.339 501.661)" fill="#f39121"/>
    <circle id="Elipse_789" data-name="Elipse 789" cx="2.42" cy="2.42" r="2.42" transform="translate(191.742 515.827)" fill="#f39121"/>
    <circle id="Elipse_791" data-name="Elipse 791" cx="2.42" cy="2.42" r="2.42" transform="translate(219.526 433.219)" fill="#f39121"/>
    <circle id="Elipse_792" data-name="Elipse 792" cx="2.824" cy="2.824" r="2.824" transform="translate(219.123 446.594)" fill="#f39121"/>
    <circle id="Elipse_793" data-name="Elipse 793" cx="3.227" cy="3.227" r="3.227" transform="translate(218.719 459.954)" fill="#f39121"/>
    <path id="Caminho_1522" data-name="Caminho 1522" d="M107.069,65.419a3.759,3.759,0,1,0-3.759-3.759,3.753,3.753,0,0,0,3.759,3.759Z" transform="translate(114.877 415.284)" fill="#f39121"/>
    <circle id="Elipse_794" data-name="Elipse 794" cx="3.227" cy="3.227" r="3.227" transform="translate(218.719 487.479)" fill="#f39121"/>
    <circle id="Elipse_795" data-name="Elipse 795" cx="2.824" cy="2.824" r="2.824" transform="translate(219.123 501.661)" fill="#f39121"/>
    <circle id="Elipse_796" data-name="Elipse 796" cx="2.42" cy="2.42" r="2.42" transform="translate(219.526 515.827)" fill="#f39121"/>
    <circle id="Elipse_797" data-name="Elipse 797" cx="2.017" cy="2.017" r="2.017" transform="translate(233.821 419.859)" fill="#f39121"/>
    <circle id="Elipse_798" data-name="Elipse 798" cx="2.42" cy="2.42" r="2.42" transform="translate(233.417 433.219)" fill="#f39121"/>
    <circle id="Elipse_799" data-name="Elipse 799" cx="2.824" cy="2.824" r="2.824" transform="translate(233.014 446.594)" fill="#f39121"/>
    <circle id="Elipse_800" data-name="Elipse 800" cx="3.227" cy="3.227" r="3.227" transform="translate(232.611 459.954)" fill="#f39121"/>
    <path id="Caminho_1523" data-name="Caminho 1523" d="M115.679,57.9a3.759,3.759,0,1,0,3.759,3.759A3.753,3.753,0,0,0,115.679,57.9Z" transform="translate(120.159 415.284)" fill="#f39121"/>
    <circle id="Elipse_801" data-name="Elipse 801" cx="3.227" cy="3.227" r="3.227" transform="translate(232.611 487.479)" fill="#f39121"/>
    <circle id="Elipse_802" data-name="Elipse 802" cx="2.824" cy="2.824" r="2.824" transform="translate(233.014 501.661)" fill="#f39121"/>
    <circle id="Elipse_803" data-name="Elipse 803" cx="2.42" cy="2.42" r="2.42" transform="translate(233.417 515.827)" fill="#f39121"/>
    <circle id="Elipse_804" data-name="Elipse 804" cx="2.824" cy="2.824" r="2.824" transform="translate(246.906 446.594)" fill="#f39121"/>
    <circle id="Elipse_805" data-name="Elipse 805" cx="3.227" cy="3.227" r="3.227" transform="translate(246.502 459.954)" fill="#f39121"/>
    <path id="Caminho_1524" data-name="Caminho 1524" d="M124.289,57.9a3.759,3.759,0,1,0,3.759,3.759A3.753,3.753,0,0,0,124.289,57.9Z" transform="translate(125.44 415.284)" fill="#f39121"/>
    <circle id="Elipse_806" data-name="Elipse 806" cx="3.227" cy="3.227" r="3.227" transform="translate(246.502 487.479)" fill="#f39121"/>
    <circle id="Elipse_807" data-name="Elipse 807" cx="2.824" cy="2.824" r="2.824" transform="translate(246.906 501.661)" fill="#f39121"/>
    <circle id="Elipse_808" data-name="Elipse 808" cx="2.42" cy="2.42" r="2.42" transform="translate(261.201 433.219)" fill="#f39121"/>
    <circle id="Elipse_809" data-name="Elipse 809" cx="2.824" cy="2.824" r="2.824" transform="translate(260.798 446.594)" fill="#f39121"/>
    <circle id="Elipse_810" data-name="Elipse 810" cx="3.227" cy="3.227" r="3.227" transform="translate(260.395 459.954)" fill="#f39121"/>
    <path id="Caminho_1525" data-name="Caminho 1525" d="M132.9,65.419a3.759,3.759,0,1,0-3.759-3.759,3.753,3.753,0,0,0,3.759,3.759Z" transform="translate(130.722 415.284)" fill="#f39121"/>
    <circle id="Elipse_811" data-name="Elipse 811" cx="3.227" cy="3.227" r="3.227" transform="translate(260.395 487.479)" fill="#f39121"/>
    <circle id="Elipse_812" data-name="Elipse 812" cx="2.824" cy="2.824" r="2.824" transform="translate(260.798 501.661)" fill="#f39121"/>
    <circle id="Elipse_813" data-name="Elipse 813" cx="3.227" cy="3.227" r="3.227" transform="translate(274.27 459.954)" fill="#f39121"/>
    <path id="Caminho_1526" data-name="Caminho 1526" d="M141.5,57.9a3.759,3.759,0,1,0,3.759,3.759A3.753,3.753,0,0,0,141.5,57.9Z" transform="translate(135.998 415.284)" fill="#f39121"/>
    <circle id="Elipse_814" data-name="Elipse 814" cx="3.227" cy="3.227" r="3.227" transform="translate(274.27 487.479)" fill="#f39121"/>
    <circle id="Elipse_815" data-name="Elipse 815" cx="2.824" cy="2.824" r="2.824" transform="translate(288.565 446.594)" fill="#f39121"/>
    <circle id="Elipse_816" data-name="Elipse 816" cx="3.227" cy="3.227" r="3.227" transform="translate(288.162 459.954)" fill="#f39121"/>
    <path id="Caminho_1527" data-name="Caminho 1527" d="M150.109,65.419a3.759,3.759,0,1,0-3.759-3.759,3.753,3.753,0,0,0,3.759,3.759Z" transform="translate(141.279 415.284)" fill="#f39121"/>
    <circle id="Elipse_817" data-name="Elipse 817" cx="3.227" cy="3.227" r="3.227" transform="translate(288.162 487.479)" fill="#f39121"/>
    <circle id="Elipse_818" data-name="Elipse 818" cx="2.824" cy="2.824" r="2.824" transform="translate(288.565 501.661)" fill="#f39121"/>
    <circle id="Elipse_819" data-name="Elipse 819" cx="2.42" cy="2.42" r="2.42" transform="translate(261.201 515.827)" fill="#f39121"/>
    <circle id="Elipse_820" data-name="Elipse 820" cx="2.017" cy="2.017" r="2.017" transform="translate(233.821 529.993)" fill="#f39121"/>
    <circle id="Elipse_821" data-name="Elipse 821" cx="3.227" cy="3.227" r="3.227" transform="translate(79.818 459.954)" fill="#f39121"/>
    <path id="Caminho_1528" data-name="Caminho 1528" d="M20.979,57.9a3.759,3.759,0,1,0,3.759,3.759A3.753,3.753,0,0,0,20.979,57.9Z" transform="translate(62.065 415.284)" fill="#f39121"/>
    <circle id="Elipse_822" data-name="Elipse 822" cx="3.227" cy="3.227" r="3.227" transform="translate(79.818 487.479)" fill="#f39121"/>
    <circle id="Elipse_823" data-name="Elipse 823" cx="3.227" cy="3.227" r="3.227" transform="translate(107.602 459.954)" fill="#f39121"/>
    <path id="Caminho_1529" data-name="Caminho 1529" d="M38.2,65.419a3.759,3.759,0,1,0-3.759-3.759A3.753,3.753,0,0,0,38.2,65.419Z" transform="translate(72.629 415.284)" fill="#f39121"/>
    <circle id="Elipse_824" data-name="Elipse 824" cx="3.227" cy="3.227" r="3.227" transform="translate(107.602 487.479)" fill="#f39121"/>
    <circle id="Elipse_825" data-name="Elipse 825" cx="3.227" cy="3.227" r="3.227" transform="translate(149.26 459.954)" fill="#f39121"/>
    <path id="Caminho_1530" data-name="Caminho 1530" d="M64.019,65.419a3.759,3.759,0,1,0-3.759-3.759,3.753,3.753,0,0,0,3.759,3.759Z" transform="translate(88.468 415.284)" fill="#f39121"/>
    <circle id="Elipse_826" data-name="Elipse 826" cx="3.227" cy="3.227" r="3.227" transform="translate(149.26 487.479)" fill="#f39121"/>
    <circle id="Elipse_827" data-name="Elipse 827" cx="3.227" cy="3.227" r="3.227" transform="translate(204.828 459.954)" fill="#f39121"/>
    <path id="Caminho_1531" data-name="Caminho 1531" d="M98.459,65.419A3.759,3.759,0,1,0,94.7,61.659a3.753,3.753,0,0,0,3.759,3.759Z" transform="translate(109.595 415.284)" fill="#f39121"/>
    <circle id="Elipse_828" data-name="Elipse 828" cx="3.227" cy="3.227" r="3.227" transform="translate(204.828 487.479)" fill="#f39121"/>
    <circle id="Elipse_829" data-name="Elipse 829" cx="2.824" cy="2.824" r="2.824" transform="translate(94.113 446.594)" fill="#f39121"/>
    <circle id="Elipse_830" data-name="Elipse 830" cx="3.227" cy="3.227" r="3.227" transform="translate(93.709 459.954)" fill="#f39121"/>
    <path id="Caminho_1532" data-name="Caminho 1532" d="M29.589,57.9a3.759,3.759,0,1,0,3.759,3.759A3.753,3.753,0,0,0,29.589,57.9Z" transform="translate(67.347 415.284)" fill="#f39121"/>
    <circle id="Elipse_831" data-name="Elipse 831" cx="3.227" cy="3.227" r="3.227" transform="translate(93.709 487.479)" fill="#f39121"/>
    <circle id="Elipse_832" data-name="Elipse 832" cx="2.824" cy="2.824" r="2.824" transform="translate(94.113 501.661)" fill="#f39121"/>
    <circle id="Elipse_833" data-name="Elipse 833" cx="2.824" cy="2.824" r="2.824" transform="translate(163.556 446.594)" fill="#f39121"/>
    <circle id="Elipse_834" data-name="Elipse 834" cx="3.227" cy="3.227" r="3.227" transform="translate(163.152 459.954)" fill="#f39121"/>
    <path id="Caminho_1533" data-name="Caminho 1533" d="M72.629,57.9a3.759,3.759,0,1,0,3.759,3.759A3.753,3.753,0,0,0,72.629,57.9Z" transform="translate(93.75 415.284)" fill="#f39121"/>
    <circle id="Elipse_835" data-name="Elipse 835" cx="3.227" cy="3.227" r="3.227" transform="translate(163.152 487.479)" fill="#f39121"/>
    <circle id="Elipse_836" data-name="Elipse 836" cx="2.824" cy="2.824" r="2.824" transform="translate(163.556 501.661)" fill="#f39121"/>
    <path id="Caminho_1534" data-name="Caminho 1534" d="M59.169,61.659a3.759,3.759,0,1,0-3.759,3.759,3.753,3.753,0,0,0,3.759-3.759Z" transform="translate(83.186 415.284)" fill="#f39121"/>
    <circle id="Elipse_839" data-name="Elipse 839" cx="2.017" cy="2.017" r="2.017" transform="translate(303.264 419.859)" fill="#f39121"/>
    <circle id="Elipse_840" data-name="Elipse 840" cx="2.42" cy="2.42" r="2.42" transform="translate(302.86 433.219)" fill="#f39121"/>
    <circle id="Elipse_841" data-name="Elipse 841" cx="2.824" cy="2.824" r="2.824" transform="translate(302.457 446.594)" fill="#f39121"/>
    <circle id="Elipse_842" data-name="Elipse 842" cx="3.227" cy="3.227" r="3.227" transform="translate(302.053 459.954)" fill="#f39121"/>
    <path id="Caminho_1535" data-name="Caminho 1535" d="M158.719,65.419a3.759,3.759,0,1,0-3.759-3.759,3.753,3.753,0,0,0,3.759,3.759Z" transform="translate(146.561 415.284)" fill="#f39121"/>
    <circle id="Elipse_843" data-name="Elipse 843" cx="3.227" cy="3.227" r="3.227" transform="translate(302.053 487.479)" fill="#f39121"/>
    <circle id="Elipse_844" data-name="Elipse 844" cx="2.824" cy="2.824" r="2.824" transform="translate(302.457 501.661)" fill="#f39121"/>
    <circle id="Elipse_845" data-name="Elipse 845" cx="2.42" cy="2.42" r="2.42" transform="translate(302.86 515.827)" fill="#f39121"/>
    <circle id="Elipse_846" data-name="Elipse 846" cx="2.017" cy="2.017" r="2.017" transform="translate(303.264 529.993)" fill="#f39121"/>
    <circle id="Elipse_847" data-name="Elipse 847" cx="1.613" cy="1.613" r="1.613" transform="translate(303.667 406.5)" fill="#f39121"/>
    <circle id="Elipse_848" data-name="Elipse 848" cx="1.613" cy="1.613" r="1.613" transform="translate(303.667 544.175)" fill="#f39121"/>
    <circle id="Elipse_849" data-name="Elipse 849" cx="2.017" cy="2.017" r="2.017" transform="translate(317.155 419.859)" fill="#f39121"/>
    <circle id="Elipse_850" data-name="Elipse 850" cx="2.42" cy="2.42" r="2.42" transform="translate(316.752 433.219)" fill="#f39121"/>
    <circle id="Elipse_851" data-name="Elipse 851" cx="2.824" cy="2.824" r="2.824" transform="translate(316.349 446.594)" fill="#f39121"/>
    <circle id="Elipse_852" data-name="Elipse 852" cx="3.227" cy="3.227" r="3.227" transform="translate(315.945 459.954)" fill="#f39121"/>
    <path id="Caminho_1536" data-name="Caminho 1536" d="M167.329,57.9a3.759,3.759,0,1,0,3.759,3.759A3.753,3.753,0,0,0,167.329,57.9Z" transform="translate(151.843 415.284)" fill="#f39121"/>
    <circle id="Elipse_853" data-name="Elipse 853" cx="3.227" cy="3.227" r="3.227" transform="translate(315.945 487.479)" fill="#f39121"/>
    <circle id="Elipse_854" data-name="Elipse 854" cx="2.824" cy="2.824" r="2.824" transform="translate(316.349 501.661)" fill="#f39121"/>
    <circle id="Elipse_855" data-name="Elipse 855" cx="2.42" cy="2.42" r="2.42" transform="translate(316.752 515.827)" fill="#f39121"/>
    <circle id="Elipse_856" data-name="Elipse 856" cx="2.017" cy="2.017" r="2.017" transform="translate(317.155 529.993)" fill="#f39121"/>
    <circle id="Elipse_857" data-name="Elipse 857" cx="2.42" cy="2.42" r="2.42" transform="translate(330.644 433.219)" fill="#f39121"/>
    <circle id="Elipse_858" data-name="Elipse 858" cx="2.824" cy="2.824" r="2.824" transform="translate(330.24 446.594)" fill="#f39121"/>
    <circle id="Elipse_859" data-name="Elipse 859" cx="3.227" cy="3.227" r="3.227" transform="translate(329.837 459.954)" fill="#f39121"/>
    <path id="Caminho_1537" data-name="Caminho 1537" d="M175.939,57.9a3.759,3.759,0,1,0,3.759,3.759A3.753,3.753,0,0,0,175.939,57.9Z" transform="translate(157.125 415.284)" fill="#f39121"/>
    <circle id="Elipse_860" data-name="Elipse 860" cx="3.227" cy="3.227" r="3.227" transform="translate(329.837 487.479)" fill="#f39121"/>
    <circle id="Elipse_861" data-name="Elipse 861" cx="2.824" cy="2.824" r="2.824" transform="translate(330.24 501.661)" fill="#f39121"/>
    <circle id="Elipse_862" data-name="Elipse 862" cx="2.42" cy="2.42" r="2.42" transform="translate(330.644 515.827)" fill="#f39121"/>
    <circle id="Elipse_863" data-name="Elipse 863" cx="2.017" cy="2.017" r="2.017" transform="translate(344.939 419.859)" fill="#f39121"/>
    <circle id="Elipse_864" data-name="Elipse 864" cx="2.42" cy="2.42" r="2.42" transform="translate(344.535 433.219)" fill="#f39121"/>
    <circle id="Elipse_865" data-name="Elipse 865" cx="2.824" cy="2.824" r="2.824" transform="translate(344.132 446.594)" fill="#f39121"/>
    <circle id="Elipse_866" data-name="Elipse 866" cx="3.227" cy="3.227" r="3.227" transform="translate(343.729 459.954)" fill="#f39121"/>
    <path id="Caminho_1538" data-name="Caminho 1538" d="M184.549,57.9a3.759,3.759,0,1,0,3.759,3.759A3.753,3.753,0,0,0,184.549,57.9Z" transform="translate(162.406 415.284)" fill="#f39121"/>
    <circle id="Elipse_867" data-name="Elipse 867" cx="3.227" cy="3.227" r="3.227" transform="translate(343.729 487.479)" fill="#f39121"/>
    <circle id="Elipse_868" data-name="Elipse 868" cx="2.824" cy="2.824" r="2.824" transform="translate(344.132 501.661)" fill="#f39121"/>
    <circle id="Elipse_869" data-name="Elipse 869" cx="2.42" cy="2.42" r="2.42" transform="translate(344.535 515.827)" fill="#f39121"/>
    <circle id="Elipse_870" data-name="Elipse 870" cx="2.017" cy="2.017" r="2.017" transform="translate(344.939 529.993)" fill="#f39121"/>
    <circle id="Elipse_871" data-name="Elipse 871" cx="1.613" cy="1.613" r="1.613" transform="translate(317.559 406.5)" fill="#f39121"/>
    <circle id="Elipse_872" data-name="Elipse 872" cx="1.613" cy="1.613" r="1.613" transform="translate(317.559 544.175)" fill="#f39121"/>
    <circle id="Elipse_873" data-name="Elipse 873" cx="1.21" cy="1.21" r="1.21" transform="translate(317.962 558.341)" fill="#f39121"/>
    <circle id="Elipse_874" data-name="Elipse 874" cx="2.017" cy="2.017" r="2.017" transform="translate(358.831 419.859)" fill="#f39121"/>
    <circle id="Elipse_875" data-name="Elipse 875" cx="2.42" cy="2.42" r="2.42" transform="translate(358.427 433.219)" fill="#f39121"/>
    <circle id="Elipse_876" data-name="Elipse 876" cx="2.824" cy="2.824" r="2.824" transform="translate(358.024 446.594)" fill="#f39121"/>
    <circle id="Elipse_877" data-name="Elipse 877" cx="3.227" cy="3.227" r="3.227" transform="translate(357.621 459.954)" fill="#f39121"/>
    <path id="Caminho_1539" data-name="Caminho 1539" d="M193.159,57.9a3.759,3.759,0,1,0,3.759,3.759A3.753,3.753,0,0,0,193.159,57.9Z" transform="translate(167.688 415.284)" fill="#f39121"/>
    <circle id="Elipse_878" data-name="Elipse 878" cx="3.227" cy="3.227" r="3.227" transform="translate(357.621 487.479)" fill="#f39121"/>
    <circle id="Elipse_879" data-name="Elipse 879" cx="2.824" cy="2.824" r="2.824" transform="translate(358.024 501.661)" fill="#f39121"/>
    <circle id="Elipse_880" data-name="Elipse 880" cx="2.824" cy="2.824" r="2.824" transform="translate(371.916 446.594)" fill="#f39121"/>
    <circle id="Elipse_881" data-name="Elipse 881" cx="3.227" cy="3.227" r="3.227" transform="translate(371.512 459.954)" fill="#f39121"/>
    <path id="Caminho_1540" data-name="Caminho 1540" d="M201.769,65.419a3.759,3.759,0,1,0-3.759-3.759,3.753,3.753,0,0,0,3.759,3.759Z" transform="translate(172.97 415.284)" fill="#f39121"/>
    <circle id="Elipse_882" data-name="Elipse 882" cx="3.227" cy="3.227" r="3.227" transform="translate(371.512 487.479)" fill="#f39121"/>
    <circle id="Elipse_883" data-name="Elipse 883" cx="2.824" cy="2.824" r="2.824" transform="translate(371.916 501.661)" fill="#f39121"/>
    <circle id="Elipse_884" data-name="Elipse 884" cx="2.42" cy="2.42" r="2.42" transform="translate(358.427 515.827)" fill="#f39121"/>
    <circle id="Elipse_885" data-name="Elipse 885" cx="2.017" cy="2.017" r="2.017" transform="translate(358.831 529.993)" fill="#f39121"/>
    <circle id="Elipse_886" data-name="Elipse 886" cx="1.613" cy="1.613" r="1.613" transform="translate(359.234 406.5)" fill="#f39121"/>
    <circle id="Elipse_887" data-name="Elipse 887" cx="1.613" cy="1.613" r="1.613" transform="translate(359.234 544.175)" fill="#f39121"/>
    <circle id="Elipse_888" data-name="Elipse 888" cx="1.21" cy="1.21" r="1.21" transform="translate(359.637 558.341)" fill="#f39121"/>
  </g>
</svg>
