<svg xmlns="http://www.w3.org/2000/svg" width="190.789" height="115.418" viewBox="0 0 190.789 115.418">
  <path id="Caminho_30" data-name="Caminho 30" d="M4225.075,2026.52a27.933,27.933,0,0,1-12.9-2.947,23.388,23.388,0,0,1-9.136-8.12,1.567,1.567,0,1,0-2.67.014,23.254,23.254,0,0,1-9.121,8.121,28.039,28.039,0,0,1-12.942,2.932,30.216,30.216,0,0,1-7.686-.948l-3.386,5.865c-1.686,2.921-9.354-1.3-7.577-4.375l2.953-5.115a22.761,22.761,0,0,1-6.354-6.481,22.824,22.824,0,0,1,.015-23.9,23.376,23.376,0,0,1,9.136-8.12,29.793,29.793,0,0,1,25.842,0,23.242,23.242,0,0,1,9.121,8.12,1.561,1.561,0,1,0,2.656-.015,23.212,23.212,0,0,1,9.136-8.121,28.047,28.047,0,0,1,12.914-2.932,30.39,30.39,0,0,1,7.69.941l3.382-5.858c1.776-3.077,9.263,1.455,7.577,4.375l-2.948,5.106a22.782,22.782,0,0,1,6.362,6.49,22.944,22.944,0,0,1,0,23.9,23.238,23.238,0,0,1-9.122,8.12A28.022,28.022,0,0,1,4225.075,2026.52Zm27.819,16.934,11.5-22.505a2.478,2.478,0,0,0-.03-2.375l-17.911-32.953c-1.044-1.923.326-3.378,2.238-3.763a22.32,22.32,0,0,1,9.063,0,2.958,2.958,0,0,1,2.256,1.366l10.145,19.384a2.547,2.547,0,0,0,4.576-.13l8.669-19.125a2.888,2.888,0,0,1,2.32-1.5,24.074,24.074,0,0,1,9.1,0c1.889.358,3.24,1.79,2.271,3.7l-30.534,60.208a2.908,2.908,0,0,1-2.271,1.395,24.176,24.176,0,0,1-9.12,0C4253.267,2046.805,4251.921,2045.358,4252.894,2043.454Zm-146.273-20.834v-67.653a2.735,2.735,0,0,1,2.547-2.547,23.008,23.008,0,0,1,7.89,0,2.743,2.743,0,0,1,2.547,2.547v26.313a2.547,2.547,0,0,0,3.886,2.167,20.545,20.545,0,0,1,2.359-1.251,19.815,19.815,0,0,1,8.262-1.691,17.312,17.312,0,0,1,8.784,2.171,15.593,15.593,0,0,1,5.935,6.048,18.277,18.277,0,0,1,2.157,9.037v24.86a2.71,2.71,0,0,1-2.547,2.547,26.6,26.6,0,0,1-7.891,0,2.707,2.707,0,0,1-2.547-2.547v-22.111c0-3.1-.8-5.527-2.425-7.261a8.687,8.687,0,0,0-6.667-2.594,10.047,10.047,0,0,0-4.963,1.156,8.1,8.1,0,0,0-3.214,3.172,9.206,9.206,0,0,0-1.127,4.554v23.084a2.7,2.7,0,0,1-2.547,2.547,26.528,26.528,0,0,1-7.89,0A2.72,2.72,0,0,1,4106.62,2022.619Zm118.5-7.181a12.045,12.045,0,0,0,6.006-1.522,11.257,11.257,0,0,0,4.271-4.215,13.049,13.049,0,0,0,0-12.392,11.218,11.218,0,0,0-4.271-4.2,12.639,12.639,0,0,0-12.026,0,11.26,11.26,0,0,0-4.257,4.2,13.041,13.041,0,0,0,0,12.392,11.3,11.3,0,0,0,4.257,4.215A11.981,11.981,0,0,0,4225.118,2015.438Zm-46.77-23.853a12.047,12.047,0,0,1,6.006,1.522,11.253,11.253,0,0,1,4.271,4.216,13.048,13.048,0,0,1,0,12.392,11.215,11.215,0,0,1-4.271,4.2,12.632,12.632,0,0,1-12.025,0,11.265,11.265,0,0,1-4.258-4.2,13.044,13.044,0,0,1,0-12.392,11.3,11.3,0,0,1,4.258-4.216A11.981,11.981,0,0,1,4178.348,1991.585Z" transform="translate(-4106.62 -1952.079)" fill="#f37335" fill-rule="evenodd"/>
  <text id="Você_presente." data-name="Você presente." transform="translate(47 112.418)" fill="#f37335" font-size="12" font-family="SegoeUI-Bold, Segoe UI" font-weight="700"><tspan x="0" y="0">Você presente.</tspan></text>
</svg>
