<svg xmlns="http://www.w3.org/2000/svg" width="150.344" height="95.497" viewBox="0 0 150.344 95.497">
  <text id="Você_presente." data-name="Você presente." transform="translate(25.782 92.497)" fill="#8bc756" font-size="12" font-family="SegoeUI-Bold, Segoe UI" font-weight="700"><tspan x="0" y="0">Você presente.</tspan></text>
  <path id="Caminho_472" data-name="Caminho 472" d="M573.086,143.161a22,22,0,0,1-10.163-2.321,18.433,18.433,0,0,1-7.2-6.4,16.362,16.362,0,0,1-1.055-1.876,15.788,15.788,0,0,1-1.052,1.888,18.315,18.315,0,0,1-7.188,6.4,22.09,22.09,0,0,1-10.2,2.309,23.784,23.784,0,0,1-6.056-.747l-2.668,4.622c-1.329,2.3-7.37-1.022-5.972-3.448l2.327-4.03a17.947,17.947,0,0,1-5.007-5.106,17.981,17.981,0,0,1,.012-18.83,18.432,18.432,0,0,1,7.2-6.4,23.468,23.468,0,0,1,20.365,0,18.314,18.314,0,0,1,7.188,6.4,15.926,15.926,0,0,1,1.043,1.87,16.123,16.123,0,0,1,1.049-1.882,18.288,18.288,0,0,1,7.2-6.4,22.086,22.086,0,0,1,10.175-2.309,23.877,23.877,0,0,1,6.059.741l2.665-4.616c1.4-2.426,7.3,1.147,5.972,3.448L585.46,110.5a17.922,17.922,0,0,1,5.013,5.115,18.085,18.085,0,0,1,0,18.83,18.314,18.314,0,0,1-7.188,6.4,22.078,22.078,0,0,1-10.2,2.321Zm21.922,13.345,9.058-17.734a1.952,1.952,0,0,0-.024-1.87l-14.113-25.967c-.822-1.515.257-2.662,1.763-2.964a17.63,17.63,0,0,1,7.14,0,2.329,2.329,0,0,1,1.778,1.075l7.994,15.275a2.007,2.007,0,0,0,3.606-.1l6.832-15.072a2.268,2.268,0,0,1,1.828-1.177,18.976,18.976,0,0,1,7.17,0c1.488.281,2.554,1.41,1.789,2.916l-24.061,47.444a2.291,2.291,0,0,1-1.789,1.1,19.071,19.071,0,0,1-7.188,0c-1.494-.278-2.554-1.419-1.786-2.919ZM479.746,140.09V86.779a2.155,2.155,0,0,1,2.008-2.008,18.176,18.176,0,0,1,6.217,0,2.165,2.165,0,0,1,2.008,2.008v20.733a2.008,2.008,0,0,0,3.062,1.709,16.106,16.106,0,0,1,1.858-.986,15.629,15.629,0,0,1,6.51-1.332,13.67,13.67,0,0,1,6.922,1.709,12.275,12.275,0,0,1,4.675,4.765,14.411,14.411,0,0,1,1.7,7.122v19.589a2.139,2.139,0,0,1-2.008,2.008,20.949,20.949,0,0,1-6.217,0,2.134,2.134,0,0,1-2.008-2.008V122.664a8.051,8.051,0,0,0-1.912-5.721,6.85,6.85,0,0,0-5.255-2.043,7.932,7.932,0,0,0-3.911.911,6.4,6.4,0,0,0-2.533,2.5,7.254,7.254,0,0,0-.89,3.588V140.09a2.13,2.13,0,0,1-2.008,2.008,20.848,20.848,0,0,1-6.217,0,2.146,2.146,0,0,1-2.008-2.008Zm93.376-5.658a9.507,9.507,0,0,0,4.732-1.2,8.9,8.9,0,0,0,3.367-3.322,10.279,10.279,0,0,0,0-9.766,8.824,8.824,0,0,0-3.367-3.31,9.969,9.969,0,0,0-9.476,0,8.9,8.9,0,0,0-3.355,3.31,10.279,10.279,0,0,0,0,9.766,8.929,8.929,0,0,0,3.355,3.322A9.425,9.425,0,0,0,573.122,134.432Zm-36.853-18.8a9.507,9.507,0,0,1,4.732,1.2,8.9,8.9,0,0,1,3.367,3.322,10.273,10.273,0,0,1,0,9.763,8.824,8.824,0,0,1-3.367,3.31,9.947,9.947,0,0,1-9.476,0,8.9,8.9,0,0,1-3.355-3.31,10.273,10.273,0,0,1,0-9.763,8.929,8.929,0,0,1,3.355-3.322A9.425,9.425,0,0,1,536.268,115.635Z" transform="translate(-479.74 -84.504)" fill="#8bc756" fill-rule="evenodd"/>
</svg>
