<svg xmlns="http://www.w3.org/2000/svg" width="39" height="36.356" viewBox="0 0 39 36.356">
  <g id="Group_631" data-name="Group 631" transform="translate(-110 -554.012)">
    <path id="Subtraction_17" data-name="Subtraction 17" d="M37,7.929a5.286,5.286,0,0,0-5.286-5.286H30.393V1.358A1.347,1.347,0,0,0,29.135,0,1.321,1.321,0,0,0,27.75,1.321V2.643H9.25V1.358A1.347,1.347,0,0,0,7.992,0,1.321,1.321,0,0,0,6.607,1.321V2.643H5.286A5.286,5.286,0,0,0,0,7.929v.99a.331.331,0,0,0,.33.331H36.669A.331.331,0,0,0,37,8.919ZM0,29.071a5.286,5.286,0,0,0,5.286,5.285H31.714A5.286,5.286,0,0,0,37,29.071V9.58a.331.331,0,0,0-.331-.33H.33A.331.331,0,0,0,0,9.58Z" transform="translate(111 555.012)" fill="none" stroke="currentColor" stroke-width="2"/>
    <path id="Subtraction_18" data-name="Subtraction 18" d="M1.877,6.469A1.1,1.1,0,0,0,.322,8.024L4,11.7a1.1,1.1,0,0,0,.778.323l.061,0a1.1,1.1,0,0,0,.8-.41l7.852-9.821A1.1,1.1,0,1,0,11.766.414L4.682,9.273Z" transform="translate(122.638 570.867)" fill="currentColor" fill-rule="evenodd"/>
  </g>
</svg>
