<svg xmlns="http://www.w3.org/2000/svg" width="59.065" height="59.341" viewBox="0 0 59.065 59.341">
  <g id="Group_658" data-name="Group 658" transform="translate(-255.464 -401.098)">
    <path id="Caminho_858_-_Contorno" data-name="Caminho 858 - Contorno" d="M21.643,3.5a18.143,18.143,0,1,1,0,36.287H4.956a1.434,1.434,0,0,1-1.341-.9,1.452,1.452,0,0,1,.3-1.58l.006-.006,3.9-3.9A18.147,18.147,0,0,1,21.643,3.5Z" transform="translate(253 398.598)" fill="none" stroke="currentColor" stroke-width="2"/>
    <path id="Path_859" data-name="Path 859" d="M54.843,53.449A17.672,17.672,0,0,0,41.669,24h-.1A19.656,19.656,0,0,1,24,41.571v.1A17.683,17.683,0,0,0,41.669,59.339H58.357a.969.969,0,0,0,.9-.609.984.984,0,0,0-.206-1.07l-4.211-4.211Z" transform="translate(254.164 400.1)" fill="none" stroke="currentColor" stroke-width="2"/>
    <path id="Caminho_858_-_Contorno-2" data-name="Caminho 858 - Contorno" d="M22.292,10.75a6.365,6.365,0,0,1,2.885,12.038,2.532,2.532,0,0,0-1.43,2.238v1.9a1.456,1.456,0,0,1-2.911,0v-1.9a5.423,5.423,0,0,1,3.017-4.83,3.454,3.454,0,1,0-5.015-3.082,1.456,1.456,0,1,1-2.911,0A6.371,6.371,0,0,1,22.292,10.75Zm0,18.651a1.456,1.456,0,1,1-1.456,1.456A1.457,1.457,0,0,1,22.292,29.4Z" transform="translate(252.351 398.219)" fill="currentColor"/>
    <path id="Path_2515" data-name="Path 2515" d="M50.242,38.107l-9.816,9.816a1,1,0,0,1-1.394,0l-4.908-4.908a.986.986,0,1,1,1.394-1.394l4.211,4.221,9.119-9.129a.986.986,0,0,1,1.394,1.394Z" transform="translate(253.65 399.451)" fill="currentColor"/>
  </g>
</svg>
