<svg xmlns="http://www.w3.org/2000/svg" width="51" height="68.386" viewBox="0 0 51 68.386">
  <path id="Path_2512" data-name="Path 2512" d="M14.085,42.481A1.185,1.185,0,0,1,15,43.934a1.28,1.28,0,0,1-1.548.861,18.568,18.568,0,0,1-4.359-1.682q-.64.332-1.23.711a1.413,1.413,0,0,1-.335.284l-.017.008-.084.039c-.117.055-.226.111-.343.174a12.817,12.817,0,0,0-1.949,1.5,7.569,7.569,0,0,0-.669.861,6.7,6.7,0,0,0-.77,1.587,9.84,9.84,0,0,0-.251,1.161l-.008.024a5.875,5.875,0,0,0-.059.861,7.462,7.462,0,0,0,.092,1.145,5.948,5.948,0,0,0,.251,1.05l4.15,11.661a2.666,2.666,0,0,0,.778,1.129,2.921,2.921,0,0,0,1.238.647l.218.039.209.032a3.094,3.094,0,0,0,1.2-.126,2.914,2.914,0,0,0,1.046-.576L16.235,62l-6.35-5.274a4.913,4.913,0,0,1-.335-7.216l.017-.016A5.658,5.658,0,0,1,17.2,49.2l.853.742,1.23-1.066a5.649,5.649,0,0,1,7.647.316,4.913,4.913,0,0,1-.335,7.216l-1.539,1.334a1.3,1.3,0,0,1-.393.229,1.356,1.356,0,0,1-.46.087,1.47,1.47,0,0,1-.51-.1,1.323,1.323,0,0,1-.418-.292.115.115,0,0,0-.033-.024.816.816,0,0,1-.125-.095l-7.638-6.608a3.005,3.005,0,0,0-4.066.182l-.008.016a2.614,2.614,0,0,0,.192,3.837c3.949,3.237,8.366,7.421,12.39,10.35a3.022,3.022,0,0,0,1.054.576,3.094,3.094,0,0,0,1.2.126l.209-.032.209-.039a2.9,2.9,0,0,0,1.247-.647,2.576,2.576,0,0,0,.77-1.129c1.339-3.719,2.627-7.7,4.083-11.345a6.122,6.122,0,0,0,.251-1.05,7.646,7.646,0,0,0,.092-1.153A6.564,6.564,0,0,0,32.014,47a7.1,7.1,0,0,0-1.564-1.682c-.41-.284-.837-.529-1.272-.789l-.125-.063a1.374,1.374,0,0,1-.31-.205c-.619-.387-1.23-.8-1.882-1.145-.519.276-1.046.537-1.6.766a1.3,1.3,0,0,1-1.673-.6,1.166,1.166,0,0,1,.644-1.579,19.027,19.027,0,0,0,1.807-.9.8.8,0,0,1,.226-.134,15.017,15.017,0,0,0,4.635-4.35A13.9,13.9,0,0,0,33.377,28.4h0a1.274,1.274,0,0,1,2.543,0,16.219,16.219,0,0,1-2.886,9.213,17.333,17.333,0,0,1-3.857,4.011c.443.268.878.553,1.3.853a9.841,9.841,0,0,1,1.907,1.271,9.556,9.556,0,0,1,1.732,1.934,9.027,9.027,0,0,1,1.129,2.368,8.933,8.933,0,0,1,.385,2.574,9.777,9.777,0,0,1-.117,1.484,8.007,8.007,0,0,1-.335,1.4c-.8,3.237-2.911,8.092-4.108,11.424a5.075,5.075,0,0,1-1.439,2.116,5.489,5.489,0,0,1-2.343,1.2c-.125.032-.259.063-.393.087-.109.016-.243.039-.393.047l-.284.024-.276.008a5.753,5.753,0,0,1-1.966-.347,5.374,5.374,0,0,1-1.69-.995L18.243,63.7l-3.974,3.371a5.508,5.508,0,0,1-1.7.995,5.671,5.671,0,0,1-1.958.347l-.284-.008-.284-.024c-.117-.008-.251-.024-.393-.047-.117-.024-.243-.047-.393-.087a5.457,5.457,0,0,1-2.334-1.2,5.126,5.126,0,0,1-1.439-2.116L1.318,53.25a8.281,8.281,0,0,1-.343-1.421A9.169,9.169,0,0,1,.85,50.321a8.689,8.689,0,0,1,.05-.932.6.6,0,0,1,.05-.442l.025-.1a8.11,8.11,0,0,1,.268-1.1,5.744,5.744,0,0,1,.192-.568,6.84,6.84,0,0,1,1.414-2.463A10.227,10.227,0,0,1,4.1,43.444a9.559,9.559,0,0,1,1.556-1.082l.234-.166c.293-.189.586-.379.887-.561a18.006,18.006,0,0,1-3-2.882A16.22,16.22,0,0,1,5.292,16.436a18.432,18.432,0,0,1,12.683-4.958l.017.008,3.121.047a1.2,1.2,0,1,1-.042,2.392l-3.1-.055h0A15.809,15.809,0,0,0,7.083,18.133,13.944,13.944,0,0,0,5.778,37.294a15.187,15.187,0,0,0,3.89,3.363,1.254,1.254,0,0,1,.259.158,16.213,16.213,0,0,0,4.158,1.674v-.008Zm8.977,7.469a2.923,2.923,0,0,0-2.058.7l-1.046.9L24.2,55.215l.669-.584a2.586,2.586,0,0,0,.192-3.8l-.017-.016a2.885,2.885,0,0,0-1.983-.868Zm27.968-37.5a12.036,12.036,0,0,1-3.857,8.779,13.71,13.71,0,0,1-18.606,0,11.92,11.92,0,0,1,0-17.558,13.71,13.71,0,0,1,18.606,0,12.068,12.068,0,0,1,3.857,8.779h0Zm-18.874.711a.388.388,0,0,1-.494.221.354.354,0,0,1-.226-.466,2.349,2.349,0,0,1,2.192-1.65c-1.656-.505-3.137-.411-4.083,1.2a.506.506,0,0,1-.661.182.45.45,0,0,1-.192-.624c2.041-3.5,5.555-1.713,8.86-.039l.418.213c.075.039.142.079.218.111,1.79.434,2.953.213,3.6-.245a1.382,1.382,0,0,0,.594-.924.993.993,0,0,0-.268-.845,1.428,1.428,0,0,0-1.472-.237.394.394,0,0,1-.485-.245.357.357,0,0,1,.259-.45,2.2,2.2,0,0,1,2.267.434,1.725,1.725,0,0,1,.469,1.429,2.09,2.09,0,0,1-.9,1.421,3.543,3.543,0,0,1-1.64.584,5.419,5.419,0,0,0,4.016-.189,2.385,2.385,0,0,0,1.188-1.382,1.6,1.6,0,0,0-.209-1.421,2.312,2.312,0,0,0-2.292-.687.475.475,0,0,1-.552-.387.457.457,0,0,1,.41-.521,3.247,3.247,0,0,1,3.246,1.074,2.506,2.506,0,0,1,.335,2.195,3.293,3.293,0,0,1-1.64,1.926c-1.523.829-4.058.947-7.6-.837l-.418-.205-.209-.111a10.673,10.673,0,0,0-2.962-.7,1.7,1.7,0,0,0-1.765,1.176h0Zm13.227,6.379a9.727,9.727,0,0,0,3.112-7.09h0a9.714,9.714,0,0,0-3.112-7.09,11.078,11.078,0,0,0-15.026,0,9.631,9.631,0,0,0,0,14.179,11.1,11.1,0,0,0,15.026,0ZM21.414,33A2.263,2.263,0,0,1,16.9,33a2.262,2.262,0,0,1,4.518,0Zm-5.329-6.442a3.783,3.783,0,0,1-6.132-.039,11.146,11.146,0,0,0,6.132.039Zm12.281,0a3.783,3.783,0,0,1-6.132-.039,10.823,10.823,0,0,0,3.146.45A10.694,10.694,0,0,0,28.366,26.557Z" transform="translate(-0.03 -0.03)" fill="currentColor"/>
</svg>
