<svg xmlns="http://www.w3.org/2000/svg" width="31.416" height="47.002" viewBox="0 0 31.416 47.002">
  <g id="Group_659" data-name="Group 659" transform="translate(7479.74 -1824.496)">
    <path id="Path_924" data-name="Path 924" d="M493.761,387.024a5.96,5.96,0,1,0-8.869,5.2l.124-3.954a2.931,2.931,0,0,1,2.931-2.93h.166a2.309,2.309,0,0,1,2.309,2.309v4.722A5.957,5.957,0,0,0,493.761,387.024Z" transform="translate(-7953.12 1449.131)" fill="currentColor"/>
    <path id="Path_2525" data-name="Path 2525" d="M405.951,440.135a2.309,2.309,0,0,0-2.309-2.309h-.166a2.931,2.931,0,0,0-2.932,2.93l-.124,3.954-.274,8.711c-.062.269-.1,6.325-.1,6.325-.512-.522-1.082-1.119-1.594-1.691a8.6,8.6,0,0,0-4.852-2.4,2.417,2.417,0,0,0-1.747.311,3.619,3.619,0,0,0-.362.317c-.754.742-1.322,1.941-.8,2.819a3.015,3.015,0,0,0,1.034.906,7.257,7.257,0,0,1,2.174,1.632c1.167,1.493,3.869,4.83,5.529,6.611.345.215,1.076.944,1.422,1.129a12.932,12.932,0,0,1,2.2,1.641,12.616,12.616,0,0,0,7.063,2.327c2.327,0,4.442.139,6-1.235h.084l.041-.1a7.72,7.72,0,0,0,2.578-5.7V455.643c0-.523-.115-2.275-1.588-2.8a2.608,2.608,0,0,0-1.948.09l-.133.006-.041,0a2.238,2.238,0,0,0-1.843-1.749,3.081,3.081,0,0,0-2.411.489,2.535,2.535,0,0,0-2.708-1.44,3.145,3.145,0,0,0-2.2,1.179V440.135Z" transform="translate(-7868.648 1396.645)" fill="#fff" stroke="#fff" stroke-width="3"/>
    <path id="Path_925" data-name="Path 925" d="M405.951,440.135a2.309,2.309,0,0,0-2.309-2.309h-.166a2.931,2.931,0,0,0-2.932,2.93l-.124,3.954-.274,8.711c-.062.269-.1,6.325-.1,6.325-.512-.522-1.082-1.119-1.594-1.691a8.6,8.6,0,0,0-4.852-2.4,2.417,2.417,0,0,0-1.747.311,3.619,3.619,0,0,0-.362.317c-.754.742-1.322,1.941-.8,2.819a3.015,3.015,0,0,0,1.034.906,7.257,7.257,0,0,1,2.174,1.632c1.167,1.493,3.869,4.83,5.529,6.611.345.215,1.076.944,1.422,1.129a12.932,12.932,0,0,1,2.2,1.641,12.616,12.616,0,0,0,7.063,2.327c2.327,0,4.442.139,6-1.235h.084l.041-.1a7.72,7.72,0,0,0,2.578-5.7V455.643c0-.523-.115-2.275-1.588-2.8a2.608,2.608,0,0,0-1.948.09l-.133.006-.041,0a2.238,2.238,0,0,0-1.843-1.749,3.081,3.081,0,0,0-2.411.489,2.535,2.535,0,0,0-2.708-1.44,3.145,3.145,0,0,0-2.2,1.179V440.135Z" transform="translate(-7868.648 1396.645)" fill="#fff" stroke="currentColor" stroke-linejoin="round" stroke-width="1.5"/>
    <path id="Path_927" data-name="Path 927" d="M429.605,327.194l1.252,1.393a.545.545,0,0,0,.893-.121,11.178,11.178,0,0,0,1.207-5.073,11.35,11.35,0,0,0-22.7,0,11.191,11.191,0,0,0,1.206,5.073.547.547,0,0,0,.894.121l1.251-1.393a.542.542,0,0,0,.094-.571,8.485,8.485,0,0,1-.643-3.229,8.546,8.546,0,1,1,16.452,3.229A.543.543,0,0,0,429.605,327.194Z" transform="translate(-7886.927 1512.957)" fill="currentColor" stroke="currentColor" stroke-width="1"/>
  </g>
</svg>
