<svg xmlns="http://www.w3.org/2000/svg" width="50.289" height="53.264" viewBox="0 0 50.289 53.264">
  <path id="Path_2524" data-name="Path 2524" d="M14.415,43.676a1.229,1.229,0,0,1-.617,2.38A17.357,17.357,0,0,1,9.559,44.33,17.767,17.767,0,0,0,2.326,51.9a1.233,1.233,0,0,1-2.208-1.1,20.334,20.334,0,0,1,7.2-8A17.673,17.673,0,0,1,4.4,39.841,17.416,17.416,0,0,1,18.187,11.786l.018,0,3.027.055A1.227,1.227,0,1,1,21.2,14.3l-3.008-.055v0A14.959,14.959,0,0,0,10.124,41.8a1.192,1.192,0,0,1,.25.158,14.85,14.85,0,0,0,4.04,1.723ZM50.279,12.781a12.785,12.785,0,1,1-3.747-9.029,12.733,12.733,0,0,1,3.747,9.029h0Zm-18.322.735a.375.375,0,0,1-.705-.257,2.3,2.3,0,0,1,2.13-1.693c-1.609-.518-3.045-.426-3.96,1.234a.473.473,0,1,1-.83-.455c1.98-3.6,5.392-1.763,8.6-.037l.4.217c.073.04.143.077.217.114,1.737.444,2.861.22,3.489-.253a1.417,1.417,0,0,0,.58-.951,1.076,1.076,0,0,0-.264-.871,1.335,1.335,0,0,0-1.429-.239.376.376,0,0,1-.22-.72,2.048,2.048,0,0,1,2.2.452,1.836,1.836,0,0,1,.455,1.466,2.162,2.162,0,0,1-.874,1.466,3.275,3.275,0,0,1-1.594.6,5,5,0,0,0,3.9-.191,2.432,2.432,0,0,0,1.153-1.421,1.741,1.741,0,0,0-.2-1.462,2.169,2.169,0,0,0-2.23-.705.475.475,0,1,1-.132-.94A3.048,3.048,0,0,1,45.79,9.975a2.67,2.67,0,0,1,.327,2.252,3.355,3.355,0,0,1-1.59,1.983c-1.477.856-3.941.977-7.376-.856l-.408-.217-.2-.11a9.826,9.826,0,0,0-2.876-.724,1.648,1.648,0,0,0-1.708,1.208Zm12.838,6.557a10.28,10.28,0,0,0,3.019-7.291h0a10.321,10.321,0,1,0-3.027,7.291ZM21.529,33.928A2.193,2.193,0,1,1,19.34,31.72a2.188,2.188,0,0,1,2.189,2.208ZM16.35,27.3a3.549,3.549,0,0,1-5.95-.04,10.226,10.226,0,0,0,5.95.04Zm11.923,0a3.549,3.549,0,0,1-5.95-.04,10.226,10.226,0,0,0,5.95.04Zm4.871,1.9a1.234,1.234,0,0,1,2.468,0A17.41,17.41,0,0,1,29.063,42.8,20.269,20.269,0,0,1,36.6,51.544a1.229,1.229,0,0,1-2.244,1,17.8,17.8,0,0,0-7.541-8.217,17.1,17.1,0,0,1-1.554.786,1.229,1.229,0,1,1-1-2.244,15.366,15.366,0,0,0,1.756-.926,1.088,1.088,0,0,1,.224-.14,15.048,15.048,0,0,0,4.5-4.47,14.893,14.893,0,0,0,2.4-8.136Z" transform="translate(0.01 -0.01)" fill="currentColor"/>
</svg>
