<svg xmlns="http://www.w3.org/2000/svg" width="73.638" height="78.93" viewBox="0 0 73.638 78.93">
  <g id="Group_903" data-name="Group 903" transform="translate(-188.182 -253.07)">
    <g id="Group_684" data-name="Group 684" transform="translate(-4.811 170.07)">
      <path id="Union_11" data-name="Union 11" d="M-4373.421,995.853a26.346,26.346,0,0,0-4.884-7.332,26.111,26.111,0,0,0-6.439-4.974,24.8,24.8,0,0,1-2.252,1.147,1.784,1.784,0,0,1-2.373-.918,1.815,1.815,0,0,1,.909-2.4,22.04,22.04,0,0,0,9.489-8.186,22.148,22.148,0,0,0,3.515-12.028l0-.005a1.81,1.81,0,0,1,1.8-1.82,1.81,1.81,0,0,1,1.8,1.82,25.836,25.836,0,0,1-4.107,14.008,25.833,25.833,0,0,1-5.482,6.11,29.8,29.8,0,0,1,5.747,4.739,29.89,29.89,0,0,1,5.561,8.357,1.815,1.815,0,0,1-.909,2.4,1.782,1.782,0,0,1-.735.159A1.788,1.788,0,0,1-4373.421,995.853Zm-49.58-.309a1.825,1.825,0,0,1-.809-2.439,29.936,29.936,0,0,1,5.481-7.7,29.939,29.939,0,0,1,5.054-4.13,25.859,25.859,0,0,1-4.271-4.387,25.805,25.805,0,0,1-5.318-15.726,25.8,25.8,0,0,1,7.469-18.208,25.319,25.319,0,0,1,18.037-7.546l.026.005,4.435.085a1.81,1.81,0,0,1,1.771,1.841,1.808,1.808,0,0,1-1.824,1.788l-4.4-.08v.006a21.74,21.74,0,0,0-15.484,6.473,22.132,22.132,0,0,0-6.412,15.63,22.118,22.118,0,0,0,4.557,13.506,21.963,21.963,0,0,0,5.535,5.118,1.792,1.792,0,0,1,.364.229,21.667,21.667,0,0,0,5.921,2.545,1.818,1.818,0,0,1,1.29,2.215,1.8,1.8,0,0,1-2.193,1.3,25.209,25.209,0,0,1-6.207-2.551,26.088,26.088,0,0,0-5.788,4.435,26.383,26.383,0,0,0-4.8,6.761l-.011.011a1.8,1.8,0,0,1-1.612,1.009A1.776,1.776,0,0,1-4423,995.544Zm18.493-25.637h0a1.834,1.834,0,0,1-.34-2.554,1.794,1.794,0,0,1,2.53-.343,8.446,8.446,0,0,0,10.09-.036,1.8,1.8,0,0,1,2.523.421,1.837,1.837,0,0,1-.417,2.547,11.815,11.815,0,0,1-7.038,2.406A12.866,12.866,0,0,1-4404.508,969.906Zm11.07-11.818a3.255,3.255,0,0,1,3.219-3.262,3.248,3.248,0,0,1,3.224,3.26,3.223,3.223,0,0,1-3.224,3.236A3.229,3.229,0,0,1-4393.438,958.089Zm-13.606-.007a3.254,3.254,0,0,1,3.224-3.27,3.251,3.251,0,0,1,3.212,3.268,3.227,3.227,0,0,1-3.212,3.243A3.227,3.227,0,0,1-4407.044,958.082Zm24.742-7.834a18.918,18.918,0,0,1-5.476-13.357,18.937,18.937,0,0,1,5.476-13.357A18.566,18.566,0,0,1-4369.076,918a18.573,18.573,0,0,1,13.227,5.528,18.9,18.9,0,0,1,5.481,13.357h.005v.005a18.914,18.914,0,0,1-5.481,13.357,18.589,18.589,0,0,1-13.232,5.534A18.544,18.544,0,0,1-4382.3,950.248Zm2.554-24.131a15.262,15.262,0,0,0-4.419,10.78,15.287,15.287,0,0,0,4.419,10.779,14.981,14.981,0,0,0,10.678,4.466,15,15,0,0,0,10.678-4.461v-.011a15.27,15.27,0,0,0,4.425-10.78h0a15.27,15.27,0,0,0-4.425-10.779,14.99,14.99,0,0,0-10.683-4.461A14.982,14.982,0,0,0-4379.749,926.117Z" transform="translate(4616.992 -835)" fill="#f37335"/>
    </g>
    <path id="Path_3995" data-name="Path 3995" d="M.933-.1V2.653H-.628V0A8.6,8.6,0,0,1-5.211-1.092V-3.923a6.317,6.317,0,0,0,2.1,1.13,7.644,7.644,0,0,0,2.482.457V-7.985a10.661,10.661,0,0,1-3.878-2.552A4.461,4.461,0,0,1-5.389-13.3a4.519,4.519,0,0,1,1.346-3.269A5.685,5.685,0,0,1-.628-18.23v-2.285H.933v2.234a7.945,7.945,0,0,1,3.682.711v2.717A6.46,6.46,0,0,0,.933-15.945v5.853A11.346,11.346,0,0,1,4.754-7.579,4.158,4.158,0,0,1,5.783-4.824,4.2,4.2,0,0,1,4.5-1.7,6.269,6.269,0,0,1,.933-.1ZM-.628-10.816v-5.065a2.663,2.663,0,0,0-1.511.813A2.181,2.181,0,0,0-2.7-13.559a2.455,2.455,0,0,0,.457,1.536A4.922,4.922,0,0,0-.628-10.816ZM.933-7.3v4.888q2.158-.457,2.158-2.247Q3.091-6.157.933-7.3Z" transform="translate(243 281)" fill="#f37335"/>
  </g>
</svg>
