<svg xmlns="http://www.w3.org/2000/svg" width="153.973" height="174.151" viewBox="0 0 153.973 174.151">
  <g id="Camada_x0020_1" transform="translate(0.003 0.01)">
    <path id="Caminho_900" data-name="Caminho 900" d="M109.182,126.585a7,7,0,0,1,.937-.6,63.333,63.333,0,0,0,18.87-18.742,62.19,62.19,0,0,0,10.053-34.119,5.154,5.154,0,1,1,10.308,0,73.175,73.175,0,0,1-27.432,57.078,84.929,84.929,0,0,1,31.606,36.675,5.158,5.158,0,0,1-9.414,4.217A73.5,73.5,0,0,0,130.1,150.311a74.718,74.718,0,0,0-17.635-13.673q-3.195,1.789-6.517,3.322a5.158,5.158,0,0,1-4.217-9.414,63.723,63.723,0,0,0,7.369-3.876ZM9.806,168.329a5.224,5.224,0,0,1-6.943,2.343A5.224,5.224,0,0,1,.52,163.728a85.071,85.071,0,0,1,30.158-33.566,75.044,75.044,0,0,1-12.225-12.438A73.094,73.094,0,0,1,76.3-.01h.085L89.077.246a5.155,5.155,0,1,1-.17,10.308L76.3,10.341h0A62.737,62.737,0,0,0,42.477,125.9a4.1,4.1,0,0,1,1.065.682,61.074,61.074,0,0,0,16.953,7.2,5.145,5.145,0,1,1-2.556,9.967,71.4,71.4,0,0,1-17.762-7.241,73.911,73.911,0,0,0-16.57,12.566A75.112,75.112,0,0,0,9.849,168.244Z" transform="translate(0)" fill="#fff"/>
    <g id="_1532514852144" transform="translate(46.607 49.231)">
      <path id="Caminho_901" data-name="Caminho 901" d="M11.112,26.066a5.156,5.156,0,0,1,9.967-2.641A17.35,17.35,0,0,0,29.726,34.2a24.083,24.083,0,0,0,11.8,3.024,23.426,23.426,0,0,0,11.714-2.9,17.385,17.385,0,0,0,8.349-10.9,5.156,5.156,0,0,1,9.967,2.641A27.682,27.682,0,0,1,58.308,43.275a33.674,33.674,0,0,1-16.868,4.26A35.325,35.325,0,0,1,24.615,43.19,27.637,27.637,0,0,1,11.069,26.066Z" transform="translate(-10.939 14.655)" fill="#fff"/>
      <g id="Grupo_320" data-name="Grupo 320" transform="translate(1.749)">
        <path id="Caminho_902" data-name="Caminho 902" d="M29.751,20.751a9.222,9.222,0,1,0,0,.043Z" transform="translate(-11.35 -11.55)" fill="#fff" fill-rule="evenodd"/>
        <path id="Caminho_903" data-name="Caminho 903" d="M38.881,20.793a9.2,9.2,0,0,1-18.4,0,9.2,9.2,0,1,1,18.4,0Z" transform="translate(18.41 -11.55)" fill="#fff" fill-rule="evenodd"/>
      </g>
    </g>
  </g>
</svg>
