<svg xmlns="http://www.w3.org/2000/svg" xmlns:xlink="http://www.w3.org/1999/xlink" width="152.001" height="208.323" viewBox="0 0 152.001 208.323">
  <defs>
    <clipPath id="clip-path">
      <path id="Caminho_624" data-name="Caminho 624" d="M122.017,124.807c1.309,9.629,2.848,19.227,4.434,28.814,2.136,12.933,9.749,53.507-8.987,57.37-11.063,2.279-13.348-12.43-14.519-21.53-1.891-14.691-.861-29.294-5.8-42.944C93.3,135.894,84.914,131.476,77.583,139.2c-4.507,4.747-8.411,19.386-11.8,26.375a69.273,69.273,0,0,1-7.19,11.116c-5.362,6.661-13.679,6.356-20.009,1.768-4.481-3.244-7.819-7.334-6.34-15.291,3.111-16.752,24.328-29.75,29.844-55.476.861-4.014,1.912-8.009,1.891-12.247-.086-18.515-20.186-22.385-35.227-28.331-24.339-9.621-19.36-29.7-4.494-34.886,10-3.49,17.792,4.5,21.509,8.9,7.519,8.891,11.442,18.048,22.575,25.087,8.4,5.31,23.089,8.184,32.517,4.28,11.285-4.671,17.078-18.16,21.639-28.733,3.537-8.195,7.11-19.678,14.59-23.736,9.869-5.357,21.957,3.02,21.9,12.975-.055,10.062-11.676,16.679-16.52,21.728-16.916,17.633-23.653,48.588-20.458,72.082ZM84.406,59.1a25.847,25.847,0,0,0,27.231-28.449c-1.354-14.772-15.7-25.583-30.115-22.883C66.1,10.652,55.576,27.649,61.681,42.382c3.766,9.089,13.2,16.152,22.724,16.718Z" transform="translate(-11.803 -7.35)" clip-rule="evenodd"/>
    </clipPath>
  </defs>
  <g id="Camada_x0020_1" transform="translate(-0.013 -0.011)">
    <path id="Caminho_621" data-name="Caminho 621" d="M116.6,118.889c1.453,9.553,3.135,19.068,4.859,28.577,2.681,14.78,10.993,55.815-10.182,60.531a11.422,11.422,0,0,1-8.377-1.085c-6.922-3.98-8.729-15.176-9.783-22.458-1.594-11-1.487-22.343-3.748-33.206a58.891,58.891,0,0,0-2.559-8.925c-2.621-6.9-8.51-13.126-14.978-6.1-2.475,2.692-4.869,9.582-6.116,13.074-1.489,4.176-2.892,8.687-4.757,12.7a52.014,52.014,0,0,1-2.809,5.13,71.869,71.869,0,0,1-4.512,6.6c-6.051,7.764-15.969,8.062-23.7,2.645-6.4-4.483-9.055-9.9-7.7-17.878,1.6-9.428,8.607-18.092,14.078-25.676,6.817-9.452,12.511-18.536,14.814-30.17.759-3.829,1.721-7.715,1.64-11.642A16.642,16.642,0,0,0,49.25,80.663C44.8,75.024,36.405,71.908,29.817,69.618,26.213,68.366,22.574,67.2,19,65.854,13.034,63.6,7.033,60.085,3.348,54.728A17.8,17.8,0,0,1,.406,40.718C1.916,33.728,7.411,28.366,14,25.951a18.032,18.032,0,0,1,15.393,1.461,35.3,35.3,0,0,1,9.233,7.853c3.156,3.615,5.86,7.509,8.766,11.311,3.962,5.185,7.861,9.363,13.489,12.8,7.686,4.692,21.459,7.243,29.935,3.576,10.3-4.455,15.651-17.795,19.654-27.494,3.479-8.424,7-20.531,15.372-25.249a16.847,16.847,0,0,1,15.4-.516,18.558,18.558,0,0,1,10,10.87,15.4,15.4,0,0,1,.769,4.624,16.3,16.3,0,0,1-.913,5.5,25.572,25.572,0,0,1-5.881,9.027c-1.771,1.87-3.7,3.57-5.644,5.258a56.745,56.745,0,0,0-4.428,4.056c-8.7,9.358-14.1,22.145-16.921,34.479a96.908,96.908,0,0,0-1.625,35.392ZM75.211,57.17c-10.761-.467-21.1-8.182-25.34-17.975C42.821,22.915,54.127,4.012,71.1.556c16.019-3.263,31.946,8.528,33.691,24.758a28.874,28.874,0,0,1-8.1,23.462A28.332,28.332,0,0,1,75.211,57.17Z" transform="translate(0 0)" fill="#fff" fill-rule="evenodd"/>
    <path id="Caminho_622" data-name="Caminho 622" d="M122.017,124.807c1.309,9.629,2.848,19.227,4.434,28.814,2.136,12.933,9.749,53.507-8.987,57.37-11.063,2.279-13.348-12.43-14.519-21.53-1.891-14.691-.861-29.294-5.8-42.944C93.3,135.894,84.914,131.476,77.583,139.2c-4.507,4.747-8.411,19.386-11.8,26.375a69.273,69.273,0,0,1-7.19,11.116c-5.362,6.661-13.679,6.356-20.009,1.768-4.481-3.244-7.819-7.334-6.34-15.291,3.111-16.752,24.328-29.75,29.844-55.476.861-4.014,1.912-8.009,1.891-12.247-.086-18.515-20.186-22.385-35.227-28.331-24.339-9.621-19.36-29.7-4.494-34.886,10-3.49,17.792,4.5,21.509,8.9,7.519,8.891,11.442,18.048,22.575,25.087,8.4,5.31,23.089,8.184,32.517,4.28,11.285-4.671,17.078-18.16,21.639-28.733,3.537-8.195,7.11-19.678,14.59-23.736,9.869-5.357,21.957,3.02,21.9,12.975-.055,10.062-11.676,16.679-16.52,21.728-16.916,17.633-23.653,48.588-20.458,72.082ZM84.406,59.1a25.847,25.847,0,0,0,27.231-28.449c-1.354-14.772-15.7-25.583-30.115-22.883C66.1,10.652,55.576,27.649,61.681,42.382c3.766,9.089,13.2,16.152,22.724,16.718Z" transform="translate(-8.715 -5.425)" fill="#f39121" fill-rule="evenodd"/>
    <g id="Grupo_19" data-name="Grupo 19" transform="translate(3.088 1.926)" clip-path="url(#clip-path)">
      <g id="_2023283258432" transform="translate(-35.509 -84.69)">
        <path id="_1" data-name="1" d="M171.105,210.313l-26.683,25.609c-16.047,15.4,22.7,54.138,37.934,39.52l30.593-29.362a189.091,189.091,0,0,0,44.559,19.1q43.237,12.538,82.937,4.942,39.72-7.648,69.009-32.927a126.387,126.387,0,0,0,12.2-12.078,126.931,126.931,0,0,0,3.889,16.647q11.3,37.059,40.772,64.764t72.426,40.216q43.237,12.538,82.963,4.851,39.723-7.64,69.009-32.922,29.259-25.284,41.007-65.95,11.8-40.69.67-77.741a142.717,142.717,0,0,0-26.936-50.122L732.083,99.3c15.231-14.618-21.887-54.923-37.934-39.52L663.6,89.108a190.322,190.322,0,0,0-44.6-19.068Q576.02,57.577,536.23,65.148q-39.845,7.613-69.1,32.9a127.208,127.208,0,0,0-12.172,12.036A126.6,126.6,0,0,0,451.134,93.5q-11.177-37.02-40.683-64.738Q380.989,1.056,337.766-11.527,294.788-23.991,255.059-16.3q-39.72,7.644-69.1,32.9T144.785,82.5q-11.8,40.686-.589,77.762a142.464,142.464,0,0,0,26.91,50.051Zm387.217,69.875a75.4,75.4,0,0,0,38.769,1.32,70.461,70.461,0,0,0,33.039-17.9q14.091-13.418,20.2-34.486c4.082-14.071,4.561-27.445,1.411-40.026a70.217,70.217,0,0,0-18.358-32.713,75.315,75.315,0,0,0-33.459-19.631c-13.4-3.886-26.321-4.327-38.855-1.343a70.505,70.505,0,0,0-32.93,17.837q-14.1,13.419-20.231,34.567-6.122,21.11-1.38,39.945a70.728,70.728,0,0,0,18.249,32.773c9,9.222,20.145,15.768,33.545,19.654Zm-239.629-225a75.392,75.392,0,0,1,33.459,19.631,70.464,70.464,0,0,1,18.335,32.8c3.151,12.584,2.694,25.869-1.388,39.945s-10.829,25.624-20.226,34.567a70.2,70.2,0,0,1-33.013,17.813,75.343,75.343,0,0,1-38.769-1.317Q257,192.795,243.55,178.967a70.555,70.555,0,0,1-18.277-32.69c-3.153-12.584-2.676-25.958,1.406-40.026s10.808-25.543,20.207-34.487a70.8,70.8,0,0,1,32.956-17.923Q298.639,49.374,318.693,55.185Z" transform="translate(-70.127 96.984)" fill="rgba(255,204,41,0.25)" fill-rule="evenodd"/>
        <path id="Caminho_623" data-name="Caminho 623" d="M-91.983-87.837l-26.683,25.609c-16.047,15.4,22.7,54.138,37.934,39.52L-50.14-52.07a189.091,189.091,0,0,0,44.559,19.1Q37.656-20.43,77.356-28.026q39.72-7.648,69.01-32.927a126.4,126.4,0,0,0,12.2-12.078,126.947,126.947,0,0,0,3.889,16.647q11.3,37.059,40.772,64.764T275.65,48.6q43.237,12.538,82.963,4.851,39.724-7.64,69.01-32.922,29.259-25.284,41.007-65.95,11.8-40.69.67-77.741a142.718,142.718,0,0,0-26.936-50.122l26.631-25.562c15.231-14.618-21.887-54.923-37.934-39.52l-30.554,29.328a190.318,190.318,0,0,0-44.6-19.068Q312.931-240.573,273.141-233q-39.845,7.613-69.1,32.9a127.2,127.2,0,0,0-12.172,12.036,126.583,126.583,0,0,0-3.823-16.582q-11.177-37.02-40.683-64.738Q117.9-297.094,74.677-309.677,31.7-322.141-8.03-314.455q-39.72,7.644-69.1,32.9T-118.3-215.653q-11.8,40.686-.587,77.762A142.464,142.464,0,0,0-91.981-87.84ZM295.234-17.962A75.4,75.4,0,0,0,334-16.642a70.461,70.461,0,0,0,33.039-17.9q14.091-13.419,20.2-34.487c4.082-14.071,4.562-27.445,1.411-40.026A70.216,70.216,0,0,0,370.3-141.767,75.315,75.315,0,0,0,336.838-161.4c-13.4-3.886-26.321-4.327-38.855-1.343a70.506,70.506,0,0,0-32.93,17.837q-14.1,13.419-20.231,34.567-6.122,21.11-1.38,39.945a70.751,70.751,0,0,0,18.249,32.773c9,9.222,20.145,15.768,33.545,19.654ZM55.6-242.965a75.392,75.392,0,0,1,33.459,19.631,70.463,70.463,0,0,1,18.335,32.8c3.151,12.584,2.694,25.869-1.388,39.945s-10.829,25.624-20.226,34.567A70.2,70.2,0,0,1,52.772-98.209,75.343,75.343,0,0,1,14-99.526q-20.093-5.829-33.542-19.657a70.554,70.554,0,0,1-18.277-32.69c-3.153-12.584-2.676-25.958,1.406-40.026S-25.6-217.442-16.2-226.386a70.8,70.8,0,0,1,32.956-17.923q18.8-4.468,38.852,1.343Z" transform="translate(124.346 317.374)" fill="rgba(243,115,53,0.25)" fill-rule="evenodd"/>
      </g>
    </g>
    <path id="Caminho_625" data-name="Caminho 625" d="M122.017,124.807c1.309,9.629,2.848,19.227,4.434,28.814,2.136,12.933,9.749,53.507-8.987,57.37-11.063,2.279-13.348-12.43-14.519-21.53-1.891-14.691-.861-29.294-5.8-42.944C93.3,135.894,84.914,131.476,77.583,139.2c-4.507,4.747-8.411,19.386-11.8,26.375a69.273,69.273,0,0,1-7.19,11.116c-5.362,6.661-13.679,6.356-20.009,1.768-4.481-3.244-7.819-7.334-6.34-15.291,3.111-16.752,24.328-29.75,29.844-55.476.861-4.014,1.912-8.009,1.891-12.247-.086-18.515-20.186-22.385-35.227-28.331-24.339-9.621-19.36-29.7-4.494-34.886,10-3.49,17.792,4.5,21.509,8.9,7.519,8.891,11.442,18.048,22.575,25.087,8.4,5.31,23.089,8.184,32.517,4.28,11.285-4.671,17.078-18.16,21.639-28.733,3.537-8.195,7.11-19.678,14.59-23.736,9.869-5.357,21.957,3.02,21.9,12.975-.055,10.062-11.676,16.679-16.52,21.728-16.916,17.633-23.653,48.588-20.458,72.082ZM84.406,59.1a25.847,25.847,0,0,0,27.231-28.449c-1.354-14.772-15.7-25.583-30.115-22.883C66.1,10.652,55.576,27.649,61.681,42.382c3.766,9.089,13.2,16.152,22.724,16.718Z" transform="translate(-8.715 -5.425)" fill="rgba(0,0,0,0)" fill-rule="evenodd"/>
  </g>
</svg>
