<svg xmlns="http://www.w3.org/2000/svg" xmlns:xlink="http://www.w3.org/1999/xlink" width="218.732" height="299.78" viewBox="0 0 218.732 299.78">
  <defs>
    <clipPath id="clip-path">
      <path id="Caminho_624" data-name="Caminho 624" d="M170.4,176.373c1.884,13.856,4.1,27.668,6.38,41.464,3.074,18.611,14.029,77-12.933,82.556-15.921,3.28-19.208-17.887-20.893-30.982-2.721-21.141-1.239-42.154-8.347-61.8-5.532-15.286-17.6-21.644-28.148-10.535-6.485,6.831-12.1,27.9-16.979,37.955a99.685,99.685,0,0,1-10.347,16c-7.716,9.585-19.685,9.146-28.794,2.545-6.448-4.669-11.252-10.554-9.124-22,4.477-24.106,35.009-42.811,42.946-79.831,1.239-5.776,2.751-11.526,2.721-17.624-.124-26.643-29.049-32.213-50.693-40.77C1.169,79.5,8.334,50.612,29.726,43.143c14.385-5.022,25.6,6.478,30.952,12.805C71.5,68.743,77.143,81.92,93.164,92.049c12.085,7.641,33.226,11.777,46.793,6.159,16.24-6.722,24.575-26.133,31.139-41.348,5.089-11.792,10.231-28.317,20.995-34.157,14.2-7.709,31.6,4.346,31.518,18.671-.079,14.479-16.8,24-23.772,31.267C175.5,98.017,165.8,142.562,170.4,176.37ZM116.28,81.815c23.036,1.362,41.284-18.041,39.186-40.938-1.948-21.257-22.6-36.814-43.337-32.929C89.937,12.1,74.793,36.56,83.579,57.761,89,70.841,102.57,81,116.28,81.819Z" transform="translate(-11.803 -7.35)" clip-rule="evenodd"/>
    </clipPath>
  </defs>
  <g id="Camada_x0020_1" transform="translate(-0.013 -0.011)">
    <path id="Caminho_621" data-name="Caminho 621" d="M167.781,171.079c2.09,13.747,4.511,27.439,6.992,41.122,3.858,21.269,15.819,80.319-14.652,87.1a16.437,16.437,0,0,1-12.055-1.561c-9.961-5.727-12.562-21.839-14.078-32.318-2.293-15.827-2.139-32.152-5.393-47.784a84.746,84.746,0,0,0-3.682-12.843c-3.772-9.934-12.246-18.889-21.554-8.771-3.562,3.873-7.007,13.789-8.8,18.814-2.143,6.009-4.162,12.5-6.846,18.27a74.848,74.848,0,0,1-4.042,7.382,103.42,103.42,0,0,1-6.493,9.5c-8.707,11.173-22.98,11.6-34.1,3.806-9.21-6.451-13.031-14.25-11.087-25.727,2.3-13.567,12.385-26.035,20.259-36.949,9.811-13.6,18-26.673,21.317-43.415,1.092-5.51,2.477-11.1,2.361-16.754a23.948,23.948,0,0,0-5.063-14.881c-6.41-8.114-18.484-12.6-27.964-15.894-5.187-1.8-10.422-3.475-15.56-5.416-8.591-3.243-17.227-8.3-22.53-16.011A25.619,25.619,0,0,1,.578,58.589c2.173-10.058,10.081-17.775,19.561-21.25,7.585-2.781,15.177-1.771,22.151,2.1a50.791,50.791,0,0,1,13.286,11.3c4.541,5.2,8.433,10.805,12.614,16.277C73.891,74.479,79.5,80.492,87.6,85.434c11.06,6.752,30.88,10.422,43.078,5.145C145.5,84.17,153.2,64.973,158.962,51.015c5.007-12.122,10.069-29.544,22.121-36.333a24.243,24.243,0,0,1,22.158-.743,26.705,26.705,0,0,1,14.4,15.643,22.157,22.157,0,0,1,1.107,6.654,23.461,23.461,0,0,1-1.314,7.911,36.8,36.8,0,0,1-8.463,12.989c-2.548,2.691-5.322,5.138-8.122,7.566a81.658,81.658,0,0,0-6.373,5.836C181.957,84,174.18,102.406,170.123,120.154c-3.734,16.33-4.864,34.333-2.338,50.929ZM108.224,82.263C92.739,81.591,77.862,70.49,71.759,56.4,61.615,32.97,77.884,5.768,102.3.8c23.051-4.7,45.971,12.273,48.482,35.628a41.551,41.551,0,0,1-11.657,33.763A40.77,40.77,0,0,1,108.224,82.263Z" transform="translate(0 0)" fill="#ffcc29" fill-rule="evenodd"/>
    <path id="Caminho_622" data-name="Caminho 622" d="M170.4,176.373c1.884,13.856,4.1,27.668,6.38,41.464,3.074,18.611,14.029,77-12.933,82.556-15.921,3.28-19.208-17.887-20.893-30.982-2.721-21.141-1.239-42.154-8.347-61.8-5.532-15.286-17.6-21.644-28.148-10.535-6.485,6.831-12.1,27.9-16.979,37.955a99.685,99.685,0,0,1-10.347,16c-7.716,9.585-19.685,9.146-28.794,2.545-6.448-4.669-11.252-10.554-9.124-22,4.477-24.106,35.009-42.811,42.946-79.831,1.239-5.776,2.751-11.526,2.721-17.624-.124-26.643-29.049-32.213-50.693-40.77C1.169,79.5,8.334,50.612,29.726,43.143c14.385-5.022,25.6,6.478,30.952,12.805C71.5,68.743,77.143,81.92,93.164,92.049c12.085,7.641,33.226,11.777,46.793,6.159,16.24-6.722,24.575-26.133,31.139-41.348,5.089-11.792,10.231-28.317,20.995-34.157,14.2-7.709,31.6,4.346,31.518,18.671-.079,14.479-16.8,24-23.772,31.267C175.5,98.017,165.8,142.562,170.4,176.37ZM116.28,81.815c23.036,1.362,41.284-18.041,39.186-40.938-1.948-21.257-22.6-36.814-43.337-32.929C89.937,12.1,74.793,36.56,83.579,57.761,89,70.841,102.57,81,116.28,81.819Z" transform="translate(-7.365 -4.585)" fill="#f39121" fill-rule="evenodd"/>
    <g id="Grupo_19" data-name="Grupo 19" transform="translate(4.438 2.766)" clip-path="url(#clip-path)">
      <g id="_2023283258432" transform="translate(-51.098 -121.871)">
        <path id="_1" data-name="1" d="M185.313,311.084l-38.4,36.851c-23.093,22.166,32.67,77.906,54.588,56.87l44.023-42.252a272.1,272.1,0,0,0,64.121,27.487Q371.867,408.084,429,397.153q57.157-11.006,99.306-47.382a181.88,181.88,0,0,0,17.553-17.38,182.664,182.664,0,0,0,5.6,23.956q16.264,53.329,58.672,93.2,42.391,39.874,104.223,57.872,62.218,18.043,119.385,6.981,57.163-10.995,99.306-47.375,42.1-36.384,59.009-94.9,16.984-58.553.965-111.871a205.373,205.373,0,0,0-38.762-72.126l38.323-36.784c21.918-21.036-31.5-79.036-54.588-56.87l-43.967,42.2a273.876,273.876,0,0,0-64.181-27.439q-61.841-17.936-119.1-7.041Q653.4,113.144,611.3,149.534a183.055,183.055,0,0,0-17.516,17.32,182.17,182.17,0,0,0-5.5-23.862Q572.2,89.719,529.736,49.834,487.339,9.959,425.142-8.147q-61.847-17.936-119.017-6.876-57.157,11-99.434,47.337t-59.253,94.84q-16.979,58.548-.848,111.9a205.009,205.009,0,0,0,38.724,72.025ZM742.527,411.637q28.542,8.281,55.789,1.9a101.4,101.4,0,0,0,47.544-25.757q20.278-19.309,29.071-49.627c5.873-20.248,6.564-39.493,2.03-57.6a101.044,101.044,0,0,0-26.418-47.075q-19.6-19.974-48.148-28.249c-19.283-5.592-37.876-6.226-55.913-1.933A101.458,101.458,0,0,0,699.1,228.964q-20.289,19.31-29.112,49.743-8.81,30.377-1.985,57.482a101.779,101.779,0,0,0,26.26,47.161c12.944,13.271,28.989,22.691,48.272,28.283ZM397.7,87.852q28.542,8.276,48.148,28.249a101.4,101.4,0,0,1,26.384,47.2c4.534,18.109,3.877,37.227-2,57.482s-15.583,36.874-29.1,49.743a101.023,101.023,0,0,1-47.506,25.633q-27.247,6.39-55.789-1.9-28.914-8.388-48.268-28.287a101.53,101.53,0,0,1-26.3-47.041c-4.537-18.109-3.851-37.354,2.023-57.6s15.553-36.757,29.079-49.627a101.886,101.886,0,0,1,47.424-25.791Q368.836,79.49,397.7,87.852Z" transform="translate(-40.004 131.122)" fill="rgba(255,204,41,0.25)" fill-rule="evenodd"/>
        <path id="Caminho_623" data-name="Caminho 623" d="M-77.776,12.934l-38.4,36.851c-23.093,22.166,32.67,77.906,54.588,56.87L-17.562,64.4A272.105,272.105,0,0,0,46.56,91.891Q108.778,109.934,165.907,99,223.064,88,265.213,51.621a181.887,181.887,0,0,0,17.553-17.38,182.675,182.675,0,0,0,5.6,23.956q16.264,53.329,58.672,93.2,42.391,39.874,104.223,57.872,62.218,18.043,119.385,6.981,57.163-10.995,99.306-47.375,42.1-36.384,59.009-94.9,16.984-58.553.965-111.871a205.374,205.374,0,0,0-38.762-72.126l38.323-36.784c21.918-21.036-31.5-79.036-54.588-56.87l-43.967,42.2a273.872,273.872,0,0,0-64.181-27.439q-61.841-17.936-119.1-7.041-57.337,10.955-99.437,47.345a183.05,183.05,0,0,0-17.516,17.32,182.161,182.161,0,0,0-5.5-23.862q-16.084-53.273-58.544-93.159-42.4-39.874-104.594-57.981-61.847-17.936-119.017-6.876-57.157,11-99.434,47.337T-115.652-171q-16.979,58.548-.844,111.9A205.009,205.009,0,0,0-77.772,12.931ZM479.438,113.487q28.542,8.281,55.789,1.9a101.4,101.4,0,0,0,47.544-25.757Q603.049,70.319,611.842,40c5.874-20.248,6.564-39.493,2.03-57.6a101.042,101.042,0,0,0-26.418-47.075q-19.6-19.974-48.148-28.249c-19.283-5.592-37.876-6.226-55.913-1.933a101.459,101.459,0,0,0-47.386,25.667Q415.718-49.877,406.9-19.443q-8.81,30.377-1.985,57.482A101.812,101.812,0,0,0,431.17,85.2c12.944,13.271,28.989,22.691,48.272,28.283ZM134.606-210.3q28.542,8.276,48.148,28.249a101.4,101.4,0,0,1,26.384,47.2c4.534,18.109,3.877,37.227-2,57.482s-15.583,36.874-29.1,49.743A101.024,101.024,0,0,1,130.531-1.991q-27.247,6.39-55.789-1.9Q45.828-12.275,26.473-32.174A101.529,101.529,0,0,1,.172-79.215c-4.537-18.109-3.851-37.354,2.023-57.6S17.747-173.57,31.273-186.44A101.886,101.886,0,0,1,78.7-212.231q27.05-6.429,55.909,1.933Z" transform="translate(124.346 317.374)" fill="rgba(243,115,53,0.25)" fill-rule="evenodd"/>
      </g>
    </g>
    <path id="Caminho_625" data-name="Caminho 625" d="M170.4,176.373c1.884,13.856,4.1,27.668,6.38,41.464,3.074,18.611,14.029,77-12.933,82.556-15.921,3.28-19.208-17.887-20.893-30.982-2.721-21.141-1.239-42.154-8.347-61.8-5.532-15.286-17.6-21.644-28.148-10.535-6.485,6.831-12.1,27.9-16.979,37.955a99.685,99.685,0,0,1-10.347,16c-7.716,9.585-19.685,9.146-28.794,2.545-6.448-4.669-11.252-10.554-9.124-22,4.477-24.106,35.009-42.811,42.946-79.831,1.239-5.776,2.751-11.526,2.721-17.624-.124-26.643-29.049-32.213-50.693-40.77C1.169,79.5,8.334,50.612,29.726,43.143c14.385-5.022,25.6,6.478,30.952,12.805C71.5,68.743,77.143,81.92,93.164,92.049c12.085,7.641,33.226,11.777,46.793,6.159,16.24-6.722,24.575-26.133,31.139-41.348,5.089-11.792,10.231-28.317,20.995-34.157,14.2-7.709,31.6,4.346,31.518,18.671-.079,14.479-16.8,24-23.772,31.267C175.5,98.017,165.8,142.562,170.4,176.37ZM116.28,81.815c23.036,1.362,41.284-18.041,39.186-40.938-1.948-21.257-22.6-36.814-43.337-32.929C89.937,12.1,74.793,36.56,83.579,57.761,89,70.841,102.57,81,116.28,81.819Z" transform="translate(-7.365 -4.585)" fill="rgba(0,0,0,0)" fill-rule="evenodd"/>
  </g>
</svg>
