<svg xmlns="http://www.w3.org/2000/svg" width="223.021" height="236.803" viewBox="0 0 223.021 236.803">
  <path id="União_8" data-name="União 8" d="M-4270.816,6750.573a79.049,79.049,0,0,0-14.793-22,79,79,0,0,0-19.5-14.922,75.769,75.769,0,0,1-6.819,3.442,5.425,5.425,0,0,1-7.188-2.752,5.424,5.424,0,0,1,2.752-7.188,66.573,66.573,0,0,0,28.739-24.561,66,66,0,0,0,10.646-36.086l-.015-.017a5.456,5.456,0,0,1,5.459-5.459,5.457,5.457,0,0,1,5.459,5.459,76.985,76.985,0,0,1-12.439,42.027,77.8,77.8,0,0,1-16.6,18.331,89.941,89.941,0,0,1,17.4,14.217,89.567,89.567,0,0,1,16.843,25.072,5.422,5.422,0,0,1-2.754,7.187,5.419,5.419,0,0,1-2.226.478A5.415,5.415,0,0,1-4270.816,6750.573Zm-150.158-.929a5.448,5.448,0,0,1-2.449-7.317,89.849,89.849,0,0,1,16.6-23.1,90.351,90.351,0,0,1,15.307-12.392,77.991,77.991,0,0,1-12.937-13.162,76.963,76.963,0,0,1-16.106-47.182,77.026,77.026,0,0,1,22.623-54.626,77.041,77.041,0,0,1,54.626-22.638l.08.016,13.433.256a5.451,5.451,0,0,1,5.365,5.524,5.452,5.452,0,0,1-5.524,5.363l-13.336-.241v.017a66.164,66.164,0,0,0-46.9,19.419,66.09,66.09,0,0,0-19.419,46.893,65.951,65.951,0,0,0,13.8,40.522,66.312,66.312,0,0,0,16.763,15.355,5.554,5.554,0,0,1,1.105.688,65.788,65.788,0,0,0,17.929,7.636,5.451,5.451,0,0,1,3.907,6.644,5.452,5.452,0,0,1-6.645,3.907,76.715,76.715,0,0,1-18.8-7.653,78.917,78.917,0,0,0-17.531,13.306,79.147,79.147,0,0,0-14.553,20.284l-.032.032a5.45,5.45,0,0,1-4.885,3.025A5.409,5.409,0,0,1-4420.974,6749.644Zm69.6-78.272a3.139,3.139,0,0,1-3.139-3.139,3.139,3.139,0,0,1,3.139-3.138h17.4a3.139,3.139,0,0,1,3.139,3.138,3.139,3.139,0,0,1-3.139,3.139Zm21.858-38.212a43.788,43.788,0,0,0,13.551,2.058,43.771,43.771,0,0,0,12.9-1.878,15.677,15.677,0,0,1-13.143,7.085A15.745,15.745,0,0,1-4329.515,6633.16Zm-53,0a43.788,43.788,0,0,0,13.551,2.058,43.778,43.778,0,0,0,12.9-1.878,15.677,15.677,0,0,1-13.143,7.085A15.72,15.72,0,0,1-4382.512,6633.16Zm84.8-19.409a56.492,56.492,0,0,1-16.587-40.074,56.543,56.543,0,0,1,16.587-40.073,56.493,56.493,0,0,1,40.056-16.6,56.51,56.51,0,0,1,40.057,16.585,56.439,56.439,0,0,1,16.6,40.074h.017v.016a56.473,56.473,0,0,1-16.6,40.074,56.566,56.566,0,0,1-40.074,16.6A56.432,56.432,0,0,1-4297.712,6613.75Zm7.732-72.4a45.574,45.574,0,0,0-13.385,32.34,45.642,45.642,0,0,0,13.385,32.34,45.592,45.592,0,0,0,32.34,13.4,45.643,45.643,0,0,0,32.34-13.385v-.032a45.59,45.59,0,0,0,13.4-32.34h.016a45.59,45.59,0,0,0-13.4-32.34,45.614,45.614,0,0,0-32.355-13.384A45.586,45.586,0,0,0-4289.979,6541.353Zm30.969,61.047a18.033,18.033,0,0,1-18.035-18.033v-35.583a3.9,3.9,0,0,1,3.9-3.9,3.9,3.9,0,0,1,3.9,3.9v15.322c.3-.071.6-.125.91-.166v-22.557a3.9,3.9,0,0,1,3.9-3.9h0a3.9,3.9,0,0,1,3.9,3.9v22.452h1.025v-26.757a3.9,3.9,0,0,1,3.9-3.9,3.9,3.9,0,0,1,3.9,3.9V6563.9a9.978,9.978,0,0,1,1.139.2v-22.723a3.894,3.894,0,0,1,4.154-3.888,3.986,3.986,0,0,1,3.639,4.022V6569.2c-12.136,1.592-14.113,11.026-14.113,11.026l.012,0a.548.548,0,0,0-.015.13.547.547,0,0,0,.6.487.554.554,0,0,0,.476-.358h0a.084.084,0,0,0,0-.01s0,0,0-.006c2.563-9.419,13.027-10.168,13.027-10.168,1.916-2.993,4.516-7.146,5.117-7.892,1.473-1.831,4.129-4.883,8.649-1.975a1.162,1.162,0,0,1,.341.978c-.971,1.876-4.807,10.763-9.083,22.094-1.983,6.731-6.649,14-11.992,16.845a19.334,19.334,0,0,1-8.54,2.044Z" transform="translate(4424 -6517.001)" fill="#f37335"/>
</svg>
