<svg xmlns="http://www.w3.org/2000/svg" width="159.42" height="198.546" viewBox="0 0 159.42 198.546">
  <g id="Grupo_419" data-name="Grupo 419" transform="translate(-135.29 -360.563)">
    <path id="Icon_feather-heart" data-name="Icon feather-heart" d="M32.681,7.034a8.655,8.655,0,0,0-12.243,0L18.77,8.7,17.1,7.034A8.657,8.657,0,1,0,4.859,19.277l1.668,1.668L18.77,33.188,31.013,20.945l1.668-1.668a8.655,8.655,0,0,0,0-12.243Z" transform="translate(218.575 525.921)" fill="#f37335"/>
    <path id="Caminho_686" data-name="Caminho 686" d="M63.976,193.711a5.454,5.454,0,0,1-2.737,10.558,77,77,0,0,1-18.8-7.658c-5.24-4.123-4.84-3.323-9.956-6.762A78.4,78.4,0,0,1,19.542,176.7,77.258,77.258,0,0,1,80.709,52.248l.081.016,13.426.244a5.443,5.443,0,0,1-.163,10.884l-13.345-.244v.016A66.357,66.357,0,0,0,44.944,185.4a5.289,5.289,0,0,1,1.108.7,65.87,65.87,0,0,0,17.923,7.642Zm28.561-43.244a9.785,9.785,0,1,1,0-.016Zm-22.974-29.41a15.743,15.743,0,0,1-26.4-.179,45.364,45.364,0,0,0,26.4.179Zm52.89,0a15.743,15.743,0,0,1-26.4-.179,45.364,45.364,0,0,0,26.4.179Zm24.606,8.424a5.475,5.475,0,1,1,10.949,0,77.228,77.228,0,0,1-29.052,60.352,89.913,89.913,0,0,1,33.435,38.779,5.452,5.452,0,0,1-9.956,4.448,78.954,78.954,0,0,0-33.451-36.449,75.847,75.847,0,0,1-6.892,3.487,5.452,5.452,0,1,1-4.448-9.956,68.163,68.163,0,0,0,7.788-4.106,4.826,4.826,0,0,1,.994-.619,66.752,66.752,0,0,0,19.96-19.83A66.064,66.064,0,0,0,147.042,129.5Z" transform="translate(131.846 308.314)" fill="#f37335"/>
    <g id="Camada_x0020_1" transform="translate(376.467 412.958) rotate(98)">
      <path id="Caminho_686-2" data-name="Caminho 686" d="M147.748,129.575a5.569,5.569,0,1,1,11.137,0,78.551,78.551,0,0,1-29.55,61.386c-3.485,2.858-4.5,4.214-10.143,6.894a77.144,77.144,0,0,1-7.01,3.547c-2.8,1.243-7.325-8.867-4.524-10.126a69.33,69.33,0,0,0,7.922-4.176,4.908,4.908,0,0,1,1.011-.63,67.9,67.9,0,0,0,20.3-20.169,67.2,67.2,0,0,0,10.839-36.709Z" transform="translate(0 0)" fill="#f37335"/>
    </g>
  </g>
</svg>
