<?xml version="1.0" encoding="UTF-8"?>
<!DOCTYPE svg PUBLIC "-//W3C//DTD SVG 1.1//EN" "http://www.w3.org/Graphics/SVG/1.1/DTD/svg11.dtd">
<!-- Creator: CorelDRAW 2020 (64 Bit) -->
<svg xmlns="http://www.w3.org/2000/svg" xml:space="preserve" width="84.6769mm" height="83.6084mm" version="1.1" style="shape-rendering:geometricPrecision; text-rendering:geometricPrecision; image-rendering:optimizeQuality; fill-rule:evenodd; clip-rule:evenodd"
viewBox="0 0 8465.54 8358.72"
 xmlns:xlink="http://www.w3.org/1999/xlink"
 xmlns:xodm="http://www.corel.com/coreldraw/odm/2003">
 <defs>
  <style type="text/css">
   <![CDATA[
    .fil0 {fill:#F37334;fill-rule:nonzero}
   ]]>
  </style>
 </defs>
 <g id="Camada_x0020_1">
  <metadata id="CorelCorpID_0Corel-Layer"/>
  <path class="fil0" d="M971.33 8125.59c-47.43,95.43 -163.19,133.83 -258.04,86.39 -95.44,-47.43 -133.83,-163.19 -86.4,-258.04 150.76,-301.53 348.96,-576.52 585.55,-814.8 163.19,-164.89 344.44,-311.13 539.81,-437.05 -169.96,-136.09 -322.99,-291.93 -456.24,-464.15 -161.35,-208.99 -293.19,-441.88 -389.09,-692.44 0.9,-2.03 1.77,-4.08 2.62,-6.14 3.75,-9.1 7.02,-18.21 9.73,-27.2 2.85,-9.45 5.22,-18.9 7.09,-28.31 1.82,-9.19 3.25,-18.78 4.26,-28.72 1,-9.97 1.52,-19.67 1.52,-29.01l-0.07 -1556.96c-0.08,-9.77 -0.58,-19.42 -1.51,-28.86 -0.99,-10 -2.39,-19.58 -4.27,-28.72 -1.94,-9.42 -4.34,-18.8 -7.17,-28.09 -2.83,-9.3 -6.08,-18.41 -9.74,-27.26l-2.46 -5.78c15.99,-48.91 33.49,-97.59 52.41,-145.77 24.11,-61.44 50.5,-121.89 78.92,-180.86 28.99,-59.97 60.18,-118.84 93.32,-176.12 33.11,-57.26 68.21,-112.99 105.02,-166.78 37.43,-55 77,-108.67 118.36,-160.6 41.33,-51.91 84.48,-102.07 129.06,-150.15 44.63,-48.23 91.6,-95.35 140.52,-140.99 48.75,-45.48 99.13,-89.18 150.78,-130.73 51.72,-41.5 105.2,-81.32 160.04,-119.16 55.01,-37.95 111.41,-73.98 168.78,-107.75 57.5,-33.68 116.62,-65.47 176.88,-95.16 59.89,-29.49 120.97,-56.9 182.75,-81.96 62.49,-25.27 125.84,-48.29 189.51,-68.83 63.81,-20.6 128.17,-38.85 192.55,-54.55 64.49,-15.79 130.16,-29.35 196.46,-40.58 66.48,-11.26 133.31,-20.16 199.97,-26.6 44.37,-4.22 89.12,-7.43 133.83,-9.57 43.86,-2.1 88.31,-3.16 132.96,-3.16 24.25,0 46.9,0.27 67.83,0.78 22.2,0.55 44.88,1.41 67.81,2.55 66.3,3.19 133.22,8.92 200.23,17.08 66.64,8.11 133.2,18.69 199.2,31.61 15.79,3.07 31.6,6.3 47.41,9.68 17.47,29.43 27.25,63.85 26.66,100.45 -1.69,106.15 -89.21,190.85 -194.8,189.16l-470.36 -8.47 0 0.56c-645.98,0 -1230.4,262 -1653.89,684.94 -423.49,423.49 -684.94,1007.91 -684.94,1653.88 0,538.68 181.26,1034.46 486.74,1429.16 164.32,212.88 364.21,396.39 591.2,541.5 14.12,6.78 27.1,14.69 38.96,24.28 193.68,119.14 406.56,210.62 632.42,269.34 102.77,26.54 164.32,131.57 137.78,234.33 -26.53,102.77 -131.56,164.32 -234.33,137.79 -234.9,-60.98 -457.37,-152.46 -662.91,-269.91 -228.12,127.62 -436.48,285.72 -618.3,469.23 -206.1,207.8 -380.01,449.48 -513.27,715.43l-1.13 1.13zm2031.36 -4015.55c-99.04,150.87 -269.49,249.92 -463.55,249.92 -198.08,0 -370.84,-101.92 -469.3,-256.24 140.5,46.07 303.46,72.55 477.94,72.55 164.69,0 319.59,-24.18 454.91,-66.22zm1869.15 0c-99.03,150.87 -269.48,249.92 -463.54,249.92 -197.51,0 -370.84,-101.92 -469.3,-256.24 140.5,46.07 303.46,72.55 477.94,72.55 164.69,0 319.59,-24.18 454.9,-66.22zm-1814.48 1230.65c0,-14.68 2.81,-28.79 8.43,-42.35 5.62,-13.57 13.61,-25.53 23.98,-35.91 10.39,-10.38 22.35,-18.38 35.91,-23.99 13.56,-5.61 27.67,-8.42 42.35,-8.42l613.78 0c14.68,0 28.79,2.81 42.36,8.42 13.56,5.62 25.52,13.62 35.9,23.99 10.38,10.38 18.38,22.34 23.99,35.91 5.62,13.56 8.42,27.67 8.42,42.35 0,14.68 -2.8,28.79 -8.42,42.35 -5.62,13.56 -13.62,25.53 -23.99,35.91 -10.38,10.38 -22.34,18.38 -35.9,23.98 -13.57,5.62 -27.68,8.43 -42.36,8.43l-613.78 0c-14.68,0 -28.79,-2.81 -42.35,-8.43 -13.56,-5.61 -25.52,-13.61 -35.91,-23.98 -10.38,-10.38 -18.37,-22.35 -23.98,-35.91 -5.62,-13.56 -8.43,-27.67 -8.43,-42.35zm2733.91 -766.82c0,-106.72 86.39,-192.55 192.54,-192.55 22.77,0 44.61,3.96 64.84,11.18l-0.05 1006.73c-74.51,234.05 -179.76,454.57 -310.98,656.87 -159.8,245.63 -357.43,464.14 -585.55,646.54 224.73,140.59 430.83,309.43 613.78,501.41 244.5,256.92 446.65,555.63 594.02,884.26 43.48,97.13 0,210.62 -97.12,253.54 -97.13,43.48 -210.63,0 -253.54,-97.13 -129.31,-287.41 -306.61,-549.41 -521.75,-775.84 -199.32,-208.92 -431.4,-387.35 -687.76,-526.26 -77.92,44.61 -158.1,84.7 -240.54,121.4 -97.13,43.48 -210.62,0 -253.54,-97.13 -43.48,-97.12 0,-210.62 97.13,-253.53 416.15,-185.21 767.94,-487.87 1013.56,-866.19 237.72,-365.9 375.49,-802.95 375.49,-1272.74l-0.56 -0.57zm274.97 -558.33l0 1410.55c0,18.28 1.86,36.4 5.43,54.36 3.57,17.85 8.8,35.33 15.78,52.22 6.98,16.9 15.67,32.83 25.89,48.18 10.04,15.19 21.65,29.26 34.53,42.11 13.01,13 27.08,24.46 42.27,34.69 15.35,10.07 31.28,18.76 48.34,25.73 16.89,6.94 34.21,12.21 52.18,15.78 17.96,3.57 36.24,5.43 54.52,5.43 18.28,0 36.4,-1.86 54.36,-5.43 17.97,-3.57 35.49,-8.84 52.38,-15.78 16.86,-6.98 32.99,-15.67 48.14,-25.73 15.34,-10.23 29.45,-21.69 42.3,-34.69 13.01,-12.85 24.46,-26.92 34.69,-42.11 10.24,-15.35 18.76,-31.28 25.69,-48.18 7.14,-16.89 12.42,-34.37 15.99,-52.22 3.52,-17.96 5.23,-36.08 5.23,-54.36l0 -1379.74c-54.46,4.33 -109.5,6.56 -165.06,6.56 -134.26,0 -265.52,-12.85 -392.64,-37.37zm914.49 937.89l0 -611.48c0,-19.52 -1.7,-38.87 -4.96,-58.08 -3.25,-19.21 -8.21,-38.1 -14.56,-56.53 -6.5,-18.44 -14.41,-36.09 -23.84,-53.28 -9.45,-17.05 -20.29,-33.3 -32.53,-48.49 -12.23,-15.33 -25.55,-29.42 -40.11,-42.43 -14.57,-13.17 -30.05,-24.78 -46.63,-35.31 -11.85,-7.43 -24,-14.13 -36.59,-20.12 -23.5,3.7 -47.14,7 -70.9,9.9l0 1254.66c19.08,-4.32 37.67,-10.35 55.63,-17.97 18.13,-7.41 35.29,-16.42 51.87,-26.8 16.58,-10.51 32.06,-22.27 46.63,-35.28 14.56,-13.01 27.88,-27.12 40.11,-42.43 12.24,-15.35 22.92,-31.44 32.37,-48.49 9.45,-17.21 17.51,-34.85 24,-53.29 6.35,-18.44 11.31,-37.31 14.56,-56.55 3.26,-19.19 4.96,-38.54 4.96,-58.05zm-6345.16 -1362.48c18.28,0.15 36.39,1.86 54.36,5.42 17.96,3.56 35.44,8.98 52.34,15.96 16.89,6.97 32.98,15.49 48.17,25.7 15.19,10.07 29.26,21.68 42.27,34.54 12.89,13.01 24.5,26.94 34.69,42.13 10.07,15.18 18.76,31.28 25.73,48.17 6.98,16.88 12.22,34.22 15.94,52.19 3.57,17.82 5.28,35.93 5.44,54.22l0 1556.82c0,18.28 -1.87,36.4 -5.44,54.36 -3.57,17.85 -8.8,35.33 -15.78,52.22 -6.98,16.9 -15.67,32.83 -25.89,48.18 -10.03,15.19 -21.64,29.26 -34.53,42.11 -13.01,13 -27.08,24.46 -42.27,34.69 -15.35,10.07 -31.28,18.76 -48.33,25.73 -16.9,6.94 -34.22,12.21 -52.18,15.78 -17.97,3.57 -36.24,5.43 -54.52,5.43 -18.29,0 -36.4,-1.86 -54.37,-5.43 -17.96,-3.57 -35.48,-8.84 -52.38,-15.78 -16.85,-6.98 -32.98,-15.67 -48.13,-25.73 -15.35,-10.23 -29.46,-21.69 -42.31,-34.69 -13.01,-12.85 -24.46,-26.92 -34.69,-42.11 -10.23,-15.35 -18.76,-31.28 -25.69,-48.18 -7.14,-16.89 -12.41,-34.37 -15.98,-52.22 -3.53,-17.96 -5.24,-36.08 -5.24,-54.36l0 -1556.82c0,-18.29 1.83,-36.4 5.4,-54.22 3.56,-17.97 8.84,-35.31 15.82,-52.19 7.1,-16.89 15.62,-32.99 25.85,-48.17 10.23,-15.19 21.68,-29.12 34.69,-42.13 12.85,-12.86 26.96,-24.47 42.15,-34.54 15.3,-10.22 31.28,-18.74 48.29,-25.7 16.9,-6.98 34.26,-12.4 52.22,-15.96 17.97,-3.56 36.08,-5.27 54.37,-5.42zm-635.57 1362.48l0 -611.48c0,-19.52 1.71,-38.87 4.96,-58.08 3.25,-19.21 8.21,-38.1 14.56,-56.53 6.5,-18.44 14.41,-36.09 23.84,-53.28 9.46,-17.05 20.29,-33.3 32.53,-48.49 12.24,-15.33 25.55,-29.42 40.11,-42.43 14.57,-13.17 30.06,-24.78 46.63,-35.31 16.58,-10.39 33.74,-19.37 51.87,-26.95 17.96,-7.44 36.55,-13.48 55.63,-17.81l0 1289.19c-19.08,-4.32 -37.67,-10.35 -55.63,-17.97 -18.13,-7.41 -35.29,-16.42 -51.87,-26.8 -16.57,-10.51 -32.06,-22.27 -46.63,-35.28 -14.56,-13.01 -27.87,-27.12 -40.11,-42.43 -12.24,-15.35 -22.92,-31.44 -32.37,-48.49 -9.45,-17.21 -17.51,-34.85 -24,-53.29 -6.35,-18.44 -11.31,-37.31 -14.56,-56.55 -3.25,-19.19 -4.96,-38.53 -4.96,-58.05zm579.99 -1374.78c99.31,-281.37 240.44,-546.47 419.9,-788.82 188.29,-254.24 414.54,-477.81 672.52,-664.51 261.03,-188.9 548.59,-335.67 854.68,-436.28 316.64,-104.07 647.88,-156.84 984.51,-156.84 311.12,0 617.61,45.07 912.23,134.05 -16.77,105.86 -25.51,214.39 -25.51,324.95 0,9.1 0.06,18.18 0.18,27.24 -115.4,-38.57 -233.32,-69.69 -351.09,-92.63 -132.56,-26 -267.77,-42.49 -401.91,-48.96 -45.36,-2.26 -91.29,-3.4 -136.48,-3.4 -88.49,0 -178.79,4.33 -268.43,12.87 -134.57,13.01 -268.78,35.73 -398.91,67.59 -129.66,31.62 -259.03,73.4 -384.54,124.16 -123.96,50.26 -245.73,110.22 -361.91,178.26 -115.65,68.1 -227,144.93 -330.96,228.36 -104.04,83.72 -202.69,175.73 -293.17,273.51 -89.83,96.72 -173.63,201.93 -249.07,312.75 -74.11,108.27 -141.27,224.39 -199.65,345.16 -48.51,100.63 -90.97,205.26 -126.56,311.76 -4.37,-8.04 -8.99,-15.69 -13.85,-22.96 -5.56,-8.28 -11.37,-16.06 -17.38,-23.33 -5.99,-7.25 -12.5,-14.4 -19.46,-21.41l-0.14 -0.14c-7.14,-7.05 -14.4,-13.62 -21.75,-19.64 -7.32,-5.98 -15.04,-11.69 -23.13,-17.03 -8.32,-5.58 -16.62,-10.59 -24.91,-14.93 -8.6,-4.57 -17.39,-8.71 -26.28,-12.38 -8.95,-3.69 -18.2,-7.02 -27.65,-9.91 -9.55,-2.9 -18.91,-5.29 -27.98,-7.09 -9.23,-1.82 -18.83,-3.22 -28.72,-4.19 -9.48,-0.93 -19.16,-1.43 -28.94,-1.5l-0.14 0c-9.81,0.07 -19.49,0.57 -28.95,1.5 -9.14,0.89 -18.01,2.15 -26.55,3.77zm7885.55 -1579.76c0,552.24 -223.6,1051.4 -585.55,1413.35 -361.95,361.38 -861.67,585.55 -1413.34,585.55 -551.67,0 -1051.39,-223.61 -1412.78,-585.55 -361.38,-361.39 -584.98,-861.11 -584.98,-1413.35 0,-551.67 223.6,-1051.39 584.98,-1413.34 361.39,-361.38 861.11,-585.55 1412.78,-585.55 551.67,0 1050.83,223.61 1412.78,584.99 361.95,361.38 585.55,861.1 585.55,1413.34l0.56 0 0 0.56zm-1155.86 -778.15c4.35,0 6.53,2.17 6.53,6.52 0,4.35 -2.18,6.53 -6.53,6.53 -4.35,0 -6.53,-2.18 -6.53,-6.53 0,-4.35 2.18,-6.52 6.53,-6.52zm0 1558.77c4.35,0 6.53,2.18 6.53,6.53 0,4.35 -2.18,6.52 -6.53,6.52 -4.35,0 -6.53,-2.17 -6.53,-6.52 0,-4.35 2.18,-6.53 6.53,-6.53zm337.04 -114.57c2.7,0 5.01,0.96 6.92,2.87 1.91,1.91 2.87,4.22 2.87,6.92 0,2.7 -0.96,5.01 -2.87,6.92 -1.91,1.91 -4.22,2.87 -6.92,2.87 -2.71,0 -5.01,-0.96 -6.92,-2.87 -1.92,-1.91 -2.87,-4.22 -2.87,-6.92 0,-2.7 0.95,-5.01 2.87,-6.92 1.91,-1.91 4.21,-2.87 6.92,-2.87zm0 -114.56c3.61,0 6.68,1.27 9.23,3.82 2.55,2.55 3.83,5.62 3.83,9.23 0,3.6 -1.28,6.68 -3.83,9.23 -2.55,2.55 -5.62,3.82 -9.23,3.82 -3.6,0 -6.68,-1.27 -9.22,-3.82 -2.55,-2.55 -3.83,-5.63 -3.83,-9.23 0,-3.61 1.28,-6.68 3.83,-9.23 2.54,-2.55 5.62,-3.82 9.22,-3.82zm0 -1113.44c3.61,0 6.68,1.28 9.23,3.83 2.55,2.55 3.83,5.62 3.83,9.23 0,3.6 -1.28,6.68 -3.83,9.22 -2.55,2.55 -5.62,3.83 -9.23,3.83 -3.6,0 -6.68,-1.28 -9.22,-3.83 -2.55,-2.54 -3.83,-5.62 -3.83,-9.22 0,-3.61 1.28,-6.68 3.83,-9.23 2.54,-2.55 5.62,-3.83 9.22,-3.83zm-0.01 998.75c4.51,0 8.35,1.59 11.54,4.77 3.19,3.19 4.78,7.04 4.78,11.54 0,4.51 -1.59,8.35 -4.78,11.54 -3.19,3.18 -7.03,4.78 -11.54,4.78 -4.5,0 -8.35,-1.6 -11.53,-4.78 -3.19,-3.19 -4.78,-7.03 -4.78,-11.54 0,-4.5 1.59,-8.35 4.78,-11.54 3.18,-3.18 7.03,-4.77 11.53,-4.77zm0.01 -114.58c5.41,0 10.02,1.92 13.85,5.74 3.82,3.82 5.73,8.44 5.73,13.84 0,5.41 -1.91,10.02 -5.73,13.85 -3.83,3.82 -8.44,5.73 -13.85,5.73 -5.4,0 -10.02,-1.91 -13.84,-5.73 -3.82,-3.83 -5.74,-8.44 -5.74,-13.85 0,-5.4 1.92,-10.02 5.74,-13.84 3.82,-3.82 8.44,-5.74 13.84,-5.74zm112.34 -114.56c6.31,0 11.69,2.23 16.15,6.69 4.46,4.46 6.69,9.85 6.69,16.15 0,6.31 -2.23,11.69 -6.69,16.15 -4.46,4.46 -9.84,6.69 -16.15,6.69 -6.31,0 -11.69,-2.23 -16.15,-6.69 -4.46,-4.46 -6.69,-9.84 -6.69,-16.15 0,-6.3 2.23,-11.69 6.69,-16.15 4.46,-4.46 9.84,-6.69 16.15,-6.69zm0.01 -114.69c7.21,0 13.36,2.55 18.46,7.65 5.09,5.09 7.64,11.25 7.64,18.45 0,7.21 -2.55,13.36 -7.64,18.46 -5.1,5.1 -11.25,7.65 -18.46,7.65 -7.21,0 -13.36,-2.55 -18.46,-7.65 -5.1,-5.1 -7.65,-11.25 -7.65,-18.46 0,-7.2 2.55,-13.36 7.65,-18.45 5.1,-5.1 11.25,-7.65 18.46,-7.65zm-0.01 -54.81c16.84,0 30.4,-13.57 30.4,-30.4 0,-16.84 -13.57,-30.4 -30.4,-30.4 -16.84,0 -30.4,13.57 -30.4,30.4 0,16.84 13.57,30.4 30.4,30.4l0 0zm0.01 -167.8c7.21,0 13.36,2.54 18.46,7.64 5.09,5.1 7.64,11.25 7.64,18.46 0,7.21 -2.55,13.36 -7.64,18.46 -5.1,5.09 -11.25,7.64 -18.46,7.64 -7.21,0 -13.36,-2.55 -18.46,-7.64 -5.1,-5.1 -7.65,-11.25 -7.65,-18.46 0,-7.21 2.55,-13.36 7.65,-18.46 5.1,-5.1 11.25,-7.64 18.46,-7.64zm-0.01 -108.05c6.31,0 11.69,2.23 16.15,6.69 4.46,4.46 6.69,9.85 6.69,16.15 0,6.31 -2.23,11.69 -6.69,16.15 -4.46,4.46 -9.84,6.69 -16.15,6.69 -6.31,0 -11.69,-2.23 -16.15,-6.69 -4.46,-4.46 -6.69,-9.84 -6.69,-16.15 0,-6.3 2.23,-11.69 6.69,-16.15 4.46,-4.46 9.84,-6.69 16.15,-6.69zm-112.33 445.35c6.31,0 11.69,2.23 16.15,6.69 4.46,4.46 6.69,9.85 6.69,16.15 0,6.31 -2.23,11.69 -6.69,16.15 -4.46,4.46 -9.84,6.69 -16.15,6.69 -6.31,0 -11.69,-2.23 -16.15,-6.69 -4.46,-4.46 -6.69,-9.84 -6.69,-16.15 0,-6.3 2.23,-11.69 6.69,-16.15 4.46,-4.46 9.84,-6.69 16.15,-6.69zm-0.01 -114.69c7.21,0 13.36,2.55 18.46,7.65 5.09,5.09 7.64,11.25 7.64,18.45 0,7.21 -2.55,13.36 -7.64,18.46 -5.1,5.1 -11.25,7.65 -18.46,7.65 -7.21,0 -13.36,-2.55 -18.46,-7.65 -5.1,-5.1 -7.64,-11.25 -7.64,-18.46 0,-7.2 2.54,-13.36 7.64,-18.45 5.1,-5.1 11.25,-7.65 18.46,-7.65zm0 -115.61c-16.83,0 -30.4,13.57 -30.4,30.4 0,16.84 13.58,30.4 30.4,30.4 16.84,0 30.4,-13.57 30.4,-30.4 0,-16.84 -13.57,-30.4 -30.4,-30.4zm0 -106.99c7.21,0 13.36,2.54 18.46,7.64 5.09,5.1 7.64,11.25 7.64,18.46 0,7.21 -2.55,13.36 -7.64,18.46 -5.1,5.09 -11.25,7.64 -18.46,7.64 -7.21,0 -13.36,-2.55 -18.46,-7.64 -5.1,-5.1 -7.64,-11.25 -7.64,-18.46 0,-7.21 2.54,-13.36 7.64,-18.46 5.1,-5.1 11.25,-7.64 18.46,-7.64zm0.01 -108.05c6.31,0 11.69,2.23 16.15,6.69 4.46,4.46 6.69,9.85 6.69,16.15 0,6.31 -2.23,11.69 -6.69,16.15 -4.46,4.46 -9.84,6.69 -16.15,6.69 -6.31,0 -11.69,-2.23 -16.15,-6.69 -4.46,-4.46 -6.69,-9.84 -6.69,-16.15 0,-6.3 2.23,-11.69 6.69,-16.15 4.46,-4.46 9.84,-6.69 16.15,-6.69zm-0.01 -108.17c5.41,0 10.02,1.91 13.85,5.73 3.82,3.83 5.73,8.44 5.73,13.85 0,5.4 -1.91,10.02 -5.73,13.84 -3.83,3.82 -8.44,5.74 -13.85,5.74 -5.4,0 -10.02,-1.92 -13.84,-5.74 -3.82,-3.82 -5.74,-8.44 -5.74,-13.84 0,-5.41 1.92,-10.02 5.74,-13.85 3.82,-3.82 8.44,-5.73 13.84,-5.73zm-0.01 -108.03c4.51,0 8.35,1.59 11.54,4.78 3.19,3.18 4.78,7.03 4.78,11.53 0,4.51 -1.59,8.35 -4.78,11.54 -3.19,3.18 -7.03,4.78 -11.54,4.78 -4.5,0 -8.35,-1.6 -11.53,-4.78 -3.19,-3.19 -4.78,-7.03 -4.78,-11.54 0,-4.5 1.59,-8.35 4.78,-11.53 3.18,-3.19 7.03,-4.78 11.53,-4.78zm-337.02 1119.95c2.7,0 5.01,0.96 6.92,2.87 1.91,1.91 2.87,4.22 2.87,6.92 0,2.7 -0.96,5.01 -2.87,6.92 -1.91,1.91 -4.22,2.87 -6.92,2.87 -2.71,0 -5.01,-0.96 -6.92,-2.87 -1.92,-1.91 -2.87,-4.22 -2.87,-6.92 0,-2.7 0.95,-5.01 2.87,-6.92 1.91,-1.91 4.21,-2.87 6.92,-2.87zm-0.01 -114.56c3.6,0 6.68,1.27 9.23,3.82 2.54,2.55 3.82,5.62 3.82,9.23 0,3.6 -1.28,6.68 -3.82,9.23 -2.55,2.55 -5.63,3.82 -9.23,3.82 -3.61,0 -6.68,-1.27 -9.23,-3.82 -2.55,-2.55 -3.82,-5.63 -3.82,-9.23 0,-3.61 1.27,-6.68 3.82,-9.23 2.55,-2.55 5.62,-3.82 9.23,-3.82zm0 -1113.44c3.6,0 6.68,1.28 9.23,3.83 2.54,2.55 3.82,5.62 3.82,9.23 0,3.6 -1.28,6.68 -3.82,9.22 -2.55,2.55 -5.63,3.83 -9.23,3.83 -3.61,0 -6.68,-1.28 -9.23,-3.83 -2.55,-2.54 -3.82,-5.62 -3.82,-9.22 0,-3.61 1.27,-6.68 3.82,-9.23 2.55,-2.55 5.62,-3.83 9.23,-3.83zm224.7 998.75c4.51,0 8.35,1.59 11.54,4.77 3.18,3.19 4.78,7.04 4.78,11.54 0,4.51 -1.6,8.35 -4.78,11.54 -3.19,3.18 -7.03,4.78 -11.54,4.78 -4.5,0 -8.35,-1.6 -11.53,-4.78 -3.19,-3.19 -4.78,-7.03 -4.78,-11.54 0,-4.5 1.59,-8.35 4.78,-11.54 3.18,-3.18 7.03,-4.77 11.53,-4.77zm-0.01 -114.58c5.41,0 10.02,1.92 13.85,5.74 3.82,3.82 5.73,8.44 5.73,13.84 0,5.41 -1.91,10.02 -5.73,13.85 -3.83,3.82 -8.44,5.73 -13.85,5.73 -5.4,0 -10.02,-1.91 -13.84,-5.73 -3.82,-3.83 -5.74,-8.44 -5.74,-13.85 0,-5.4 1.92,-10.02 5.74,-13.84 3.82,-3.82 8.44,-5.74 13.84,-5.74zm0.01 -114.56c6.31,0 11.69,2.23 16.15,6.69 4.46,4.46 6.69,9.85 6.69,16.15 0,6.31 -2.23,11.69 -6.69,16.15 -4.46,4.46 -9.84,6.69 -16.15,6.69 -6.31,0 -11.69,-2.23 -16.15,-6.69 -4.46,-4.46 -6.69,-9.84 -6.69,-16.15 0,-6.3 2.23,-11.69 6.69,-16.15 4.46,-4.46 9.84,-6.69 16.15,-6.69zm-0.01 -114.69c7.21,0 13.36,2.55 18.46,7.65 5.1,5.09 7.64,11.25 7.64,18.45 0,7.21 -2.54,13.36 -7.64,18.46 -5.1,5.1 -11.25,7.65 -18.46,7.65 -7.21,0 -13.36,-2.55 -18.46,-7.65 -5.09,-5.1 -7.64,-11.25 -7.64,-18.46 0,-7.2 2.55,-13.36 7.64,-18.45 5.1,-5.1 11.25,-7.65 18.46,-7.65zm0 -115.61c-16.84,0 -30.4,13.57 -30.4,30.4 0,16.84 13.57,30.4 30.4,30.4 16.84,0 30.4,-13.57 30.4,-30.4 0,-16.84 -13.57,-30.4 -30.4,-30.4zm0 -106.99c7.21,0 13.36,2.54 18.46,7.64 5.1,5.1 7.64,11.25 7.64,18.46 0,7.21 -2.54,13.36 -7.64,18.46 -5.1,5.09 -11.25,7.64 -18.46,7.64 -7.21,0 -13.36,-2.55 -18.46,-7.64 -5.09,-5.1 -7.64,-11.25 -7.64,-18.46 0,-7.21 2.55,-13.36 7.64,-18.46 5.1,-5.1 11.25,-7.64 18.46,-7.64zm0.01 -108.05c6.31,0 11.69,2.23 16.15,6.69 4.46,4.46 6.69,9.85 6.69,16.15 0,6.31 -2.23,11.69 -6.69,16.15 -4.46,4.46 -9.84,6.69 -16.15,6.69 -6.31,0 -11.69,-2.23 -16.15,-6.69 -4.46,-4.46 -6.69,-9.84 -6.69,-16.15 0,-6.3 2.23,-11.69 6.69,-16.15 4.46,-4.46 9.84,-6.69 16.15,-6.69zm-0.01 -108.17c5.41,0 10.02,1.91 13.85,5.73 3.82,3.83 5.73,8.44 5.73,13.85 0,5.4 -1.91,10.02 -5.73,13.84 -3.83,3.82 -8.44,5.74 -13.85,5.74 -5.4,0 -10.02,-1.92 -13.84,-5.74 -3.82,-3.82 -5.74,-8.44 -5.74,-13.84 0,-5.41 1.92,-10.02 5.74,-13.85 3.82,-3.82 8.44,-5.73 13.84,-5.73zm0.01 -108.03c4.51,0 8.35,1.59 11.54,4.78 3.18,3.18 4.78,7.03 4.78,11.53 0,4.51 -1.6,8.35 -4.78,11.54 -3.19,3.18 -7.03,4.78 -11.54,4.78 -4.5,0 -8.35,-1.6 -11.53,-4.78 -3.19,-3.19 -4.78,-7.03 -4.78,-11.54 0,-4.5 1.59,-8.35 4.78,-11.53 3.18,-3.19 7.03,-4.78 11.53,-4.78zm-112.36 776.11c5.41,0 10.02,1.92 13.85,5.74 3.82,3.82 5.73,8.44 5.73,13.84 0,5.41 -1.91,10.02 -5.73,13.85 -3.83,3.82 -8.44,5.73 -13.85,5.73 -5.4,0 -10.02,-1.91 -13.84,-5.73 -3.82,-3.83 -5.73,-8.44 -5.73,-13.85 0,-5.4 1.91,-10.02 5.73,-13.84 3.82,-3.82 8.44,-5.74 13.84,-5.74zm0.01 -114.56c6.31,0 11.69,2.23 16.15,6.69 4.46,4.46 6.69,9.85 6.69,16.15 0,6.31 -2.23,11.69 -6.69,16.15 -4.46,4.46 -9.84,6.69 -16.15,6.69 -6.31,0 -11.69,-2.23 -16.15,-6.69 -4.46,-4.46 -6.69,-9.84 -6.69,-16.15 0,-6.3 2.23,-11.69 6.69,-16.15 4.46,-4.46 9.84,-6.69 16.15,-6.69zm-0.01 -114.69c7.21,0 13.36,2.55 18.46,7.65 5.1,5.09 7.64,11.25 7.64,18.45 0,7.21 -2.54,13.36 -7.64,18.46 -5.1,5.1 -11.25,7.65 -18.46,7.65 -7.21,0 -13.36,-2.55 -18.46,-7.65 -5.09,-5.1 -7.64,-11.25 -7.64,-18.46 0,-7.2 2.55,-13.36 7.64,-18.45 5.1,-5.1 11.25,-7.65 18.46,-7.65zm0.01 -115.61c-16.83,0 -30.4,13.57 -30.4,30.4 0,16.84 13.58,30.4 30.4,30.4 16.84,0 30.4,-13.57 30.4,-30.4 0,-16.84 -13.57,-30.4 -30.4,-30.4zm-0.01 -106.99c7.21,0 13.36,2.54 18.46,7.64 5.1,5.1 7.64,11.25 7.64,18.46 0,7.21 -2.54,13.36 -7.64,18.46 -5.1,5.09 -11.25,7.64 -18.46,7.64 -7.21,0 -13.36,-2.55 -18.46,-7.64 -5.09,-5.1 -7.64,-11.25 -7.64,-18.46 0,-7.21 2.55,-13.36 7.64,-18.46 5.1,-5.1 11.25,-7.64 18.46,-7.64zm0.01 -108.05c6.31,0 11.69,2.23 16.15,6.69 4.46,4.46 6.69,9.85 6.69,16.15 0,6.31 -2.23,11.69 -6.69,16.15 -4.46,4.46 -9.84,6.69 -16.15,6.69 -6.31,0 -11.69,-2.23 -16.15,-6.69 -4.46,-4.46 -6.69,-9.84 -6.69,-16.15 0,-6.3 2.23,-11.69 6.69,-16.15 4.46,-4.46 9.84,-6.69 16.15,-6.69zm-0.01 -108.17c5.41,0 10.02,1.91 13.85,5.73 3.82,3.83 5.73,8.44 5.73,13.85 0,5.4 -1.91,10.02 -5.73,13.84 -3.83,3.82 -8.44,5.74 -13.85,5.74 -5.4,0 -10.02,-1.92 -13.84,-5.74 -3.82,-3.82 -5.73,-8.44 -5.73,-13.84 0,-5.41 1.91,-10.02 5.73,-13.85 3.82,-3.82 8.44,-5.73 13.84,-5.73zm-112.34 782.66c4.51,0 8.36,1.59 11.54,4.77 3.19,3.19 4.78,7.04 4.78,11.54 0,4.51 -1.59,8.35 -4.78,11.54 -3.18,3.18 -7.03,4.78 -11.54,4.78 -4.5,0 -8.35,-1.6 -11.53,-4.78 -3.19,-3.19 -4.78,-7.03 -4.78,-11.54 0,-4.5 1.59,-8.35 4.78,-11.54 3.18,-3.18 7.03,-4.77 11.53,-4.77zm-0.01 -114.58c5.41,0 10.03,1.92 13.85,5.74 3.82,3.82 5.73,8.44 5.73,13.84 0,5.41 -1.91,10.02 -5.73,13.85 -3.82,3.82 -8.44,5.73 -13.85,5.73 -5.4,0 -10.02,-1.91 -13.84,-5.73 -3.82,-3.83 -5.73,-8.44 -5.73,-13.85 0,-5.4 1.91,-10.02 5.73,-13.84 3.82,-3.82 8.44,-5.74 13.84,-5.74zm0.01 -114.56c6.31,0 11.69,2.23 16.15,6.69 4.46,4.46 6.69,9.85 6.69,16.15 0,6.31 -2.23,11.69 -6.69,16.15 -4.46,4.46 -9.84,6.69 -16.15,6.69 -6.31,0 -11.69,-2.23 -16.15,-6.69 -4.46,-4.46 -6.69,-9.84 -6.69,-16.15 0,-6.3 2.23,-11.69 6.69,-16.15 4.46,-4.46 9.84,-6.69 16.15,-6.69zm0.01 -114.69c7.21,0 13.36,2.55 18.46,7.65 5.09,5.09 7.64,11.25 7.64,18.45 0,7.21 -2.55,13.36 -7.64,18.46 -5.1,5.1 -11.25,7.65 -18.46,7.65 -7.21,0 -13.36,-2.55 -18.46,-7.65 -5.1,-5.1 -7.64,-11.25 -7.64,-18.46 0,-7.2 2.54,-13.36 7.64,-18.45 5.1,-5.1 11.25,-7.65 18.46,-7.65zm-0.01 -115.61c-16.84,0 -30.4,13.57 -30.4,30.4 0,16.84 13.57,30.4 30.4,30.4 16.84,0 30.4,-13.57 30.4,-30.4 0,-16.84 -13.57,-30.4 -30.4,-30.4zm0.01 -106.99c7.21,0 13.36,2.54 18.46,7.64 5.09,5.1 7.64,11.25 7.64,18.46 0,7.21 -2.55,13.36 -7.64,18.46 -5.1,5.09 -11.25,7.64 -18.46,7.64 -7.21,0 -13.36,-2.55 -18.46,-7.64 -5.1,-5.1 -7.64,-11.25 -7.64,-18.46 0,-7.21 2.54,-13.36 7.64,-18.46 5.1,-5.1 11.25,-7.64 18.46,-7.64zm-0.01 -108.05c6.31,0 11.69,2.23 16.15,6.69 4.46,4.46 6.69,9.85 6.69,16.15 0,6.31 -2.23,11.69 -6.69,16.15 -4.46,4.46 -9.84,6.69 -16.15,6.69 -6.31,0 -11.69,-2.23 -16.15,-6.69 -4.46,-4.46 -6.69,-9.84 -6.69,-16.15 0,-6.3 2.23,-11.69 6.69,-16.15 4.46,-4.46 9.84,-6.69 16.15,-6.69zm-0.01 -108.17c5.41,0 10.03,1.91 13.85,5.73 3.82,3.83 5.73,8.44 5.73,13.85 0,5.4 -1.91,10.02 -5.73,13.84 -3.82,3.82 -8.44,5.74 -13.85,5.74 -5.4,0 -10.02,-1.92 -13.84,-5.74 -3.82,-3.82 -5.73,-8.44 -5.73,-13.84 0,-5.41 1.91,-10.02 5.73,-13.85 3.82,-3.82 8.44,-5.73 13.84,-5.73zm0.01 -108.03c4.51,0 8.36,1.59 11.54,4.78 3.19,3.18 4.78,7.03 4.78,11.53 0,4.51 -1.59,8.35 -4.78,11.54 -3.18,3.18 -7.03,4.78 -11.54,4.78 -4.5,0 -8.35,-1.6 -11.53,-4.78 -3.19,-3.19 -4.78,-7.03 -4.78,-11.54 0,-4.5 1.59,-8.35 4.78,-11.53 3.18,-3.19 7.03,-4.78 11.53,-4.78zm-112.33 1005.38c3.6,0 6.68,1.27 9.22,3.82 2.55,2.55 3.83,5.62 3.83,9.23 0,3.6 -1.28,6.68 -3.83,9.23 -2.54,2.55 -5.62,3.82 -9.22,3.82 -3.61,0 -6.69,-1.27 -9.23,-3.82 -2.55,-2.55 -3.83,-5.63 -3.83,-9.23 0,-3.61 1.28,-6.68 3.83,-9.23 2.54,-2.55 5.62,-3.82 9.23,-3.82zm0 -1113.44c3.6,0 6.68,1.28 9.22,3.83 2.55,2.55 3.83,5.62 3.83,9.23 0,3.6 -1.28,6.68 -3.83,9.22 -2.54,2.55 -5.62,3.83 -9.22,3.83 -3.61,0 -6.69,-1.28 -9.23,-3.83 -2.55,-2.54 -3.83,-5.62 -3.83,-9.22 0,-3.61 1.28,-6.68 3.83,-9.23 2.54,-2.55 5.62,-3.83 9.23,-3.83zm-0.01 998.75c4.5,0 8.35,1.59 11.53,4.77 3.19,3.19 4.78,7.04 4.78,11.54 0,4.51 -1.59,8.35 -4.78,11.54 -3.18,3.18 -7.03,4.78 -11.53,4.78 -4.51,0 -8.36,-1.6 -11.54,-4.78 -3.19,-3.19 -4.78,-7.03 -4.78,-11.54 0,-4.5 1.59,-8.35 4.78,-11.54 3.18,-3.18 7.03,-4.77 11.54,-4.77zm0 -114.58c5.41,0 10.02,1.92 13.85,5.74 3.82,3.82 5.73,8.44 5.73,13.84 0,5.41 -1.91,10.02 -5.73,13.85 -3.83,3.82 -8.44,5.73 -13.85,5.73 -5.4,0 -10.02,-1.91 -13.84,-5.73 -3.82,-3.83 -5.73,-8.44 -5.73,-13.85 0,-5.4 1.91,-10.02 5.73,-13.84 3.82,-3.82 8.44,-5.74 13.84,-5.74zm-0.01 -114.56c6.31,0 11.69,2.23 16.15,6.69 4.46,4.46 6.69,9.85 6.69,16.15 0,6.31 -2.23,11.69 -6.69,16.15 -4.46,4.46 -9.84,6.69 -16.15,6.69 -6.3,0 -11.69,-2.23 -16.15,-6.69 -4.46,-4.46 -6.69,-9.84 -6.69,-16.15 0,-6.3 2.23,-11.69 6.69,-16.15 4.46,-4.46 9.85,-6.69 16.15,-6.69zm0.01 -114.69c7.21,0 13.36,2.55 18.46,7.65 5.1,5.09 7.64,11.25 7.64,18.45 0,7.21 -2.54,13.36 -7.64,18.46 -5.1,5.1 -11.25,7.65 -18.46,7.65 -7.21,0 -13.36,-2.55 -18.46,-7.65 -5.09,-5.1 -7.64,-11.25 -7.64,-18.46 0,-7.2 2.55,-13.36 7.64,-18.45 5.1,-5.1 11.25,-7.65 18.46,-7.65zm0 -54.81c16.84,0 30.4,-13.57 30.4,-30.4 0,-16.84 -13.57,-30.4 -30.4,-30.4 -16.84,0 -30.4,13.57 -30.4,30.4 0,16.84 13.57,30.4 30.4,30.4l0 0zm0 -167.8c7.21,0 13.36,2.54 18.46,7.64 5.1,5.1 7.64,11.25 7.64,18.46 0,7.21 -2.54,13.36 -7.64,18.46 -5.1,5.09 -11.25,7.64 -18.46,7.64 -7.21,0 -13.36,-2.55 -18.46,-7.64 -5.09,-5.1 -7.64,-11.25 -7.64,-18.46 0,-7.21 2.55,-13.36 7.64,-18.46 5.1,-5.1 11.25,-7.64 18.46,-7.64zm-0.01 -108.05c6.31,0 11.69,2.23 16.15,6.69 4.46,4.46 6.69,9.85 6.69,16.15 0,6.31 -2.23,11.69 -6.69,16.15 -4.46,4.46 -9.84,6.69 -16.15,6.69 -6.3,0 -11.69,-2.23 -16.15,-6.69 -4.46,-4.46 -6.69,-9.84 -6.69,-16.15 0,-6.3 2.23,-11.69 6.69,-16.15 4.46,-4.46 9.85,-6.69 16.15,-6.69zm0.01 -108.17c5.41,0 10.02,1.91 13.85,5.73 3.82,3.83 5.73,8.44 5.73,13.85 0,5.4 -1.91,10.02 -5.73,13.84 -3.83,3.82 -8.44,5.74 -13.85,5.74 -5.4,0 -10.02,-1.92 -13.84,-5.74 -3.82,-3.82 -5.73,-8.44 -5.73,-13.84 0,-5.41 1.91,-10.02 5.73,-13.85 3.82,-3.82 8.44,-5.73 13.84,-5.73zm0 -108.03c4.5,0 8.35,1.59 11.53,4.78 3.19,3.18 4.78,7.03 4.78,11.53 0,4.51 -1.59,8.35 -4.78,11.54 -3.18,3.18 -7.03,4.78 -11.53,4.78 -4.51,0 -8.36,-1.6 -11.54,-4.78 -3.19,-3.19 -4.78,-7.03 -4.78,-11.54 0,-4.5 1.59,-8.35 4.78,-11.53 3.18,-3.19 7.03,-4.78 11.54,-4.78zm-898.66 1005.38c3.61,0 6.68,1.27 9.23,3.82 2.55,2.55 3.82,5.62 3.82,9.23 0,3.6 -1.27,6.68 -3.82,9.23 -2.55,2.55 -5.62,3.82 -9.23,3.82 -3.6,0 -6.68,-1.27 -9.23,-3.82 -2.55,-2.55 -3.82,-5.63 -3.82,-9.23 0,-3.61 1.27,-6.68 3.82,-9.23 2.55,-2.55 5.63,-3.82 9.23,-3.82zm0 -1113.44c3.61,0 6.68,1.28 9.23,3.83 2.55,2.55 3.82,5.62 3.82,9.23 0,3.6 -1.27,6.68 -3.82,9.22 -2.55,2.55 -5.62,3.83 -9.23,3.83 -3.6,0 -6.68,-1.28 -9.23,-3.83 -2.55,-2.54 -3.82,-5.62 -3.82,-9.22 0,-3.61 1.27,-6.68 3.82,-9.23 2.55,-2.55 5.63,-3.83 9.23,-3.83zm-418.98 569.71c0,-16.84 -13.57,-30.4 -30.4,-30.4 -16.84,0 -30.4,13.57 -30.4,30.4 0,16.84 13.57,30.4 30.4,30.4 16.84,0 30.4,-13.57 30.4,-30.4l0 0zm194.31 199.9c6.3,0 11.69,2.23 16.15,6.69 4.46,4.46 6.69,9.85 6.69,16.15 0,6.31 -2.23,11.69 -6.69,16.15 -4.46,4.46 -9.85,6.69 -16.15,6.69 -6.31,0 -11.7,-2.23 -16.16,-6.69 -4.46,-4.46 -6.69,-9.84 -6.69,-16.15 0,-6.3 2.23,-11.69 6.69,-16.15 4.46,-4.46 9.85,-6.69 16.16,-6.69zm-0.01 -114.69c7.2,0 13.36,2.55 18.45,7.65 5.1,5.09 7.65,11.25 7.65,18.45 0,7.21 -2.55,13.36 -7.65,18.46 -5.09,5.1 -11.25,7.65 -18.45,7.65 -7.21,0 -13.37,-2.55 -18.46,-7.65 -5.1,-5.1 -7.65,-11.25 -7.65,-18.46 0,-7.2 2.55,-13.36 7.65,-18.45 5.09,-5.1 11.25,-7.65 18.46,-7.65zm-0.01 -115.61c-16.84,0 -30.4,13.57 -30.4,30.4 0,16.84 13.57,30.4 30.4,30.4 16.84,0 30.4,-13.57 30.4,-30.4 0,-16.84 -13.57,-30.4 -30.4,-30.4zm0.01 -106.99c7.2,0 13.36,2.54 18.45,7.64 5.1,5.1 7.65,11.25 7.65,18.46 0,7.21 -2.55,13.36 -7.65,18.46 -5.09,5.09 -11.25,7.64 -18.45,7.64 -7.21,0 -13.37,-2.55 -18.46,-7.64 -5.1,-5.1 -7.65,-11.25 -7.65,-18.46 0,-7.21 2.55,-13.36 7.65,-18.46 5.09,-5.1 11.25,-7.64 18.46,-7.64zm0.01 -108.05c6.3,0 11.69,2.23 16.15,6.69 4.46,4.46 6.69,9.85 6.69,16.15 0,6.31 -2.23,11.69 -6.69,16.15 -4.46,4.46 -9.85,6.69 -16.15,6.69 -6.31,0 -11.7,-2.23 -16.16,-6.69 -4.46,-4.46 -6.69,-9.84 -6.69,-16.15 0,-6.3 2.23,-11.69 6.69,-16.15 4.46,-4.46 9.85,-6.69 16.16,-6.69zm-561.62 445.35c6.31,0 11.69,2.23 16.15,6.69 4.46,4.46 6.69,9.85 6.69,16.15 0,6.31 -2.23,11.69 -6.69,16.15 -4.46,4.46 -9.84,6.69 -16.15,6.69 -6.31,0 -11.69,-2.23 -16.15,-6.69 -4.46,-4.46 -6.69,-9.84 -6.69,-16.15 0,-6.3 2.23,-11.69 6.69,-16.15 4.46,-4.46 9.84,-6.69 16.15,-6.69zm0.01 -114.69c7.2,0 13.36,2.55 18.45,7.65 5.1,5.09 7.65,11.25 7.65,18.45 0,7.21 -2.55,13.36 -7.65,18.46 -5.09,5.1 -11.25,7.65 -18.45,7.65 -7.21,0 -13.37,-2.55 -18.46,-7.65 -5.1,-5.1 -7.65,-11.25 -7.65,-18.46 0,-7.2 2.55,-13.36 7.65,-18.45 5.09,-5.1 11.25,-7.65 18.46,-7.65zm-0.01 -115.61c-16.83,0 -30.4,13.57 -30.4,30.4 0,16.84 13.58,30.4 30.4,30.4 16.84,0 30.4,-13.57 30.4,-30.4 0,-16.84 -13.57,-30.4 -30.4,-30.4zm0.01 -106.99c7.2,0 13.36,2.54 18.45,7.64 5.1,5.1 7.65,11.25 7.65,18.46 0,7.21 -2.55,13.36 -7.65,18.46 -5.09,5.09 -11.25,7.64 -18.45,7.64 -7.21,0 -13.37,-2.55 -18.46,-7.64 -5.1,-5.1 -7.65,-11.25 -7.65,-18.46 0,-7.21 2.55,-13.36 7.65,-18.46 5.09,-5.1 11.25,-7.64 18.46,-7.64zm-0.01 -108.05c6.31,0 11.69,2.23 16.15,6.69 4.46,4.46 6.69,9.85 6.69,16.15 0,6.31 -2.23,11.69 -6.69,16.15 -4.46,4.46 -9.84,6.69 -16.15,6.69 -6.31,0 -11.69,-2.23 -16.15,-6.69 -4.46,-4.46 -6.69,-9.84 -6.69,-16.15 0,-6.3 2.23,-11.69 6.69,-16.15 4.46,-4.46 9.84,-6.69 16.15,-6.69zm898.65 330.66c7.21,0 13.36,2.55 18.46,7.65 5.1,5.09 7.65,11.25 7.65,18.45 0,7.21 -2.55,13.36 -7.65,18.46 -5.1,5.1 -11.25,7.65 -18.46,7.65 -7.21,0 -13.36,-2.55 -18.46,-7.65 -5.09,-5.1 -7.64,-11.25 -7.64,-18.46 0,-7.2 2.55,-13.36 7.64,-18.45 5.1,-5.1 11.25,-7.65 18.46,-7.65zm0 -54.81c16.83,0 30.4,-13.57 30.4,-30.4 0,-16.84 -13.58,-30.4 -30.4,-30.4 -16.84,0 -30.4,13.57 -30.4,30.4 0,16.84 13.57,30.4 30.4,30.4l0 0zm0 -167.8c7.21,0 13.36,2.54 18.46,7.64 5.1,5.1 7.65,11.25 7.65,18.46 0,7.21 -2.55,13.36 -7.65,18.46 -5.1,5.09 -11.25,7.64 -18.46,7.64 -7.21,0 -13.36,-2.55 -18.46,-7.64 -5.09,-5.1 -7.64,-11.25 -7.64,-18.46 0,-7.21 2.55,-13.36 7.64,-18.46 5.1,-5.1 11.25,-7.64 18.46,-7.64zm-449.4 222.6c7.2,0 13.36,2.55 18.45,7.65 5.1,5.09 7.65,11.25 7.65,18.45 0,7.21 -2.55,13.36 -7.65,18.46 -5.09,5.1 -11.25,7.65 -18.45,7.65 -7.21,0 -13.36,-2.55 -18.46,-7.65 -5.1,-5.1 -7.65,-11.25 -7.65,-18.46 0,-7.2 2.55,-13.36 7.65,-18.45 5.1,-5.1 11.25,-7.65 18.46,-7.65zm0.01 -54.81c16.83,0 30.4,-13.57 30.4,-30.4 0,-16.84 -13.58,-30.4 -30.4,-30.4 -16.84,0 -30.41,13.57 -30.41,30.4 0,16.84 13.58,30.4 30.41,30.4l0 0zm-0.01 -167.8c7.2,0 13.36,2.54 18.45,7.64 5.1,5.1 7.65,11.25 7.65,18.46 0,7.21 -2.55,13.36 -7.65,18.46 -5.09,5.09 -11.25,7.64 -18.45,7.64 -7.21,0 -13.36,-2.55 -18.46,-7.64 -5.1,-5.1 -7.65,-11.25 -7.65,-18.46 0,-7.21 2.55,-13.36 7.65,-18.46 5.1,-5.1 11.25,-7.64 18.46,-7.64zm-336.91 222.6c7.21,0 13.36,2.55 18.45,7.65 5.1,5.09 7.65,11.25 7.65,18.45 0,7.21 -2.55,13.36 -7.65,18.46 -5.09,5.1 -11.24,7.65 -18.45,7.65 -7.21,0 -13.36,-2.55 -18.46,-7.65 -5.1,-5.1 -7.65,-11.25 -7.65,-18.46 0,-7.2 2.55,-13.36 7.65,-18.45 5.1,-5.1 11.25,-7.65 18.46,-7.65zm0 -54.81c16.84,0 30.4,-13.57 30.4,-30.4 0,-16.84 -13.57,-30.4 -30.4,-30.4 -16.84,0 -30.4,13.57 -30.4,30.4 0,16.84 13.57,30.4 30.4,30.4l0 0zm0 -167.8c7.21,0 13.36,2.54 18.45,7.64 5.1,5.1 7.65,11.25 7.65,18.46 0,7.21 -2.55,13.36 -7.65,18.46 -5.09,5.09 -11.24,7.64 -18.45,7.64 -7.21,0 -13.36,-2.55 -18.46,-7.64 -5.1,-5.1 -7.65,-11.25 -7.65,-18.46 0,-7.21 2.55,-13.36 7.65,-18.46 5.1,-5.1 11.25,-7.64 18.46,-7.64zm-224.68 222.6c7.2,0 13.36,2.55 18.45,7.65 5.1,5.09 7.65,11.25 7.65,18.45 0,7.21 -2.55,13.36 -7.65,18.46 -5.09,5.1 -11.25,7.65 -18.45,7.65 -7.21,0 -13.36,-2.55 -18.46,-7.65 -5.1,-5.1 -7.65,-11.25 -7.65,-18.46 0,-7.2 2.55,-13.36 7.65,-18.45 5.1,-5.1 11.25,-7.65 18.46,-7.65zm-0.01 -115.61c-16.84,0 -30.4,13.57 -30.4,30.4 0,16.84 13.57,30.4 30.4,30.4 16.84,0 30.4,-13.57 30.4,-30.4 0,-16.84 -13.57,-30.4 -30.4,-30.4zm0.01 -106.99c7.2,0 13.36,2.54 18.45,7.64 5.1,5.1 7.65,11.25 7.65,18.46 0,7.21 -2.55,13.36 -7.65,18.46 -5.09,5.09 -11.25,7.64 -18.45,7.64 -7.21,0 -13.36,-2.55 -18.46,-7.64 -5.1,-5.1 -7.65,-11.25 -7.65,-18.46 0,-7.21 2.55,-13.36 7.65,-18.46 5.1,-5.1 11.25,-7.64 18.46,-7.64zm1235.7 566.44c4.5,0 8.35,1.59 11.53,4.77 3.19,3.19 4.78,7.04 4.78,11.54 0,4.51 -1.59,8.35 -4.78,11.54 -3.18,3.18 -7.03,4.78 -11.53,4.78 -4.51,0 -8.36,-1.6 -11.54,-4.78 -3.19,-3.19 -4.78,-7.03 -4.78,-11.54 0,-4.5 1.59,-8.35 4.78,-11.54 3.18,-3.18 7.03,-4.77 11.54,-4.77zm224.68 -114.58c5.41,0 10.02,1.92 13.85,5.74 3.82,3.82 5.73,8.44 5.73,13.84 0,5.41 -1.91,10.02 -5.73,13.85 -3.83,3.82 -8.44,5.73 -13.85,5.73 -5.4,0 -10.02,-1.91 -13.84,-5.73 -3.82,-3.83 -5.73,-8.44 -5.73,-13.85 0,-5.4 1.91,-10.02 5.73,-13.84 3.82,-3.82 8.44,-5.74 13.84,-5.74zm224.55 -114.56c6.31,0 11.69,2.23 16.15,6.69 4.46,4.46 6.69,9.85 6.69,16.15 0,6.31 -2.23,11.69 -6.69,16.15 -4.46,4.46 -9.84,6.69 -16.15,6.69 -6.3,0 -11.69,-2.23 -16.15,-6.69 -4.46,-4.46 -6.69,-9.84 -6.69,-16.15 0,-6.3 2.23,-11.69 6.69,-16.15 4.46,-4.46 9.85,-6.69 16.15,-6.69zm0.01 -114.69c7.21,0 13.36,2.55 18.46,7.65 5.1,5.09 7.64,11.25 7.64,18.45 0,7.21 -2.54,13.36 -7.64,18.46 -5.1,5.1 -11.25,7.65 -18.46,7.65 -7.21,0 -13.36,-2.55 -18.46,-7.65 -5.09,-5.1 -7.64,-11.25 -7.64,-18.46 0,-7.2 2.55,-13.36 7.64,-18.45 5.1,-5.1 11.25,-7.65 18.46,-7.65zm0 -54.81c16.84,0 30.4,-13.57 30.4,-30.4 0,-16.84 -13.57,-30.4 -30.4,-30.4 -16.84,0 -30.4,13.57 -30.4,30.4 0,16.84 13.57,30.4 30.4,30.4l0 0zm0 -167.8c7.21,0 13.36,2.54 18.46,7.64 5.1,5.1 7.64,11.25 7.64,18.46 0,7.21 -2.54,13.36 -7.64,18.46 -5.1,5.09 -11.25,7.64 -18.46,7.64 -7.21,0 -13.36,-2.55 -18.46,-7.64 -5.09,-5.1 -7.64,-11.25 -7.64,-18.46 0,-7.21 2.55,-13.36 7.64,-18.46 5.1,-5.1 11.25,-7.64 18.46,-7.64zm-0.01 -108.05c6.31,0 11.69,2.23 16.15,6.69 4.46,4.46 6.69,9.85 6.69,16.15 0,6.31 -2.23,11.69 -6.69,16.15 -4.46,4.46 -9.84,6.69 -16.15,6.69 -6.3,0 -11.69,-2.23 -16.15,-6.69 -4.46,-4.46 -6.69,-9.84 -6.69,-16.15 0,-6.3 2.23,-11.69 6.69,-16.15 4.46,-4.46 9.85,-6.69 16.15,-6.69zm-112.34 330.66c7.21,0 13.36,2.55 18.46,7.65 5.1,5.09 7.65,11.25 7.65,18.45 0,7.21 -2.55,13.36 -7.65,18.46 -5.1,5.1 -11.25,7.65 -18.46,7.65 -7.21,0 -13.36,-2.55 -18.46,-7.65 -5.09,-5.1 -7.64,-11.25 -7.64,-18.46 0,-7.2 2.55,-13.36 7.64,-18.45 5.1,-5.1 11.25,-7.65 18.46,-7.65zm0.01 -115.61c-16.83,0 -30.4,13.57 -30.4,30.4 0,16.84 13.58,30.4 30.4,30.4 16.84,0 30.4,-13.57 30.4,-30.4 0,-16.84 -13.57,-30.4 -30.4,-30.4zm-0.01 -106.99c7.21,0 13.36,2.54 18.46,7.64 5.1,5.1 7.65,11.25 7.65,18.46 0,7.21 -2.55,13.36 -7.65,18.46 -5.1,5.09 -11.25,7.64 -18.46,7.64 -7.21,0 -13.36,-2.55 -18.46,-7.64 -5.09,-5.1 -7.64,-11.25 -7.64,-18.46 0,-7.21 2.55,-13.36 7.64,-18.46 5.1,-5.1 11.25,-7.64 18.46,-7.64zm-112.22 337.29c6.31,0 11.69,2.23 16.15,6.69 4.46,4.46 6.69,9.85 6.69,16.15 0,6.31 -2.23,11.69 -6.69,16.15 -4.46,4.46 -9.84,6.69 -16.15,6.69 -6.3,0 -11.69,-2.23 -16.15,-6.69 -4.46,-4.46 -6.69,-9.84 -6.69,-16.15 0,-6.3 2.23,-11.69 6.69,-16.15 4.46,-4.46 9.85,-6.69 16.15,-6.69zm0.01 -114.69c7.21,0 13.36,2.55 18.46,7.65 5.1,5.09 7.64,11.25 7.64,18.45 0,7.21 -2.54,13.36 -7.64,18.46 -5.1,5.1 -11.25,7.65 -18.46,7.65 -7.21,0 -13.36,-2.55 -18.46,-7.65 -5.09,-5.1 -7.64,-11.25 -7.64,-18.46 0,-7.2 2.55,-13.36 7.64,-18.45 5.1,-5.1 11.25,-7.65 18.46,-7.65zm0 -54.81c16.83,0 30.4,-13.57 30.4,-30.4 0,-16.84 -13.58,-30.4 -30.4,-30.4 -16.84,0 -30.4,13.57 -30.4,30.4 0,16.84 13.57,30.4 30.4,30.4l0 0zm0 -167.8c7.21,0 13.36,2.54 18.46,7.64 5.1,5.1 7.64,11.25 7.64,18.46 0,7.21 -2.54,13.36 -7.64,18.46 -5.1,5.09 -11.25,7.64 -18.46,7.64 -7.21,0 -13.36,-2.55 -18.46,-7.64 -5.09,-5.1 -7.64,-11.25 -7.64,-18.46 0,-7.21 2.55,-13.36 7.64,-18.46 5.1,-5.1 11.25,-7.64 18.46,-7.64zm-0.01 -108.05c6.31,0 11.69,2.23 16.15,6.69 4.46,4.46 6.69,9.85 6.69,16.15 0,6.31 -2.23,11.69 -6.69,16.15 -4.46,4.46 -9.84,6.69 -16.15,6.69 -6.3,0 -11.69,-2.23 -16.15,-6.69 -4.46,-4.46 -6.69,-9.84 -6.69,-16.15 0,-6.3 2.23,-11.69 6.69,-16.15 4.46,-4.46 9.85,-6.69 16.15,-6.69zm0.01 -108.17c5.41,0 10.02,1.91 13.85,5.73 3.82,3.83 5.73,8.44 5.73,13.85 0,5.4 -1.91,10.02 -5.73,13.84 -3.83,3.82 -8.44,5.74 -13.85,5.74 -5.4,0 -10.02,-1.92 -13.84,-5.74 -3.82,-3.82 -5.73,-8.44 -5.73,-13.84 0,-5.41 1.91,-10.02 5.73,-13.85 3.82,-3.82 8.44,-5.73 13.84,-5.73zm-112.34 553.52c6.31,0 11.69,2.23 16.15,6.69 4.46,4.46 6.69,9.85 6.69,16.15 0,6.31 -2.23,11.69 -6.69,16.15 -4.46,4.46 -9.84,6.69 -16.15,6.69 -6.31,0 -11.69,-2.23 -16.15,-6.69 -4.46,-4.46 -6.69,-9.84 -6.69,-16.15 0,-6.3 2.23,-11.69 6.69,-16.15 4.46,-4.46 9.84,-6.69 16.15,-6.69zm-0.01 -114.69c7.21,0 13.36,2.55 18.46,7.65 5.1,5.09 7.65,11.25 7.65,18.45 0,7.21 -2.55,13.36 -7.65,18.46 -5.1,5.1 -11.25,7.65 -18.46,7.65 -7.21,0 -13.36,-2.55 -18.46,-7.65 -5.09,-5.1 -7.64,-11.25 -7.64,-18.46 0,-7.2 2.55,-13.36 7.64,-18.45 5.1,-5.1 11.25,-7.65 18.46,-7.65zm0.01 -115.61c-16.84,0 -30.4,13.57 -30.4,30.4 0,16.84 13.57,30.4 30.4,30.4 16.84,0 30.4,-13.57 30.4,-30.4 0,-16.84 -13.57,-30.4 -30.4,-30.4zm-0.01 -106.99c7.21,0 13.36,2.54 18.46,7.64 5.1,5.1 7.65,11.25 7.65,18.46 0,7.21 -2.55,13.36 -7.65,18.46 -5.1,5.09 -11.25,7.64 -18.46,7.64 -7.21,0 -13.36,-2.55 -18.46,-7.64 -5.09,-5.1 -7.64,-11.25 -7.64,-18.46 0,-7.21 2.55,-13.36 7.64,-18.46 5.1,-5.1 11.25,-7.64 18.46,-7.64zm0.01 -108.05c6.31,0 11.69,2.23 16.15,6.69 4.46,4.46 6.69,9.85 6.69,16.15 0,6.31 -2.23,11.69 -6.69,16.15 -4.46,4.46 -9.84,6.69 -16.15,6.69 -6.31,0 -11.69,-2.23 -16.15,-6.69 -4.46,-4.46 -6.69,-9.84 -6.69,-16.15 0,-6.3 2.23,-11.69 6.69,-16.15 4.46,-4.46 9.84,-6.69 16.15,-6.69zm-112.35 559.91c5.4,0 10.02,1.92 13.84,5.74 3.82,3.82 5.73,8.44 5.73,13.84 0,5.41 -1.91,10.02 -5.73,13.85 -3.82,3.82 -8.44,5.73 -13.84,5.73 -5.41,0 -10.03,-1.91 -13.85,-5.73 -3.82,-3.83 -5.73,-8.44 -5.73,-13.85 0,-5.4 1.91,-10.02 5.73,-13.84 3.82,-3.82 8.44,-5.74 13.85,-5.74zm0 -114.56c6.31,0 11.69,2.23 16.15,6.69 4.46,4.46 6.69,9.85 6.69,16.15 0,6.31 -2.23,11.69 -6.69,16.15 -4.46,4.46 -9.84,6.69 -16.15,6.69 -6.3,0 -11.69,-2.23 -16.15,-6.69 -4.46,-4.46 -6.69,-9.84 -6.69,-16.15 0,-6.3 2.23,-11.69 6.69,-16.15 4.46,-4.46 9.85,-6.69 16.15,-6.69zm-0.01 -114.69c7.21,0 13.36,2.55 18.46,7.65 5.1,5.09 7.65,11.25 7.65,18.45 0,7.21 -2.55,13.36 -7.65,18.46 -5.1,5.1 -11.25,7.65 -18.46,7.65 -7.21,0 -13.36,-2.55 -18.46,-7.65 -5.09,-5.1 -7.64,-11.25 -7.64,-18.46 0,-7.2 2.55,-13.36 7.64,-18.45 5.1,-5.1 11.25,-7.65 18.46,-7.65zm0.01 -115.61c-16.84,0 -30.4,13.57 -30.4,30.4 0,16.84 13.57,30.4 30.4,30.4 16.83,0 30.4,-13.57 30.4,-30.4 0,-16.84 -13.58,-30.4 -30.4,-30.4zm-0.01 -106.99c7.21,0 13.36,2.54 18.46,7.64 5.1,5.1 7.65,11.25 7.65,18.46 0,7.21 -2.55,13.36 -7.65,18.46 -5.1,5.09 -11.25,7.64 -18.46,7.64 -7.21,0 -13.36,-2.55 -18.46,-7.64 -5.09,-5.1 -7.64,-11.25 -7.64,-18.46 0,-7.21 2.55,-13.36 7.64,-18.46 5.1,-5.1 11.25,-7.64 18.46,-7.64zm0.01 -108.05c6.31,0 11.69,2.23 16.15,6.69 4.46,4.46 6.69,9.85 6.69,16.15 0,6.31 -2.23,11.69 -6.69,16.15 -4.46,4.46 -9.84,6.69 -16.15,6.69 -6.3,0 -11.69,-2.23 -16.15,-6.69 -4.46,-4.46 -6.69,-9.84 -6.69,-16.15 0,-6.3 2.23,-11.69 6.69,-16.15 4.46,-4.46 9.85,-6.69 16.15,-6.69zm0 -108.17c5.4,0 10.02,1.91 13.84,5.73 3.82,3.83 5.73,8.44 5.73,13.85 0,5.4 -1.91,10.02 -5.73,13.84 -3.82,3.82 -8.44,5.74 -13.84,5.74 -5.41,0 -10.03,-1.92 -13.85,-5.74 -3.82,-3.82 -5.73,-8.44 -5.73,-13.84 0,-5.41 1.91,-10.02 5.73,-13.85 3.82,-3.82 8.44,-5.73 13.85,-5.73zm0.01 -108.03c4.5,0 8.35,1.59 11.53,4.78 3.19,3.18 4.78,7.03 4.78,11.53 0,4.51 -1.59,8.35 -4.78,11.54 -3.18,3.18 -7.03,4.78 -11.53,4.78 -4.51,0 -8.36,-1.6 -11.54,-4.78 -3.19,-3.19 -4.78,-7.03 -4.78,-11.54 0,-4.5 1.59,-8.35 4.78,-11.53 3.18,-3.19 7.03,-4.78 11.54,-4.78zm-112.36 776.11c5.4,0 10.02,1.92 13.84,5.74 3.82,3.82 5.73,8.44 5.73,13.84 0,5.41 -1.91,10.02 -5.73,13.85 -3.82,3.82 -8.44,5.73 -13.84,5.73 -5.41,0 -10.02,-1.91 -13.85,-5.73 -3.82,-3.83 -5.73,-8.44 -5.73,-13.85 0,-5.4 1.91,-10.02 5.73,-13.84 3.83,-3.82 8.44,-5.74 13.85,-5.74zm0 -114.56c6.31,0 11.69,2.23 16.15,6.69 4.46,4.46 6.69,9.85 6.69,16.15 0,6.31 -2.23,11.69 -6.69,16.15 -4.46,4.46 -9.84,6.69 -16.15,6.69 -6.3,0 -11.69,-2.23 -16.15,-6.69 -4.46,-4.46 -6.69,-9.84 -6.69,-16.15 0,-6.3 2.23,-11.69 6.69,-16.15 4.46,-4.46 9.85,-6.69 16.15,-6.69zm-0.01 -114.69c7.21,0 13.36,2.55 18.46,7.65 5.1,5.09 7.65,11.25 7.65,18.45 0,7.21 -2.55,13.36 -7.65,18.46 -5.1,5.1 -11.25,7.65 -18.46,7.65 -7.2,0 -13.36,-2.55 -18.45,-7.65 -5.1,-5.1 -7.65,-11.25 -7.65,-18.46 0,-7.2 2.55,-13.36 7.65,-18.45 5.09,-5.1 11.25,-7.65 18.45,-7.65zm0.02 -54.81c16.84,0 30.4,-13.57 30.4,-30.4 0,-16.84 -13.57,-30.4 -30.4,-30.4 -16.84,0 -30.4,13.57 -30.4,30.4 0,16.84 13.57,30.4 30.4,30.4l0 0zm-0.02 -167.8c7.21,0 13.36,2.54 18.46,7.64 5.1,5.1 7.65,11.25 7.65,18.46 0,7.21 -2.55,13.36 -7.65,18.46 -5.1,5.09 -11.25,7.64 -18.46,7.64 -7.2,0 -13.36,-2.55 -18.45,-7.64 -5.1,-5.1 -7.65,-11.25 -7.65,-18.46 0,-7.21 2.55,-13.36 7.65,-18.46 5.09,-5.1 11.25,-7.64 18.45,-7.64zm0.01 -108.05c6.31,0 11.69,2.23 16.15,6.69 4.46,4.46 6.69,9.85 6.69,16.15 0,6.31 -2.23,11.69 -6.69,16.15 -4.46,4.46 -9.84,6.69 -16.15,6.69 -6.3,0 -11.69,-2.23 -16.15,-6.69 -4.46,-4.46 -6.69,-9.84 -6.69,-16.15 0,-6.3 2.23,-11.69 6.69,-16.15 4.46,-4.46 9.85,-6.69 16.15,-6.69zm0 -108.17c5.4,0 10.02,1.91 13.84,5.73 3.82,3.83 5.73,8.44 5.73,13.85 0,5.4 -1.91,10.02 -5.73,13.84 -3.82,3.82 -8.44,5.74 -13.84,5.74 -5.41,0 -10.02,-1.92 -13.85,-5.74 -3.82,-3.82 -5.73,-8.44 -5.73,-13.84 0,-5.41 1.91,-10.02 5.73,-13.85 3.83,-3.82 8.44,-5.73 13.85,-5.73zm-224.69 782.66c4.5,0 8.35,1.59 11.53,4.77 3.19,3.19 4.78,7.04 4.78,11.54 0,4.51 -1.59,8.35 -4.78,11.54 -3.18,3.18 -7.03,4.78 -11.53,4.78 -4.51,0 -8.35,-1.6 -11.54,-4.78 -3.18,-3.19 -4.78,-7.03 -4.78,-11.54 0,-4.5 1.6,-8.35 4.78,-11.54 3.19,-3.18 7.03,-4.77 11.54,-4.77zm0.01 -114.58c5.4,0 10.02,1.92 13.84,5.74 3.82,3.82 5.73,8.44 5.73,13.84 0,5.41 -1.91,10.02 -5.73,13.85 -3.82,3.82 -8.44,5.73 -13.84,5.73 -5.41,0 -10.03,-1.91 -13.85,-5.73 -3.82,-3.83 -5.73,-8.44 -5.73,-13.85 0,-5.4 1.91,-10.02 5.73,-13.84 3.82,-3.82 8.44,-5.74 13.85,-5.74zm-0.01 -114.56c6.3,0 11.69,2.23 16.15,6.69 4.46,4.46 6.69,9.85 6.69,16.15 0,6.31 -2.23,11.69 -6.69,16.15 -4.46,4.46 -9.85,6.69 -16.15,6.69 -6.31,0 -11.7,-2.23 -16.15,-6.69 -4.46,-4.46 -6.69,-9.84 -6.69,-16.15 0,-6.3 2.23,-11.69 6.69,-16.15 4.45,-4.46 9.84,-6.69 16.15,-6.69zm0 -114.69c7.21,0 13.36,2.55 18.46,7.65 5.1,5.09 7.65,11.25 7.65,18.45 0,7.21 -2.55,13.36 -7.65,18.46 -5.1,5.1 -11.25,7.65 -18.46,7.65 -7.21,0 -13.36,-2.55 -18.45,-7.65 -5.1,-5.1 -7.65,-11.25 -7.65,-18.46 0,-7.2 2.55,-13.36 7.65,-18.45 5.09,-5.1 11.24,-7.65 18.45,-7.65zm-0.01 -115.61c-16.83,0 -30.4,13.57 -30.4,30.4 0,16.84 13.58,30.4 30.4,30.4 16.84,0 30.4,-13.57 30.4,-30.4 0,-16.84 -13.57,-30.4 -30.4,-30.4zm0.01 -106.99c7.21,0 13.36,2.54 18.46,7.64 5.1,5.1 7.65,11.25 7.65,18.46 0,7.21 -2.55,13.36 -7.65,18.46 -5.1,5.09 -11.25,7.64 -18.46,7.64 -7.21,0 -13.36,-2.55 -18.45,-7.64 -5.1,-5.1 -7.65,-11.25 -7.65,-18.46 0,-7.21 2.55,-13.36 7.65,-18.46 5.09,-5.1 11.24,-7.64 18.45,-7.64zm0 -108.05c6.3,0 11.69,2.23 16.15,6.69 4.46,4.46 6.69,9.85 6.69,16.15 0,6.31 -2.23,11.69 -6.69,16.15 -4.46,4.46 -9.85,6.69 -16.15,6.69 -6.31,0 -11.7,-2.23 -16.15,-6.69 -4.46,-4.46 -6.69,-9.84 -6.69,-16.15 0,-6.3 2.23,-11.69 6.69,-16.15 4.45,-4.46 9.84,-6.69 16.15,-6.69zm0.01 -108.17c5.4,0 10.02,1.91 13.84,5.73 3.82,3.83 5.73,8.44 5.73,13.85 0,5.4 -1.91,10.02 -5.73,13.84 -3.82,3.82 -8.44,5.74 -13.84,5.74 -5.41,0 -10.03,-1.92 -13.85,-5.74 -3.82,-3.82 -5.73,-8.44 -5.73,-13.84 0,-5.41 1.91,-10.02 5.73,-13.85 3.82,-3.82 8.44,-5.73 13.85,-5.73zm-0.01 -108.03c4.5,0 8.35,1.59 11.53,4.78 3.19,3.18 4.78,7.03 4.78,11.53 0,4.51 -1.59,8.35 -4.78,11.54 -3.18,3.18 -7.03,4.78 -11.53,4.78 -4.51,0 -8.35,-1.6 -11.54,-4.78 -3.18,-3.19 -4.78,-7.03 -4.78,-11.54 0,-4.5 1.6,-8.35 4.78,-11.53 3.19,-3.19 7.03,-4.78 11.54,-4.78zm-112.35 890.69c4.5,0 8.35,1.59 11.54,4.77 3.18,3.19 4.77,7.04 4.77,11.54 0,4.51 -1.59,8.35 -4.77,11.54 -3.19,3.18 -7.04,4.78 -11.54,4.78 -4.51,0 -8.35,-1.6 -11.54,-4.78 -3.18,-3.19 -4.78,-7.03 -4.78,-11.54 0,-4.5 1.6,-8.35 4.78,-11.54 3.19,-3.18 7.03,-4.77 11.54,-4.77zm0.01 -114.58c5.4,0 10.02,1.92 13.84,5.74 3.82,3.82 5.73,8.44 5.73,13.84 0,5.41 -1.91,10.02 -5.73,13.85 -3.82,3.82 -8.44,5.73 -13.84,5.73 -5.41,0 -10.02,-1.91 -13.85,-5.73 -3.82,-3.83 -5.73,-8.44 -5.73,-13.85 0,-5.4 1.91,-10.02 5.73,-13.84 3.83,-3.82 8.44,-5.74 13.85,-5.74zm-0.01 -114.56c6.3,0 11.69,2.23 16.15,6.69 4.46,4.46 6.69,9.85 6.69,16.15 0,6.31 -2.23,11.69 -6.69,16.15 -4.46,4.46 -9.85,6.69 -16.15,6.69 -6.31,0 -11.69,-2.23 -16.15,-6.69 -4.46,-4.46 -6.69,-9.84 -6.69,-16.15 0,-6.3 2.23,-11.69 6.69,-16.15 4.46,-4.46 9.84,-6.69 16.15,-6.69zm0 -114.69c7.21,0 13.37,2.55 18.46,7.65 5.1,5.09 7.65,11.25 7.65,18.45 0,7.21 -2.55,13.36 -7.65,18.46 -5.09,5.1 -11.25,7.65 -18.46,7.65 -7.2,0 -13.36,-2.55 -18.45,-7.65 -5.1,-5.1 -7.65,-11.25 -7.65,-18.46 0,-7.2 2.55,-13.36 7.65,-18.45 5.09,-5.1 11.25,-7.65 18.45,-7.65zm0.01 -115.61c-16.84,0 -30.41,13.57 -30.41,30.4 0,16.84 13.58,30.4 30.41,30.4 16.83,0 30.4,-13.57 30.4,-30.4 0,-16.84 -13.58,-30.4 -30.4,-30.4zm-0.01 -106.99c7.21,0 13.37,2.54 18.46,7.64 5.1,5.1 7.65,11.25 7.65,18.46 0,7.21 -2.55,13.36 -7.65,18.46 -5.09,5.09 -11.25,7.64 -18.46,7.64 -7.2,0 -13.36,-2.55 -18.45,-7.64 -5.1,-5.1 -7.65,-11.25 -7.65,-18.46 0,-7.21 2.55,-13.36 7.65,-18.46 5.09,-5.1 11.25,-7.64 18.45,-7.64zm0 -108.05c6.3,0 11.69,2.23 16.15,6.69 4.46,4.46 6.69,9.85 6.69,16.15 0,6.31 -2.23,11.69 -6.69,16.15 -4.46,4.46 -9.85,6.69 -16.15,6.69 -6.31,0 -11.69,-2.23 -16.15,-6.69 -4.46,-4.46 -6.69,-9.84 -6.69,-16.15 0,-6.3 2.23,-11.69 6.69,-16.15 4.46,-4.46 9.84,-6.69 16.15,-6.69zm0.01 -108.17c5.4,0 10.02,1.91 13.84,5.73 3.82,3.83 5.73,8.44 5.73,13.85 0,5.4 -1.91,10.02 -5.73,13.84 -3.82,3.82 -8.44,5.74 -13.84,5.74 -5.41,0 -10.02,-1.92 -13.85,-5.74 -3.82,-3.82 -5.73,-8.44 -5.73,-13.84 0,-5.41 1.91,-10.02 5.73,-13.85 3.83,-3.82 8.44,-5.73 13.85,-5.73zm-0.01 -108.03c4.5,0 8.35,1.59 11.54,4.78 3.18,3.18 4.77,7.03 4.77,11.53 0,4.51 -1.59,8.35 -4.77,11.54 -3.19,3.18 -7.04,4.78 -11.54,4.78 -4.51,0 -8.35,-1.6 -11.54,-4.78 -3.18,-3.19 -4.78,-7.03 -4.78,-11.54 0,-4.5 1.6,-8.35 4.78,-11.53 3.19,-3.19 7.03,-4.78 11.54,-4.78zm-898.65 890.69c4.51,0 8.35,1.59 11.54,4.77 3.18,3.19 4.78,7.04 4.78,11.54 0,4.51 -1.6,8.35 -4.78,11.54 -3.19,3.18 -7.03,4.78 -11.54,4.78 -4.5,0 -8.35,-1.6 -11.53,-4.78 -3.19,-3.19 -4.78,-7.03 -4.78,-11.54 0,-4.5 1.59,-8.35 4.78,-11.54 3.18,-3.18 7.03,-4.77 11.53,-4.77zm449.26 -114.58c5.41,0 10.02,1.92 13.84,5.74 3.83,3.82 5.74,8.44 5.74,13.84 0,5.41 -1.91,10.02 -5.74,13.85 -3.82,3.82 -8.43,5.73 -13.84,5.73 -5.41,0 -10.02,-1.91 -13.84,-5.73 -3.83,-3.83 -5.74,-8.44 -5.74,-13.85 0,-5.4 1.91,-10.02 5.74,-13.84 3.82,-3.82 8.43,-5.74 13.84,-5.74zm0.01 -114.56c6.31,0 11.69,2.23 16.15,6.69 4.46,4.46 6.69,9.85 6.69,16.15 0,6.31 -2.23,11.69 -6.69,16.15 -4.46,4.46 -9.84,6.69 -16.15,6.69 -6.31,0 -11.69,-2.23 -16.15,-6.69 -4.46,-4.46 -6.69,-9.84 -6.69,-16.15 0,-6.3 2.23,-11.69 6.69,-16.15 4.46,-4.46 9.84,-6.69 16.15,-6.69zm0.01 -114.69c7.2,0 13.36,2.55 18.45,7.65 5.1,5.09 7.65,11.25 7.65,18.45 0,7.21 -2.55,13.36 -7.65,18.46 -5.09,5.1 -11.25,7.65 -18.45,7.65 -7.21,0 -13.37,-2.55 -18.46,-7.65 -5.1,-5.1 -7.65,-11.25 -7.65,-18.46 0,-7.2 2.55,-13.36 7.65,-18.45 5.09,-5.1 11.25,-7.65 18.46,-7.65zm-0.01 -115.61c-16.83,0 -30.4,13.57 -30.4,30.4 0,16.84 13.58,30.4 30.4,30.4 16.84,0 30.41,-13.57 30.41,-30.4 0,-16.84 -13.58,-30.4 -30.41,-30.4zm0.01 -106.99c7.2,0 13.36,2.54 18.45,7.64 5.1,5.1 7.65,11.25 7.65,18.46 0,7.21 -2.55,13.36 -7.65,18.46 -5.09,5.09 -11.25,7.64 -18.45,7.64 -7.21,0 -13.37,-2.55 -18.46,-7.64 -5.1,-5.1 -7.65,-11.25 -7.65,-18.46 0,-7.21 2.55,-13.36 7.65,-18.46 5.09,-5.1 11.25,-7.64 18.46,-7.64zm-0.01 -108.05c6.31,0 11.69,2.23 16.15,6.69 4.46,4.46 6.69,9.85 6.69,16.15 0,6.31 -2.23,11.69 -6.69,16.15 -4.46,4.46 -9.84,6.69 -16.15,6.69 -6.31,0 -11.69,-2.23 -16.15,-6.69 -4.46,-4.46 -6.69,-9.84 -6.69,-16.15 0,-6.3 2.23,-11.69 6.69,-16.15 4.46,-4.46 9.84,-6.69 16.15,-6.69zm-0.01 -108.17c5.41,0 10.02,1.91 13.84,5.73 3.83,3.83 5.74,8.44 5.74,13.85 0,5.4 -1.91,10.02 -5.74,13.84 -3.82,3.82 -8.43,5.74 -13.84,5.74 -5.41,0 -10.02,-1.92 -13.84,-5.74 -3.83,-3.82 -5.74,-8.44 -5.74,-13.84 0,-5.41 1.91,-10.02 5.74,-13.85 3.82,-3.82 8.43,-5.73 13.84,-5.73zm-449.25 668.08c5.41,0 10.02,1.92 13.84,5.74 3.83,3.82 5.74,8.44 5.74,13.84 0,5.41 -1.91,10.02 -5.74,13.85 -3.82,3.82 -8.43,5.73 -13.84,5.73 -5.41,0 -10.02,-1.91 -13.84,-5.73 -3.83,-3.83 -5.74,-8.44 -5.74,-13.85 0,-5.4 1.91,-10.02 5.74,-13.84 3.82,-3.82 8.43,-5.74 13.84,-5.74zm-0.01 -114.56c6.31,0 11.69,2.23 16.15,6.69 4.46,4.46 6.69,9.85 6.69,16.15 0,6.31 -2.23,11.69 -6.69,16.15 -4.46,4.46 -9.84,6.69 -16.15,6.69 -6.31,0 -11.69,-2.23 -16.15,-6.69 -4.46,-4.46 -6.69,-9.84 -6.69,-16.15 0,-6.3 2.23,-11.69 6.69,-16.15 4.46,-4.46 9.84,-6.69 16.15,-6.69zm0.01 -114.69c7.21,0 13.36,2.55 18.46,7.65 5.09,5.09 7.64,11.25 7.64,18.45 0,7.21 -2.55,13.36 -7.64,18.46 -5.1,5.1 -11.25,7.65 -18.46,7.65 -7.21,0 -13.36,-2.55 -18.46,-7.65 -5.1,-5.1 -7.65,-11.25 -7.65,-18.46 0,-7.2 2.55,-13.36 7.65,-18.45 5.1,-5.1 11.25,-7.65 18.46,-7.65zm0 -115.61c-16.83,0 -30.4,13.57 -30.4,30.4 0,16.84 13.58,30.4 30.4,30.4 16.84,0 30.4,-13.57 30.4,-30.4 0,-16.84 -13.57,-30.4 -30.4,-30.4zm0 -106.99c7.21,0 13.36,2.54 18.46,7.64 5.09,5.1 7.64,11.25 7.64,18.46 0,7.21 -2.55,13.36 -7.64,18.46 -5.1,5.09 -11.25,7.64 -18.46,7.64 -7.21,0 -13.36,-2.55 -18.46,-7.64 -5.1,-5.1 -7.65,-11.25 -7.65,-18.46 0,-7.21 2.55,-13.36 7.65,-18.46 5.1,-5.1 11.25,-7.64 18.46,-7.64zm-0.01 -108.05c6.31,0 11.69,2.23 16.15,6.69 4.46,4.46 6.69,9.85 6.69,16.15 0,6.31 -2.23,11.69 -6.69,16.15 -4.46,4.46 -9.84,6.69 -16.15,6.69 -6.31,0 -11.69,-2.23 -16.15,-6.69 -4.46,-4.46 -6.69,-9.84 -6.69,-16.15 0,-6.3 2.23,-11.69 6.69,-16.15 4.46,-4.46 9.84,-6.69 16.15,-6.69zm0.01 -108.17c5.41,0 10.02,1.91 13.84,5.73 3.83,3.83 5.74,8.44 5.74,13.85 0,5.4 -1.91,10.02 -5.74,13.84 -3.82,3.82 -8.43,5.74 -13.84,5.74 -5.41,0 -10.02,-1.92 -13.84,-5.74 -3.83,-3.82 -5.74,-8.44 -5.74,-13.84 0,-5.41 1.91,-10.02 5.74,-13.85 3.82,-3.82 8.43,-5.73 13.84,-5.73zm-0.01 -108.03c4.51,0 8.35,1.59 11.54,4.78 3.18,3.18 4.78,7.03 4.78,11.53 0,4.51 -1.6,8.35 -4.78,11.54 -3.19,3.18 -7.03,4.78 -11.54,4.78 -4.5,0 -8.35,-1.6 -11.53,-4.78 -3.19,-3.19 -4.78,-7.03 -4.78,-11.54 0,-4.5 1.59,-8.35 4.78,-11.53 3.18,-3.19 7.03,-4.78 11.53,-4.78zm-112.35 661.55c6.31,0 11.69,2.23 16.15,6.69 4.46,4.46 6.69,9.85 6.69,16.15 0,6.31 -2.23,11.69 -6.69,16.15 -4.46,4.46 -9.84,6.69 -16.15,6.69 -6.31,0 -11.69,-2.23 -16.15,-6.69 -4.46,-4.46 -6.69,-9.84 -6.69,-16.15 0,-6.3 2.23,-11.69 6.69,-16.15 4.46,-4.46 9.84,-6.69 16.15,-6.69zm0.01 -114.69c7.21,0 13.36,2.55 18.46,7.65 5.09,5.09 7.64,11.25 7.64,18.45 0,7.21 -2.55,13.36 -7.64,18.46 -5.1,5.1 -11.25,7.65 -18.46,7.65 -7.21,0 -13.36,-2.55 -18.46,-7.65 -5.1,-5.1 -7.65,-11.25 -7.65,-18.46 0,-7.2 2.55,-13.36 7.65,-18.45 5.1,-5.1 11.25,-7.65 18.46,-7.65zm0 -115.61c-16.84,0 -30.4,13.57 -30.4,30.4 0,16.84 13.57,30.4 30.4,30.4 16.84,0 30.4,-13.57 30.4,-30.4 0,-16.84 -13.57,-30.4 -30.4,-30.4zm0 -106.99c7.21,0 13.36,2.54 18.46,7.64 5.09,5.1 7.64,11.25 7.64,18.46 0,7.21 -2.55,13.36 -7.64,18.46 -5.1,5.09 -11.25,7.64 -18.46,7.64 -7.21,0 -13.36,-2.55 -18.46,-7.64 -5.1,-5.1 -7.65,-11.25 -7.65,-18.46 0,-7.21 2.55,-13.36 7.65,-18.46 5.1,-5.1 11.25,-7.64 18.46,-7.64zm-0.01 -108.05c6.31,0 11.69,2.23 16.15,6.69 4.46,4.46 6.69,9.85 6.69,16.15 0,6.31 -2.23,11.69 -6.69,16.15 -4.46,4.46 -9.84,6.69 -16.15,6.69 -6.31,0 -11.69,-2.23 -16.15,-6.69 -4.46,-4.46 -6.69,-9.84 -6.69,-16.15 0,-6.3 2.23,-11.69 6.69,-16.15 4.46,-4.46 9.84,-6.69 16.15,-6.69zm2471.39 -432.42c2.7,0 5.01,0.96 6.92,2.87 1.91,1.91 2.87,4.22 2.87,6.92 0,2.7 -0.96,5.01 -2.87,6.92 -1.91,1.91 -4.22,2.87 -6.92,2.87 -2.71,0 -5.01,-0.96 -6.92,-2.87 -1.92,-1.91 -2.87,-4.22 -2.87,-6.92 0,-2.7 0.95,-5.01 2.87,-6.92 1.91,-1.91 4.21,-2.87 6.92,-2.87zm-337.03 0c2.7,0 5.01,0.96 6.92,2.87 1.91,1.91 2.87,4.22 2.87,6.92 0,2.7 -0.96,5.01 -2.87,6.92 -1.91,1.91 -4.22,2.87 -6.92,2.87 -2.71,0 -5.01,-0.96 -6.92,-2.87 -1.92,-1.91 -2.87,-4.22 -2.87,-6.92 0,-2.7 0.95,-5.01 2.87,-6.92 1.91,-1.91 4.21,-2.87 6.92,-2.87zm298.13 1810.73c291.93,-291.94 472.61,-695.1 472.61,-1140.62l0.57 0c0,-445.51 -180.69,-848.67 -472.62,-1140.61 -291.93,-291.93 -695.66,-472.05 -1141.18,-472.05 -445.52,0 -848.67,180.69 -1140.61,472.62 -291.93,291.93 -472.05,695.09 -472.05,1140.61 0,445.52 180.68,848.68 472.05,1140.61 291.94,291.93 695.09,472.62 1140.61,472.62 445.52,0 848.68,-180.69 1140.61,-472.05l0.01 -1.13z"/>
 </g>
</svg>
