<svg xmlns="http://www.w3.org/2000/svg" width="223.022" height="236.805" viewBox="0 0 223.022 236.805">
  <path id="União_6" data-name="União 6" d="M-4270.816,2243.573a79.046,79.046,0,0,0-14.793-22,79,79,0,0,0-19.5-14.922,75.541,75.541,0,0,1-6.82,3.443,5.424,5.424,0,0,1-7.188-2.754,5.425,5.425,0,0,1,2.753-7.188,66.586,66.586,0,0,0,28.739-24.56,66.005,66.005,0,0,0,10.646-36.086l-.016-.017a5.456,5.456,0,0,1,5.459-5.459,5.457,5.457,0,0,1,5.46,5.459,76.973,76.973,0,0,1-12.441,42.027,77.738,77.738,0,0,1-16.6,18.332,89.948,89.948,0,0,1,17.4,14.216,89.561,89.561,0,0,1,16.842,25.072,5.423,5.423,0,0,1-2.752,7.188,5.431,5.431,0,0,1-2.227.479A5.415,5.415,0,0,1-4270.816,2243.573Zm-150.159-.928a5.45,5.45,0,0,1-2.45-7.317,89.816,89.816,0,0,1,16.6-23.1,90.411,90.411,0,0,1,15.306-12.392,77.962,77.962,0,0,1-12.936-13.161,76.957,76.957,0,0,1-16.107-47.182,77.029,77.029,0,0,1,22.623-54.626,77.042,77.042,0,0,1,54.627-22.639l.08.017,13.432.256a5.451,5.451,0,0,1,5.364,5.524,5.449,5.449,0,0,1-5.524,5.363l-13.336-.24v.017a66.148,66.148,0,0,0-46.893,19.42,66.081,66.081,0,0,0-19.421,46.893,65.954,65.954,0,0,0,13.8,40.522,66.314,66.314,0,0,0,16.763,15.354,5.456,5.456,0,0,1,1.1.688,65.867,65.867,0,0,0,17.931,7.635,5.452,5.452,0,0,1,3.907,6.645,5.451,5.451,0,0,1-6.644,3.906,76.706,76.706,0,0,1-18.8-7.653,78.864,78.864,0,0,0-17.531,13.3,79.206,79.206,0,0,0-14.554,20.284l-.032.033a5.451,5.451,0,0,1-4.884,3.026A5.439,5.439,0,0,1-4420.975,2242.645Zm69.6-68.274a3.139,3.139,0,0,1-3.138-3.138,3.139,3.139,0,0,1,3.138-3.138h17.4a3.138,3.138,0,0,1,3.138,3.138,3.138,3.138,0,0,1-3.138,3.138Zm7.385-15.565c-1.955-3.268,3.644-1.2,4.374-8.5.121-6.268-5.963-6.39-4.374-8.5,2-1.967,8.365,1.685,8.5,8.5.107,5.492-4.534,9.166-7.1,9.166A1.546,1.546,0,0,1-4343.989,2158.8Zm14.475-32.646a43.82,43.82,0,0,0,13.551,2.057,43.78,43.78,0,0,0,12.9-1.877,15.676,15.676,0,0,1-13.144,7.085A15.741,15.741,0,0,1-4329.514,2126.159Zm-53,0a43.82,43.82,0,0,0,13.551,2.057,43.782,43.782,0,0,0,12.9-1.877,15.677,15.677,0,0,1-13.144,7.085A15.721,15.721,0,0,1-4382.511,2126.159Zm84.8-19.41a56.489,56.489,0,0,1-16.587-40.074,56.545,56.545,0,0,1,16.587-40.073,56.493,56.493,0,0,1,40.057-16.6,56.509,56.509,0,0,1,40.057,16.587,56.435,56.435,0,0,1,16.6,40.074h.017v.015a56.472,56.472,0,0,1-16.6,40.074,56.563,56.563,0,0,1-40.074,16.6A56.423,56.423,0,0,1-4297.711,2106.75Zm7.732-72.4a45.576,45.576,0,0,0-13.385,32.34,45.646,45.646,0,0,0,13.385,32.341,45.59,45.59,0,0,0,32.34,13.4,45.638,45.638,0,0,0,32.34-13.385v-.032a45.591,45.591,0,0,0,13.4-32.34h.016a45.591,45.591,0,0,0-13.4-32.34,45.615,45.615,0,0,0-32.357-13.385A45.59,45.59,0,0,0-4289.979,2034.351Zm29.442,58.292c-5.581-10.411-5.247-25.9,0-36.147s6.5-15.242,7.246-18.157,1.5-10.661,1.5-10.661,5.665,6,3.831,17.99-8.328,22.4-8.162,34.4,6,24.154,6,24.154S-4254.957,2103.054-4260.537,2092.643Zm15.635-4.889c-3.412-6.642-3.031-16.429.4-22.846a49.54,49.54,0,0,0,4.779-11.4c.506-1.834,1.065-6.722,1.065-6.722s3.514,3.853,2.223,11.413-5.511,14.067-5.538,21.65,3.524,15.331,3.524,15.331S-4241.489,2094.4-4244.9,2087.754Zm-32.77-14.511c-2.454-7.052-.715-16.69,3.575-22.568a49.518,49.518,0,0,0,6.318-10.618c.756-1.747,1.991-6.508,1.991-6.508s2.943,4.3.612,11.611-7.415,13.165-8.5,20.669,1.354,15.672,1.354,15.672S-4275.218,2080.295-4277.672,2073.242Z" transform="translate(4424 -2010)" fill="#f37335"/>
</svg>
