<svg xmlns="http://www.w3.org/2000/svg" width="223.021" height="236.804" viewBox="0 0 223.021 236.804">
  <path id="União_15" data-name="União 15" d="M-5880.816,1151.572a79.028,79.028,0,0,0-14.794-22,79.024,79.024,0,0,0-19.5-14.921,75.66,75.66,0,0,1-6.82,3.443,5.425,5.425,0,0,1-7.189-2.753,5.423,5.423,0,0,1,2.753-7.188,66.6,66.6,0,0,0,28.739-24.561,66.005,66.005,0,0,0,10.646-36.087l-.015-.015a5.456,5.456,0,0,1,5.459-5.46,5.456,5.456,0,0,1,5.458,5.46,76.976,76.976,0,0,1-12.439,42.027,77.77,77.77,0,0,1-16.6,18.332,89.948,89.948,0,0,1,17.4,14.215,89.588,89.588,0,0,1,16.843,25.073,5.423,5.423,0,0,1-2.753,7.188,5.42,5.42,0,0,1-2.227.479A5.418,5.418,0,0,1-5880.816,1151.572Zm-150.16-.928a5.449,5.449,0,0,1-2.449-7.317,89.855,89.855,0,0,1,16.6-23.1,90.49,90.49,0,0,1,15.306-12.392,77.99,77.99,0,0,1-12.937-13.161,76.961,76.961,0,0,1-16.105-47.181,77.026,77.026,0,0,1,22.623-54.628,77.045,77.045,0,0,1,54.626-22.638l.081.015,13.432.256a5.452,5.452,0,0,1,5.365,5.525,5.452,5.452,0,0,1-5.524,5.363l-13.337-.241v.017a66.159,66.159,0,0,0-46.894,19.419,66.092,66.092,0,0,0-19.419,46.894,65.953,65.953,0,0,0,13.8,40.521,66.277,66.277,0,0,0,16.763,15.354,5.587,5.587,0,0,1,1.1.689,65.905,65.905,0,0,0,17.932,7.636,5.45,5.45,0,0,1,3.906,6.644,5.45,5.45,0,0,1-6.644,3.906,76.695,76.695,0,0,1-18.8-7.653,78.872,78.872,0,0,0-17.532,13.305,79.2,79.2,0,0,0-14.552,20.284l-.033.033a5.449,5.449,0,0,1-4.884,3.025A5.428,5.428,0,0,1-6030.976,1150.644Zm91.461-116.485a43.793,43.793,0,0,0,13.552,2.058,43.756,43.756,0,0,0,12.9-1.878,15.68,15.68,0,0,1-13.145,7.087A15.746,15.746,0,0,1-5939.515,1034.159Zm-53,0a43.781,43.781,0,0,0,13.55,2.058,43.759,43.759,0,0,0,12.9-1.878,15.679,15.679,0,0,1-13.145,7.087A15.72,15.72,0,0,1-5992.511,1034.159Zm84.8-19.409a56.5,56.5,0,0,1-16.587-40.074,56.549,56.549,0,0,1,16.587-40.073,56.491,56.491,0,0,1,40.058-16.6,56.515,56.515,0,0,1,40.058,16.586,56.447,56.447,0,0,1,16.6,40.074h.015v.015a56.467,56.467,0,0,1-16.6,40.074,56.562,56.562,0,0,1-40.073,16.6A56.428,56.428,0,0,1-5907.712,1014.75Zm7.733-72.4a45.583,45.583,0,0,0-13.385,32.341,45.642,45.642,0,0,0,13.385,32.34,45.586,45.586,0,0,0,32.34,13.4,45.644,45.644,0,0,0,32.341-13.384v-.032a45.6,45.6,0,0,0,13.4-32.341h.015a45.586,45.586,0,0,0-13.4-32.34,45.609,45.609,0,0,0-32.356-13.385A45.592,45.592,0,0,0-5899.979,942.351Zm37.565,61.62v0c0-.029-.006-.059-.009-.089,0-.006,0-.012,0-.018s0-.015,0-.023a.135.135,0,0,1,0-.024.127.127,0,0,1,0-.024c0-.011,0-.021,0-.033v-.015a.209.209,0,0,1,0-.03v-.015a.4.4,0,0,1,0-.042.02.02,0,0,1,0-.009v-.139a3.855,3.855,0,0,1,.725-2.208,3.853,3.853,0,0,1,.29-.356l-10.635-16.9a4.831,4.831,0,0,1-1.222.206c-.061,0-.121,0-.183,0a4.78,4.78,0,0,1-4.338-2.767c-.316.1-.634.192-.951.288-2.23.669-4.518,1.322-6.893,1.939-.283.074-.569.147-.855.22.006.062.006.127.006.188v0a4.807,4.807,0,0,1-1.581,3.568,4.8,4.8,0,0,1-3.241,1.254,4.813,4.813,0,0,1-3.966-2.079,4.791,4.791,0,0,1-.856-2.743v0a4.815,4.815,0,0,1,.049-.686c0-.009,0-.017,0-.026s0-.012,0-.018a.064.064,0,0,0,0-.008,4.775,4.775,0,0,1,.223-.884,4.769,4.769,0,0,1,.447-.922q-2-2.808-3.879-5.705l-.259-.4a4.1,4.1,0,0,1-1.254.265.086.086,0,0,0-.02,0h-.006q-.093,0-.186,0h0a4.07,4.07,0,0,1-2.433-.8,4.072,4.072,0,0,1-1.654-3.28v0a4.071,4.071,0,0,1,1.2-2.89,4.073,4.073,0,0,1,2.889-1.2h0a3.815,3.815,0,0,1,.5.03l3.006-9.44a4.784,4.784,0,0,1-1.242-2.888c-.009-.114-.014-.23-.014-.347v0a4.776,4.776,0,0,1,1.4-3.386,4.773,4.773,0,0,1,3.386-1.4h0a4.88,4.88,0,0,1,.808.068,4.768,4.768,0,0,1,2.2,1l7.909-6.387v0a3.813,3.813,0,0,1-.156-1.092,3.949,3.949,0,0,1,2.684-3.742,3.98,3.98,0,0,1,1.266-.208,3.953,3.953,0,0,1,3.809,2.893l9.418.259,1.445.039.942.026a4.074,4.074,0,0,1,.351-.789,4.1,4.1,0,0,1,1.788-1.648,4.066,4.066,0,0,1,1.749-.392h.051a.4.4,0,0,1,.044,0h.006a4.085,4.085,0,0,1,3.985,4.083v0a4.005,4.005,0,0,1-.171,1.165l1.4,1.048v0l7.947,5.931a4.779,4.779,0,0,1,3.336-1.356h0a4.759,4.759,0,0,1,2.806.91,4.781,4.781,0,0,1,1.981,3.88,4.751,4.751,0,0,1-.706,2.5,4.8,4.8,0,0,1-.57.75l5.8,8.537a4.206,4.206,0,0,1,1.227-.183,4.129,4.129,0,0,1,4.13,4.13,4.106,4.106,0,0,1-.391,1.752,4.143,4.143,0,0,1-1.99,1.986l-.01,0-.006,0a4.035,4.035,0,0,1-.669.241l-.161,1.265-.739,5.837-.13,1.028a3.94,3.94,0,0,1,2.41,3.633,3.941,3.941,0,0,1-3.944,3.945,3.925,3.925,0,0,1-3.02-1.409c-.02-.021-.04-.044-.058-.067h0l-9.237,4.339a3.115,3.115,0,0,1,.021.377,3.426,3.426,0,0,1-1.007,2.432,3.429,3.429,0,0,1-2.354,1l-.012,0h-.065a3.437,3.437,0,0,1-3.431-3.217c0-.023,0-.047,0-.071a.023.023,0,0,1,0-.011v-.02c0-.008,0-.014,0-.021v-.058a.368.368,0,0,1,0-.039,3.283,3.283,0,0,1,.076-.718l-4.7-3.8a3.7,3.7,0,0,1-.618.273c-.024.009-.049.018-.074.026l.25,3.052.442,5.411h0l.085,1.037a3.859,3.859,0,0,1,3.111,3.783,3.84,3.84,0,0,1-.686,2.2,3.851,3.851,0,0,1-3.173,1.661A3.856,3.856,0,0,1-5862.415,1003.971Zm-1.089-30.557-5.486,4.326a4.887,4.887,0,0,1,.214.724s0,0,0,.006l.009.047a.059.059,0,0,1,0,.018c0,.012,0,.023.007.035l0,.023c0,.011,0,.021,0,.032l0,.018a.286.286,0,0,0,.006.035c0,.006,0,.012,0,.017s0,.026.006.038,0,0,0,.008a4.829,4.829,0,0,1,.053.713v0a4.777,4.777,0,0,1-1.5,3.48l7.161,11.382h0l1.551,2.463.226.359,1.144,1.817-.682-8.4-.02-.235h0l-.04-.011a3.951,3.951,0,0,1-2.918-3.811,3.941,3.941,0,0,1,1.474-3.074,3.921,3.921,0,0,1,2.472-.871h.091a3.9,3.9,0,0,1,2.051.632l2.881-1.145,5.125-2.037c0-.07-.006-.138-.006-.206a3.955,3.955,0,0,1,.03-.489,3.922,3.922,0,0,1,.892-2.045q-.436-.638-.875-1.277s0,0,0,0q-.69-1-1.389-2s0,0,0,0q-.79-1.127-1.587-2.249l-.006.006c-.174-.245-.346-.492-.521-.738a5.476,5.476,0,0,1-2.861.8,5.477,5.477,0,0,1-3.689-1.421Zm13.649,17.635a3.427,3.427,0,0,1,2.5,1.078l9.316-4.374a3.721,3.721,0,0,1-.027-.456,3.943,3.943,0,0,1,3.315-3.892l1-7.889a4.073,4.073,0,0,1-1.574-.854l-6.673,3.827a3.806,3.806,0,0,1,.228,1.313,3.941,3.941,0,0,1-1.292,2.922,3.937,3.937,0,0,1-2.655,1.025,3.937,3.937,0,0,1-3.225-1.677l-1.542.612-.506.2-5.187,2.061a3.94,3.94,0,0,1,.321,1.557,3.918,3.918,0,0,1-.5,1.92l4.27,3.452a3.42,3.42,0,0,1,2.234-.825Zm-39.359-11.279a4.826,4.826,0,0,1,2.137,2.045q.963-.243,1.905-.494c1.952-.521,3.847-1.068,5.705-1.624,0,0,0,0,0,0q.614-.184,1.221-.37a4.553,4.553,0,0,1,.184-1.2c.015-.055.033-.109.05-.164q-3.294-2.379-6.4-5.01a3.987,3.987,0,0,1-1.867.592c-.085.006-.17.009-.254.009a4.038,4.038,0,0,1-.759-.073Zm-7.37-8.048-.353.047a4.022,4.022,0,0,1-.106.813v0c0,.006,0,.012,0,.018a4.023,4.023,0,0,1-.747,1.549l.409.636q.472.722.951,1.442s0,0,0,0q.253.382.509.76c.1.141.19.283.286.424q.833,1.225,1.688,2.432v0c.037.052.073.1.108.153.08-.048.16-.1.242-.141a4.786,4.786,0,0,1,2.253-.576l2.08-6.8a4.013,4.013,0,0,1-1.069-1.605Zm50.864,4.135a3.9,3.9,0,0,1,2.146.636c.079.052.156.106.23.162l.064.05h0l6.733-3.862a4.147,4.147,0,0,1-.2-1.253c0-.015,0-.029,0-.042,0-.117,0-.233.015-.347a4.1,4.1,0,0,1,1.051-2.425l-2.335-3.435-1.134-1.669-1.281-1.887-1.02-1.5a4.777,4.777,0,0,1-1.708.315,4.773,4.773,0,0,1-2.59-.76c-.108-.068-.212-.142-.314-.218l-5.1,4.049a5.475,5.475,0,0,1,.677,2.646,5.478,5.478,0,0,1-1.027,3.2q2.333,3.229,4.581,6.53a3.867,3.867,0,0,1,1.056-.191h.02c.047,0,.094,0,.14,0Zm-37.133-8.038a4,4,0,0,1,.37,1.692v0a3.981,3.981,0,0,1-.445,1.84l.168.142q.577.484,1.162.962,2.06,1.681,4.206,3.256l0,0c.172.127.345.253.518.379a4.774,4.774,0,0,1,3.416-1.433h.074a.167.167,0,0,1,.027,0,4.765,4.765,0,0,1,3.143,1.263l.933-.735,8.31-6.552a5.484,5.484,0,0,1-.513-2.323,5.5,5.5,0,0,1,.342-1.913l-6.886-3.462c-.014.014-.027.029-.041.044a4.785,4.785,0,0,1-3.511,1.528h0a4.772,4.772,0,0,1-3.024-1.077Zm-15.642.615a4.023,4.023,0,0,1,1.035,1.2l6.96-.927a4.046,4.046,0,0,1,3.967-3.247,4.027,4.027,0,0,1,2.266.691l1.605-1.243h0l6.717-5.2c-.033-.073-.065-.145-.094-.218a4.735,4.735,0,0,1-.336-1.764,3.649,3.649,0,0,1,.015-.365q-2.656-.25-5.372-.5-.9-.084-1.811-.167l-.633-.057c-1.7-.154-3.426-.309-5.181-.464a4.791,4.791,0,0,1-4.621,3.532h0c-.068,0-.136,0-.2,0l-.012,0h-.02a4.8,4.8,0,0,1-1.188-.211c-.074-.023-.147-.048-.218-.074h0Zm30.71-13.629a4.784,4.784,0,0,1,.989,2.92,4.759,4.759,0,0,1-.18,1.306l.5.253a0,0,0,0,1,0,0l6.486,3.258a5.484,5.484,0,0,1,4-1.724,5.478,5.478,0,0,1,3.414,1.187l5.122-4.068a4.73,4.73,0,0,1-.5-2.126,4.9,4.9,0,0,1,.089-.925,4.653,4.653,0,0,1,.18-.666l-5.522-4.121-3.813-2.847-.032.03a4.079,4.079,0,0,1-2.715,1.033h0c-.086,0-.173,0-.257-.009h-.012l-.02,0-.024,0h-.006a4.027,4.027,0,0,1-1.057-.227Zm-21.844-1.89a4.518,4.518,0,0,1,.348,1.071q2.926.257,5.76.518,4,.368,7.847.732a4.893,4.893,0,0,1,.276-.406,4.773,4.773,0,0,1,3.813-1.893,4.81,4.81,0,0,1,.917.088l.033.008h0a4.824,4.824,0,0,1,1.146.388l6.541-6.628-.035-.045a4.038,4.038,0,0,1-.763-1.592l-10.782-.3-.953-.026a3.96,3.96,0,0,1-3.253,2.79,4.186,4.186,0,0,1-.538.035h0a3.926,3.926,0,0,1-2.479-.875.033.033,0,0,1-.011-.008s0,0,0,0c-.044-.036-.086-.073-.127-.109Z" transform="translate(6034 -918)" fill="#f37335"/>
</svg>
