<svg xmlns="http://www.w3.org/2000/svg" width="230.086" height="243.7" viewBox="0 0 230.086 243.7">
  <path id="União_7" data-name="União 7" d="M-4266.766,3372.372a81.134,81.134,0,0,0-15.277-22.687,81.579,81.579,0,0,0-19.226-14.907,78.492,78.492,0,0,1-7.109,3.6,5.626,5.626,0,0,1-7.428-2.841,5.626,5.626,0,0,1,2.84-7.428,70.267,70.267,0,0,0,8.033-4.235,5,5,0,0,1,1.025-.638,68.853,68.853,0,0,0,20.587-20.453,68.141,68.141,0,0,0,10.99-37.224l.017-.017a5.648,5.648,0,0,1,5.647-5.647,5.648,5.648,0,0,1,5.646,5.647,79.375,79.375,0,0,1-12.839,43.358,80.065,80.065,0,0,1-17.125,18.889,92.688,92.688,0,0,1,17.108,14.134,92.358,92.358,0,0,1,17.377,25.864,5.626,5.626,0,0,1-2.841,7.428,5.638,5.638,0,0,1-2.292.489A5.623,5.623,0,0,1-4266.766,3372.372Zm-154.108-.4a5.643,5.643,0,0,1-2.538-7.562,92.1,92.1,0,0,1,17.125-23.831,91.743,91.743,0,0,1,15.8-12.771,80.85,80.85,0,0,1-13.345-13.562,79.322,79.322,0,0,1-16.6-48.67,79.457,79.457,0,0,1,23.343-56.349,79.46,79.46,0,0,1,56.349-23.343l.084.017,13.849.252a5.611,5.611,0,0,1,5.528,5.7,5.611,5.611,0,0,1-5.7,5.529l-13.764-.252v.017a68.214,68.214,0,0,0-48.382,20.05,68.176,68.176,0,0,0-20.033,48.384,68.077,68.077,0,0,0,14.234,41.8,68.776,68.776,0,0,0,17.293,15.848,5.5,5.5,0,0,1,1.143.723A67.957,67.957,0,0,0-4358,3331.82v-.034a5.627,5.627,0,0,1,4.033,6.857,5.626,5.626,0,0,1-6.856,4.033,79.42,79.42,0,0,1-19.394-7.9,81.825,81.825,0,0,0-18.083,13.73,81.666,81.666,0,0,0-15.007,20.924,5.625,5.625,0,0,1-5.054,3.125A5.648,5.648,0,0,1-4420.874,3371.969Zm75.355-84.785a10.1,10.1,0,0,1,10.05-10.1,10.087,10.087,0,0,1,10.017,10.083v.017a10.009,10.009,0,0,1-10.017,10.017A10.017,10.017,0,0,1-4345.519,3287.184Zm23.7-30.519a45.078,45.078,0,0,0,13.949,2.118,45.046,45.046,0,0,0,13.276-1.932,16.136,16.136,0,0,1-13.529,7.294A16.2,16.2,0,0,1-4321.822,3256.664Zm-54.551,0a45.076,45.076,0,0,0,13.949,2.118,45.049,45.049,0,0,0,13.277-1.932,16.137,16.137,0,0,1-13.529,7.294A16.182,16.182,0,0,1-4376.373,3256.664Zm82.667-24.889a58.289,58.289,0,0,1-17.125-41.325,58.222,58.222,0,0,1,17.125-41.325A58.288,58.288,0,0,1-4252.38,3132a58.25,58.25,0,0,1,41.325,17.125,58.29,58.29,0,0,1,17.125,41.325h.017a58.259,58.259,0,0,1-17.125,41.325,58.329,58.329,0,0,1-41.342,17.125A58.219,58.219,0,0,1-4293.706,3231.775Zm7.966-74.7a47.032,47.032,0,0,0-13.814,33.36,47.032,47.032,0,0,0,13.814,33.36,47.031,47.031,0,0,0,33.36,13.813,47.029,47.029,0,0,0,33.358-13.813h.018a47.033,47.033,0,0,0,13.813-33.36h.018a47.034,47.034,0,0,0-13.814-33.36,47.058,47.058,0,0,0-33.393-13.814A47.037,47.037,0,0,0-4285.74,3157.073Zm3.938,44.9-3.944-3.943a20.468,20.468,0,0,1,0-28.946,20.468,20.468,0,0,1,28.946,0l3.944,3.943,3.943-3.943a20.464,20.464,0,0,1,28.946,0,20.464,20.464,0,0,1,0,28.946l-3.945,3.943-28.944,28.946Zm87.889-11.52v0Z" transform="translate(4424 -3132)" fill="#f37335"/>
</svg>
