<svg xmlns="http://www.w3.org/2000/svg" width="223.021" height="236.805" viewBox="0 0 223.021 236.805">
  <path id="União_11" data-name="União 11" d="M-4802.816-270.427a79.06,79.06,0,0,0-14.792-22,79,79,0,0,0-19.5-14.92,75.929,75.929,0,0,1-6.821,3.442,5.423,5.423,0,0,1-7.188-2.754,5.423,5.423,0,0,1,2.753-7.188,66.594,66.594,0,0,0,28.739-24.56,66.009,66.009,0,0,0,10.646-36.087l-.015-.016a5.456,5.456,0,0,1,5.46-5.46,5.456,5.456,0,0,1,5.458,5.46,76.979,76.979,0,0,1-12.44,42.027,77.785,77.785,0,0,1-16.6,18.331,90.018,90.018,0,0,1,17.4,14.216,89.613,89.613,0,0,1,16.842,25.073,5.425,5.425,0,0,1-2.753,7.189,5.438,5.438,0,0,1-2.227.478A5.419,5.419,0,0,1-4802.816-270.427Zm-150.159-.928a5.451,5.451,0,0,1-2.449-7.317,89.841,89.841,0,0,1,16.6-23.1,90.427,90.427,0,0,1,15.307-12.393,77.978,77.978,0,0,1-12.937-13.16,76.958,76.958,0,0,1-16.106-47.182,77.027,77.027,0,0,1,22.622-54.626,77.042,77.042,0,0,1,54.626-22.639l.081.016,13.433.256a5.45,5.45,0,0,1,5.364,5.523,5.451,5.451,0,0,1-5.524,5.364l-13.335-.241v.016a66.149,66.149,0,0,0-46.894,19.421,66.081,66.081,0,0,0-19.421,46.893,65.952,65.952,0,0,0,13.8,40.522,66.306,66.306,0,0,0,16.763,15.355,5.513,5.513,0,0,1,1.1.688,65.878,65.878,0,0,0,17.931,7.637,5.451,5.451,0,0,1,3.908,6.644,5.452,5.452,0,0,1-6.646,3.906,76.761,76.761,0,0,1-18.8-7.653,78.821,78.821,0,0,0-17.53,13.306,79.164,79.164,0,0,0-14.553,20.283l-.033.032a5.449,5.449,0,0,1-4.884,3.027A5.426,5.426,0,0,1-4952.975-271.355Zm68.71-81.882a9.811,9.811,0,0,1,9.764-9.813,9.8,9.8,0,0,1,9.73,9.8v.016a9.722,9.722,0,0,1-9.73,9.73A9.73,9.73,0,0,1-4884.265-353.237Zm22.751-34.6a43.772,43.772,0,0,0,13.551,2.058,43.77,43.77,0,0,0,12.9-1.877,15.677,15.677,0,0,1-13.143,7.086A15.74,15.74,0,0,1-4861.514-387.841Zm-53,0a43.776,43.776,0,0,0,13.551,2.058,43.763,43.763,0,0,0,12.9-1.877,15.677,15.677,0,0,1-13.143,7.086A15.719,15.719,0,0,1-4914.511-387.841Zm84.8-19.41a56.492,56.492,0,0,1-16.586-40.074,56.544,56.544,0,0,1,16.586-40.073,56.5,56.5,0,0,1,40.058-16.6,56.511,56.511,0,0,1,40.058,16.587A56.439,56.439,0,0,1-4733-447.34h.016v.015a56.471,56.471,0,0,1-16.6,40.074,56.562,56.562,0,0,1-40.074,16.6A56.428,56.428,0,0,1-4829.712-407.251Zm7.734-72.4a45.578,45.578,0,0,0-13.385,32.34,45.646,45.646,0,0,0,13.385,32.341,45.589,45.589,0,0,0,32.34,13.4,45.642,45.642,0,0,0,32.34-13.384v-.032a45.593,45.593,0,0,0,13.4-32.341h.015a45.589,45.589,0,0,0-13.4-32.34,45.614,45.614,0,0,0-32.356-13.384A45.589,45.589,0,0,0-4821.979-479.648Zm31.433,37.086-1.812-.963-.9-.49c-4.457-1.584-9.045-3.183-12.784-3.216-3.346-.032-6.105,1.306-7.592,5.372v.016a1.657,1.657,0,0,1-2.138,1,1.659,1.659,0,0,1-1-2.14c1.895-5.209,5.307-7.216,9.471-7.526-7.152-2.3-13.536-1.895-17.6,5.486a2.116,2.116,0,0,1-2.857.832,2.114,2.114,0,0,1-.833-2.857c8.8-16,23.968-7.837,38.222-.163l1.8.963c.326.18.637.343.962.506,7.723,1.975,12.719.98,15.51-1.127a6.3,6.3,0,0,0,2.58-4.228,4.783,4.783,0,0,0-1.176-3.869c-1.224-1.322-3.4-1.959-6.351-1.061a1.686,1.686,0,0,1-2.09-1.111,1.687,1.687,0,0,1,1.11-2.09c4.376-1.322,7.739-.2,9.78,2.008a8.16,8.16,0,0,1,2.024,6.515,9.611,9.611,0,0,1-3.885,6.515,14.561,14.561,0,0,1-7.085,2.661c7.755,2.172,13.5,1.372,17.322-.848a10.808,10.808,0,0,0,5.126-6.318,7.736,7.736,0,0,0-.882-6.5c-1.616-2.367-4.9-3.836-9.91-3.135a2.106,2.106,0,0,1-2.385-1.8,2.1,2.1,0,0,1,1.8-2.383c6.841-.979,11.527,1.322,13.976,4.931a11.863,11.863,0,0,1,1.453,10.008,14.908,14.908,0,0,1-7.07,8.816,21.458,21.458,0,0,1-10.879,2.666C-4774.529-436.093-4781.836-437.914-4790.545-442.563Z" transform="translate(4956 504.001)" fill="currentColor"/>
</svg>
