<svg xmlns="http://www.w3.org/2000/svg" width="111.302" height="247.42" viewBox="0 0 111.302 247.42">
  <g id="Camada_x0020_1" transform="translate(-11.522 -11.515)">
    <path id="Caminho_633" data-name="Caminho 633" d="M102.571,233.391a21.127,21.127,0,0,1-1.769,4.719v.015l-.581,1.012c-2.13,3.782-3.818,6.781-9.742,6.881a9.707,9.707,0,0,1-4.563-1c-3.172-1.582-5.273-4.789-6.535-9.029a49.425,49.425,0,0,1-1.643-12.85c-.332-19.288,2.975-41.771,17.1-56.018a54.227,54.227,0,0,1,8.513-7,46.6,46.6,0,1,1,59.695-.22,54.153,54.153,0,0,1,8.836,7.207c14.469,14.59,17.454,36.184,17.113,56.029a49.424,49.424,0,0,1-1.643,12.847c-1.262,4.24-3.36,7.445-6.535,9.026a9.708,9.708,0,0,1-4.563,1c-5.942-.1-7.632-3.113-9.763-6.908l-.563-1a25.544,25.544,0,0,1-2.133-6.106v75.875a17.247,17.247,0,0,1-29.444,12.2v-.015q-.621-.621-1.174-1.3-.555.678-1.174,1.3a17.245,17.245,0,0,1-29.441-12.184h.015V233.382Z" transform="translate(-66.193 -66.185)" fill="#f37335"/>
    <path id="Caminho_634" data-name="Caminho 634" d="M141.782,180.518a3.85,3.85,0,0,1-1.931,7.453,46.271,46.271,0,0,1-11.033-4.446,46.4,46.4,0,0,0-10,7.653c-12.533,12.638-15.159,33.461-14.866,50.466a41.646,41.646,0,0,0,1.344,10.766c.663,2.23,1.514,3.791,2.582,4.322a2.158,2.158,0,0,0,1,.214c1.482-.026,2.213-1.323,3.134-2.961l.643-1.133.006,0c1.024-1.775,2.157-7.641,3.345-13.8,1.558-8.067,3.2-16.588,5.769-20.057a3.847,3.847,0,0,1,7.01,2.189V326.5h.015a9.522,9.522,0,0,0,19.024.634c-.009-.211-.012-.423-.012-.634a4.082,4.082,0,0,1,.032-.5V266.378a3.862,3.862,0,0,1,7.723,0V326.5c0,.211,0,.426-.012.634a9.52,9.52,0,0,0,2.761,6.112l.009-.009a9.521,9.521,0,0,0,16.265-6.737V221.186a3.861,3.861,0,0,1,3.862-3.862,3.4,3.4,0,0,1,.39.021,3.84,3.84,0,0,1,2.993,1.444c2.659,3.325,4.34,12.034,5.927,20.268,1.191,6.171,2.324,12.052,3.351,13.812l.625,1.092c.924,1.649,1.661,2.961,3.155,2.987a2.138,2.138,0,0,0,1-.214c1.068-.531,1.919-2.092,2.582-4.322a41.764,41.764,0,0,0,1.341-10.763c.305-17.659-1.919-37.411-14.88-50.478a46.283,46.283,0,0,0-10.3-7.814q-2.016,1.149-4.155,2.1a3.842,3.842,0,0,1-3.107-7.028,38.826,38.826,0,0,0,23.064-35.53h.015A38.865,38.865,0,1,0,130.6,175.62a3.958,3.958,0,0,1,.716.449,38.661,38.661,0,0,0,10.464,4.451Z" transform="translate(-84.714 -84.803)" fill="#fefefe"/>
    <path id="Caminho_635" data-name="Caminho 635" d="M228.89,267.97s10.493,8.251,21.99,0" transform="translate(-173.007 -200.622)" fill="none" stroke="#f37335" stroke-linecap="round" stroke-miterlimit="10" stroke-width="2" fill-rule="evenodd"/>
    <g id="Camada_x0020_1-2" data-name="Camada_x0020_1" transform="translate(48.928 47.309)">
      <path id="Caminho_686" data-name="Caminho 686" d="M59.324,121.212a7.792,7.792,0,0,1-13.064-.089,22.451,22.451,0,0,0,13.064.089Zm23.053,0a7.792,7.792,0,0,1-13.064-.089,22.452,22.452,0,0,0,13.064.089Z" transform="translate(-46.26 -121.123)" fill="#f37335"/>
    </g>
  </g>
</svg>
