<svg xmlns="http://www.w3.org/2000/svg" width="223.532" height="236.759" viewBox="0 0 223.532 236.759">
  <path id="União_6" data-name="União 6" d="M-4271.592-2940.461a77.747,77.747,0,0,0-14.82-21.982,79.041,79.041,0,0,0-18.65-14.46q-3.379,1.89-6.893,3.513a5.463,5.463,0,0,1-7.207-2.748,5.463,5.463,0,0,1,2.749-7.207,67.4,67.4,0,0,0,7.792-4.1l.09-.09a7.326,7.326,0,0,1,.991-.632,66.966,66.966,0,0,0,19.955-19.82,65.774,65.774,0,0,0,10.632-36.083,5.44,5.44,0,0,1,5.45-5.45,5.44,5.44,0,0,1,5.451,5.45,77.132,77.132,0,0,1-12.433,42.029,77.509,77.509,0,0,1-16.577,18.334,89.718,89.718,0,0,1,16.577,13.7,89.9,89.9,0,0,1,16.848,25.091,5.465,5.465,0,0,1-2.749,7.208,5.492,5.492,0,0,1-2.223.471A5.435,5.435,0,0,1-4271.592-2940.461Zm-149.376-.45a5.524,5.524,0,0,1-2.479-7.343,90.712,90.712,0,0,1,16.578-23.11,89.962,89.962,0,0,1,15.315-12.387,79.471,79.471,0,0,1-12.929-13.154,77.007,77.007,0,0,1-16.081-47.209,77.042,77.042,0,0,1,22.613-54.643,77.076,77.076,0,0,1,54.643-22.659h.09l13.423.27a5.443,5.443,0,0,1,5.361,5.542,5.443,5.443,0,0,1-5.542,5.36l-13.333-.225a66.114,66.114,0,0,0-46.9,19.414,66.2,66.2,0,0,0-19.416,46.9,66.138,66.138,0,0,0,13.784,40.542,66.45,66.45,0,0,0,16.758,15.361,4.3,4.3,0,0,1,1.126.722,64.6,64.6,0,0,0,17.928,7.612,5.433,5.433,0,0,1,3.92,6.622,5.435,5.435,0,0,1-6.622,3.92,75.522,75.522,0,0,1-18.786-7.659,78.21,78.21,0,0,0-17.523,13.289,79.443,79.443,0,0,0-14.55,20.271l-.044.09a5.5,5.5,0,0,1-4.933,3.031A5.527,5.527,0,0,1-4420.969-2940.911Zm78.517-62.66a37.372,37.372,0,0,1-17.794-4.595,29.228,29.228,0,0,1-14.324-18.11h.044a5.434,5.434,0,0,1,3.874-6.667,5.432,5.432,0,0,1,6.667,3.875,18.357,18.357,0,0,0,9.145,11.4,25.467,25.467,0,0,0,12.479,3.2,24.786,24.786,0,0,0,12.388-3.064,18.392,18.392,0,0,0,8.83-11.532,5.452,5.452,0,0,1,6.666-3.875,5.454,5.454,0,0,1,3.875,6.667,29.283,29.283,0,0,1-14.01,18.2,35.566,35.566,0,0,1-17.564,4.506Zm10.722-55.994a9.785,9.785,0,0,1,9.729-9.775,9.757,9.757,0,0,1,9.73,9.775,9.68,9.68,0,0,1-9.73,9.686A9.708,9.708,0,0,1-4331.73-3059.566Zm-41.128,0a9.785,9.785,0,0,1,9.73-9.775,9.787,9.787,0,0,1,9.731,9.752,9.749,9.749,0,0,1-9.731,9.709A9.68,9.68,0,0,1-4372.859-3059.566Zm19.461-.023v0Zm55.98-17.478a56.628,56.628,0,0,1-16.637-40.148,56.56,56.56,0,0,1,16.637-40.149A56.627,56.627,0,0,1-4257.27-3174a56.589,56.589,0,0,1,40.148,16.637,56.629,56.629,0,0,1,16.637,40.149h.017a56.6,56.6,0,0,1-16.637,40.148,56.665,56.665,0,0,1-40.165,16.637A56.558,56.558,0,0,1-4297.417-3077.067Zm7.739-72.573a45.69,45.69,0,0,0-13.421,32.409,45.691,45.691,0,0,0,13.421,32.409,45.692,45.692,0,0,0,32.409,13.421,45.694,45.694,0,0,0,32.409-13.421h.017a45.692,45.692,0,0,0,13.42-32.409h.017a45.7,45.7,0,0,0-13.42-32.409,45.713,45.713,0,0,0-32.442-13.421A45.691,45.691,0,0,0-4289.678-3149.64Zm23.273,62.6a48.97,48.97,0,0,0-8.366-.64,25.1,25.1,0,0,0-5.1.975l-16.117-18.076c1.188-1.488.9-.729,1.617-2.9,3.427-10.323,12.259-8.178,23-6.035,5.369,1.072,11.216,2.143,17.105,1.659,5.154-.423,12.324-4.021,14.945.073-.783.994-7.258,4.059-9.037,4.815-4.857,2.065-10.889,4.165-16.416,4.625-1.067.09-2.443-.1-2.574.964-.155,1.24,1.088,1.179,2.168,1.086a50.656,50.656,0,0,0,11.532-2.476c5.467-1.812,14.143-5.6,18.4-9.55,3.757-3.481,13.039-12.152,17.7-6.493a35.681,35.681,0,0,1-2.956,2.963l-9.542,8.74c-4.427,4-8.308,7.988-12.44,11.98-3.59,3.467-8,8.136-15.539,8.881-.5.05-1.022.072-1.56.072A52.983,52.983,0,0,1-4266.405-3087.044Zm-8.914-34.241c-12.192-16.812,1.869-29.629,12.588-23.485,1.38.79,3.691,2.622,4.259,3.85.824-.4,1.572-1.527,2.227-2.105,4.028-3.561,9.87-4.466,14.092-1.572a10.418,10.418,0,0,1,1.22.877c7.739,6.716,3.928,17.076-1.374,23.777-.919,1.161-3.448,4.619-4.411,3.093-.708-1.12,1.261-2.271,2.977-4.531,13.049-17.192-1.8-27.857-10.719-20.553-2.531,2.071-2.58,3.632-3.97,3.784-.945-.353-1-1.017-1.946-2.123-5.322-6.242-14.947-5.176-17.267,3.273-1.84,6.7,2.519,12.924,6.26,17.405a15.854,15.854,0,0,1,1.888,2.2.911.911,0,0,1-.892,1.2h-.023C-4271.677-3116.193-4274.661-3120.377-4275.319-3121.285Zm74.851,4.071v0Z" transform="translate(4424 3174)" fill="#f37335"/>
</svg>
