<svg xmlns="http://www.w3.org/2000/svg" width="162.834" height="184.174" viewBox="0 0 162.834 184.174">
  <g id="Camada_x0020_1" transform="translate(0.003 0.01)">
    <path id="Caminho_900" data-name="Caminho 900" d="M115.466,133.87a7.407,7.407,0,0,1,.991-.631,66.978,66.978,0,0,0,19.956-19.821,65.769,65.769,0,0,0,10.631-36.083,5.451,5.451,0,1,1,10.9,0,77.386,77.386,0,0,1-29.01,60.363,89.817,89.817,0,0,1,33.425,38.786,5.454,5.454,0,0,1-9.955,4.46,77.733,77.733,0,0,0-14.821-21.983,79.019,79.019,0,0,0-18.65-14.46q-3.379,1.892-6.892,3.514a5.454,5.454,0,0,1-4.46-9.955,67.388,67.388,0,0,0,7.793-4.1ZM10.37,178.016a5.525,5.525,0,0,1-7.343,2.478A5.525,5.525,0,0,1,.55,173.151a89.967,89.967,0,0,1,31.893-35.5A79.362,79.362,0,0,1,19.515,124.5,77.3,77.3,0,0,1,80.689-.01h.09L94.2.26a5.451,5.451,0,0,1-.18,10.9l-13.334-.225h0A66.347,66.347,0,0,0,44.922,133.149a4.339,4.339,0,0,1,1.126.721,64.589,64.589,0,0,0,17.929,7.613,5.441,5.441,0,1,1-2.7,10.541,75.508,75.508,0,0,1-18.785-7.658,78.164,78.164,0,0,0-17.523,13.289,79.435,79.435,0,0,0-14.55,20.271Z" transform="translate(0 0)" fill="#f37335"/>
    <g id="_1532514852144" transform="translate(49.289 52.065)">
      <path id="Caminho_901" data-name="Caminho 901" d="M11.122,26.439a5.452,5.452,0,0,1,10.541-2.793,18.349,18.349,0,0,0,9.145,11.4,25.469,25.469,0,0,0,12.478,3.2,24.775,24.775,0,0,0,12.388-3.063A18.385,18.385,0,0,0,64.5,23.646a5.452,5.452,0,0,1,10.541,2.793,29.275,29.275,0,0,1-14.01,18.2,35.612,35.612,0,0,1-17.839,4.5A37.358,37.358,0,0,1,25.4,44.548,29.228,29.228,0,0,1,11.077,26.439Z" transform="translate(-10.939 16.626)" fill="#f37335"/>
      <g id="Grupo_320" data-name="Grupo 320" transform="translate(1.849)">
        <path id="Caminho_902" data-name="Caminho 902" d="M30.81,21.28a9.753,9.753,0,1,0,0,.045Z" transform="translate(-11.35 -11.55)" fill="#f37335" fill-rule="evenodd"/>
        <path id="Caminho_903" data-name="Caminho 903" d="M39.94,21.325a9.73,9.73,0,0,1-19.46,0,9.73,9.73,0,1,1,19.46,0Z" transform="translate(20.648 -11.55)" fill="#f37335" fill-rule="evenodd"/>
      </g>
    </g>
  </g>
</svg>
