<svg xmlns="http://www.w3.org/2000/svg" width="223.019" height="236.805" viewBox="0 0 223.019 236.805">
  <path id="União_10" data-name="União 10" d="M-4270.816,8972.572a79.091,79.091,0,0,0-14.793-22,79.008,79.008,0,0,0-19.5-14.919,76.193,76.193,0,0,1-6.821,3.442,5.424,5.424,0,0,1-7.188-2.756,5.422,5.422,0,0,1,2.753-7.187,66.6,66.6,0,0,0,28.739-24.561,66,66,0,0,0,10.646-36.085l-.016-.016a5.456,5.456,0,0,1,5.46-5.461,5.456,5.456,0,0,1,5.458,5.461,76.991,76.991,0,0,1-12.439,42.025,77.742,77.742,0,0,1-16.6,18.331,90,90,0,0,1,17.4,14.217,89.566,89.566,0,0,1,16.843,25.071,5.424,5.424,0,0,1-2.752,7.188,5.4,5.4,0,0,1-2.228.479A5.417,5.417,0,0,1-4270.816,8972.572Zm-150.158-.928a5.45,5.45,0,0,1-2.449-7.316,89.794,89.794,0,0,1,16.6-23.1,90.478,90.478,0,0,1,15.307-12.392,77.991,77.991,0,0,1-12.937-13.159,76.956,76.956,0,0,1-16.106-47.182,77.027,77.027,0,0,1,22.621-54.629,77.049,77.049,0,0,1,54.626-22.639l.081.018,13.432.255a5.451,5.451,0,0,1,5.364,5.523,5.447,5.447,0,0,1-5.523,5.363l-13.338-.238v.016a66.159,66.159,0,0,0-46.893,19.42,66.1,66.1,0,0,0-19.42,46.893,65.953,65.953,0,0,0,13.8,40.522,66.368,66.368,0,0,0,16.764,15.354,5.349,5.349,0,0,1,1.1.689,65.9,65.9,0,0,0,17.931,7.636,5.451,5.451,0,0,1,3.908,6.644,5.451,5.451,0,0,1-6.646,3.906,76.779,76.779,0,0,1-18.8-7.652,78.848,78.848,0,0,0-17.53,13.3,79.184,79.184,0,0,0-14.554,20.285l-.032.031a5.451,5.451,0,0,1-4.886,3.027A5.439,5.439,0,0,1-4420.975,8971.645Zm69.6-78.274a3.135,3.135,0,0,1-3.136-3.138,3.137,3.137,0,0,1,3.136-3.138h17.4a3.137,3.137,0,0,1,3.138,3.138,3.136,3.136,0,0,1-3.138,3.138Zm21.862-38.211a43.818,43.818,0,0,0,13.552,2.059,43.789,43.789,0,0,0,12.9-1.879,15.68,15.68,0,0,1-13.144,7.087A15.74,15.74,0,0,1-4329.513,8855.159Zm-53,0a43.83,43.83,0,0,0,13.552,2.059,43.789,43.789,0,0,0,12.9-1.879,15.68,15.68,0,0,1-13.144,7.087A15.72,15.72,0,0,1-4382.511,8855.159Zm84.8-19.409a56.5,56.5,0,0,1-16.586-40.074,56.554,56.554,0,0,1,16.586-40.074,56.5,56.5,0,0,1,40.059-16.6,56.514,56.514,0,0,1,40.056,16.586,56.438,56.438,0,0,1,16.6,40.074h.016v.016a56.466,56.466,0,0,1-16.6,40.074,56.563,56.563,0,0,1-40.072,16.6A56.439,56.439,0,0,1-4297.713,8835.75Zm7.733-72.4a45.584,45.584,0,0,0-13.385,32.341,45.649,45.649,0,0,0,13.385,32.341,45.593,45.593,0,0,0,32.341,13.4,45.645,45.645,0,0,0,32.339-13.386v-.031a45.589,45.589,0,0,0,13.4-32.341h.016a45.6,45.6,0,0,0-13.4-32.341,45.624,45.624,0,0,0-32.357-13.383A45.591,45.591,0,0,0-4289.979,8763.351Zm10.774,43.66h-10.934v-22.237h11.254v-.017l29.266-14.392v53.25Zm1.971-18.636v15.178l23.63,13.257v-40.059Zm-8.936,14.648h6.71v-14.279h-6.71Zm54.275.944-6.515-6.515-6.517,6.515a1.126,1.126,0,0,1-.784.338h-.034a1.039,1.039,0,0,1-.784-.338,1.111,1.111,0,0,1,0-1.568l6.517-6.517-6.517-6.515a1.132,1.132,0,0,1,0-1.586,1.131,1.131,0,0,1,1.586,0l6.517,6.518,6.515-6.518a1.131,1.131,0,0,1,1.585,0,1.131,1.131,0,0,1,0,1.586l-6.517,6.515,6.517,6.517a1.11,1.11,0,0,1,0,1.568,1.129,1.129,0,0,1-.784.338A1.043,1.043,0,0,1-4231.9,8803.968Z" transform="translate(4424 -8739)" fill="#f37335"/>
</svg>
