<svg xmlns="http://www.w3.org/2000/svg" width="212" height="212" viewBox="0 0 212 212">
  <g id="Group_661" data-name="Group 661" transform="translate(-109 -134)">
    <path id="Path_480" data-name="Path 480" d="M598.42,1126.76Z" transform="translate(-408.934 -891.436)" fill="#fefefe" stroke="#f37335" stroke-miterlimit="22.926" stroke-width="16.49" fill-rule="evenodd"/>
    <circle id="Ellipse_4" data-name="Ellipse 4" cx="106" cy="106" r="106" transform="translate(109 134)" fill="#fff"/>
    <path id="Subtraction_1" data-name="Subtraction 1" d="M100,200a99.532,99.532,0,0,1-55.91-17.079,100.294,100.294,0,0,1-36.231-44,99.867,99.867,0,0,1,9.22-94.835,100.293,100.293,0,0,1,44-36.231,99.868,99.868,0,0,1,94.835,9.22,100.293,100.293,0,0,1,36.231,44,99.868,99.868,0,0,1-9.22,94.835,100.293,100.293,0,0,1-44,36.231A99.374,99.374,0,0,1,100,200ZM100,2.912A97.088,97.088,0,1,0,197.088,100,97.2,97.2,0,0,0,100,2.912Z" transform="translate(115 140)" fill="#7bccc6"/>
    <circle id="Ellipse_5" data-name="Ellipse 5" cx="92.5" cy="92.5" r="92.5" transform="translate(123 148)" fill="#7bccc6"/>
    <g id="Camada_x0020_1" transform="translate(161.01 181.99)">
      <path id="Path_686" data-name="Path 686" d="M31.515,95.444a2.687,2.687,0,0,1-1.349,5.2A37.935,37.935,0,0,1,20.9,96.873,38.832,38.832,0,0,0,5.1,113.427a2.694,2.694,0,1,1-4.825-2.4A44.44,44.44,0,0,1,16,93.542a38.625,38.625,0,0,1-6.374-6.478A38.064,38.064,0,0,1,39.76,25.747l.04.008,6.615.12a2.682,2.682,0,1,1-.08,5.363l-6.575-.12v.008A32.693,32.693,0,0,0,22.139,91.35a2.605,2.605,0,0,1,.546.345,32.454,32.454,0,0,0,8.831,3.765ZM109.9,27.923a11.558,11.558,0,1,0-.008.008h.008ZM69.856,29.528a.82.82,0,1,1-1.541-.562,5.032,5.032,0,0,1,4.656-3.7c-3.516-1.132-6.655-.931-8.654,2.7a1.035,1.035,0,1,1-1.814-1c4.327-7.867,11.785-3.853,18.793-.08l.883.474c.161.088.313.169.474.249,3.8.971,6.254.482,7.626-.554a3.1,3.1,0,0,0,1.268-2.079,2.352,2.352,0,0,0-.578-1.9,2.917,2.917,0,0,0-3.123-.522.823.823,0,0,1-.482-1.573,4.476,4.476,0,0,1,4.809.987,4.013,4.013,0,0,1,1,3.2,4.726,4.726,0,0,1-1.911,3.2,7.158,7.158,0,0,1-3.484,1.309c3.813,1.068,6.639.674,8.517-.417a5.315,5.315,0,0,0,2.521-3.107,3.8,3.8,0,0,0-.434-3.2c-.795-1.164-2.408-1.887-4.873-1.541a1.038,1.038,0,1,1-.289-2.055c3.364-.482,5.668.65,6.872,2.424a5.835,5.835,0,0,1,.714,4.921,7.333,7.333,0,0,1-3.476,4.335c-3.227,1.87-8.614,2.135-16.12-1.87l-.891-.474-.442-.241a21.475,21.475,0,0,0-6.286-1.581,3.6,3.6,0,0,0-3.733,2.641Zm28.057,14.33a22.466,22.466,0,0,0,6.6-15.935h.008A22.557,22.557,0,1,0,97.9,43.858ZM47.065,74.139a4.821,4.821,0,1,1,0-.008ZM35.746,59.648a7.757,7.757,0,0,1-13.005-.088,22.35,22.35,0,0,0,13.005.088Zm26.058,0A7.757,7.757,0,0,1,48.8,59.56a22.35,22.35,0,0,0,13.005.088ZM72.449,63.8a2.7,2.7,0,1,1,5.395,0A38.05,38.05,0,0,1,63.53,93.534,44.3,44.3,0,0,1,80,112.64a2.686,2.686,0,1,1-4.9,2.192A38.9,38.9,0,0,0,58.617,96.873a37.367,37.367,0,0,1-3.4,1.718,2.686,2.686,0,1,1-2.192-4.9,33.584,33.584,0,0,0,3.837-2.023,2.379,2.379,0,0,1,.49-.305,32.888,32.888,0,0,0,9.834-9.77,32.549,32.549,0,0,0,5.25-17.782Z" transform="translate(0 0)" fill="#fefefe"/>
    </g>
  </g>
</svg>
