<svg xmlns="http://www.w3.org/2000/svg" width="85.947" height="91.043" viewBox="0 0 85.947 91.043">
  <path id="União_12" data-name="União 12" d="M-11916.269,9939.8a30.281,30.281,0,0,0-5.7-8.478,30.459,30.459,0,0,0-7.18-5.566c-.862.49-1.749.943-2.663,1.35a2.1,2.1,0,0,1-2.773-1.061,2.1,2.1,0,0,1,1.061-2.774,25.489,25.489,0,0,0,2.981-1.572,2.155,2.155,0,0,1,.427-.271,25.7,25.7,0,0,0,7.667-7.621,25.431,25.431,0,0,0,4.105-13.906l0-.006a2.1,2.1,0,0,1,2.106-2.106,2.1,2.1,0,0,1,2.1,2.106,29.643,29.643,0,0,1-4.793,16.2,30,30,0,0,1-6.393,7.057,35.008,35.008,0,0,1,6.393,5.274,34.565,34.565,0,0,1,6.491,9.662,2.107,2.107,0,0,1-1.061,2.777,2.169,2.169,0,0,1-.854.184A2.11,2.11,0,0,1-11916.269,9939.8Zm-57.562-.159a2.1,2.1,0,0,1-.946-2.821,34.592,34.592,0,0,1,6.393-8.9,34.649,34.649,0,0,1,5.9-4.772,29.929,29.929,0,0,1-4.989-5.076,29.633,29.633,0,0,1-6.2-18.18,29.675,29.675,0,0,1,8.719-21.05,29.661,29.661,0,0,1,21.05-8.719l.033.009,5.173.1a2.1,2.1,0,0,1,2.067,2.131,2.1,2.1,0,0,1-2.131,2.067l-5.143-.1v.007a25.477,25.477,0,0,0-18.068,7.483,25.471,25.471,0,0,0-7.486,18.071,25.452,25.452,0,0,0,5.316,15.616,25.76,25.76,0,0,0,6.485,5.936,2.2,2.2,0,0,1,.382.237,25.349,25.349,0,0,0,6.925,2.957,2.1,2.1,0,0,1,1.506,2.561,2.1,2.1,0,0,1-2.561,1.5,29.685,29.685,0,0,1-7.234-2.945,30.2,30.2,0,0,0-6.762,5.133,30.532,30.532,0,0,0-5.608,7.817v-.006a2.1,2.1,0,0,1-1.885,1.166A2.083,2.083,0,0,1-11973.831,9939.638Zm21.534-32.082-.006,0a2.106,2.106,0,0,1-.395-2.948,2.105,2.105,0,0,1,2.949-.394,9.916,9.916,0,0,0,11.751-.043,2.105,2.105,0,0,1,2.936.484,2.109,2.109,0,0,1-.483,2.939,13.864,13.864,0,0,1-8.2,2.776A15.044,15.044,0,0,1-11952.3,9907.556Zm13.846-10.855a3.9,3.9,0,0,1-1.157-2.769,3.96,3.96,0,0,1,1.16-2.792,3.924,3.924,0,0,1,2.78-1.166,3.906,3.906,0,0,1,2.786,1.163,3.945,3.945,0,0,1,1.16,2.792,3.905,3.905,0,0,1-1.154,2.777,3.953,3.953,0,0,1-2.792,1.145A3.936,3.936,0,0,1-11938.451,9896.7Zm-15.839-.007a3.917,3.917,0,0,1-1.156-2.779,3.975,3.975,0,0,1,1.163-2.8,3.914,3.914,0,0,1,2.782-1.159,3.908,3.908,0,0,1,2.774,1.166,3.978,3.978,0,0,1,1.154,2.795,3.91,3.91,0,0,1-1.148,2.779,3.921,3.921,0,0,1-2.78,1.151A3.923,3.923,0,0,1-11954.29,9896.693Zm22.568-2.765v0Zm5.392-6.654a21.758,21.758,0,0,1-6.393-15.438,21.762,21.762,0,0,1,6.393-15.438,21.77,21.77,0,0,1,15.436-6.4,21.76,21.76,0,0,1,15.433,6.393,21.765,21.765,0,0,1,6.4,15.438h.012a21.772,21.772,0,0,1-6.4,15.444,21.783,21.783,0,0,1-15.444,6.4A21.743,21.743,0,0,1-11926.33,9887.274Zm2.978-27.9a17.584,17.584,0,0,0-5.157,12.463,17.586,17.586,0,0,0,5.157,12.464,17.57,17.57,0,0,0,12.458,5.163,17.561,17.561,0,0,0,12.466-5.163l0-.006a17.561,17.561,0,0,0,5.163-12.464h.012a17.572,17.572,0,0,0-5.163-12.464,17.589,17.589,0,0,0-12.476-5.157A17.57,17.57,0,0,0-11923.353,9859.373Zm9.723,24.689a2.047,2.047,0,0,1,2.047-2.047,2.047,2.047,0,0,1,2.047,2.047,2.047,2.047,0,0,1-2.047,2.046A2.047,2.047,0,0,1-11913.63,9884.063Zm.5-4.688c0-3.249,2.2-5.371,4.434-7.532,2.025-1.956,4.093-3.955,3.594-6.642l-.012-.042a3.977,3.977,0,0,0-1.439-2.309l-.078-.06a6.236,6.236,0,0,0-3.27-1.244,7.338,7.338,0,0,0-3.91.718,8.537,8.537,0,0,0-3.913,4.187h.006a1.621,1.621,0,0,1-2.149.781,1.619,1.619,0,0,1-.778-2.146,11.731,11.731,0,0,1,5.422-5.723,10.536,10.536,0,0,1,5.633-1.033,9.554,9.554,0,0,1,4.968,1.914l.1.084a7.186,7.186,0,0,1,2.6,4.2l.016.081c.835,4.382-1.876,7.006-4.529,9.563-1.737,1.678-3.438,3.318-3.438,5.2a1.626,1.626,0,0,1-1.626,1.622A1.623,1.623,0,0,1-11913.128,9879.374Z" transform="translate(11974.999 -9849.999)" fill="#f37335"/>
</svg>
