<svg xmlns="http://www.w3.org/2000/svg" width="163.606" height="184.578" viewBox="0 0 163.606 184.578">
  <path id="União_14" data-name="União 14" d="M-5880.816,1099.349a79.036,79.036,0,0,0-14.794-22,79.024,79.024,0,0,0-19.5-14.921,75.66,75.66,0,0,1-6.82,3.443,5.425,5.425,0,0,1-7.189-2.753,5.424,5.424,0,0,1,2.753-7.188,66.6,66.6,0,0,0,28.739-24.561,66,66,0,0,0,10.646-36.085l-.015-.017a5.456,5.456,0,0,1,5.459-5.46,5.456,5.456,0,0,1,5.458,5.46,76.976,76.976,0,0,1-12.439,42.027,77.768,77.768,0,0,1-16.6,18.332,89.951,89.951,0,0,1,17.4,14.217,89.56,89.56,0,0,1,16.843,25.072,5.423,5.423,0,0,1-2.753,7.188,5.42,5.42,0,0,1-2.227.479A5.419,5.419,0,0,1-5880.816,1099.349Zm-150.16-.93a5.449,5.449,0,0,1-2.449-7.317,89.855,89.855,0,0,1,16.6-23.1,90.568,90.568,0,0,1,15.306-12.392,77.985,77.985,0,0,1-12.937-13.16,76.966,76.966,0,0,1-16.105-47.182,77.023,77.023,0,0,1,22.623-54.626A77.04,77.04,0,0,1-5953.311,918l.081.017,13.432.254a5.453,5.453,0,0,1,5.365,5.525,5.451,5.451,0,0,1-5.524,5.363l-13.337-.241v.017a66.154,66.154,0,0,0-46.894,19.421,66.085,66.085,0,0,0-19.419,46.893,65.95,65.95,0,0,0,13.8,40.521,66.277,66.277,0,0,0,16.763,15.354,5.582,5.582,0,0,1,1.1.689,65.863,65.863,0,0,0,17.932,7.636,5.45,5.45,0,0,1,3.906,6.644,5.45,5.45,0,0,1-6.644,3.906,76.753,76.753,0,0,1-18.8-7.651,78.821,78.821,0,0,0-17.532,13.3,79.2,79.2,0,0,0-14.552,20.284l-.033.033a5.453,5.453,0,0,1-4.884,3.026A5.429,5.429,0,0,1-6030.976,1098.419Zm78.813-62.271a36.61,36.61,0,0,1-17.435-4.5,28.636,28.636,0,0,1-14.037-17.746h.044a5.322,5.322,0,0,1,3.8-6.532,5.324,5.324,0,0,1,6.534,3.8,17.977,17.977,0,0,0,8.96,11.168,24.955,24.955,0,0,0,12.228,3.135,24.282,24.282,0,0,0,12.138-3,18.016,18.016,0,0,0,8.652-11.3,5.342,5.342,0,0,1,6.532-3.8,5.343,5.343,0,0,1,3.8,6.532,28.682,28.682,0,0,1-13.728,17.834,34.861,34.861,0,0,1-17.213,4.416Zm12.648-54.214a43.792,43.792,0,0,0,13.552,2.058,43.758,43.758,0,0,0,12.9-1.878,15.676,15.676,0,0,1-13.145,7.086A15.742,15.742,0,0,1-5939.515,981.933Zm-53,0a43.779,43.779,0,0,0,13.55,2.058,43.761,43.761,0,0,0,12.9-1.878,15.675,15.675,0,0,1-13.145,7.086A15.717,15.717,0,0,1-5992.511,981.933Z" transform="translate(6034 -918)" fill="#f37335"/>
</svg>
