<svg xmlns="http://www.w3.org/2000/svg" width="153.893" height="152.195" viewBox="0 0 153.893 152.195">
  <path id="União_16" data-name="União 16" d="M-4866.022-3025.889a5.456,5.456,0,0,1,3.912-6.648v.032a65.855,65.855,0,0,0,17.923-7.642,5.311,5.311,0,0,1,1.108-.7q2.073-1.328,4.038-2.8a66.6,66.6,0,0,0,15.4-16.614,65.894,65.894,0,0,0,10.623-36.007l.014-.014a5.445,5.445,0,0,1,5.448-5.448,5.445,5.445,0,0,1,5.448,5.448,76.717,76.717,0,0,1-12.412,41.932q-.261.4-.525.8a28.357,28.357,0,0,1-2.633,4.008,78.4,78.4,0,0,1-12.938,13.148l-.345.231a77.039,77.039,0,0,1-16.916,10.325,5.434,5.434,0,0,1-1.139.366,76.279,76.279,0,0,1-10.359,3.5,5.487,5.487,0,0,1-1.367.174A5.451,5.451,0,0,1-4866.022-3025.889Zm-32.183,3.911a77.042,77.042,0,0,1-18.8-7.658c-5.24-4.123-4.84-3.323-9.956-6.762a78.414,78.414,0,0,1-12.937-13.148,76.9,76.9,0,0,1-16.1-47.188,77.037,77.037,0,0,1,22.633-54.632A77.035,77.035,0,0,1-4878.735-3174l.082.016,13.427.244a5.442,5.442,0,0,1,5.359,5.524,5.441,5.441,0,0,1-5.523,5.361l-13.345-.244v.016a66.141,66.141,0,0,0-46.91,19.438,66.1,66.1,0,0,0-19.422,46.91,65.993,65.993,0,0,0,13.8,40.523,66.62,66.62,0,0,0,16.765,15.366,5.3,5.3,0,0,1,1.108.7,65.858,65.858,0,0,0,17.923,7.642v-.032a5.456,5.456,0,0,1,3.912,6.648,5.45,5.45,0,0,1-5.28,4.084A5.491,5.491,0,0,1-4898.205-3021.978Zm13.214-46.033a3.138,3.138,0,0,1-3.138-3.138,3.138,3.138,0,0,1,3.138-3.138h17.4a3.139,3.139,0,0,1,3.138,3.138,3.139,3.139,0,0,1-3.138,3.138Zm21.6-37.36a43.717,43.717,0,0,0,13.524,2.053,43.643,43.643,0,0,0,12.872-1.874,15.643,15.643,0,0,1-13.116,7.072A15.709,15.709,0,0,1-4863.388-3105.371Zm-52.89,0a43.716,43.716,0,0,0,13.523,2.053,43.644,43.644,0,0,0,12.872-1.874A15.643,15.643,0,0,1-4903-3098.12,15.687,15.687,0,0,1-4916.277-3105.371Z" transform="translate(4956 3174)" fill="#f37335"/>
</svg>
