<svg xmlns="http://www.w3.org/2000/svg" width="223.022" height="236.806" viewBox="0 0 223.022 236.806">
  <path id="União_9" data-name="União 9" d="M-4270.815,7861.574a79.1,79.1,0,0,0-14.793-22,78.982,78.982,0,0,0-19.5-14.92,76.228,76.228,0,0,1-6.819,3.442,5.425,5.425,0,0,1-7.188-2.755,5.421,5.421,0,0,1,2.753-7.187,66.588,66.588,0,0,0,28.738-24.56,66,66,0,0,0,10.647-36.087l-.016-.016a5.456,5.456,0,0,1,5.459-5.459,5.456,5.456,0,0,1,5.459,5.459,76.971,76.971,0,0,1-12.441,42.026,77.747,77.747,0,0,1-16.6,18.333,89.945,89.945,0,0,1,17.4,14.215,89.586,89.586,0,0,1,16.843,25.073,5.422,5.422,0,0,1-2.754,7.187,5.417,5.417,0,0,1-2.226.479A5.419,5.419,0,0,1-4270.815,7861.574Zm-150.159-.93a5.451,5.451,0,0,1-2.45-7.317,89.874,89.874,0,0,1,16.6-23.1,90.389,90.389,0,0,1,15.307-12.394,77.88,77.88,0,0,1-12.936-13.16,76.945,76.945,0,0,1-16.106-47.182,77.03,77.03,0,0,1,22.622-54.627,77.042,77.042,0,0,1,54.627-22.638l.079.016,13.434.255a5.451,5.451,0,0,1,5.363,5.524,5.45,5.45,0,0,1-5.525,5.363l-13.335-.241v.018a66.144,66.144,0,0,0-46.894,19.42,66.079,66.079,0,0,0-19.42,46.894,65.94,65.94,0,0,0,13.8,40.52,66.3,66.3,0,0,0,16.762,15.354,5.519,5.519,0,0,1,1.1.688,65.882,65.882,0,0,0,17.93,7.637,5.451,5.451,0,0,1,3.908,6.644,5.451,5.451,0,0,1-6.646,3.906,76.746,76.746,0,0,1-18.794-7.652,78.841,78.841,0,0,0-17.531,13.305,79.179,79.179,0,0,0-14.553,20.283l-.032.034a5.453,5.453,0,0,1-4.885,3.026A5.427,5.427,0,0,1-4420.975,7860.644Zm69.6-78.273a3.139,3.139,0,0,1-3.139-3.138,3.139,3.139,0,0,1,3.139-3.139h17.4a3.139,3.139,0,0,1,3.138,3.139,3.139,3.139,0,0,1-3.138,3.138Zm21.86-38.211a43.8,43.8,0,0,0,13.552,2.057,43.83,43.83,0,0,0,12.9-1.877,15.68,15.68,0,0,1-13.144,7.086A15.744,15.744,0,0,1-4329.514,7744.16Zm-53,0a43.788,43.788,0,0,0,13.55,2.057,43.822,43.822,0,0,0,12.9-1.877,15.675,15.675,0,0,1-13.144,7.086A15.718,15.718,0,0,1-4382.511,7744.16Zm84.8-19.411a56.492,56.492,0,0,1-16.586-40.074,56.548,56.548,0,0,1,16.586-40.072,56.5,56.5,0,0,1,40.059-16.6,56.5,56.5,0,0,1,40.056,16.588,56.439,56.439,0,0,1,16.6,40.072h.016v.016a56.462,56.462,0,0,1-16.6,40.074,56.563,56.563,0,0,1-40.072,16.6A56.431,56.431,0,0,1-4297.712,7724.749Zm7.733-72.4a45.571,45.571,0,0,0-13.384,32.341,45.646,45.646,0,0,0,13.384,32.339,45.588,45.588,0,0,0,32.341,13.4,45.646,45.646,0,0,0,32.341-13.384v-.032a45.592,45.592,0,0,0,13.4-32.34h.016a45.6,45.6,0,0,0-13.4-32.341,45.623,45.623,0,0,0-32.356-13.385A45.588,45.588,0,0,0-4289.979,7652.352Zm26.344,67.918c-2.2-1.231-4.492-2.491-6.922-2.491s-4.717,1.259-6.92,2.491a22.045,22.045,0,0,1-3.8,1.83,43.9,43.9,0,0,1-15.289-16.6,5.092,5.092,0,0,1,1.15-.142c1.7,0,3.561,1.037,5.511,2.126,2.2,1.231,4.49,2.491,6.92,2.491s4.719-1.259,6.922-2.491c1.948-1.089,3.813-2.126,5.507-2.126s3.561,1.037,5.509,2.126c2.2,1.231,4.49,2.491,6.922,2.491s4.715-1.259,6.92-2.491c1.95-1.089,3.815-2.126,5.509-2.126s3.531,1.037,5.507,2.126c2.207,1.231,4.493,2.491,6.922,2.491s4.717-1.259,6.922-2.491c1.948-1.089,3.813-2.126,5.507-2.126a6.138,6.138,0,0,1,2.155.454,43.915,43.915,0,0,1-15.457,16.5,16.989,16.989,0,0,1-4.634-2.041c-2.205-1.231-4.493-2.491-6.922-2.491s-4.717,1.259-6.922,2.491c-1.948,1.09-3.812,2.126-5.507,2.126S-4261.685,7721.36-4263.635,7720.271Zm24.86-15.279c-2.205-1.231-4.493-2.489-6.922-2.489s-4.717,1.257-6.922,2.489c-1.948,1.094-3.812,2.128-5.507,2.128s-3.559-1.034-5.509-2.128c-2.2-1.231-4.492-2.489-6.922-2.489s-4.717,1.257-6.92,2.489c-1.948,1.094-3.813,2.128-5.509,2.128s-3.559-1.034-5.509-2.128c-2.2-1.231-4.465-2.489-6.922-2.489a8.336,8.336,0,0,0-2.414.377,42.988,42.988,0,0,1-3.13-10.652c.012-.006.024-.014.038-.02,1.948-1.089,3.815-2.125,5.507-2.125s3.561,1.036,5.511,2.125c2.2,1.232,4.49,2.489,6.92,2.489s4.719-1.257,6.922-2.489c1.948-1.089,3.813-2.125,5.507-2.125s3.561,1.036,5.509,2.125c2.2,1.232,4.49,2.489,6.922,2.489s4.715-1.257,6.92-2.489c1.95-1.089,3.815-2.125,5.509-2.125s3.531,1.036,5.507,2.125c2.207,1.232,4.493,2.489,6.922,2.489s4.717-1.257,6.922-2.489c1.948-1.089,3.813-2.125,5.507-2.125s3.531,1.036,5.509,2.125c.367.206.738.411,1.111.612a42.955,42.955,0,0,1-3.2,10.418,9.263,9.263,0,0,0-3.424-.734c-2.428,0-4.716,1.257-6.92,2.489-1.948,1.094-3.813,2.128-5.509,2.128S-4236.8,7706.085-4238.774,7704.991Zm0-15.275c-2.205-1.232-4.493-2.489-6.922-2.489s-4.717,1.257-6.922,2.489c-1.948,1.091-3.812,2.125-5.507,2.125s-3.559-1.034-5.509-2.125c-2.2-1.232-4.492-2.489-6.922-2.489s-4.717,1.257-6.92,2.489c-1.948,1.091-3.813,2.125-5.509,2.125s-3.559-1.034-5.509-2.125c-2.2-1.232-4.465-2.489-6.922-2.489a12.639,12.639,0,0,0-5.917,1.935q-.154-1.83-.154-3.7a43.306,43.306,0,0,1,.878-8.706c1.833-1.022,3.59-1.952,5.193-1.952,1.7,0,3.561,1.038,5.511,2.127,2.2,1.232,4.49,2.489,6.92,2.489s4.719-1.257,6.922-2.489c1.948-1.089,3.813-2.127,5.507-2.127s3.561,1.038,5.509,2.127c2.2,1.232,4.49,2.489,6.922,2.489s4.715-1.257,6.92-2.489c1.95-1.089,3.815-2.127,5.509-2.127s3.531,1.038,5.507,2.127c2.207,1.232,4.493,2.489,6.922,2.489s4.717-1.257,6.922-2.489c1.948-1.089,3.813-2.127,5.507-2.127s3.531,1.038,5.509,2.127c.332.184.663.369,1,.551a43.365,43.365,0,0,1,.736,7.98q0,2.183-.213,4.313c-.036-.018-.071-.04-.109-.059-2.2-1.232-4.49-2.489-6.922-2.489s-4.716,1.257-6.92,2.489c-1.948,1.091-3.813,2.125-5.509,2.125S-4236.8,7690.808-4238.774,7689.716Z" transform="translate(4424 -7627.999)" fill="#f37335"/>
</svg>
