<svg xmlns="http://www.w3.org/2000/svg" width="223.533" height="236.759" viewBox="0 0 223.533 236.759">
  <path id="União_10" data-name="União 10" d="M-4230.594-7349.46a77.723,77.723,0,0,0-14.819-21.984,79.086,79.086,0,0,0-18.65-14.459q-3.38,1.893-6.891,3.515a5.466,5.466,0,0,1-7.209-2.748,5.463,5.463,0,0,1,2.748-7.207,67.7,67.7,0,0,0,7.793-4.1l.09-.09a7.324,7.324,0,0,1,.991-.63,66.971,66.971,0,0,0,19.956-19.82,65.771,65.771,0,0,0,10.632-36.084,5.44,5.44,0,0,1,5.45-5.45,5.44,5.44,0,0,1,5.451,5.45,77.138,77.138,0,0,1-12.433,42.03,77.466,77.466,0,0,1-16.578,18.334,89.722,89.722,0,0,1,16.578,13.695,89.925,89.925,0,0,1,16.848,25.09,5.464,5.464,0,0,1-2.75,7.209,5.466,5.466,0,0,1-2.221.47A5.439,5.439,0,0,1-4230.594-7349.46Zm-149.375-.451a5.525,5.525,0,0,1-2.48-7.342,90.718,90.718,0,0,1,16.58-23.111,90.041,90.041,0,0,1,15.314-12.387,79.359,79.359,0,0,1-12.928-13.152,77.006,77.006,0,0,1-16.081-47.21,77.04,77.04,0,0,1,22.612-54.643,77.08,77.08,0,0,1,54.643-22.658h.09l13.424.271a5.44,5.44,0,0,1,5.361,5.54,5.443,5.443,0,0,1-5.542,5.361l-13.333-.225a66.105,66.105,0,0,0-46.894,19.415,66.187,66.187,0,0,0-19.417,46.894,66.155,66.155,0,0,0,13.784,40.543,66.5,66.5,0,0,0,16.759,15.36,4.333,4.333,0,0,1,1.126.721,64.6,64.6,0,0,0,17.929,7.612,5.433,5.433,0,0,1,3.918,6.623,5.431,5.431,0,0,1-6.621,3.918,75.434,75.434,0,0,1-18.785-7.658,78.249,78.249,0,0,0-17.524,13.289,79.442,79.442,0,0,0-14.549,20.272l-.046.089a5.506,5.506,0,0,1-4.933,3.032A5.522,5.522,0,0,1-4379.968-7349.911Zm78.515-62.661a37.358,37.358,0,0,1-17.793-4.6,29.226,29.226,0,0,1-14.325-18.108h.046a5.431,5.431,0,0,1,3.873-6.667,5.434,5.434,0,0,1,6.668,3.873,18.345,18.345,0,0,0,9.144,11.4,25.458,25.458,0,0,0,12.477,3.2,24.787,24.787,0,0,0,12.389-3.064,18.4,18.4,0,0,0,8.831-11.533,5.451,5.451,0,0,1,6.667-3.873,5.451,5.451,0,0,1,3.873,6.667,29.278,29.278,0,0,1-14.008,18.2,35.572,35.572,0,0,1-17.565,4.506C-4301.27-7412.57-4301.362-7412.57-4301.453-7412.572Zm10.722-55.994a9.785,9.785,0,0,1,9.73-9.774,9.756,9.756,0,0,1,9.73,9.774,9.682,9.682,0,0,1-9.73,9.687A9.71,9.71,0,0,1-4290.731-7468.566Zm-41.127,0a9.784,9.784,0,0,1,9.729-9.774,9.788,9.788,0,0,1,9.732,9.751,9.751,9.751,0,0,1-9.732,9.709A9.68,9.68,0,0,1-4331.858-7468.566Zm19.461-.023v0Zm55.979-17.478a56.627,56.627,0,0,1-16.637-40.147,56.572,56.572,0,0,1,16.637-40.149A56.635,56.635,0,0,1-4216.269-7583a56.594,56.594,0,0,1,40.147,16.637,56.627,56.627,0,0,1,16.637,40.149h.017a56.6,56.6,0,0,1-16.637,40.147,56.659,56.659,0,0,1-40.165,16.637A56.564,56.564,0,0,1-4256.418-7486.067Zm7.74-72.574a45.7,45.7,0,0,0-13.42,32.41,45.7,45.7,0,0,0,13.42,32.41,45.7,45.7,0,0,0,32.41,13.42,45.7,45.7,0,0,0,32.41-13.42h.015a45.7,45.7,0,0,0,13.42-32.41h.017a45.7,45.7,0,0,0-13.42-32.41,45.715,45.715,0,0,0-32.442-13.42A45.7,45.7,0,0,0-4248.679-7558.641Zm31.643,55.463-13.541-12.092v-21.891l13.541-12.09a3.274,3.274,0,0,1,5.456,2.441v41.188a3.275,3.275,0,0,1-3.294,3.283A3.221,3.221,0,0,1-4217.036-7503.178Zm21.783-9.4a1.355,1.355,0,0,1-.257-1.9,19.3,19.3,0,0,0,2.906-5.437,19.356,19.356,0,0,0,1.047-6.3,19.354,19.354,0,0,0-1.047-6.3,19.248,19.248,0,0,0-2.906-5.437,1.355,1.355,0,0,1,.257-1.9,1.354,1.354,0,0,1,1.9.259,21.963,21.963,0,0,1,3.315,6.2,22.071,22.071,0,0,1,1.193,7.184,22.069,22.069,0,0,1-1.193,7.184,21.989,21.989,0,0,1-3.315,6.2,1.348,1.348,0,0,1-1.079.535A1.354,1.354,0,0,1-4195.253-7512.573Zm-45.493-2.7a2.933,2.933,0,0,1-2.933-2.933v-16.026a2.931,2.931,0,0,1,2.933-2.933h8.328v21.891Zm41.584-.385a1.356,1.356,0,0,1-.269-1.9,14.29,14.29,0,0,0,2.891-8.663,14.286,14.286,0,0,0-2.891-8.661,1.357,1.357,0,0,1,.269-1.9,1.357,1.357,0,0,1,1.9.268,16.983,16.983,0,0,1,3.435,10.292,17,17,0,0,1-3.435,10.294,1.357,1.357,0,0,1-1.086.542A1.35,1.35,0,0,1-4199.162-7515.654Zm-4.136-3.256a1.359,1.359,0,0,1-.289-1.9,9.072,9.072,0,0,0,1.77-5.407,9.072,9.072,0,0,0-1.77-5.407,1.359,1.359,0,0,1,.289-1.9,1.356,1.356,0,0,1,1.9.29,11.758,11.758,0,0,1,2.3,7.015,11.764,11.764,0,0,1-2.3,7.013,1.356,1.356,0,0,1-1.094.554A1.357,1.357,0,0,1-4203.3-7518.91Zm-6.442-13.535a6.316,6.316,0,0,1,5.287,6.23,6.316,6.316,0,0,1-5.287,6.229Zm50.272,6.23v0Z" transform="translate(4383 7583)" fill="#f37335"/>
</svg>
