<svg xmlns="http://www.w3.org/2000/svg" width="223.122" height="214.038" viewBox="0 0 223.122 214.038">
  <path id="União_11" data-name="União 11" d="M-4271.593-8839.183a77.709,77.709,0,0,0-14.82-21.983,79.059,79.059,0,0,0-18.649-14.459q-3.379,1.891-6.893,3.514a5.464,5.464,0,0,1-7.207-2.748,5.464,5.464,0,0,1,2.748-7.209,67.215,67.215,0,0,0,7.792-4.1l.089-.091a7.612,7.612,0,0,1,.992-.631,67.006,67.006,0,0,0,19.956-19.819,65.778,65.778,0,0,0,10.631-36.083,5.441,5.441,0,0,1,5.451-5.451,5.441,5.441,0,0,1,5.451,5.451,77.13,77.13,0,0,1-12.433,42.029,77.555,77.555,0,0,1-16.578,18.334,89.62,89.62,0,0,1,16.578,13.693,89.887,89.887,0,0,1,16.846,25.09,5.464,5.464,0,0,1-2.749,7.209,5.455,5.455,0,0,1-2.221.473A5.438,5.438,0,0,1-4271.593-8839.183Zm-149.375-.45a5.525,5.525,0,0,1-2.478-7.343,90.719,90.719,0,0,1,16.578-23.109,90.088,90.088,0,0,1,15.315-12.388,79.513,79.513,0,0,1-12.928-13.152,77.008,77.008,0,0,1-16.083-47.211,77.035,77.035,0,0,1,22.615-54.642,77.073,77.073,0,0,1,54.642-22.66h.091l13.423.271a5.445,5.445,0,0,1,5.362,5.542,5.442,5.442,0,0,1-5.542,5.359l-13.334-.225a66.111,66.111,0,0,0-46.895,19.415,66.186,66.186,0,0,0-19.415,46.895,66.138,66.138,0,0,0,13.784,40.542,66.472,66.472,0,0,0,16.757,15.362,4.347,4.347,0,0,1,1.126.72,64.528,64.528,0,0,0,17.929,7.613,5.431,5.431,0,0,1,3.918,6.621,5.432,5.432,0,0,1-6.621,3.92,75.537,75.537,0,0,1-18.786-7.658,78.182,78.182,0,0,0-17.522,13.289,79.385,79.385,0,0,0-14.55,20.271l-.045.091a5.5,5.5,0,0,1-4.933,3.03A5.542,5.542,0,0,1-4420.969-8839.633Zm78.517-62.661a37.373,37.373,0,0,1-17.8-4.595A29.232,29.232,0,0,1-4374.572-8925h.045a5.436,5.436,0,0,1,3.875-6.669,5.434,5.434,0,0,1,6.666,3.875,18.355,18.355,0,0,0,9.144,11.4,25.484,25.484,0,0,0,12.478,3.2,24.763,24.763,0,0,0,12.39-3.063,18.389,18.389,0,0,0,8.829-11.531,5.454,5.454,0,0,1,6.666-3.875A5.456,5.456,0,0,1-4310.6-8925a29.284,29.284,0,0,1-14.009,18.2,35.568,35.568,0,0,1-17.566,4.506Zm10.72-55.993a9.785,9.785,0,0,1,9.73-9.775,9.756,9.756,0,0,1,9.73,9.775,9.679,9.679,0,0,1-9.73,9.685A9.709,9.709,0,0,1-4331.731-8958.287Zm-41.128,0a9.785,9.785,0,0,1,9.73-9.775,9.785,9.785,0,0,1,9.73,9.753,9.746,9.746,0,0,1-9.73,9.707A9.68,9.68,0,0,1-4372.859-8958.287Zm19.46-.022v0Zm74.924-4.193a1.362,1.362,0,0,1-.561-1.635l5.878-16.875c-5.462-4.266-8.585-4.12-8.585-16.605s12.024-22.631,26.776-22.631v-.025c14.779,0,26.776,10.146,26.776,22.631s-12.022,22.631-26.776,22.631a31.039,31.039,0,0,1-7.534-.9l-14.241,13.266a1.567,1.567,0,0,1-.952.368A1.524,1.524,0,0,1-4278.475-8962.5Zm8.122-26.46a1.415,1.415,0,0,0,1.413,1.415h27.923a1.415,1.415,0,0,0,1.415-1.415,1.415,1.415,0,0,0-1.415-1.412h-27.923A1.414,1.414,0,0,0-4270.353-8988.963Zm0-8.655a1.416,1.416,0,0,0,1.413,1.415h27.923a1.417,1.417,0,0,0,1.415-1.415,1.415,1.415,0,0,0-1.415-1.415h-27.923A1.415,1.415,0,0,0-4270.353-8997.618Zm0-8.658a1.415,1.415,0,0,0,1.413,1.415h27.923a1.415,1.415,0,0,0,1.415-1.415,1.415,1.415,0,0,0-1.415-1.415h-27.923A1.415,1.415,0,0,0-4270.353-9006.276Zm-21.143,25c-9.9,0-17.559-9.437-17.559-17.557s2.732-11.706,8.56-15.095v-.123a17.61,17.61,0,0,1,16.508-17.534,17.47,17.47,0,0,1,15.949-10.168h1.479a22.008,22.008,0,0,1,17.13-8.242c6.657,0,9.437,1.535,13.266,4.463a22.206,22.206,0,0,1,7.414,10.168c.511-.047,1-.072,1.51-.072a17.036,17.036,0,0,1,17.021,17.021c0,1.992,0,3.255-.018,4.019a17.506,17.506,0,0,1,9.36,15.539,17.579,17.579,0,0,1-17.559,17.56h-6.877a1.415,1.415,0,0,1-1.413-1.415,1.416,1.416,0,0,1,1.413-1.415h6.853a14.757,14.757,0,0,0,14.754-14.754c0-8.145-3.609-11.363-9.169-13.655a1.38,1.38,0,0,1-.8-1.708,14.244,14.244,0,0,0,.633-4.192,14.207,14.207,0,0,0-14.193-14.2c-1.579,0-2.583,0-3.184.007a1.4,1.4,0,0,1-.643-.834,19.2,19.2,0,0,0-18.338-13.754c-8.438,0-11.8,2.9-15.413,7.8a1.382,1.382,0,0,1-1.317.561,16.8,16.8,0,0,0-1.9-.122,14.724,14.724,0,0,0-13.705,9.267,1.4,1.4,0,0,1-1.292.879,14.8,14.8,0,0,0-14.654,14.754v.977a1.435,1.435,0,0,1-.731,1.192c-5.487,2.928-7.829,6.827-7.829,13.046s6.584,14.755,14.754,14.755h6.168a1.415,1.415,0,0,1,1.415,1.414,1.415,1.415,0,0,1-1.415,1.413Zm80.838-33.335c.057.029.116.057.172.086-.029-.146-.063-.243-.1-.243S-4210.63-9014.728-4210.658-9014.616Zm-55.941-27.092s.007-.009.009-.014C-4266.635-9041.717-4266.642-9041.712-4266.6-9041.708Zm-31.091,28.606v0Zm0-.125v0Zm67.4-19.337c.524.024,1.036.057.788.1a1.4,1.4,0,0,1-.236.021A1.388,1.388,0,0,1-4230.295-9032.563Zm-.129-.068a1.257,1.257,0,0,0,.129.068C-4231.047-9032.6-4231.828-9032.623-4230.424-9032.632Z" transform="translate(4424 9050)" fill="#f37335"/>
</svg>
