<svg xmlns="http://www.w3.org/2000/svg" width="223.532" height="236.759" viewBox="0 0 223.532 236.759">
  <path id="União_8" data-name="União 8" d="M-4271.592-4074.461a77.766,77.766,0,0,0-14.82-21.983,79.063,79.063,0,0,0-18.65-14.459q-3.379,1.89-6.893,3.514a5.463,5.463,0,0,1-7.207-2.749,5.463,5.463,0,0,1,2.749-7.207,67.4,67.4,0,0,0,7.792-4.1l.09-.09a7.09,7.09,0,0,1,.991-.631,66.973,66.973,0,0,0,19.955-19.822,65.768,65.768,0,0,0,10.632-36.083,5.441,5.441,0,0,1,5.45-5.45,5.44,5.44,0,0,1,5.451,5.45,77.13,77.13,0,0,1-12.433,42.029,77.5,77.5,0,0,1-16.577,18.334,89.761,89.761,0,0,1,16.577,13.694,89.9,89.9,0,0,1,16.848,25.092,5.463,5.463,0,0,1-2.749,7.207,5.477,5.477,0,0,1-2.223.472A5.435,5.435,0,0,1-4271.592-4074.461Zm-149.376-.45a5.525,5.525,0,0,1-2.479-7.344,90.724,90.724,0,0,1,16.578-23.109,90.009,90.009,0,0,1,15.315-12.387,79.526,79.526,0,0,1-12.929-13.153,77.008,77.008,0,0,1-16.081-47.21,77.041,77.041,0,0,1,22.613-54.642,77.076,77.076,0,0,1,54.643-22.659h.09l13.423.271a5.441,5.441,0,0,1,5.361,5.54,5.441,5.441,0,0,1-5.542,5.36l-13.333-.224a66.114,66.114,0,0,0-46.9,19.414,66.2,66.2,0,0,0-19.416,46.9,66.138,66.138,0,0,0,13.784,40.542,66.451,66.451,0,0,0,16.758,15.361,4.29,4.29,0,0,1,1.126.722,64.612,64.612,0,0,0,17.928,7.612,5.433,5.433,0,0,1,3.92,6.622,5.435,5.435,0,0,1-6.622,3.92,75.531,75.531,0,0,1-18.786-7.659,78.2,78.2,0,0,0-17.523,13.289,79.448,79.448,0,0,0-14.55,20.272l-.044.09a5.5,5.5,0,0,1-4.933,3.03A5.527,5.527,0,0,1-4420.969-4074.911Zm78.517-62.66a37.357,37.357,0,0,1-17.794-4.6,29.223,29.223,0,0,1-14.324-18.108h.044a5.433,5.433,0,0,1,3.874-6.667,5.432,5.432,0,0,1,6.667,3.875,18.357,18.357,0,0,0,9.145,11.4,25.467,25.467,0,0,0,12.479,3.2,24.784,24.784,0,0,0,12.388-3.064,18.391,18.391,0,0,0,8.83-11.532,5.452,5.452,0,0,1,6.666-3.875,5.453,5.453,0,0,1,3.875,6.667,29.284,29.284,0,0,1-14.01,18.2,35.57,35.57,0,0,1-17.564,4.507Zm10.722-56a9.785,9.785,0,0,1,9.729-9.774,9.757,9.757,0,0,1,9.73,9.774,9.681,9.681,0,0,1-9.73,9.687A9.709,9.709,0,0,1-4331.73-4193.566Zm-41.128,0a9.785,9.785,0,0,1,9.73-9.774,9.787,9.787,0,0,1,9.731,9.752,9.749,9.749,0,0,1-9.731,9.709A9.681,9.681,0,0,1-4372.859-4193.566Zm19.461-.022v0Zm55.98-17.478a56.628,56.628,0,0,1-16.637-40.147,56.561,56.561,0,0,1,16.637-40.149A56.626,56.626,0,0,1-4257.27-4308a56.589,56.589,0,0,1,40.148,16.637,56.63,56.63,0,0,1,16.637,40.149h.017a56.6,56.6,0,0,1-16.637,40.147,56.666,56.666,0,0,1-40.165,16.637A56.557,56.557,0,0,1-4297.417-4211.066Zm7.739-72.573a45.691,45.691,0,0,0-13.421,32.409,45.693,45.693,0,0,0,13.421,32.409,45.691,45.691,0,0,0,32.409,13.421,45.694,45.694,0,0,0,32.409-13.421h.017a45.694,45.694,0,0,0,13.42-32.409h.017a45.7,45.7,0,0,0-13.42-32.409,45.715,45.715,0,0,0-32.442-13.421A45.692,45.692,0,0,0-4289.678-4283.64Zm39.2,36.452a15.529,15.529,0,0,1,15.529-15.529,15.529,15.529,0,0,1,15.53,15.529,15.53,15.53,0,0,1-15.53,15.53A15.53,15.53,0,0,1-4250.48-4247.187Zm4.062,0a11.468,11.468,0,0,0,11.467,11.468,11.467,11.467,0,0,0,11.466-11.468,11.466,11.466,0,0,0-11.466-11.467A11.467,11.467,0,0,0-4246.418-4247.187Zm-48.683,0a15.529,15.529,0,0,1,15.53-15.529,15.529,15.529,0,0,1,15.529,15.529,15.53,15.53,0,0,1-15.529,15.53A15.53,15.53,0,0,1-4295.1-4247.187Zm4.063,0a11.468,11.468,0,0,0,11.467,11.468,11.467,11.467,0,0,0,11.466-11.468,11.467,11.467,0,0,0-11.466-11.467A11.467,11.467,0,0,0-4291.038-4247.187Zm46.064,0a10.023,10.023,0,0,1,10.022-10.023,10.023,10.023,0,0,1,10.023,10.023,10.023,10.023,0,0,1-10.023,10.022A10.022,10.022,0,0,1-4244.973-4247.187Zm-44.621,0a10.023,10.023,0,0,1,10.023-10.023,10.023,10.023,0,0,1,10.022,10.023,10.023,10.023,0,0,1-10.022,10.022A10.023,10.023,0,0,1-4289.594-4247.187Zm32.333-7.29a7.325,7.325,0,0,0-6.158,3.351c-.085-.35-.181-.7-.289-1.036l-.033-.189-.064-.112a16.654,16.654,0,0,0-15.767-11.35,16.536,16.536,0,0,0-5.618.979l13.3-12.742a7.4,7.4,0,0,1,6.633-1.9,7.41,7.41,0,0,1,5.892,7.661h.007a2.938,2.938,0,0,1,2.1-.877,2.938,2.938,0,0,1,2.1.877h.007a7.409,7.409,0,0,1,5.892-7.661,7.4,7.4,0,0,1,6.633,1.9l13.3,12.742a16.534,16.534,0,0,0-5.618-.979,16.654,16.654,0,0,0-15.767,11.35l-.064.112-.033.189c-.108.34-.2.686-.288,1.036A7.328,7.328,0,0,0-4257.262-4254.477Zm3.9-11.714a.564.564,0,0,0,.222.044.586.586,0,0,0,.556-.412,8.378,8.378,0,0,1,7.43-5.807.584.584,0,0,0,.545-.625.6.6,0,0,0-.646-.537,9.542,9.542,0,0,0-8.205,5.96h-2.031a.38.38,0,0,1-.384-.377,1.277,1.277,0,0,0-.019-.241,1.4,1.4,0,0,0-1.353-1.166,1.392,1.392,0,0,0-1.41,1.392v0a.381.381,0,0,1-.378.39h-2.038a9.542,9.542,0,0,0-8.2-5.96.6.6,0,0,0-.645.538.581.581,0,0,0,.545.624,8.376,8.376,0,0,1,7.429,5.807.586.586,0,0,0,.558.412.564.564,0,0,0,.222-.044Zm52.891,14.977v0Zm-55.676-24.206c.4-2.488,3.037-4.133,5.89-3.675a5.885,5.885,0,0,1,1.911.655,7.991,7.991,0,0,0-5.083,2.19,8.018,8.018,0,0,0-2.179,3.6A4.166,4.166,0,0,1-4256.144-4275.42Zm-4.955-.83a8,8,0,0,0-5.082-2.19,5.862,5.862,0,0,1,1.911-.655c2.853-.458,5.489,1.187,5.889,3.675a4.157,4.157,0,0,1-.539,2.767A8.015,8.015,0,0,0-4261.1-4276.25Z" transform="translate(4424 4308)" fill="#f37335"/>
</svg>
