<svg xmlns="http://www.w3.org/2000/svg" width="223.532" height="236.76" viewBox="0 0 223.532 236.76">
  <path id="União_9" data-name="União 9" d="M-4230.592-6297.459a77.751,77.751,0,0,0-14.82-21.983,79.006,79.006,0,0,0-18.651-14.46q-3.378,1.891-6.893,3.513a5.462,5.462,0,0,1-7.207-2.747,5.462,5.462,0,0,1,2.749-7.207,67.376,67.376,0,0,0,7.792-4.1l.09-.088a7.111,7.111,0,0,1,.992-.631,67.013,67.013,0,0,0,19.956-19.821,65.779,65.779,0,0,0,10.631-36.083,5.441,5.441,0,0,1,5.45-5.452,5.441,5.441,0,0,1,5.452,5.452,77.13,77.13,0,0,1-12.432,42.029,77.531,77.531,0,0,1-16.578,18.335,89.683,89.683,0,0,1,16.578,13.694,89.868,89.868,0,0,1,16.848,25.091,5.464,5.464,0,0,1-2.749,7.207,5.49,5.49,0,0,1-2.223.472A5.435,5.435,0,0,1-4230.592-6297.459Zm-149.378-.451a5.525,5.525,0,0,1-2.477-7.343,90.7,90.7,0,0,1,16.578-23.109,90,90,0,0,1,15.315-12.388,79.377,79.377,0,0,1-12.929-13.154,77.008,77.008,0,0,1-16.081-47.21,77.037,77.037,0,0,1,22.614-54.642,77.073,77.073,0,0,1,54.641-22.658h.09l13.424.269a5.443,5.443,0,0,1,5.361,5.542,5.442,5.442,0,0,1-5.542,5.36l-13.334-.225a66.112,66.112,0,0,0-46.894,19.415,66.192,66.192,0,0,0-19.416,46.9,66.137,66.137,0,0,0,13.784,40.542,66.452,66.452,0,0,0,16.758,15.361,4.322,4.322,0,0,1,1.126.721,64.592,64.592,0,0,0,17.93,7.612,5.435,5.435,0,0,1,3.919,6.622,5.434,5.434,0,0,1-6.622,3.919,75.481,75.481,0,0,1-18.785-7.658,78.171,78.171,0,0,0-17.523,13.29,79.374,79.374,0,0,0-14.55,20.27l-.046.09a5.5,5.5,0,0,1-4.932,3.031A5.538,5.538,0,0,1-4379.97-6297.911Zm78.518-62.661a37.365,37.365,0,0,1-17.794-4.594,29.233,29.233,0,0,1-14.325-18.11h.046a5.431,5.431,0,0,1,3.873-6.666,5.432,5.432,0,0,1,6.667,3.875,18.349,18.349,0,0,0,9.145,11.4,25.463,25.463,0,0,0,12.478,3.2,24.758,24.758,0,0,0,12.388-3.063,18.391,18.391,0,0,0,8.83-11.531,5.451,5.451,0,0,1,6.666-3.875,5.452,5.452,0,0,1,3.873,6.666,29.273,29.273,0,0,1-14.009,18.2,35.575,35.575,0,0,1-17.564,4.507Zm10.721-55.994a9.785,9.785,0,0,1,9.729-9.775,9.757,9.757,0,0,1,9.731,9.775,9.68,9.68,0,0,1-9.731,9.685A9.708,9.708,0,0,1-4290.731-6416.565Zm-41.127,0a9.784,9.784,0,0,1,9.729-9.775,9.787,9.787,0,0,1,9.731,9.752,9.748,9.748,0,0,1-9.731,9.708A9.679,9.679,0,0,1-4331.858-6416.565Zm19.46-.023v0Zm55.98-17.478a56.63,56.63,0,0,1-16.638-40.149,56.555,56.555,0,0,1,16.638-40.147A56.626,56.626,0,0,1-4216.27-6531a56.589,56.589,0,0,1,40.149,16.638,56.62,56.62,0,0,1,16.636,40.147h.017a56.605,56.605,0,0,1-16.637,40.149,56.672,56.672,0,0,1-40.165,16.637A56.565,56.565,0,0,1-4256.417-6434.066Zm7.74-72.575a45.69,45.69,0,0,0-13.42,32.409,45.687,45.687,0,0,0,13.42,32.41,45.691,45.691,0,0,0,32.408,13.42,45.694,45.694,0,0,0,32.409-13.42h.017a45.689,45.689,0,0,0,13.42-32.41h.017a45.7,45.7,0,0,0-13.421-32.409,45.713,45.713,0,0,0-32.442-13.42A45.691,45.691,0,0,0-4248.678-6506.641Zm56.713,60.234-.156-.163-1.608-1.687-5.488-5.756-2.562-2.688a2.679,2.679,0,0,1-.292-.366,2.64,2.64,0,0,1-.4-.967,2.512,2.512,0,0,1-.051-.523v-.012a2.688,2.688,0,0,1,.275-1.164l-2.449-2.449h0l-.575-.575-.454-.454h0a17.682,17.682,0,0,1-9.709,3.472c-.287.012-.576.021-.862.021a17.762,17.762,0,0,1-2.7-.207c-.493-.074-.982-.17-1.467-.287a17.809,17.809,0,0,1-4.25-1.623q-.561-.308-1.1-.649c-.188-.122-.375-.248-.559-.371a18.523,18.523,0,0,1-1.941-1.556c-.177-.164-.353-.331-.524-.5-.072-.069-.141-.141-.21-.213-.289-.3-.565-.606-.833-.923a17.626,17.626,0,0,1-1.988-2.9c-.115-.216-.229-.428-.334-.647-.2-.4-.378-.8-.545-1.211h0a17.22,17.22,0,0,1-.756-2.311v0c-.01-.034-.018-.072-.028-.106a18.282,18.282,0,0,1-.4-2.273c-.059-.547-.093-1.1-.1-1.649a17.736,17.736,0,0,1,.79-5.566.077.077,0,0,0,.006-.026.09.09,0,0,0,.01-.028,17.687,17.687,0,0,1,4.386-7.229c.092-.092.185-.182.275-.269.056-.054.113-.106.169-.161a17.92,17.92,0,0,1,3.37-2.475,17.754,17.754,0,0,1,19.762,1.556,17.225,17.225,0,0,1,1.513,1.349c.17.172.337.348.5.525a17.761,17.761,0,0,1,2.4,20.752,18.145,18.145,0,0,1-1.2,1.841,17.167,17.167,0,0,1-1.275,1.527c-.123.135-.252.267-.38.4.129-.131.257-.264.384-.4a17.973,17.973,0,0,0,1.273-1.527l1.029,1.029h0l2.449,2.449a2.679,2.679,0,0,1,3.027.467l8.444,8.049,1.849,1.764a2.505,2.505,0,0,1,.772,1.609h0a2.521,2.521,0,0,1-.488,1.714,2.222,2.222,0,0,1-.241.279l-3.155,3.157a2.514,2.514,0,0,1-1.78.736A2.516,2.516,0,0,1-4191.964-6446.406Zm-10.33-17.917c-.138.149-.282.3-.428.443a17.855,17.855,0,0,1-1.543,1.375,17.773,17.773,0,0,0,1.543-1.374q.219-.219.428-.442a17.749,17.749,0,0,0,1.18-1.4A17.722,17.722,0,0,1-4202.294-6464.323Zm-2.667.518q.551-.457,1.07-.967Q-4204.412-6464.264-4204.96-6463.805Zm-24.658-13.648a13.323,13.323,0,0,0,13.324,13.324,13.323,13.323,0,0,0,13.324-13.324,13.324,13.324,0,0,0-13.324-13.324A13.324,13.324,0,0,0-4229.619-6477.454Zm-6.306,13.783a76.834,76.834,0,0,1-19.411-12.283,1.885,1.885,0,0,1-.672-1.445,1.885,1.885,0,0,1,.672-1.446,76.847,76.847,0,0,1,19.411-12.283,55.72,55.72,0,0,1,6.006-2.142,21.052,21.052,0,0,0-4.6,5.615,71.367,71.367,0,0,0-16.62,10.256,71.4,71.4,0,0,0,16.62,10.257,21.076,21.076,0,0,0,4.6,5.614A55.724,55.724,0,0,1-4235.924-6463.671Zm42.562-1.547a5.809,5.809,0,0,0-4.024-1.613c-.051,0-.1,0-.147,0l-.362-.36a71.485,71.485,0,0,0,16.515-10.211A71.467,71.467,0,0,0-4198-6487.655a21.059,21.059,0,0,0-4.6-5.615,55.563,55.563,0,0,1,6.005,2.142,76.822,76.822,0,0,1,19.413,12.283,1.89,1.89,0,0,1,.672,1.446,1.89,1.89,0,0,1-.672,1.445,80.591,80.591,0,0,1-16.131,10.782Zm-31.021-12.18a8.123,8.123,0,0,1,8.122-8.123,8.075,8.075,0,0,1,4.111,1.116,3.176,3.176,0,0,0-1.54.232,3.216,3.216,0,0,0-1.734,4.2,3.216,3.216,0,0,0,4.2,1.734,3.216,3.216,0,0,0,1.968-3.27,8.085,8.085,0,0,1,1.115,4.109,8.122,8.122,0,0,1-8.123,8.122A8.123,8.123,0,0,1-4224.383-6477.4Zm64.915,3.183v0Zm-49.787-7.292v0s0,0,0,0Z" transform="translate(4383 6531)" fill="#f37335"/>
</svg>
