<svg xmlns="http://www.w3.org/2000/svg" width="136.605" height="303.666" viewBox="0 0 136.605 303.666">
  <g id="Camada_x0020_1" transform="translate(-11.522 -11.515)">
    <path id="Caminho_633" data-name="Caminho 633" d="M108.221,268.784a25.929,25.929,0,0,1-2.172,5.791v.018l-.713,1.242c-2.615,4.642-4.686,8.323-11.957,8.446a11.914,11.914,0,0,1-5.6-1.224c-3.893-1.941-6.472-5.878-8.021-11.082A60.662,60.662,0,0,1,77.742,256.2c-.407-23.673,3.652-51.267,20.986-68.752a66.555,66.555,0,0,1,10.448-8.59,57.2,57.2,0,1,1,73.265-.27,66.464,66.464,0,0,1,10.844,8.845c17.759,17.907,21.422,44.41,21,68.767a60.66,60.66,0,0,1-2.017,15.767c-1.549,5.2-4.124,9.137-8.021,11.078a11.915,11.915,0,0,1-5.6,1.225c-7.293-.126-9.367-3.821-11.982-8.478l-.691-1.232a31.351,31.351,0,0,1-2.618-7.495v93.124a21.168,21.168,0,0,1-36.137,14.971v-.018q-.762-.762-1.441-1.6-.681.832-1.441,1.6a21.166,21.166,0,0,1-36.134-14.953h.018v-91.42Z" transform="translate(-66.193 -66.185)" fill="#f37335"/>
    <path id="Caminho_634" data-name="Caminho 634" d="M150.387,197.9a4.725,4.725,0,0,1-2.37,9.148,56.79,56.79,0,0,1-13.542-5.456,56.948,56.948,0,0,0-12.277,9.393c-15.382,15.512-18.605,41.068-18.245,61.938a51.113,51.113,0,0,0,1.649,13.214c.814,2.737,1.858,4.653,3.169,5.305a2.648,2.648,0,0,0,1.232.263c1.819-.032,2.716-1.624,3.846-3.634l.789-1.39.007,0c1.257-2.179,2.647-9.378,4.106-16.938,1.912-9.9,3.933-20.359,7.08-24.616a4.721,4.721,0,0,1,8.6,2.687V377.071h.018a11.686,11.686,0,0,0,23.348.778c-.011-.259-.014-.519-.014-.778a5.011,5.011,0,0,1,.04-.619V303.281a4.74,4.74,0,1,1,9.479,0v73.787c0,.259,0,.522-.014.778a11.684,11.684,0,0,0,3.389,7.5l.011-.011a11.685,11.685,0,0,0,19.963-8.269V247.814a4.739,4.739,0,0,1,4.739-4.74,4.172,4.172,0,0,1,.479.025,4.714,4.714,0,0,1,3.674,1.772c3.263,4.081,5.327,14.77,7.275,24.875,1.462,7.574,2.852,14.791,4.113,16.952l.767,1.34c1.134,2.024,2.038,3.634,3.872,3.666a2.624,2.624,0,0,0,1.232-.263c1.311-.652,2.355-2.568,3.169-5.305a51.259,51.259,0,0,0,1.646-13.21c.374-21.674-2.355-45.915-18.263-61.953a56.8,56.8,0,0,0-12.638-9.591q-2.474,1.41-5.1,2.579a4.716,4.716,0,1,1-3.814-8.626,47.652,47.652,0,0,0,28.308-43.607h.018a47.7,47.7,0,1,0-73.463,40.16,4.857,4.857,0,0,1,.879.551,47.45,47.45,0,0,0,12.843,5.463Z" transform="translate(-82.965 -83.045)" fill="#fefefe"/>
    <path id="Caminho_635" data-name="Caminho 635" d="M228.89,267.97s12.879,10.127,26.99,0" transform="translate(-162.923 -187.929)" fill="none" stroke="#f37335" stroke-linecap="round" stroke-miterlimit="10" stroke-width="2" fill-rule="evenodd"/>
    <path id="Caminho_636" data-name="Caminho 636" d="M221.633,194.277a6.022,6.022,0,1,1-6.054-6A6.044,6.044,0,0,1,221.633,194.277Z" transform="translate(-150.574 -136.94)" fill="#f37335" fill-rule="evenodd"/>
    <path id="Caminho_637" data-name="Caminho 637" d="M301.7,194.277a5.981,5.981,0,0,1-5.975,6,6,6,0,1,1,0-11.993A5.976,5.976,0,0,1,301.7,194.277Z" transform="translate(-201.8 -136.94)" fill="#f37335" fill-rule="evenodd"/>
  </g>
</svg>
