<svg xmlns="http://www.w3.org/2000/svg" width="223.021" height="236.803" viewBox="0 0 223.021 236.803">
  <path id="União_6" data-name="União 6" d="M-4270.816,1151.573a79.064,79.064,0,0,0-14.793-22,79.031,79.031,0,0,0-19.5-14.921,75.54,75.54,0,0,1-6.82,3.443,5.424,5.424,0,0,1-7.188-2.754,5.425,5.425,0,0,1,2.753-7.188,66.587,66.587,0,0,0,28.739-24.56,66.006,66.006,0,0,0,10.646-36.086l-.016-.017a5.456,5.456,0,0,1,5.459-5.459,5.457,5.457,0,0,1,5.46,5.459,76.973,76.973,0,0,1-12.441,42.027,77.743,77.743,0,0,1-16.6,18.332,89.993,89.993,0,0,1,17.4,14.216,89.578,89.578,0,0,1,16.842,25.072,5.425,5.425,0,0,1-2.752,7.189,5.445,5.445,0,0,1-2.227.477A5.415,5.415,0,0,1-4270.816,1151.573Zm-150.159-.928a5.45,5.45,0,0,1-2.45-7.317,89.818,89.818,0,0,1,16.6-23.1,90.452,90.452,0,0,1,15.306-12.392,77.959,77.959,0,0,1-12.936-13.161,76.954,76.954,0,0,1-16.107-47.182,77.029,77.029,0,0,1,22.623-54.626,77.046,77.046,0,0,1,54.627-22.638l.08.016,13.432.255a5.452,5.452,0,0,1,5.364,5.525,5.45,5.45,0,0,1-5.524,5.364l-13.336-.241v.017a66.148,66.148,0,0,0-46.893,19.42,66.082,66.082,0,0,0-19.421,46.894,65.953,65.953,0,0,0,13.8,40.521,66.314,66.314,0,0,0,16.763,15.354,5.462,5.462,0,0,1,1.1.688,65.9,65.9,0,0,0,17.931,7.637,5.45,5.45,0,0,1,3.907,6.644,5.451,5.451,0,0,1-6.644,3.907,76.706,76.706,0,0,1-18.8-7.653,78.865,78.865,0,0,0-17.531,13.3,79.23,79.23,0,0,0-14.554,20.285l-.032.032a5.449,5.449,0,0,1-4.884,3.026A5.423,5.423,0,0,1-4420.975,1150.644Zm56.007-76.917h.006a5.465,5.465,0,0,1-1.028-7.661,5.465,5.465,0,0,1,7.661-1.028c.041.031,14.513,11.4,30.558-.108a5.474,5.474,0,0,1,7.64,1.265,5.475,5.475,0,0,1-1.264,7.64,36,36,0,0,1-21.316,7.22A39.187,39.187,0,0,1-4364.967,1073.727Zm33.526-35.455a9.81,9.81,0,0,1,9.75-9.784,9.789,9.789,0,0,1,9.764,9.78,9.715,9.715,0,0,1-9.764,9.708A9.734,9.734,0,0,1-4331.441,1038.272Zm-41.208-.02a9.809,9.809,0,0,1,9.765-9.811,9.8,9.8,0,0,1,9.729,9.806,9.725,9.725,0,0,1-9.729,9.729A9.728,9.728,0,0,1-4372.648,1038.252Zm74.936-23.5a56.491,56.491,0,0,1-16.587-40.074,56.547,56.547,0,0,1,16.587-40.072,56.489,56.489,0,0,1,40.057-16.6,56.513,56.513,0,0,1,40.058,16.586A56.442,56.442,0,0,1-4201,974.66h.017v.016a56.464,56.464,0,0,1-16.6,40.074,56.561,56.561,0,0,1-40.074,16.6A56.426,56.426,0,0,1-4297.712,1014.749Zm7.733-72.4a45.575,45.575,0,0,0-13.386,32.34,45.64,45.64,0,0,0,13.386,32.34,45.586,45.586,0,0,0,32.34,13.4,45.646,45.646,0,0,0,32.34-13.383v-.032a45.6,45.6,0,0,0,13.4-32.341h.017a45.594,45.594,0,0,0-13.4-32.34,45.613,45.613,0,0,0-32.356-13.383A45.586,45.586,0,0,0-4289.979,942.352Zm34.068,58.54V947.248a7.515,7.515,0,0,1,7.51-7.511,7.524,7.524,0,0,1,7.469,6.693,8.577,8.577,0,0,1,6.479,8.328,8.384,8.384,0,0,1-.322,2.333,8.589,8.589,0,0,1,6.759,8.4,8.49,8.49,0,0,1-1.851,5.323,10.722,10.722,0,0,1,6.143,9.7,10.714,10.714,0,0,1-6.92,10.032,8.684,8.684,0,0,1,.482,2.843,8.592,8.592,0,0,1-8.583,8.584,8.44,8.44,0,0,1-2.187-.282,7.514,7.514,0,0,1-7.469,6.718A7.514,7.514,0,0,1-4255.911,1000.892Zm-19.271.792a8.44,8.44,0,0,1-2.187.282,8.593,8.593,0,0,1-8.584-8.584,8.634,8.634,0,0,1,.484-2.843,10.713,10.713,0,0,1-6.92-10.032,10.722,10.722,0,0,1,6.141-9.7,8.494,8.494,0,0,1-1.85-5.323,8.6,8.6,0,0,1,6.759-8.4,8.384,8.384,0,0,1-.322-2.333,8.6,8.6,0,0,1,6.479-8.328,7.513,7.513,0,0,1,7.469-6.693,7.515,7.515,0,0,1,7.51,7.511v53.643a7.514,7.514,0,0,1-7.51,7.51A7.513,7.513,0,0,1-4275.182,1001.683Z" transform="translate(4424 -918.001)" fill="#f37335"/>
</svg>
