<svg xmlns="http://www.w3.org/2000/svg" width="121.535" height="118.819" viewBox="0 0 121.535 118.819">
  <g id="Grupo_411" data-name="Grupo 411" transform="translate(-164.736 -174.92)">
    <g id="Grupo_156" data-name="Grupo 156" transform="translate(14.982 -74.348)">
      <path id="Caminho_666" data-name="Caminho 666" d="M352.752,395.79a2.81,2.81,0,0,1,5.621,0,39.755,39.755,0,0,1-23.591,36.3,2.8,2.8,0,0,1-2.283-5.116,34.1,34.1,0,0,0,20.252-31.186Z" transform="translate(-127.404 -82.607)" fill="#f34b21"/>
      <path id="Caminho_667" data-name="Caminho 667" d="M42.02,238.223a2.8,2.8,0,1,1-1.407,5.423A39.724,39.724,0,0,1,50.621,165.48l.044.011,6.906.128a2.8,2.8,0,1,1-.089,5.6l-6.86-.127v.01a34.114,34.114,0,0,0-8.6,67.122Z" transform="translate(140.622 107.979)" fill="#f34b21"/>
      <path id="Caminho_668" data-name="Caminho 668" d="M360.713,591.06a2.809,2.809,0,0,1,2.547-5.007,46.219,46.219,0,0,1,21.118,22.186,2.8,2.8,0,0,1-5.116,2.283,40.555,40.555,0,0,0-18.551-19.463Z" transform="translate(-151.144 -244.096)" fill="#f34b21"/>
      <path id="Caminho_669" data-name="Caminho 669" d="M5.325,609.041a2.809,2.809,0,1,1-5.028-2.5,46.343,46.343,0,0,1,20.334-20.5,2.809,2.809,0,1,1,2.547,5.007,40.489,40.489,0,0,0-17.852,18Z" transform="translate(149.752 -244.079)" fill="#f34b21"/>
      <path id="Caminho_670" data-name="Caminho 670" d="M180.946,447.318a2.8,2.8,0,1,1,3.427-4.436,13.208,13.208,0,0,0,15.666-.067,2.81,2.81,0,1,1,3.273,4.568c-11.645,8.352-22.333-.042-22.364-.066Z" transform="translate(-0.92 -123.916)" fill="#f34b21"/>
      <path id="Caminho_671" data-name="Caminho 671" d="M172.33,335.21a5,5,0,1,1-4.991-5.03A4.989,4.989,0,0,1,172.33,335.21Z" transform="translate(13.763 -29.997)" fill="#f34b21" fill-rule="evenodd"/>
      <path id="Caminho_672" data-name="Caminho 672" d="M302.63,335.347a5,5,0,0,1-10.01,0,5,5,0,1,1,10.01,0Z" transform="translate(-95.386 -30.123)" fill="#f34b21" fill-rule="evenodd"/>
    </g>
    <g id="Camada_x0020_1" transform="translate(226.873 175.419)">
      <path id="Caminho_787" data-name="Caminho 787" d="M48.658,51.037a1.043,1.043,0,0,0-.9.021A16.529,16.529,0,0,1,23.733,36.325,16.537,16.537,0,0,1,42.38,19.934q.17.022.339.047c.17.026.341.054.51.084q.386.07.769.159a16.412,16.412,0,0,1,3.783,1.381c.1.05.194.1.29.152h0q.665.357,1.3.778h0a16.529,16.529,0,0,1,3.564,24.39,1.042,1.042,0,0,0-.144,1.113L55.687,54.2l-7.029-3.166Zm-23-1.814a23.32,23.32,0,0,1-10.69-2.558,1.041,1.041,0,0,0-.9-.022l-10.878,4.9,4.534-9.658a1.044,1.044,0,0,0-.144-1.112A23.572,23.572,0,1,1,48.448,19.607c-.089-.044-.18-.087-.27-.13l-.087-.04-.2-.09-.1-.044-.2-.089-.081-.035-.282-.116-.055-.022-.232-.091-.1-.036-.2-.075-.095-.034-.243-.085-.047-.017q-.145-.049-.29-.1l-.083-.026-.214-.067-.1-.03-.215-.062-.085-.024c-.1-.028-.2-.055-.3-.08l-.041-.01-.258-.065-.1-.023-.212-.049-.1-.022-.244-.052-.058-.012-.3-.059-.08-.014-.226-.04-.1-.017-.219-.034-.09-.014-.306-.042-.025,0-.283-.034-.1-.01-.218-.022-.1-.01-.242-.02-.069-.005-.309-.02-.077,0-.237-.011-.1,0-.222-.006-.1,0q-.156,0-.312,0a18.494,18.494,0,0,0-7.245,1.463q-.416.176-.821.37A18.543,18.543,0,0,0,27.1,23.164a18.78,18.78,0,0,0-1.493,1.683,18.556,18.556,0,0,0-3.814,9.147,18.917,18.917,0,0,0-.144,2.331c0,.138,0,.275.005.412l0,.067c0,.131.008.261.014.392,0,.025,0,.051,0,.076q.009.2.023.4c0,.015,0,.03,0,.046q.014.192.032.383c0,.015,0,.03,0,.045q.019.2.042.392c0,.025.006.05.009.075q.023.193.051.384l.009.066c.02.134.04.266.063.4a.007.007,0,0,1,0,0c.022.131.047.263.072.394l.013.066q.037.189.078.376l.016.075q.042.189.088.378c0,.016.008.031.012.046.03.121.061.243.093.363l.013.046c.033.125.069.249.1.372l.022.074q.054.182.112.364c.007.022.014.044.021.066.041.125.082.251.126.375l0,.008q.065.185.133.369l.024.065c.044.118.09.236.137.353l.029.072c.048.119.1.237.148.355l.02.045q.074.171.151.339l.02.044q.081.174.164.347l.034.07q.083.17.17.338l.033.063c.061.116.122.232.185.346l.006.01c.063.113.126.226.191.338l.035.061c.063.109.128.217.193.325l.042.068c.067.108.135.217.2.324l.028.043q.1.156.2.309l.027.041q.109.159.221.315l.046.065c.074.1.149.2.225.306l.044.058c.079.1.16.21.241.313l.008.01c.081.1.163.2.246.3l.045.055q.122.146.248.291l.053.061c.085.1.171.193.258.288l.036.04c.084.092.169.183.256.273l.024.026q-.575.028-1.151.028Zm29.3-1.479A18.616,18.616,0,0,0,50.9,21.055,25.661,25.661,0,1,0,5.557,41.594L.1,53.209A1.043,1.043,0,0,0,1.477,54.6l13-5.855a25.378,25.378,0,0,0,11.186,2.561,25.935,25.935,0,0,0,3.28-.209,18.634,18.634,0,0,0,19.309,2.04L57.4,57.263a1.042,1.042,0,0,0,1.372-1.394l-3.814-8.125Z" transform="translate(0 0)" fill="#f34b21" stroke="#f34b21" stroke-width="1"/>
      <path id="Caminho_788" data-name="Caminho 788" d="M4126.25,4534.185a1.825,1.825,0,1,1-1.825-1.824A1.825,1.825,0,0,1,4126.25,4534.185Z" transform="translate(-4090.115 -4496.651)" fill="#f34b21"/>
      <path id="Caminho_789" data-name="Caminho 789" d="M4881.34,4534.185a1.825,1.825,0,1,1-1.825-1.824A1.825,1.825,0,0,1,4881.34,4534.185Z" transform="translate(-4839.255 -4496.651)" fill="#f34b21"/>
      <path id="Caminho_790" data-name="Caminho 790" d="M5636.42,4534.185a1.825,1.825,0,1,1-1.825-1.824A1.825,1.825,0,0,1,5636.42,4534.185Z" transform="translate(-5588.386 -4496.651)" fill="#f34b21"/>
    </g>
  </g>
</svg>
