<svg xmlns="http://www.w3.org/2000/svg" width="132.978" height="142.948" viewBox="0 0 132.978 142.948">
  <g id="Grupo_409" data-name="Grupo 409" transform="translate(-164.735 -337.457)">
    <path id="Caminho_480" data-name="Caminho 480" d="M598.42,1126.76Z" transform="translate(-404.985 -687.418)" fill="#fefefe" stroke="#f37335" stroke-miterlimit="22.926" stroke-width="16.49" fill-rule="evenodd"/>
    <path id="Caminho_480-2" data-name="Caminho 480" d="M598.42,1126.76Z" transform="translate(-404.985 -687.418)" fill="#fefefe" stroke="#f37335" stroke-miterlimit="22.926" stroke-width="16.49" fill-rule="evenodd"/>
    <path id="Caminho_664" data-name="Caminho 664" d="M298.13,168.23Z" transform="translate(-119.777 169.227)" fill="#fefefe" stroke="#f37335" stroke-miterlimit="22.926" stroke-width="31.03" fill-rule="evenodd"/>
    <path id="Subtração_15" data-name="Subtração 15" d="M93.835,140.854a3.246,3.246,0,0,1-2.967-1.925A47.075,47.075,0,0,0,70.929,117.2a45,45,0,0,1-4.109,2.085,3.248,3.248,0,1,1-2.648-5.931,39.385,39.385,0,0,0,4.637-2.445,3.228,3.228,0,0,1,.607-.38A40.063,40.063,0,0,0,81.306,98.71a39.409,39.409,0,0,0,6.348-21.518,3.259,3.259,0,0,1,6.519,0,46.043,46.043,0,0,1-17.309,35.975A53.635,53.635,0,0,1,96.8,136.281a3.248,3.248,0,0,1-2.965,4.573Zm-90.58-1.815a3.257,3.257,0,0,1-2.91-4.712,53.826,53.826,0,0,1,19.019-21.16A46.044,46.044,0,0,1,48.11,31.131l.051.013,8,.147a3.248,3.248,0,0,1-.053,6.495h-.049l-7.954-.147v.01a39.558,39.558,0,0,0-31.318,63.7,39.673,39.673,0,0,0,9.975,9.146,3.414,3.414,0,0,1,.7.441,39.217,39.217,0,0,0,10.665,4.538,3.248,3.248,0,0,1-.812,6.392,3.268,3.268,0,0,1-.819-.105A45.655,45.655,0,0,1,25.3,117.2,46.941,46.941,0,0,0,6.176,137.232,3.248,3.248,0,0,1,3.255,139.039ZM48.364,93.408a22.934,22.934,0,0,1-9.506-2.176,20.452,20.452,0,0,1-3.753-2.191A3.249,3.249,0,1,1,39.077,83.9a13.966,13.966,0,0,0,2.575,1.5,15.913,15.913,0,0,0,6.57,1.49,15.3,15.3,0,0,0,9.021-3.068,3.257,3.257,0,1,1,3.792,5.3A21.47,21.47,0,0,1,48.364,93.408Zm12.49-19.671a5.795,5.795,0,1,1,5.81-5.773,5.718,5.718,0,0,1-1.7,4.086A5.793,5.793,0,0,1,60.854,73.737Zm-24.5,0a5.809,5.809,0,1,1,5.786-5.787A5.787,5.787,0,0,1,36.352,73.737Zm60.2-6.273h0a33.792,33.792,0,1,1,26.52-57.57h.013a33.681,33.681,0,0,1,9.9,23.886,34.141,34.141,0,0,1-.625,6.5h-6.671a27.35,27.35,0,0,0,.779-6.5A27.077,27.077,0,0,0,118.472,14.5l.006-.005a27.27,27.27,0,1,0-21.93,46.424v6.545ZM114.471,38.4a4.6,4.6,0,1,1,4.613-4.587,4.546,4.546,0,0,1-1.346,3.246A4.6,4.6,0,0,1,114.471,38.4Zm-15.285,0a4.6,4.6,0,1,1,4.613-4.587,4.547,4.547,0,0,1-1.348,3.246A4.6,4.6,0,0,1,99.186,38.4Zm-15.276,0a4.615,4.615,0,1,1,4.6-4.6A4.609,4.609,0,0,1,83.909,38.4Z" transform="translate(164.735 339.551)" fill="#f34b21"/>
    <path id="Icon_awesome-pen" data-name="Icon awesome-pen" d="M14.953,4.8l6.584,6.584-14.3,14.3-5.87.648A1.234,1.234,0,0,1,.007,24.962L.66,19.087,14.953,4.8Zm10.656-.98L22.518.724a2.47,2.47,0,0,0-3.493,0L16.117,3.632,22.7,10.216l2.908-2.908a2.47,2.47,0,0,0,0-3.493Z" transform="translate(267.809 381.326)" fill="#f34b21"/>
  </g>
</svg>
