<svg xmlns="http://www.w3.org/2000/svg" width="34.85" height="38.423" viewBox="0 0 34.85 38.423">
  <path id="Union_44" data-name="Union 44" d="M32.618,37.747a16.4,16.4,0,0,0-3.167-4.592,16.828,16.828,0,0,0-3.989-3.017q-.717.4-1.475.729a1.177,1.177,0,0,1-1.54-.576,1.126,1.126,0,0,1,.59-1.5,14.183,14.183,0,0,0,1.666-.858,1.14,1.14,0,0,1,.212-.131,14.1,14.1,0,0,0,4.272-4.14,13.544,13.544,0,0,0,2.28-7.537l0,0a1.171,1.171,0,0,1,2.341,0A15.777,15.777,0,0,1,31.143,24.9a16.364,16.364,0,0,1-3.551,3.823,19.232,19.232,0,0,1,3.55,2.86,18.669,18.669,0,0,1,3.606,5.234,1.127,1.127,0,0,1-.59,1.5,1.188,1.188,0,0,1-.474.1A1.168,1.168,0,0,1,32.618,37.747ZM.647,37.666a1.128,1.128,0,0,1-.526-1.529,18.764,18.764,0,0,1,3.551-4.824,19.287,19.287,0,0,1,3.276-2.587A16.446,16.446,0,0,1,4.181,25.98a15.832,15.832,0,0,1,1.4-21.257A16.687,16.687,0,0,1,17.269,0l.018,0,2.874.052A1.151,1.151,0,0,1,21.308,1.21a1.153,1.153,0,0,1-1.184,1.12l-2.856-.051v0A14.329,14.329,0,0,0,7.232,6.339a13.605,13.605,0,0,0-1.2,18.253A14.127,14.127,0,0,0,9.616,27.8a1.144,1.144,0,0,1,.237.145,14.324,14.324,0,0,0,3.837,1.595,1.135,1.135,0,0,1,.836,1.387,1.17,1.17,0,0,1-1.422.815,16.658,16.658,0,0,1-4.023-1.6,16.894,16.894,0,0,0-3.751,2.778,16.482,16.482,0,0,0-3.113,4.235h0a1.173,1.173,0,0,1-1.048.632A1.19,1.19,0,0,1,.647,37.666ZM13.395,21.443a1.261,1.261,0,0,1,0-2.522H20.96a1.261,1.261,0,0,1,0,2.522ZM19.762,12.9a2.084,2.084,0,1,1,2.082,2.021A2.07,2.07,0,0,1,19.762,12.9Zm-8.8,0a2.082,2.082,0,1,1,2.085,2.026A2.068,2.068,0,0,1,10.964,12.893Z" transform="translate(0.001 0.001)" />
</svg>
