<svg xmlns="http://www.w3.org/2000/svg" width="34.85" height="38.423" viewBox="0 0 34.85 38.423">
  <path id="União_1" data-name="União 1" d="M15.127,12.894a2.081,2.081,0,1,1-2.077-2.043A2.052,2.052,0,0,1,15.127,12.894Zm-2.521,7.391a1.12,1.12,0,0,1-.22-1.6,1.186,1.186,0,0,1,1.636-.214,5.61,5.61,0,0,0,6.525-.022,1.188,1.188,0,0,1,1.631.263,1.123,1.123,0,0,1-.27,1.592,8.019,8.019,0,0,1-9.3-.022ZM23.93,12.9a2.084,2.084,0,1,1-2.085-2.037A2.05,2.05,0,0,1,23.93,12.9ZM2.216,37.155a1.184,1.184,0,0,1-1.568.513,1.128,1.128,0,0,1-.526-1.53,18.758,18.758,0,0,1,3.551-4.824A19.236,19.236,0,0,1,6.95,28.728a16.456,16.456,0,0,1-2.769-2.746,15.832,15.832,0,0,1,1.4-21.257A16.688,16.688,0,0,1,17.269,0l.019,0,2.874.052a1.151,1.151,0,0,1,1.147,1.155A1.153,1.153,0,0,1,20.126,2.33l-2.856-.051v0A14.33,14.33,0,0,0,7.233,6.34a13.606,13.606,0,0,0-1.2,18.253A14.138,14.138,0,0,0,9.616,27.8a1.168,1.168,0,0,1,.237.145,14.318,14.318,0,0,0,3.837,1.595,1.136,1.136,0,0,1,.836,1.387,1.169,1.169,0,0,1-1.422.816,16.669,16.669,0,0,1-4.023-1.6,16.891,16.891,0,0,0-3.751,2.778,16.486,16.486,0,0,0-3.113,4.235Zm29.25-21.026a1.171,1.171,0,0,1,2.341,0A15.774,15.774,0,0,1,31.144,24.9a16.368,16.368,0,0,1-3.551,3.824,19.239,19.239,0,0,1,3.55,2.86,18.662,18.662,0,0,1,3.606,5.234,1.126,1.126,0,0,1-.59,1.5,1.177,1.177,0,0,1-1.54-.576,16.423,16.423,0,0,0-3.168-4.592,16.82,16.82,0,0,0-3.988-3.017q-.716.4-1.475.729a1.177,1.177,0,0,1-1.54-.576,1.126,1.126,0,0,1,.59-1.5,14.2,14.2,0,0,0,1.666-.858,1.16,1.16,0,0,1,.212-.13,14.115,14.115,0,0,0,4.273-4.14,13.546,13.546,0,0,0,2.279-7.536Z" />
</svg>
