<svg xmlns="http://www.w3.org/2000/svg" width="33.972" height="38.423" viewBox="0 0 33.972 38.423">
  <g id="Camada_x0020_1" transform="translate(0 0)">
    <path id="Path_900" data-name="Path 900" d="M24.087,27.921a1.546,1.546,0,0,1,.207-.132,13.973,13.973,0,0,0,4.163-4.135,13.721,13.721,0,0,0,2.218-7.528,1.137,1.137,0,0,1,2.274,0A16.145,16.145,0,0,1,26.9,28.72a18.738,18.738,0,0,1,6.973,8.092,1.138,1.138,0,0,1-2.077.93A16.217,16.217,0,0,0,28.7,33.156a16.486,16.486,0,0,0-3.891-3.017q-.7.395-1.438.733a1.138,1.138,0,1,1-.93-2.077,14.059,14.059,0,0,0,1.626-.855ZM2.161,37.131a1.153,1.153,0,0,1-1.532.517,1.153,1.153,0,0,1-.517-1.532A18.77,18.77,0,0,1,6.766,28.71a16.557,16.557,0,0,1-2.7-2.744A16.127,16.127,0,0,1,16.832-.01h.019l2.8.056a1.137,1.137,0,1,1-.038,2.274l-2.782-.047h0a13.842,13.842,0,0,0-7.462,25.5.905.905,0,0,1,.235.15,13.475,13.475,0,0,0,3.74,1.588,1.135,1.135,0,1,1-.564,2.2,15.753,15.753,0,0,1-3.919-1.6,16.307,16.307,0,0,0-3.656,2.772,16.572,16.572,0,0,0-3.036,4.229Z" transform="translate(0.003 0.01)" />
    <g id="_1532514852144" transform="translate(10.284 10.864)">
      <path id="Path_901" data-name="Path 901" d="M10.978,21.018a1.138,1.138,0,0,1,2.2-.583,3.828,3.828,0,0,0,1.908,2.378,5.314,5.314,0,0,0,2.6.667,5.169,5.169,0,0,0,2.584-.639,3.836,3.836,0,0,0,1.842-2.406,1.138,1.138,0,0,1,2.2.583,6.108,6.108,0,0,1-2.923,3.8,7.43,7.43,0,0,1-3.722.94,7.794,7.794,0,0,1-3.712-.959,6.1,6.1,0,0,1-2.989-3.778Z" transform="translate(-10.939 -12.034)" />
      <g id="Group_320" data-name="Group 320" transform="translate(0.386)">
        <path id="Path_902" data-name="Path 902" d="M15.41,13.58a2.035,2.035,0,1,0,0,.009Z" transform="translate(-11.35 -11.55)" fill-rule="evenodd"/>
        <path id="Path_903" data-name="Path 903" d="M24.54,13.589a2.03,2.03,0,0,1-4.06,0,2.03,2.03,0,1,1,4.06,0Z" transform="translate(-11.9 -11.55)"  fill-rule="evenodd"/>
      </g>
    </g>
  </g>
</svg>
