<svg xmlns="http://www.w3.org/2000/svg" width="55.278" height="62.471" viewBox="0 0 55.278 62.471">
  <g id="Group_589" data-name="Group 589" transform="translate(0 0)">
    <path id="União_1" data-name="União 1" d="M23.993,20.964A3.3,3.3,0,1,1,20.7,17.643,3.293,3.293,0,0,1,23.993,20.964Zm13.963.007a3.3,3.3,0,1,1-3.307-3.312A3.29,3.29,0,0,1,37.956,20.97ZM3.515,60.408A1.855,1.855,0,0,1,.194,58.755,30.631,30.631,0,0,1,11.024,46.707a26.431,26.431,0,0,1-4.392-4.465A26.222,26.222,0,0,1,27.392,0l.029.007L31.98.092a1.849,1.849,0,0,1-.057,3.7l-4.531-.083v.007A22.52,22.52,0,0,0,15.253,45.2a1.845,1.845,0,0,1,.376.236,22.41,22.41,0,0,0,6.085,2.593,1.85,1.85,0,1,1-.929,3.581,26.067,26.067,0,0,1-6.382-2.6A26.727,26.727,0,0,0,3.515,60.41Zm46.4-34.184a1.856,1.856,0,0,1,3.713,0A26.1,26.1,0,0,1,49.4,40.49a26.369,26.369,0,0,1-5.633,6.217,30.516,30.516,0,0,1,11.351,13.16,1.849,1.849,0,1,1-3.378,1.506A26.773,26.773,0,0,0,40.388,49a26.2,26.2,0,0,1-2.34,1.185,1.849,1.849,0,0,1-1.506-3.378,22.323,22.323,0,0,0,2.643-1.4,1.832,1.832,0,0,1,.336-.211A22.652,22.652,0,0,0,46.3,38.471a22.416,22.416,0,0,0,3.616-12.252Z" transform="translate(0 0)" fill="#f37335"/>
    <rect id="Rectangle_548" data-name="Rectangle 548" width="16" height="4" rx="2" transform="translate(19.247 30.818)" fill="#f37335"/>
  </g>
</svg>
