<svg xmlns="http://www.w3.org/2000/svg" width="35.558" height="33.084" viewBox="0 0 35.558 33.084">
  <path id="Union_46" data-name="Union 46" d="M13.818,33.044a14.789,14.789,0,0,1-2.723-1.062,16.94,16.94,0,0,1-5.42-.772A17.529,17.529,0,0,1,.48,28.569a1.251,1.251,0,0,1-.291-1.651A1.063,1.063,0,0,1,1.724,26.6a15.5,15.5,0,0,0,4.564,2.328c.315.095.63.186.946.263A16.754,16.754,0,0,1,5.392,27.05,17.512,17.512,0,0,1,2.136,16.795,17.384,17.384,0,0,1,6.709,4.918,15.026,15.026,0,0,1,17.752,0l.016.008,2.714.054a1.144,1.144,0,0,1,1.083,1.2A1.141,1.141,0,0,1,20.45,2.422l-2.7-.053V2.38A12.9,12.9,0,0,0,8.276,6.6,14.931,14.931,0,0,0,4.35,16.795a15.09,15.09,0,0,0,2.787,8.812,13.667,13.667,0,0,0,4.668,4.117l.026.011a12.471,12.471,0,0,0,2.544,1.016h-.008a1.194,1.194,0,0,1,.792,1.441,1.12,1.12,0,0,1-1.064.892A.94.94,0,0,1,13.818,33.044Zm6.582-.853a1.192,1.192,0,0,1,.792-1.441h-.008a12.122,12.122,0,0,0,1.935-.717c.034-.018.07-.042.106-.058a12.061,12.061,0,0,0,1.576-.895h-.016a.851.851,0,0,1,.2-.128,14.121,14.121,0,0,0,4.04-4.313,15.08,15.08,0,0,0,2.149-7.845,1.109,1.109,0,1,1,2.213,0,17.611,17.611,0,0,1-2.512,9.131q-.138.231-.283.453a6.834,6.834,0,0,1-.426.671A16.949,16.949,0,0,1,28.325,29.2c.314-.077.629-.168.944-.263A15.486,15.486,0,0,0,33.834,26.6a1.063,1.063,0,0,1,1.535.313,1.251,1.251,0,0,1-.292,1.651,17.45,17.45,0,0,1-5.194,2.638,16.952,16.952,0,0,1-5.421.775,15.007,15.007,0,0,1-2.723,1.062,1.1,1.1,0,0,1-.278.039A1.119,1.119,0,0,1,20.4,32.191Zm-5.7-7.6a7.758,7.758,0,0,1-2.941-4.656.78.78,0,0,1,.509-.947.719.719,0,0,1,.187-.024l.007.008H23.25a.748.748,0,0,1,.719.771.8.8,0,0,1-.04.244,7.732,7.732,0,0,1-2.973,4.6,5.525,5.525,0,0,1-3.126,1.007h-.041A5.36,5.36,0,0,1,14.7,24.59ZM11.73,12.808a2.06,2.06,0,0,1,1.971-2.13,2.059,2.059,0,0,1,1.962,2.13,2.036,2.036,0,0,1-1.962,2.11A2.038,2.038,0,0,1,11.73,12.808Zm8.326.008a1.972,1.972,0,1,1,3.933,0,1.971,1.971,0,1,1-3.933,0Z" transform="translate(0 0.001)" />
</svg>
