<svg xmlns="http://www.w3.org/2000/svg" width="34.432" height="38.913" viewBox="0 0 34.432 38.913">
  <path id="Union_43" data-name="Union 43" d="M32.228,38.227c-.092-.2-.188-.4-.283-.6a16.69,16.69,0,0,0-6.787-7.107c-.457.261-.929.5-1.412.719-.015,0-.03.015-.044.019a1.149,1.149,0,0,1-1.523-.583,1.152,1.152,0,0,1,.557-1.508l.026-.011a14.152,14.152,0,0,0,1.648-.869,1.02,1.02,0,0,1,.21-.134l.118-.078a14.144,14.144,0,0,0,4.1-4.113,13.975,13.975,0,0,0,2.249-7.631v0a1.156,1.156,0,1,1,2.312,0,16.24,16.24,0,0,1-2.422,8.553c-.066.111-.136.222-.21.332a16.454,16.454,0,0,1-3.506,3.871c.077.052.159.1.236.158a18.977,18.977,0,0,1,6.832,8.041,1.128,1.128,0,0,1,.1.472,1.156,1.156,0,0,1-.656,1.036c-.011,0-.019.011-.03.015a1.149,1.149,0,0,1-1.519-.586ZM.64,38.145a1.153,1.153,0,0,1-.619-1.252,1.122,1.122,0,0,1,.1-.3c.162-.323.335-.645.516-.958a19.133,19.133,0,0,1,6.23-6.548,16.41,16.41,0,0,1-2.433-2.4c-.1-.125-.2-.255-.3-.383A16.267,16.267,0,0,1,.725,16.465v-.13A16.274,16.274,0,0,1,5.51,4.784,16.7,16.7,0,0,1,7.387,3.17,16.272,16.272,0,0,1,16.8,0c.089,0,.174,0,.262,0l.019,0,2.839.052a1.156,1.156,0,0,1,1.135,1.158v.014A1.153,1.153,0,0,1,19.9,2.359h-.019l-2.824-.052v0A14.021,14.021,0,0,0,3.2,14.241v0l-.011.055a14.208,14.208,0,0,0-.144,2.035,13.977,13.977,0,0,0,2.4,7.86c.166.243.335.479.516.711.015.019.03.037.044.059a14.125,14.125,0,0,0,3.5,3.187,1.028,1.028,0,0,1,.206.125l.03.021.055.033a13.909,13.909,0,0,0,3.735,1.582,1.155,1.155,0,0,1,.862,1.117,1.093,1.093,0,0,1-.037.287,1.156,1.156,0,0,1-.6.745,1.138,1.138,0,0,1-.8.081,16.2,16.2,0,0,1-3.974-1.618,16.606,16.606,0,0,0-6.783,7.1v0a1.152,1.152,0,0,1-1.549.52ZM20.489,21.787a5.5,5.5,0,0,0-6.525-.021,1.167,1.167,0,0,1-1.416-1.855,7.863,7.863,0,0,1,9.305-.025,1.17,1.17,0,1,1-1.364,1.9Zm.962-6.683a2.056,2.056,0,1,1,2.19-2.083v.039a2.043,2.043,0,0,1-2.006,2.046.213.213,0,0,1-.055,0C21.536,15.111,21.5,15.106,21.452,15.1ZM10.834,13.059a2.067,2.067,0,0,1,1.991-2.069h.066c.052,0,.1,0,.147,0a2.062,2.062,0,1,1-2.2,2.065Z" transform="translate(0 0.001)" />
</svg>
