<svg xmlns="http://www.w3.org/2000/svg" width="55.278" height="62.47" viewBox="0 0 55.278 62.47">
  <g id="Group_588" data-name="Group 588" transform="translate(0 0)">
    <path id="União_1" data-name="União 1" d="M.728,2.482A1.851,1.851,0,0,0,2.975,5.425a8.726,8.726,0,0,1,10.349.036,1.855,1.855,0,0,0,2.16-3.016C7.795-3.07.746,2.466.727,2.482Z" transform="translate(19.51 29.492)" fill="#f37335"/>
    <path id="União_1-2" data-name="União 1" d="M51.739,61.373q-.219-.487-.456-.963A26.784,26.784,0,0,0,40.388,49q-1.1.629-2.265,1.152l-.075.034A1.849,1.849,0,0,1,36.5,46.829l.043-.02a22.356,22.356,0,0,0,2.643-1.4,1.842,1.842,0,0,1,.336-.211l.19-.123A22.66,22.66,0,0,0,46.3,38.471a22.418,22.418,0,0,0,3.615-12.252l0,.005a1.856,1.856,0,1,1,3.713,0,26.1,26.1,0,0,1-3.886,13.732q-.166.269-.338.534a26.371,26.371,0,0,1-5.633,6.217q.193.124.384.251a30.7,30.7,0,0,1,5.248,4.4,30.381,30.381,0,0,1,5.72,8.51,1.848,1.848,0,0,1-.893,2.423l-.043.02a1.848,1.848,0,0,1-2.442-.936ZM1.028,61.242a1.854,1.854,0,0,1-.833-2.487q.391-.783.826-1.54a30.662,30.662,0,0,1,10-10.507,26.49,26.49,0,0,1-3.9-3.851q-.249-.3-.489-.614A26.108,26.108,0,0,1,1.168,26.437q0-.106,0-.212A26.221,26.221,0,0,1,26.969,0q.211,0,.424,0l.029.007L31.98.091A1.849,1.849,0,0,1,33.8,1.945c0,.008,0,.016,0,.024a1.848,1.848,0,0,1-1.848,1.82h-.029l-4.531-.083v.007A22.52,22.52,0,0,0,5.128,22.868h0l-.013.089a22.693,22.693,0,0,0-.236,3.269A22.419,22.419,0,0,0,8.737,38.843q.4.584.826,1.141l.074.1A22.614,22.614,0,0,0,15.253,45.2a1.863,1.863,0,0,1,.332.2l.044.034.088.053a22.424,22.424,0,0,0,6,2.539,1.85,1.85,0,0,1-.929,3.581,26.1,26.1,0,0,1-6.382-2.6A26.728,26.728,0,0,0,3.515,60.41v0a1.855,1.855,0,0,1-2.488.834Zm33.41-36.99a3.3,3.3,0,1,1,3.517-3.345q0,.032,0,.064a3.289,3.289,0,0,1-3.221,3.287h-.086Q34.543,24.258,34.438,24.252ZM17.392,20.965a3.323,3.323,0,0,1,3.2-3.321l.107,0q.117,0,.233.008a3.308,3.308,0,1,1-3.539,3.314Z" transform="translate(0 0)" fill="#f37335"/>
  </g>
</svg>
