<svg id="Grupo_15" data-name="Grupo 15" xmlns="http://www.w3.org/2000/svg" width="38.02" height="40.275" viewBox="0 0 38.02 40.275">
  <path id="Caminho_552" data-name="Caminho 552" d="M284.91,3052.64Z" transform="translate(-268.872 -3043.588)" fill="#fefefe" stroke="#f37335" stroke-miterlimit="22.926" stroke-width="22.1" fill-rule="evenodd"/>
  <path id="Caminho_553" data-name="Caminho 553" d="M316.368,3021.05a9.665,9.665,0,1,1-2.833-6.831h0A9.623,9.623,0,0,1,316.368,3021.05Zm-4.148,5.513a7.793,7.793,0,0,0,0-11.025l0,0a7.8,7.8,0,1,0,0,11.03Z" transform="translate(-278.348 -3011.39)" fill="#f37335"/>
  <path id="Caminho_554" data-name="Caminho 554" d="M300.2,3108.663a.933.933,0,0,1,1.865,0,13.1,13.1,0,0,1-2.122,7.165,13.24,13.24,0,0,1-5.7,4.872.929.929,0,0,1-.757-1.7,11.381,11.381,0,0,0,4.9-4.187A11.255,11.255,0,0,0,300.2,3108.663Z" transform="translate(-275.134 -3086.588)" fill="#f37335"/>
  <path id="Caminho_555" data-name="Caminho 555" d="M224.816,3076.085a.929.929,0,0,1-.465,1.8,13.17,13.17,0,0,1,3.318-25.915l.015,0,2.289.042a.928.928,0,1,1-.031,1.856l-2.276-.042v0a11.31,11.31,0,0,0-2.851,22.254Z" transform="translate(-213.913 -3043.065)" fill="#f37335"/>
  <path id="Caminho_556" data-name="Caminho 556" d="M300.378,3156.741a.932.932,0,1,1,.845-1.661,15.311,15.311,0,0,1,7,7.356.929.929,0,0,1-1.7.757,13.444,13.444,0,0,0-6.151-6.454Z" transform="translate(-280.548 -3123.469)" fill="#f37335"/>
  <path id="Caminho_557" data-name="Caminho 557" d="M213.592,3162.708a.931.931,0,0,1-1.668-.83,15.36,15.36,0,0,1,6.741-6.8.932.932,0,0,1,.845,1.661,13.414,13.414,0,0,0-5.919,5.967Z" transform="translate(-211.826 -3123.469)" fill="#f37335"/>
  <path id="Caminho_558" data-name="Caminho 558" d="M256.276,3121.493a.929.929,0,1,1,1.137-1.47,4.381,4.381,0,0,0,5.194-.022.931.931,0,0,1,1.084,1.514A6.269,6.269,0,0,1,256.276,3121.493Z" transform="translate(-246.24 -3096.031)" fill="#f37335"/>
  <path id="Caminho_559" data-name="Caminho 559" d="M254.936,3094.008a1.658,1.658,0,1,1-1.655-1.668A1.653,1.653,0,0,1,254.936,3094.008Z" transform="translate(-242.887 -3074.575)" fill="#f37335" fill-rule="evenodd"/>
  <path id="Caminho_560" data-name="Caminho 560" d="M286.878,3094.043a1.659,1.659,0,0,1-3.318,0,1.659,1.659,0,1,1,3.318,0Z" transform="translate(-267.818 -3074.607)" fill="#f37335" fill-rule="evenodd"/>
  <path id="Caminho_561" data-name="Caminho 561" d="M338.675,3037.028a.94.94,0,0,1-1.865,0v-7.378a.94.94,0,0,1,1.865,0Z" transform="translate(-309.382 -3025.003)" fill="#f37335"/>
  <circle id="Elipse_1" data-name="Elipse 1" cx="0.99" cy="0.99" r="0.99" transform="translate(27.346 13.296)" fill="#f37335"/>
</svg>
