<svg xmlns="http://www.w3.org/2000/svg" width="367.734" height="286.365" viewBox="0 0 367.734 286.365">
  <rect id="Retângulo_82" data-name="Retângulo 82" width="216.362" height="81.734" rx="18" transform="translate(367.734 70) rotate(90)" fill="#e6e7e8"/>
  <rect id="Retângulo_83" data-name="Retângulo 83" width="168.29" height="81.734" rx="18" transform="translate(272.734 118.076) rotate(90)" fill="#e6e7e8"/>
  <rect id="Retângulo_84" data-name="Retângulo 84" width="108.181" height="81.734" rx="18" transform="translate(176.734 178.182) rotate(90)" fill="#fe867c"/>
  <rect id="Retângulo_85" data-name="Retângulo 85" width="63.485" height="81.734" rx="18" transform="translate(81.734 222.878) rotate(90)" fill="#fea098"/>
  <g id="Camada_x0020_1" transform="translate(10 149.895)">
    <path id="Caminho_674" data-name="Caminho 674" d="M43.883,50.886a3.6,3.6,0,0,1,.373-.228,25.368,25.368,0,0,0,7.6-7.539,25.046,25.046,0,0,0,4.059-13.731,2.071,2.071,0,1,1,4.142,0A29.278,29.278,0,0,1,49.019,52.335,34.189,34.189,0,0,1,61.735,67.081a2.072,2.072,0,1,1-3.79,1.678,29.88,29.88,0,0,0-5.633-8.367A30.484,30.484,0,0,0,45.229,54.9a28.384,28.384,0,0,1-2.63,1.325,2.072,2.072,0,0,1-1.678-3.79A26.863,26.863,0,0,0,43.883,50.886ZM26.838,24.356a3.7,3.7,0,0,1-7.394,0,3.7,3.7,0,1,1,7.394,0Zm15.636,0a3.707,3.707,0,1,1-3.707-3.707A3.7,3.7,0,0,1,42.475,24.356ZM23.918,37.362a2.071,2.071,0,1,1,0-4.142H37.98a2.071,2.071,0,0,1,0,4.142ZM3.932,67.661a2.058,2.058,0,0,1-2.775.932,2.058,2.058,0,0,1-.932-2.775,33.966,33.966,0,0,1,6.317-8.781,33.446,33.446,0,0,1,5.82-4.7,30.509,30.509,0,0,1-4.929-5.012A29.384,29.384,0,0,1,30.69,0h.041l5.115.1a2.071,2.071,0,1,1-.083,4.142l-5.074-.1h0A25.238,25.238,0,0,0,10.7,44.776a25.57,25.57,0,0,0,6.379,5.84,1.776,1.776,0,0,1,.414.269,24.853,24.853,0,0,0,6.814,2.9A2.075,2.075,0,0,1,23.276,57.8a28.8,28.8,0,0,1-7.145-2.92,29.786,29.786,0,0,0-12.2,12.778Z" transform="translate(-0.002 0)" fill="#fea098"/>
  </g>
  <g id="Camada_x0020_1-2" data-name="Camada_x0020_1" transform="translate(106 105.915)">
    <path id="Caminho_675" data-name="Caminho 675" d="M26.142,23.5a4.041,4.041,0,0,1-1.115,2.811,3.7,3.7,0,0,1-2.71,1.174,3.824,3.824,0,0,1-2.727-1.156,3.98,3.98,0,0,1-1.132-2.811,4.055,4.055,0,0,1,1.132-2.828,3.714,3.714,0,0,1,5.42,0,4.055,4.055,0,0,1,1.132,2.828ZM42.3,50.874a2.043,2.043,0,0,1,.36-.231A24.936,24.936,0,0,0,49.982,43.1a25.768,25.768,0,0,0,3.91-13.715,2.008,2.008,0,1,1,4.013,0,30.038,30.038,0,0,1-4.562,15.974,29.07,29.07,0,0,1-6.089,6.955,31.947,31.947,0,0,1,6.072,5.212A34.233,34.233,0,0,1,59.5,67.061,2.1,2.1,0,0,1,58.489,69.8a1.971,1.971,0,0,1-2.641-1.05,30.116,30.116,0,0,0-5.42-8.361,29.11,29.11,0,0,0-6.826-5.5q-1.235.72-2.521,1.334a1.971,1.971,0,0,1-2.641-1.05,2.1,2.1,0,0,1,1.012-2.739A23.421,23.421,0,0,0,42.3,50.874ZM23.432,53.791a2.092,2.092,0,0,1,1.441,2.526,2,2,0,0,1-2.435,1.494,27.323,27.323,0,0,1-6.895-2.917,28.921,28.921,0,0,0-6.415,5.052,30.2,30.2,0,0,0-5.334,7.7,1.967,1.967,0,0,1-2.693.925A2.111,2.111,0,0,1,.21,65.781,33.863,33.863,0,0,1,6.3,56.993a33.451,33.451,0,0,1,5.608-4.714,28.543,28.543,0,0,1-4.734-5A30.149,30.149,0,0,1,9.574,8.59,27.708,27.708,0,0,1,29.589-.02h.034l4.922.089a2.046,2.046,0,0,1,1.972,2.1,2.042,2.042,0,0,1-2.024,2.046l-4.888-.089h0a23.826,23.826,0,0,0-17.185,7.382,25.924,25.924,0,0,0-2.058,33.229,24.942,24.942,0,0,0,6.14,5.835,2.054,2.054,0,0,1,.412.267,23.342,23.342,0,0,0,6.569,2.9Zm-1.6-16.846a2.118,2.118,0,0,1-.36-2.9,1.945,1.945,0,0,1,2.8-.374,9.127,9.127,0,0,0,11.165-.053,1.961,1.961,0,0,1,2.8.48,2.131,2.131,0,0,1-.463,2.9C29.469,43.171,21.854,36.963,21.837,36.945ZM41.218,23.515a3.98,3.98,0,0,1-1.132,2.811,3.824,3.824,0,0,1-2.727,1.156,3.755,3.755,0,0,1-2.71-1.156,3.98,3.98,0,0,1-1.132-2.811,4.055,4.055,0,0,1,1.132-2.828,3.76,3.76,0,0,1,2.71-1.174,3.7,3.7,0,0,1,2.71,1.174A4.055,4.055,0,0,1,41.2,23.515Z" transform="translate(0.005 0.02)" fill="#fe867c"/>
  </g>
  <g id="Camada_x0020_1-3" data-name="Camada_x0020_1" transform="translate(201 44.151)">
    <path id="Caminho_676" data-name="Caminho 676" d="M43.96,50.875a2.82,2.82,0,0,1,.377-.24,25.479,25.479,0,0,0,7.6-7.533,24.966,24.966,0,0,0,4.048-13.714,2.075,2.075,0,0,1,4.151,0A29.4,29.4,0,0,1,49.089,52.33,34.157,34.157,0,0,1,61.815,67.071a2.076,2.076,0,0,1-3.79,1.695,29.542,29.542,0,0,0-5.643-8.355,30.078,30.078,0,0,0-7.1-5.5q-1.286.719-2.624,1.335a2.074,2.074,0,1,1-1.7-3.784,25.672,25.672,0,0,0,2.967-1.558ZM3.947,67.654a2.105,2.105,0,0,1-2.8.942A2.1,2.1,0,0,1,.208,65.8,34.218,34.218,0,0,1,12.351,52.313a30.189,30.189,0,0,1-4.922-5A29.383,29.383,0,0,1,30.72-.01h.034l5.111.1A2.072,2.072,0,1,1,35.8,4.236L30.72,4.15h0A25.209,25.209,0,0,0,17.1,50.6a1.653,1.653,0,0,1,.429.274,24.614,24.614,0,0,0,6.826,2.894,2.068,2.068,0,1,1-1.029,4.006,28.777,28.777,0,0,1-7.152-2.911A29.755,29.755,0,0,0,9.5,59.915a30.193,30.193,0,0,0-5.54,7.7Z" transform="translate(0.003 0.01)" fill="#fd7062"/>
    <g id="_1532514852144" transform="translate(18.767 19.773)">
      <path id="Caminho_677" data-name="Caminho 677" d="M11.009,22.2a2.076,2.076,0,1,1,4.013-1.063A6.986,6.986,0,0,0,18.5,25.473a9.7,9.7,0,0,0,4.751,1.218,9.433,9.433,0,0,0,4.717-1.166,7,7,0,0,0,3.362-4.391A2.076,2.076,0,0,1,35.346,22.2a11.146,11.146,0,0,1-5.334,6.929,13.559,13.559,0,0,1-6.792,1.715,14.224,14.224,0,0,1-6.775-1.749A11.128,11.128,0,0,1,10.992,22.2Z" transform="translate(-10.939 -5.801)" fill="#fd7062"/>
      <g id="Grupo_39" data-name="Grupo 39" transform="translate(0.704)">
        <path id="Caminho_678" data-name="Caminho 678" d="M18.759,15.255a3.713,3.713,0,1,0,0,.017Z" transform="translate(-11.35 -11.55)" fill="#fd7062" fill-rule="evenodd"/>
        <path id="Caminho_679" data-name="Caminho 679" d="M27.889,15.272a3.7,3.7,0,0,1-7.409,0,3.7,3.7,0,1,1,7.409,0Z" transform="translate(-4.821 -11.55)" fill="#fd7062" fill-rule="evenodd"/>
      </g>
    </g>
  </g>
  <g id="Camada_x0020_1-4" data-name="Camada_x0020_1" transform="translate(295)">
    <path id="Caminho_680" data-name="Caminho 680" d="M46.628,50.888a1.938,1.938,0,0,1,.38-.228,25.5,25.5,0,0,0,7.6-7.541,25.015,25.015,0,0,0,4.044-13.729,2.083,2.083,0,0,1,4.166,0A29.359,29.359,0,0,1,51.782,52.332a33.48,33.48,0,0,1,6.31,5.215,34.016,34.016,0,0,1,6.416,9.533,2.072,2.072,0,0,1-3.786,1.688A29.926,29.926,0,0,0,48.011,54.917a26.57,26.57,0,0,1-2.63,1.323,2.072,2.072,0,0,1-1.688-3.786,23.973,23.973,0,0,0,2.965-1.566ZM27.045,53.807a2.072,2.072,0,0,1-1.034,4.014,29.376,29.376,0,0,1-5.124-1.855,34.408,34.408,0,0,1-10.2-1.353A34.114,34.114,0,0,1,.909,49.991a2.079,2.079,0,1,1,2.341-3.436,30.1,30.1,0,0,0,8.59,4.075q.889.251,1.779.456a30.028,30.028,0,0,1-3.467-3.755A29.377,29.377,0,0,1,33.415,0l.03.015,5.109.091a2.068,2.068,0,0,1-.061,4.136l-5.078-.091v.015a25.233,25.233,0,0,0-11.19,47.847l.046.015a24.765,24.765,0,0,0,4.789,1.779Z" transform="translate(-0.006 0)" fill="#fd5445"/>
    <g id="_1531534957104" transform="translate(21.292 18.261)">
      <g id="Grupo_40" data-name="Grupo 40" transform="translate(0 16.345)">
        <path id="Caminho_681" data-name="Caminho 681" d="M15.98,23.43H38.894C35.378,36.533,19.633,37.065,15.98,23.43Z" transform="translate(-14.434 -21.886)" fill="none" fill-rule="evenodd"/>
        <path id="Caminho_682" data-name="Caminho 682" d="M16.624,22.547H39.538a1.53,1.53,0,0,1,1.526,1.526,1.488,1.488,0,0,1-.086.48,15.252,15.252,0,0,1-6.312,9.073,12.348,12.348,0,0,1-6.637,1.99,11.957,11.957,0,0,1-6.655-1.972,15.27,15.27,0,0,1-6.243-9.193,1.528,1.528,0,0,1,1.081-1.869,1.557,1.557,0,0,1,.394-.051ZM37.412,25.6H18.734a11.66,11.66,0,0,0,4.322,5.506,8.993,8.993,0,0,0,4.974,1.475,9.231,9.231,0,0,0,4.991-1.509,11.619,11.619,0,0,0,4.374-5.454Z" transform="translate(-15.079 -22.53)" fill="#fd5445"/>
      </g>
      <g id="Grupo_41" data-name="Grupo 41" transform="translate(0.002)">
        <path id="Caminho_683" data-name="Caminho 683" d="M23.433,17.2a4.176,4.176,0,0,1-8.353,0,4.176,4.176,0,1,1,8.353,0Z" transform="translate(-15.08 -13)" fill="#fd5445" fill-rule="evenodd"/>
        <path id="Caminho_684" data-name="Caminho 684" d="M33.723,17.2a4.176,4.176,0,1,1-4.185-4.185A4.161,4.161,0,0,1,33.723,17.2Z" transform="translate(-7.721 -12.986)" fill="#fd5445" fill-rule="evenodd"/>
      </g>
    </g>
  </g>
</svg>
