<svg xmlns="http://www.w3.org/2000/svg" width="93.054" height="100.691" viewBox="0 0 93.054 100.691">
  <g id="Camada_x0020_1" transform="translate(0.005)">
    <path id="Caminho_680" data-name="Caminho 680" d="M67.074,73.2a2.788,2.788,0,0,1,.547-.328A36.682,36.682,0,0,0,78.554,62.027a35.984,35.984,0,0,0,5.817-19.749,3,3,0,0,1,5.993,0,42.235,42.235,0,0,1-15.878,33,48.161,48.161,0,0,1,9.08,7.5,48.932,48.932,0,0,1,9.229,13.713,2.981,2.981,0,0,1-5.446,2.428A43.049,43.049,0,0,0,69.064,79a38.22,38.22,0,0,1-3.783,1.9,2.981,2.981,0,0,1-2.428-5.446A34.486,34.486,0,0,0,67.118,73.2ZM38.9,77.4a2.981,2.981,0,1,1-1.487,5.774,42.258,42.258,0,0,1-7.371-2.668,49.5,49.5,0,0,1-14.673-1.946A49.073,49.073,0,0,1,1.307,71.912a2.991,2.991,0,1,1,3.368-4.943,43.3,43.3,0,0,0,12.357,5.862q1.279.361,2.559.656a43.2,43.2,0,0,1-4.987-5.4A42.259,42.259,0,0,1,48.067,0l.043.022L55.46.152a2.975,2.975,0,0,1-.088,5.95l-7.3-.131v.022a36.3,36.3,0,0,0-16.1,68.828l.066.022A35.624,35.624,0,0,0,38.926,77.4Z" transform="translate(-0.006)" fill="#fd5445"/>
    <g id="_1531534957104" transform="translate(30.631 26.302)">
      <g id="Grupo_40" data-name="Grupo 40" transform="translate(0 23.48)">
        <path id="Caminho_681" data-name="Caminho 681" d="M15.98,23.43H48.942C43.884,42.279,21.235,43.044,15.98,23.43Z" transform="translate(-13.756 -21.21)" fill="none" fill-rule="evenodd"/>
        <path id="Caminho_682" data-name="Caminho 682" d="M17.3,22.554H50.263a2.2,2.2,0,0,1,2.2,2.2,2.14,2.14,0,0,1-.124.69,21.94,21.94,0,0,1-9.08,13.052,17.763,17.763,0,0,1-9.547,2.863,17.2,17.2,0,0,1-9.573-2.837,21.966,21.966,0,0,1-8.981-13.224A2.2,2.2,0,0,1,16.709,22.6a2.24,2.24,0,0,1,.567-.073Zm29.9,4.392H20.337a16.773,16.773,0,0,0,6.217,7.92,12.936,12.936,0,0,0,7.155,2.122,13.279,13.279,0,0,0,7.18-2.171,16.714,16.714,0,0,0,6.292-7.846Z" transform="translate(-15.079 -22.531)" fill="#fd5445"/>
      </g>
      <g id="Grupo_41" data-name="Grupo 41" transform="translate(0.003 0)">
        <path id="Caminho_683" data-name="Caminho 683" d="M27.1,19.031a6.008,6.008,0,1,1-6.008-6.008A6.008,6.008,0,0,1,27.1,19.031Z" transform="translate(-15.08 -13.024)" fill="#fd5445" fill-rule="evenodd"/>
        <path id="Caminho_684" data-name="Caminho 684" d="M37.385,19.035a5.986,5.986,0,1,1-1.753-4.267A6.007,6.007,0,0,1,37.385,19.035Z" transform="translate(0.019 -13.007)" fill="#fd5445" fill-rule="evenodd"/>
      </g>
    </g>
  </g>
</svg>
