<svg xmlns="http://www.w3.org/2000/svg" width="50" height="56.454" viewBox="0 0 50 56.454">
  <g id="_1531534957104" transform="translate(7.818 7.925)">
    <g id="Grupo_40" data-name="Grupo 40" transform="translate(5.548 19.444)">
      <path id="Caminho_681" data-name="Caminho 681" d="M15.98,23.43H34.371C31.549,33.947,18.912,34.374,15.98,23.43Z" transform="translate(-13.38 -21.514)" fill="none" fill-rule="evenodd"/>
      <path id="Caminho_682" data-name="Caminho 682" d="M16.482,22.546h20.8a1.389,1.389,0,0,1,1.386,1.386,1.351,1.351,0,0,1-.078.436,13.847,13.847,0,0,1-5.73,8.237,11.21,11.21,0,0,1-6.026,1.806A10.855,10.855,0,0,1,20.8,32.62a13.863,13.863,0,0,1-5.668-8.346,1.387,1.387,0,0,1,.981-1.7,1.414,1.414,0,0,1,.358-.047Zm18.871,2.772H18.4a10.585,10.585,0,0,0,3.924,5,8.165,8.165,0,0,0,4.515,1.339,8.381,8.381,0,0,0,4.531-1.37,10.548,10.548,0,0,0,3.97-4.951Z" transform="translate(-15.079 -22.53)" fill="#f37335"/>
    </g>
    <g id="Grupo_226" data-name="Grupo 226" transform="translate(-7.818 -7.925)">
      <g id="Camada_x0020_1" transform="translate(0 0)">
        <path id="Caminho_676" data-name="Caminho 676" d="M35.453,41.028a2.274,2.274,0,0,1,.3-.193,20.549,20.549,0,0,0,6.128-6.076A20.135,20.135,0,0,0,45.15,23.7a1.674,1.674,0,0,1,3.347,0,23.71,23.71,0,0,1-8.908,18.5A27.547,27.547,0,0,1,49.853,54.091,1.674,1.674,0,0,1,46.8,55.458a23.825,23.825,0,0,0-4.551-6.738,24.258,24.258,0,0,0-5.727-4.432q-1.037.58-2.116,1.077a1.672,1.672,0,1,1-1.369-3.052,20.7,20.7,0,0,0,2.393-1.257ZM3.182,54.56a1.7,1.7,0,0,1-2.255.759,1.692,1.692,0,0,1-.761-2.251A27.6,27.6,0,0,1,9.96,42.188a24.347,24.347,0,0,1-3.97-4.032A23.7,23.7,0,0,1,24.775-.01H24.8l4.122.083a1.671,1.671,0,1,1-.055,3.342l-4.094-.069h0A20.331,20.331,0,0,0,13.792,40.807a1.333,1.333,0,0,1,.346.221,19.851,19.851,0,0,0,5.505,2.334,1.668,1.668,0,1,1-.83,3.231,23.209,23.209,0,0,1-5.768-2.347,24,24,0,0,0-5.381,4.073A24.35,24.35,0,0,0,3.2,54.533Z" transform="translate(0.003 0.01)" fill="#f37335"/>
        <g id="_1532514852144" transform="translate(15.703 15.947)">
          <g id="Grupo_39" data-name="Grupo 39" transform="translate(0)">
            <path id="Caminho_678" data-name="Caminho 678" d="M17.326,14.538a2.995,2.995,0,1,0,0,.014Z" transform="translate(-11.35 -11.55)" fill="#f37335" fill-rule="evenodd"/>
            <path id="Caminho_679" data-name="Caminho 679" d="M26.456,14.552a2.988,2.988,0,0,1-5.976,0,2.988,2.988,0,1,1,5.976,0Z" transform="translate(-7.851 -11.55)" fill="#f37335" fill-rule="evenodd"/>
          </g>
        </g>
      </g>
    </g>
  </g>
</svg>
