<svg xmlns="http://www.w3.org/2000/svg" width="30.255" height="31.918" viewBox="0 0 30.255 31.918">
  <g id="Grupo_217" data-name="Grupo 217" transform="translate(-42 -571.487)">
    <g id="Camada_x0020_1" transform="translate(42 573.432)">
      <path id="Caminho_676" data-name="Caminho 676" d="M18.821,21.778a1.207,1.207,0,0,1,.162-.1,10.91,10.91,0,0,0,3.253-3.226,10.69,10.69,0,0,0,1.733-5.872.889.889,0,0,1,1.777,0A12.588,12.588,0,0,1,21.017,22.4a14.625,14.625,0,0,1,5.449,6.312.889.889,0,0,1-1.623.726,12.649,12.649,0,0,0-2.416-3.578,12.879,12.879,0,0,0-3.04-2.353q-.551.308-1.124.572a.888.888,0,1,1-.727-1.62,10.993,10.993,0,0,0,1.27-.667ZM1.688,28.962a.9.9,0,0,1-1.2.4.9.9,0,0,1-.4-1.195,14.651,14.651,0,0,1,5.2-5.777,12.926,12.926,0,0,1-2.108-2.141A12.581,12.581,0,0,1,13.152-.01h.015l2.188.044a.887.887,0,1,1-.029,1.774l-2.174-.037h0A10.794,10.794,0,0,0,7.321,21.661a.708.708,0,0,1,.184.117,10.539,10.539,0,0,0,2.923,1.239.886.886,0,1,1-.441,1.715,12.322,12.322,0,0,1-3.062-1.246,12.741,12.741,0,0,0-2.857,2.163,12.928,12.928,0,0,0-2.372,3.3Z" transform="translate(0.003 0.01)" fill="#f37335"/>
      <g id="_1532514852144" transform="translate(8.036 8.466)">
        <path id="Caminho_677" data-name="Caminho 677" d="M10.969,20.706a.889.889,0,1,1,1.718-.455,2.991,2.991,0,0,0,1.491,1.858,4.152,4.152,0,0,0,2.034.521,4.039,4.039,0,0,0,2.02-.5,3,3,0,0,0,1.439-1.88.889.889,0,0,1,1.718.455,4.773,4.773,0,0,1-2.284,2.967,5.806,5.806,0,0,1-2.908.734,6.09,6.09,0,0,1-2.9-.749,4.765,4.765,0,0,1-2.335-2.952Z" transform="translate(-10.939 -13.685)" fill="#f37335"/>
        <g id="Grupo_39" data-name="Grupo 39" transform="translate(0.301)">
          <path id="Caminho_678" data-name="Caminho 678" d="M14.523,13.136a1.59,1.59,0,1,0,0,.007Z" transform="translate(-11.35 -11.55)" fill="#f37335" fill-rule="evenodd"/>
          <path id="Caminho_679" data-name="Caminho 679" d="M23.653,13.144a1.586,1.586,0,0,1-3.173,0,1.586,1.586,0,1,1,3.173,0Z" transform="translate(-13.775 -11.55)" fill="#f37335" fill-rule="evenodd"/>
        </g>
      </g>
    </g>
    <path id="União_2" data-name="União 2" d="M-4856.054,15a1,1,0,0,1-1-1V10.217h-3.2a1,1,0,0,1-.67-1.742l5.252-4.73a1,1,0,0,1,1.338,0l5.253,4.73a1,1,0,0,1-.67,1.742h-3.2V14a1,1,0,0,1-1,1Z" transform="translate(4921 568)" fill="#f37335"/>
  </g>
</svg>
