<svg xmlns="http://www.w3.org/2000/svg" width="192.034" height="215.657" viewBox="0 0 192.034 215.657">
  <g id="Grupo_508" data-name="Grupo 508" transform="translate(-119.025 -387.502)">
    <path id="Interseção_11" data-name="Interseção 11" d="M-20690.779,41c-4.893-.991-10.154-6.336-15.531-9.933a127.085,127.085,0,0,0-19.752-10.908c-8.078-3.544-15.92-4.728-20.518-10.583-6.316-8.036-3.811-14.987-3.307-25.665a138.812,138.812,0,0,0-1.84-29.245c-1.605-9.666-3.412-17.057-3.711-27.463-.174-6.07.7-4.11-4.74-10.7-2.008-2.432-4.346-6.8-8.611-6.919-4.865-.131-8.131,5.981-12.01,10.636-2.182,2.616-1.631,1.95-1.7,6.138-.361,19.678-6.658,31.5-5.625,56.278.436,10.426,3.129,18.656-2.863,26.493-4.691,6.138-11.93,7.255-20.029,10.657a129.567,129.567,0,0,0-29.129,17.471,16.786,16.786,0,0,1-6.99,3.743h-2.934c-3.186-.687-5.854-3.726-8.24-9.168-1.9-4.34-2.18-8.046-2.562-13.089-3.465-45.484-6.338-69.178,17.283-101.678,2.2-3.025,4.576-5.52,6.867-8.256,6.043-7.218,17.078-16.067,24.977-21.649,30.268-21.361,26.525,10.007,28.506,19.657a83.5,83.5,0,0,0,9.074-33.706l.174-43.545,10.021-.058.121,42.738c.766,11.684,3.754,25.235,8.938,34.293,2.646-4.068-1.09-17.561,6.207-24.365,6.625-6.18,17.623,1.756,22.225,4.833,24.773,16.58,45.7,41.7,50.6,72.947,2.463,15.715.057,41.773-1.174,58.364-.535,7.176-2.229,18.142-8.906,21.964a6.606,6.606,0,0,1-1.822.718Z" transform="translate(20984 560)" fill="#ffcc29"/>
    <path id="Caminho_1562" data-name="Caminho 1562" d="M598.42,1126.76Z" transform="translate(-410.934 -730.033)" fill="#fefefe" stroke="#f37335" stroke-miterlimit="22.926" stroke-width="16.49" fill-rule="evenodd"/>
    <g id="Camada_x0020_1" transform="translate(120.799 389.504)">
      <path id="Caminho_2042" data-name="Caminho 2042" d="M79.962,77.314c-1.985-9.649,1.757-41.019-28.506-19.654-7.9,5.579-18.937,14.427-24.981,21.648-2.292,2.738-4.664,5.229-6.866,8.258-23.621,32.5-20.746,56.193-17.282,101.676.384,5.044.661,8.747,2.563,13.089,4.51,10.294,10.036,11.994,18.16,5.426a129.633,129.633,0,0,1,29.134-17.474c8.1-3.4,15.337-4.516,20.028-10.654,5.992-7.84,3.295-16.069,2.86-26.493-1.034-24.775,5.266-36.6,5.625-56.28.076-4.186-.476-3.52,1.708-6.14,3.878-4.653,7.14-10.764,12.01-10.632,4.262.116,6.6,4.483,8.611,6.919,5.438,6.588,4.564,4.626,4.738,10.7.3,10.4,2.107,17.8,3.712,27.464a138.942,138.942,0,0,1,1.836,29.241c-.5,10.678-3.008,17.63,3.308,25.668,4.6,5.854,12.438,7.041,20.517,10.584a127.218,127.218,0,0,1,19.751,10.906c7.193,4.814,14.174,12.751,20.349,9.216,6.68-3.823,8.375-14.788,8.907-21.963,1.23-16.589,3.64-42.649,1.173-58.364-4.905-31.24-25.828-56.368-50.6-72.946-4.6-3.076-15.6-11.013-22.223-4.836-7.3,6.806-3.558,20.3-6.208,24.366-5.186-9.058-8.171-22.606-8.938-34.29L99.226.01,89.208.063l-.172,43.549a83.6,83.6,0,0,1-9.074,33.7Z" transform="translate(0)" fill="none" stroke="#f37335" stroke-width="4" fill-rule="evenodd"/>
    </g>
  </g>
</svg>
