<svg xmlns="http://www.w3.org/2000/svg" width="192.034" height="215.657" viewBox="0 0 192.034 215.657">
  <g id="Camada_x0020_1" transform="translate(1.774 2.001)">
    <path id="Caminho_2042" data-name="Caminho 2042" d="M79.962,77.314c-1.985-9.649,1.757-41.019-28.506-19.654-7.9,5.579-18.937,14.427-24.981,21.648-2.292,2.738-4.664,5.229-6.866,8.258-23.621,32.5-20.746,56.193-17.282,101.676.384,5.044.661,8.747,2.563,13.089,4.51,10.294,10.036,11.994,18.16,5.426a129.633,129.633,0,0,1,29.134-17.474c8.1-3.4,15.337-4.516,20.028-10.654,5.992-7.84,3.295-16.069,2.86-26.493-1.034-24.775,5.266-36.6,5.625-56.28.076-4.186-.476-3.52,1.708-6.14,3.878-4.653,7.14-10.764,12.01-10.632,4.262.116,6.6,4.483,8.611,6.919,5.438,6.588,4.564,4.626,4.738,10.7.3,10.4,2.107,17.8,3.712,27.464a138.942,138.942,0,0,1,1.836,29.241c-.5,10.678-3.008,17.63,3.308,25.668,4.6,5.854,12.438,7.041,20.517,10.584a127.218,127.218,0,0,1,19.751,10.906c7.193,4.814,14.174,12.751,20.349,9.216,6.68-3.823,8.375-14.788,8.907-21.963,1.23-16.589,3.64-42.649,1.173-58.364-4.905-31.24-25.828-56.368-50.6-72.946-4.6-3.076-15.6-11.013-22.223-4.836-7.3,6.806-3.558,20.3-6.208,24.366-5.186-9.058-8.171-22.606-8.938-34.29L99.226.01,89.208.063l-.172,43.549a83.6,83.6,0,0,1-9.074,33.7Z" transform="translate(0)" fill="none" stroke="#f37335" stroke-width="4" fill-rule="evenodd"/>
  </g>
</svg>
