<svg xmlns="http://www.w3.org/2000/svg" width="17.946" height="203.539" viewBox="0 0 17.946 203.539">
  <g id="Grupo_509" data-name="Grupo 509" transform="translate(-336.789 -396.527)">
    <path id="Icon_ion-md-arrow-up" data-name="Icon ion-md-arrow-up" d="M16.071,12.582V19.6l6.281-6.281,1.57,1.627-8.973,8.973L5.977,14.949l1.57-1.57L13.828,19.6V12.582Z" transform="translate(330.813 576.143)" fill="#f37335"/>
    <g id="Caminho_2043" data-name="Caminho 2043" transform="translate(344.762 396.727)" fill="#f37335">
      <path d="M 2.099999904632568 200.1000061035156 L 2 200.1000061035156 L 0 200.1000061035156 L -0.1000000014901161 200.1000061035156 L -0.1000000014901161 200 L -0.1000000014901161 119.9374771118164 L -0.1000000014901161 0 L -0.1000000014901161 -0.1000000014901161 L 0 -0.1000000014901161 L 2 -0.1000000014901161 L 2.099999904632568 -0.1000000014901161 L 2.099999904632568 0 L 2.099999904632568 200 L 2.099999904632568 200.1000061035156 Z" stroke="none"/>
      <path d="M 0 0 L 0 200 L 2 200 L 2 0 L 0 0 M -0.2000000476837158 -0.1999969482421875 L 2.200000047683716 -0.1999969482421875 L 2.200000047683716 200.1999969482422 L -0.2000000476837158 200.1999969482422 L -0.2000000476837158 -0.1999969482421875 Z" stroke="none" fill="#f37335"/>
    </g>
  </g>
</svg>
