<?xml version="1.0" encoding="UTF-8" standalone="no"?>
<!-- Created with Inkscape (http://www.inkscape.org/) -->

<svg
   version="1.1"
   id="svg1"
   width="131"
   height="139"
   viewBox="0 0 131 139"
   xmlns="http://www.w3.org/2000/svg"
   xmlns:svg="http://www.w3.org/2000/svg">
  <defs
     id="defs1" />
  <g
     id="g1">
    <path
       style="fill:#f34b21;fill-opacity:1;stroke:none"
       d="M 92.541323,1.0199697 C 49.534539,8.4720726 61.952309,73.442784 104.54132,65.803066 145.63606,58.431393 133.36188,-6.0533183 92.541323,1.0199697 m 3,5.853821 C 129.39757,3.4044917 134.69057,56.504612 100.54132,60.081646 66.202361,63.678555 61.089959,10.40408 95.541323,6.8737907 m -9.47004,22.4216313 c -3.60788,1.819343 -0.88216,7.524086 2.65254,5.268722 2.98128,-1.902244 0.70011,-6.959358 -2.65254,-5.268722 m 11.79807,-0.137413 c -3.50186,0.887703 -2.19625,6.611694 1.34394,5.685493 3.480757,-0.910652 2.232517,-6.592109 -1.34394,-5.685493 m 10.999997,0 c -3.50187,0.88771 -2.19624,6.611694 1.34394,5.685493 3.48076,-0.910652 2.23252,-6.592109 -1.34394,-5.685493 M 19.541319,110.41117 v 2 c -8.11626,4.36646 -15.2121634,12.7857 -18.1850034,20.03594 -0.928298,2.26395 0.561559,3.92746 2.795671,3.92746 2.223236,0 5.046892,-6.58975 7.2591024,-9.27408 2.59766,-3.15203 8.21445,-8.73405 10.88486,-10.639 3.83151,-2.73322 6.87101,0.21941 7.57365,0.50084 4.65401,1.86412 6.26313,3.28536 7.53059,2.65767 1.40313,-0.69487 2.17026,-1.33636 2.70597,-2.29529 1.43704,-2.57227 -5.06312,-4.51199 -6.6221,-5.33903 -8.07194,-4.28218 -15.03764,-9.41244 -19.50059,-17.574626 -16.3600764,-29.920654 11.25124,-61.11667 38.5949,-57.213242 0.92863,0.132565 2.97983,0.464381 4.67542,-0.371621 2.05961,-1.015485 2.44897,-3.230783 0.0198,-4.611832 -10.61593,-6.035347 -31.45762,3.980998 -38.70375,9.569283 -18.6621214,14.392393 -22.9385884,53.477552 0.97151,68.627528 m 19.47,-52.330455 c -5.17233,3.013947 -0.17226,10.785859 4.6899,7.592766 4.60998,-3.027488 0.22177,-10.454826 -4.6899,-7.592766 m 24,0 c -5.17233,3.013955 -0.17226,10.785866 4.689902,7.592766 4.60996,-3.027481 0.22178,-10.454841 -4.689902,-7.592766 m 13.530002,54.330455 c 3.289382,-4.3056 6.974242,-8.35599 9.793982,-13.000166 3.21302,-5.29193 5.64194,-11.739483 5.94346,-17.975552 0.0439,-0.90839 0.75962,-4.515837 -0.11069,-6.547721 -0.76069,-1.77594 -2.98983,-2.148476 -4.56585,-1.086059 -2.64123,1.780488 -1.7121,8.834715 -2.47279,11.610029 -1.52116,5.549828 -4.09205,10.642613 -7.886122,14.985099 -1.54858,1.77241 -3.23189,4.73854 -7.21673,7.73379 -2.59831,1.95305 -8.398972,3.91848 -8.120392,5.57344 0.0921,0.54729 0.0737,2.88131 1.46551,3.56365 1.893972,0.92856 5.871132,-2.04958 6.219932,-1.95774 4.35176,1.14584 7.37508,4.28126 8.66552,5.33762 1.572792,1.2875 3.388142,3.45917 6.762752,7.59433 1.82921,2.24147 4.00346,7.20952 5.8117,9.31445 1.39805,1.62742 2.52868,0.76532 3.41682,0.48691 3.37765,-1.0588 -0.98043,-7.94241 -1.9394,-9.63017 -3.7899,-6.67005 -9.28396,-12.00521 -15.767702,-16.00191 M 41.326049,78.954695 c -1.19422,0.861638 -1.31138,2.348127 -0.58326,3.460564 1.30325,1.991159 4.78172,3.583213 5.84956,3.932973 5.221,1.710081 11.77014,2.590212 16.12998,-1.180237 1.08675,-0.939838 3.840472,-2.457786 3.983122,-3.510547 0.20412,-1.50639 -1.44946,-3.407391 -2.809052,-3.562631 -1.64626,-0.187974 -4.45601,3.089511 -6.6384,3.273438 -3.73857,0.315078 -6.70245,-0.0068 -7.56132,-0.138187 -2.43906,-0.373151 -6.06769,-3.936956 -8.37063,-2.275373 z"
       id="path1" />
  </g>
</svg>
