<svg xmlns="http://www.w3.org/2000/svg" width="131.162" height="138.235" viewBox="0 0 131.162 138.235">
  <path id="União_1" data-name="União 1" d="M-492.821-854.656a46.051,46.051,0,0,0-8.661-12.869,46.072,46.072,0,0,0-10.9-8.455q-1.957,1.119-4.033,2.043a3.185,3.185,0,0,1-4.209-1.613,3.188,3.188,0,0,1,1.614-4.21,38.539,38.539,0,0,0,4.556-2.4,3.175,3.175,0,0,1,.58-.365,39.042,39.042,0,0,0,11.681-11.6,38.64,38.64,0,0,0,6.232-21.119l-.006.009a3.2,3.2,0,0,1,3.2-3.2,3.2,3.2,0,0,1,3.2,3.2,44.994,44.994,0,0,1-7.28,24.59,45.452,45.452,0,0,1-9.709,10.715,52.866,52.866,0,0,1,9.706,8.016A52.354,52.354,0,0,1-487-857.252a3.186,3.186,0,0,1-1.614,4.209,3.18,3.18,0,0,1-1.3.277A3.186,3.186,0,0,1-492.821-854.656Zm-87.407-.227a3.2,3.2,0,0,1-1.436-4.287,52.493,52.493,0,0,1,9.709-13.518A52.754,52.754,0,0,1-563-879.935a45.605,45.605,0,0,1-7.57-7.7,45,45,0,0,1-9.419-27.607,45.066,45.066,0,0,1,13.24-31.963,45.055,45.055,0,0,1,31.964-13.24l.05.012,7.857.147a3.186,3.186,0,0,1,3.136,3.235,3.185,3.185,0,0,1-3.235,3.136l-7.809-.143v.012a38.687,38.687,0,0,0-27.44,11.367,38.691,38.691,0,0,0-11.364,27.44,38.646,38.646,0,0,0,8.072,23.711,38.982,38.982,0,0,0,9.808,8.987,3.175,3.175,0,0,1,.648.406,38.628,38.628,0,0,0,10.489,4.469,3.189,3.189,0,0,1,2.286,3.886,3.19,3.19,0,0,1-3.887,2.286,44.982,44.982,0,0,1-11-4.481,46.268,46.268,0,0,0-10.255,7.785,46.133,46.133,0,0,0-8.511,11.869v0a3.2,3.2,0,0,1-2.865,1.772A3.186,3.186,0,0,1-580.228-854.883Zm32.689-48.713h0a3.19,3.19,0,0,1-.6-4.472,3.19,3.19,0,0,1,4.472-.6c.024.018,8.473,6.656,17.839-.063a3.2,3.2,0,0,1,4.46.738,3.2,3.2,0,0,1-.738,4.46,21.014,21.014,0,0,1-12.443,4.215A22.88,22.88,0,0,1-547.539-903.6Zm19.57-20.7a5.727,5.727,0,0,1,5.692-5.711,5.714,5.714,0,0,1,5.7,5.709,5.671,5.671,0,0,1-5.7,5.667A5.683,5.683,0,0,1-527.969-924.294Zm-24.054-.012a5.726,5.726,0,0,1,5.7-5.727,5.719,5.719,0,0,1,5.679,5.724,5.677,5.677,0,0,1-5.679,5.679A5.679,5.679,0,0,1-552.023-924.305ZM-508.1-934.4a33.051,33.051,0,0,1-9.709-23.446,33.043,33.043,0,0,1,9.709-23.442A33.054,33.054,0,0,1-484.656-991a33.048,33.048,0,0,1,23.437,9.709,33.313,33.313,0,0,1,6.127,8.43,3.2,3.2,0,0,1,3.824,1.41,3.193,3.193,0,0,1-1.163,4.361l-.326.188a33.13,33.13,0,0,1,1.252,9.052h.013l0,.006a33.041,33.041,0,0,1-9.712,23.445,33.064,33.064,0,0,1-23.449,9.709A33.039,33.039,0,0,1-508.1-934.4Zm4.52-42.368a26.686,26.686,0,0,0-7.836,18.92,26.673,26.673,0,0,0,7.836,18.923,26.671,26.671,0,0,0,18.92,7.836,26.679,26.679,0,0,0,18.925-7.836,26.673,26.673,0,0,0,7.836-18.923h.012a26.731,26.731,0,0,0-.618-5.739l-30.583,17.656h.006a3.183,3.183,0,0,1-2.9.151,3.174,3.174,0,0,1-1.93-1.486l-9.721-16.837a3.185,3.185,0,0,1,1.174-4.346,3.185,3.185,0,0,1,4.347,1.174l8.31,14.393,29.152-16.831a26.838,26.838,0,0,0-5.07-7.053,26.694,26.694,0,0,0-18.937-7.835A26.663,26.663,0,0,0-503.579-976.768Z" transform="translate(582 991)" fill="#f37335"/>
</svg>
