<svg xmlns="http://www.w3.org/2000/svg" width="99.077" height="60.567" viewBox="0 0 99.077 60.567">
  <path id="União_16" data-name="União 16" d="M-4921.332-3117.127a5.57,5.57,0,0,1,4.739-6.289l.014-.019q.531-.075,1.058-.157a78.866,78.866,0,0,1-9.826-7.284,78.989,78.989,0,0,1-16.1-19.316c-2.346-3.85-3.547-5.045-5.416-11a77.437,77.437,0,0,1-2.537-7.437c-.841-2.946,9.8-6.019,10.657-3.071a69.7,69.7,0,0,0,3.034,8.427,4.9,4.9,0,0,1,.483,1.088,67.885,67.885,0,0,0,17.147,22.911,67.075,67.075,0,0,0,18.17,11.282,67.075,67.075,0,0,0,18.17-11.282,67.891,67.891,0,0,0,17.147-22.911,4.944,4.944,0,0,1,.483-1.088,69.536,69.536,0,0,0,3.034-8.427c.857-2.948,11.5.125,10.657,3.071a77.437,77.437,0,0,1-2.537,7.437c-1.869,5.958-3.071,7.154-5.416,11a79,79,0,0,1-16.1,19.316,78.835,78.835,0,0,1-9.827,7.284q.528.082,1.058.157l.014.019a5.57,5.57,0,0,1,4.74,6.289,5.57,5.57,0,0,1-6.29,4.74,78.667,78.667,0,0,1-15.137-3.678,78.667,78.667,0,0,1-15.137,3.678,5.616,5.616,0,0,1-.784.055A5.573,5.573,0,0,1-4921.332-3117.127Z" transform="translate(4949.443 3172.899)" fill="#f37335"/>
</svg>
