<svg xmlns="http://www.w3.org/2000/svg" width="162.445" height="51.303" viewBox="0 0 162.445 51.303">
  <g id="Grupo_506" data-name="Grupo 506" transform="translate(0 -184.38)">
    <path id="Caminho_746" data-name="Caminho 746" d="M85.788,145.36a5.453,5.453,0,1,1,4.943-9.722,89.618,89.618,0,0,1,40.976,43.052,5.437,5.437,0,0,1-9.927,4.438A78.692,78.692,0,0,0,85.8,145.36Z" transform="translate(30.263 49.336)" fill="#f37335"/>
    <path id="Caminho_747" data-name="Caminho 747" d="M10.324,180.275a5.447,5.447,0,0,1-9.749-4.861,89.8,89.8,0,0,1,39.447-39.775,5.453,5.453,0,1,1,4.943,9.722,78.666,78.666,0,0,0-34.641,34.928Z" transform="translate(0.003 49.335)" fill="#f37335"/>
  </g>
</svg>
