<svg xmlns="http://www.w3.org/2000/svg" width="170.354" height="61.336" viewBox="0 0 170.354 61.336">
  <path id="União_17" data-name="União 17" d="M-7471.049-3095.216a78.5,78.5,0,0,0-14.759-21.942,78.975,78.975,0,0,0-21.22-15.824h-.013a5.462,5.462,0,0,1-2.39-7.334,5.459,5.459,0,0,1,7.333-2.388,89.859,89.859,0,0,1,24.167,18.036,89.427,89.427,0,0,1,16.809,25.014,5.445,5.445,0,0,1-2.745,7.183,5.4,5.4,0,0,1-2.212.475A5.454,5.454,0,0,1-7471.049-3095.216Zm-131.539-36.623a89.586,89.586,0,0,1-25.934-11.467,5.453,5.453,0,0,1-1.6-7.546,5.45,5.45,0,0,1,7.544-1.6,78.645,78.645,0,0,0,22.789,10.084,79.064,79.064,0,0,0,24.78,2.452l-.011.006a5.44,5.44,0,0,1,5.769,5.1,5.438,5.438,0,0,1-5.1,5.769q-2.685.163-5.371.163A89.8,89.8,0,0,1-7602.588-3131.839Z" transform="translate(7631.002 3153.332)" fill="#f37335"/>
</svg>
