<svg xmlns="http://www.w3.org/2000/svg" width="20.663" height="23.36" viewBox="0 0 20.663 23.36">
  <g id="Grupo_361" data-name="Grupo 361" transform="translate(-163.948 -280.311)">
    <g id="Camada_x0020_1" transform="translate(163.948 280.311)">
      <path id="Caminho_674" data-name="Caminho 674" d="M14.646,16.981a1.2,1.2,0,0,1,.124-.076,8.465,8.465,0,0,0,2.536-2.516,8.358,8.358,0,0,0,1.355-4.582.691.691,0,1,1,1.382,0,9.77,9.77,0,0,1-3.684,7.658A11.409,11.409,0,0,1,20.6,22.386a.692.692,0,1,1-1.265.56,9.971,9.971,0,0,0-1.88-2.792,10.173,10.173,0,0,0-2.364-1.831,9.472,9.472,0,0,1-.878.442.692.692,0,0,1-.56-1.265A8.965,8.965,0,0,0,14.646,16.981Zm-13.332,5.6a.687.687,0,0,1-.926.311.687.687,0,0,1-.311-.926,11.335,11.335,0,0,1,2.108-2.93,11.161,11.161,0,0,1,1.942-1.569,10.181,10.181,0,0,1-1.645-1.673A9.806,9.806,0,0,1,10.243,0h.014l1.707.035a.691.691,0,0,1-.028,1.382l-1.693-.035h0a8.422,8.422,0,0,0-6.669,13.56A8.533,8.533,0,0,0,5.7,16.891a.593.593,0,0,1,.138.09,8.294,8.294,0,0,0,2.274.968.692.692,0,0,1-.346,1.341,9.611,9.611,0,0,1-2.384-.974,9.94,9.94,0,0,0-4.071,4.264Z" transform="translate(-0.002 0)" fill="#f37335"/>
      <path id="Caminho_878" data-name="Caminho 878" d="M14.646,16.981a1.2,1.2,0,0,1,.124-.076,8.465,8.465,0,0,0,2.536-2.516,8.358,8.358,0,0,0,1.355-4.582.691.691,0,1,1,1.382,0,9.77,9.77,0,0,1-3.684,7.658A11.409,11.409,0,0,1,20.6,22.386a.692.692,0,1,1-1.265.56,9.971,9.971,0,0,0-1.88-2.792,10.173,10.173,0,0,0-2.364-1.831,9.472,9.472,0,0,1-.878.442.686.686,0,0,1-.912-.352C13.146,18.066,14.328,17.174,14.646,16.981Zm-13.332,5.6a.687.687,0,0,1-.926.311.687.687,0,0,1-.311-.926,11.335,11.335,0,0,1,2.108-2.93,11.161,11.161,0,0,1,1.942-1.569,10.181,10.181,0,0,1-1.645-1.673A9.806,9.806,0,0,1,10.243,0h.014l1.707.035a.691.691,0,0,1-.028,1.382l-1.693-.035h0a8.422,8.422,0,0,0-6.669,13.56A8.533,8.533,0,0,0,5.7,16.891a.593.593,0,0,1,.138.09,8.294,8.294,0,0,0,2.274.968.692.692,0,0,1-.346,1.341,9.611,9.611,0,0,1-2.384-.974,9.94,9.94,0,0,0-4.071,4.264Z" transform="translate(-0.002 0)" fill="#fff"/>
      <g id="smiley_17268656" transform="translate(5.815 5.5)">
        <path id="Caminho_888" data-name="Caminho 888" d="M29.789,36.347a1.851,1.851,0,0,1,1.317-.542,1.874,1.874,0,0,1,1.317.542.509.509,0,1,1-.719.719.842.842,0,0,0-1.2,0,.509.509,0,1,1-.719-.719Zm4.367,8.263a4.237,4.237,0,0,1-4.234-4.234.509.509,0,1,1,1.018,0,3.221,3.221,0,1,0,6.442,0,.509.509,0,1,1,1.018,0,4.254,4.254,0,0,1-4.245,4.234Zm4.367-7.549a.508.508,0,0,1-.719,0,.842.842,0,0,0-1.2,0,.509.509,0,1,1-.719-.719,1.851,1.851,0,0,1,1.317-.542,1.874,1.874,0,0,1,1.317.542.508.508,0,0,1,0,.719Z" transform="translate(-29.64 -35.799)" fill="#fff"/>
      </g>
    </g>
    <g id="_1531534957104" transform="translate(169.508 291.658)">
      <g id="Grupo_40" data-name="Grupo 40" transform="translate(0 0)">
        <path id="Caminho_681" data-name="Caminho 681" d="M15.98,23.43h9.754C24.237,29.008,17.535,29.234,15.98,23.43Z" transform="translate(-15.98 -23.43)" fill="none" fill-rule="evenodd"/>
      </g>
    </g>
  </g>
</svg>
