<svg xmlns="http://www.w3.org/2000/svg" width="29.749" height="29.754" viewBox="0 0 29.749 29.754">
  <g id="Camada_x0020_1" transform="translate(0)">
    <g id="_2174093997648" transform="translate(0 0)">
      <path id="Caminho_703" data-name="Caminho 703" d="M109.79,53.71Z" transform="translate(-81.382 -39.809)" fill="#fefefe" stroke="#fefefe" stroke-miterlimit="22.926" stroke-width="19.18" fill-rule="evenodd"/>
      <path id="Caminho_704" data-name="Caminho 704" d="M64.07,19.18Z" transform="translate(-47.493 -14.214)" fill="#fefefe" stroke="#fefefe" stroke-miterlimit="22.926" stroke-width="19.18" fill-rule="evenodd"/>
      <path id="Caminho_705" data-name="Caminho 705" d="M73.277,50.361a.611.611,0,1,1,1.221,0,8.621,8.621,0,0,1-5.119,7.877.608.608,0,0,1-.494-1.11,7.4,7.4,0,0,0,4.394-6.767Z" transform="translate(-50.795 -36.873)" fill="#fefefe"/>
      <path id="Caminho_706" data-name="Caminho 706" d="M31.741,34.575a.607.607,0,0,1-.305,1.175A8.62,8.62,0,0,1,33.61,18.79l1.509.031a.607.607,0,1,1-.018,1.214l-1.488-.028a7.4,7.4,0,0,0-1.866,14.566Z" transform="translate(-18.526 -13.925)" fill="#fefefe"/>
      <path id="Caminho_707" data-name="Caminho 707" d="M72.706,77.126a.61.61,0,0,1,.554-1.087,10.03,10.03,0,0,1,4.583,4.813.608.608,0,1,1-1.11.494,8.807,8.807,0,0,0-4.024-4.223Z" transform="translate(-53.647 -56.31)" fill="#fefefe"/>
      <path id="Caminho_708" data-name="Caminho 708" d="M24.659,81.031a.61.61,0,0,1-1.092-.543,10.049,10.049,0,0,1,4.41-4.448.61.61,0,1,1,.554,1.087,8.785,8.785,0,0,0-3.874,3.908Z" transform="translate(-17.424 -56.31)" fill="#fefefe"/>
      <path id="Caminho_709" data-name="Caminho 709" d="M48.208,57.546a.608.608,0,0,1,.753-.955,2.863,2.863,0,0,0,3.4-.018.61.61,0,0,1,.712.991,4.11,4.11,0,0,1-4.857-.018Z" transform="translate(-35.564 -41.846)" fill="#fefefe"/>
      <path id="Caminho_710" data-name="Caminho 710" d="M47.761,42.3a1.086,1.086,0,1,1-1.084-1.092A1.082,1.082,0,0,1,47.761,42.3Z" transform="translate(-33.795 -30.543)" fill="#fefefe" fill-rule="evenodd"/>
      <path id="Caminho_711" data-name="Caminho 711" d="M47.216,41.464a1.378,1.378,0,0,1-2.352.973,1.362,1.362,0,0,1-.4-.973,1.386,1.386,0,0,1,.406-.978,1.37,1.37,0,0,1,.976-.406,1.383,1.383,0,0,1,1.377,1.384Zm-.818.559a.786.786,0,0,0,.23-.559A.8.8,0,0,0,46.4,40.9a.784.784,0,0,0-1.115,0,.8.8,0,0,0-.233.567.792.792,0,0,0,1.351.559Z" transform="translate(-32.957 -29.706)" fill="#fefefe"/>
      <path id="Caminho_712" data-name="Caminho 712" d="M65.491,42.319a1.086,1.086,0,0,1-2.171,0,1.086,1.086,0,1,1,2.171,0Z" transform="translate(-46.937 -30.558)" fill="#fefefe" fill-rule="evenodd"/>
      <path id="Caminho_713" data-name="Caminho 713" d="M64.946,41.482a.571.571,0,1,1,.005,0Zm-.818.556a.784.784,0,0,0,.23-.556.8.8,0,0,0-.233-.564.793.793,0,0,0-1.353.562.786.786,0,0,0,.792.787.793.793,0,0,0,.564-.23Z" transform="translate(-46.099 -29.721)" fill="#fefefe"/>
      <path id="Caminho_714" data-name="Caminho 714" d="M29.759,14.867A14.83,14.83,0,0,1,25.4,25.386h0a14.877,14.877,0,1,1,0-21.038h0a14.83,14.83,0,0,1,4.358,10.519Zm-5.628,9.246a13.076,13.076,0,1,0-9.249,3.83,13.052,13.052,0,0,0,9.249-3.83Z" transform="translate(-0.01 0.01)" fill="#fefefe"/>
    </g>
  </g>
</svg>
