<svg xmlns="http://www.w3.org/2000/svg" width="64.024" height="29.974" viewBox="0 0 64.024 29.974">
  <path id="Caminho_2041" data-name="Caminho 2041" d="M11.118,26.3a5.343,5.343,0,0,1,10.329-2.737,17.98,17.98,0,0,0,8.961,11.168,24.957,24.957,0,0,0,12.227,3.134,24.276,24.276,0,0,0,12.139-3,18.015,18.015,0,0,0,8.652-11.3A5.343,5.343,0,0,1,73.755,26.3,28.687,28.687,0,0,1,60.027,44.134a34.9,34.9,0,0,1-17.48,4.414,36.607,36.607,0,0,1-17.436-4.5A28.64,28.64,0,0,1,11.074,26.3Z" transform="translate(-10.423 -19.076)" fill="#fff" stroke="#fff" stroke-width="1"/>
</svg>
