<svg xmlns="http://www.w3.org/2000/svg" width="129.988" height="78.416" viewBox="0 0 129.988 78.416">
  <g id="Grupo_511" data-name="Grupo 511" transform="translate(-120 -56.584)">
    <path id="Caminho_30" data-name="Caminho 30" d="M4187.325,2002.8a19.03,19.03,0,0,1-8.788-2.008,15.931,15.931,0,0,1-6.225-5.532,13.644,13.644,0,0,1-.91-1.622,13.87,13.87,0,0,1-.909,1.632,15.847,15.847,0,0,1-6.214,5.533,19.1,19.1,0,0,1-8.818,2,20.58,20.58,0,0,1-5.236-.646l-2.307,4c-1.148,1.99-6.373-.884-5.163-2.98l2.012-3.485a15.513,15.513,0,0,1-4.329-4.415,15.549,15.549,0,0,1,.01-16.281,15.922,15.922,0,0,1,6.224-5.532,20.3,20.3,0,0,1,17.607,0,15.839,15.839,0,0,1,6.214,5.532,1.063,1.063,0,1,0,1.809-.01,15.815,15.815,0,0,1,6.224-5.533,19.11,19.11,0,0,1,8.8-2,20.7,20.7,0,0,1,5.239.641l2.3-3.991c1.21-2.1,6.311.991,5.163,2.98l-2.009,3.479a15.523,15.523,0,0,1,4.335,4.422,15.63,15.63,0,0,1,0,16.281,15.829,15.829,0,0,1-6.215,5.532A19.089,19.089,0,0,1,4187.325,2002.8Zm18.954,11.537,7.833-15.333a1.688,1.688,0,0,0-.021-1.618l-12.2-22.452c-.711-1.31.222-2.3,1.524-2.564a15.21,15.21,0,0,1,6.175,0,2.015,2.015,0,0,1,1.537.931l6.912,13.207a1.735,1.735,0,0,0,3.118-.088l5.906-13.03a1.968,1.968,0,0,1,1.581-1.019,16.4,16.4,0,0,1,6.2,0c1.287.244,2.208,1.22,1.548,2.52l-20.8,41.021a1.98,1.98,0,0,1-1.547.95,16.472,16.472,0,0,1-6.213,0C4206.533,2016.618,4205.616,2015.632,4206.279,2014.334Zm-99.659-14.195v-46.093a1.863,1.863,0,0,1,1.735-1.735,15.681,15.681,0,0,1,5.376,0,1.87,1.87,0,0,1,1.735,1.735v17.927a1.735,1.735,0,0,0,2.647,1.476,14,14,0,0,1,1.608-.852,13.5,13.5,0,0,1,5.628-1.152,11.8,11.8,0,0,1,5.985,1.479,10.629,10.629,0,0,1,4.043,4.121,12.457,12.457,0,0,1,1.47,6.157v16.938a1.847,1.847,0,0,1-1.735,1.735,18.117,18.117,0,0,1-5.376,0,1.844,1.844,0,0,1-1.735-1.735v-15.065a6.964,6.964,0,0,0-1.652-4.947,5.917,5.917,0,0,0-4.542-1.767,6.844,6.844,0,0,0-3.381.788,5.521,5.521,0,0,0-2.19,2.161,6.274,6.274,0,0,0-.768,3.1v15.728a1.839,1.839,0,0,1-1.735,1.735,18.069,18.069,0,0,1-5.376,0A1.853,1.853,0,0,1,4106.62,2000.14Zm80.734-4.893a8.205,8.205,0,0,0,4.092-1.037,7.666,7.666,0,0,0,2.91-2.872,8.889,8.889,0,0,0,0-8.443,7.64,7.64,0,0,0-2.91-2.863,8.611,8.611,0,0,0-8.193,0,7.669,7.669,0,0,0-2.9,2.863,8.882,8.882,0,0,0,0,8.443,7.7,7.7,0,0,0,2.9,2.872A8.162,8.162,0,0,0,4187.354,1995.247ZM4155.489,1979a8.211,8.211,0,0,1,4.092,1.037,7.67,7.67,0,0,1,2.91,2.872,8.892,8.892,0,0,1,0,8.443,7.643,7.643,0,0,1-2.91,2.862,8.606,8.606,0,0,1-8.193,0,7.675,7.675,0,0,1-2.9-2.862,8.888,8.888,0,0,1,0-8.443,7.7,7.7,0,0,1,2.9-2.872A8.161,8.161,0,0,1,4155.489,1979Z" transform="translate(-3986.62 -1895.495)" fill="#0080C5" fill-rule="evenodd"/>
    <text id="Você_presente." data-name="Você presente." transform="translate(152 133)" fill="#0080C5" font-size="8" font-family="Helvetica-Bold, Helvetica" font-weight="700"><tspan x="0" y="0">Você presente.</tspan></text>
  </g>
</svg>
