<svg xmlns="http://www.w3.org/2000/svg" width="81.829" height="48.505" viewBox="0 0 81.829 48.505">
  <g id="_2023317050544" transform="translate(0 0)">
    <path id="Caminho_479" data-name="Caminho 479" d="M654.951,2929.541a23.408,23.408,0,0,1-10.812-2.47,19.618,19.618,0,0,1-7.66-6.805,16.986,16.986,0,0,1-1.12-2,17.361,17.361,0,0,1-1.117,2.007,19.5,19.5,0,0,1-7.645,6.809,23.5,23.5,0,0,1-10.85,2.459,25.374,25.374,0,0,1-6.441-.794l-2.838,4.917c-1.413,2.447-7.842-1.087-6.351-3.668l2.477-4.287a19.05,19.05,0,0,1-5.327-5.431,19.125,19.125,0,0,1,.012-20.031,19.59,19.59,0,0,1,7.657-6.806,24.984,24.984,0,0,1,21.665,0,19.5,19.5,0,0,1,7.645,6.806,17.62,17.62,0,0,1,1.111,1.99,17.066,17.066,0,0,1,1.117-2,19.464,19.464,0,0,1,7.66-6.809,23.5,23.5,0,0,1,10.827-2.458,25.5,25.5,0,0,1,6.447.789l2.835-4.912c1.488-2.578,7.764,1.219,6.351,3.669l-2.471,4.281a19.105,19.105,0,0,1,5.333,5.44,19.228,19.228,0,0,1,0,20.031,19.458,19.458,0,0,1-7.648,6.805,23.484,23.484,0,0,1-10.847,2.471Zm.036-9.291a10.082,10.082,0,0,0,5.034-1.276,9.434,9.434,0,0,0,3.579-3.534,10.939,10.939,0,0,0,0-10.387,9.4,9.4,0,0,0-3.579-3.522,10.592,10.592,0,0,0-10.08,0,9.439,9.439,0,0,0-3.57,3.522,10.939,10.939,0,0,0,0,10.387,9.494,9.494,0,0,0,3.57,3.534A10.031,10.031,0,0,0,654.987,2920.25Zm-39.2-19.995a10.081,10.081,0,0,1,5.034,1.276,9.414,9.414,0,0,1,3.579,3.534,10.939,10.939,0,0,1,0,10.387,9.4,9.4,0,0,1-3.579,3.522,10.593,10.593,0,0,1-10.08,0,9.461,9.461,0,0,1-3.57-3.522,10.939,10.939,0,0,1,0-10.387,9.475,9.475,0,0,1,3.57-3.534A10.03,10.03,0,0,1,615.782,2900.255Z" transform="translate(-594.44 -2885.985)" fill="#fd7062" fill-rule="evenodd"/>
  </g>
</svg>
