<svg xmlns="http://www.w3.org/2000/svg" width="31.436" height="36.627" viewBox="0 0 31.436 36.627">
  <path id="Icon_ion-notifications-outline" data-name="Icon ion-notifications-outline" d="M34.358,28.45c-2.122-2.6-3.62-3.92-3.62-11.08,0-6.557-3.348-8.893-6.1-10.028a1.472,1.472,0,0,1-.822-.872,4.006,4.006,0,0,0-3.64-3.095,4,4,0,0,0-3.636,3.1,1.458,1.458,0,0,1-.822.87c-2.759,1.136-6.1,3.464-6.1,10.028,0,7.161-1.5,8.483-3.624,11.08a1.667,1.667,0,0,0,1.429,2.692H32.938A1.667,1.667,0,0,0,34.358,28.45Zm-8.9,2.692v1.322a5.289,5.289,0,0,1-10.578,0V31.141" transform="translate(-4.452 -2.25)" fill="none" stroke="#fff" stroke-linecap="round" stroke-linejoin="round" stroke-width="2.25"/>
</svg>
