<svg xmlns="http://www.w3.org/2000/svg" width="36.237" height="21.48" viewBox="0 0 36.237 21.48">
  <g id="_2023317050544" transform="translate(0 7)">
    <path id="Path_479" data-name="Path 479" d="M621.236,2905.273a10.364,10.364,0,0,1-4.788-1.094,8.686,8.686,0,0,1-3.392-3.014,7.54,7.54,0,0,1-.5-.884,7.664,7.664,0,0,1-.495.889,8.634,8.634,0,0,1-3.385,3.015,10.405,10.405,0,0,1-4.8,1.089,11.234,11.234,0,0,1-2.852-.352l-1.257,2.177c-.626,1.083-3.473-.481-2.813-1.625l1.1-1.9a8.434,8.434,0,0,1-2.359-2.405,8.469,8.469,0,0,1,.005-8.87,8.678,8.678,0,0,1,3.391-3.014,11.064,11.064,0,0,1,9.594,0,8.639,8.639,0,0,1,3.385,3.014,7.832,7.832,0,0,1,.492.881,7.573,7.573,0,0,1,.495-.886,8.62,8.62,0,0,1,3.392-3.015,10.407,10.407,0,0,1,4.794-1.089,11.285,11.285,0,0,1,2.855.349l1.255-2.175c.659-1.142,3.438.54,2.813,1.625l-1.094,1.9a8.458,8.458,0,0,1,2.361,2.409,8.515,8.515,0,0,1,0,8.87,8.613,8.613,0,0,1-3.387,3.014,10.4,10.4,0,0,1-4.8,1.094Zm.016-4.114a4.468,4.468,0,0,0,2.229-.565,4.181,4.181,0,0,0,1.585-1.565,4.845,4.845,0,0,0,0-4.6,4.167,4.167,0,0,0-1.585-1.56,4.691,4.691,0,0,0-4.464,0,4.183,4.183,0,0,0-1.581,1.56,4.845,4.845,0,0,0,0,4.6,4.206,4.206,0,0,0,1.581,1.565A4.445,4.445,0,0,0,621.252,2901.159Zm-17.361-8.854a4.467,4.467,0,0,1,2.229.565,4.172,4.172,0,0,1,1.585,1.565,4.845,4.845,0,0,1,0,4.6,4.165,4.165,0,0,1-1.585,1.56,4.692,4.692,0,0,1-4.464,0,4.191,4.191,0,0,1-1.581-1.56,4.845,4.845,0,0,1,0-4.6,4.2,4.2,0,0,1,1.581-1.565A4.444,4.444,0,0,1,603.891,2892.3Z" transform="translate(-594.44 -2892.985)" fill="#fff" fill-rule="evenodd"/>
  </g>
</svg>
