<svg xmlns="http://www.w3.org/2000/svg" width="37.752" height="35.504" viewBox="0 0 37.752 35.504">
  <g id="Icon_ion-star" data-name="Icon ion-star" transform="translate(0.874 -0.249)" fill="none" stroke-linejoin="round">
    <path d="M27.7,33.75a1.125,1.125,0,0,1-.66-.211L18,26.983,8.957,33.539a1.125,1.125,0,0,1-1.726-1.271l3.527-10.446L1.617,15.553A1.125,1.125,0,0,1,2.25,13.5H13.527l3.4-10.473a1.125,1.125,0,0,1,2.14,0l3.4,10.477H33.75a1.125,1.125,0,0,1,.636,2.053l-9.144,6.265,3.525,10.444A1.125,1.125,0,0,1,27.7,33.75Z" stroke="none"/>
    <path d="M 8.296599388122559 33.75337982177734 C 8.52827262878418 33.75336456298828 8.760079383850098 33.68196868896484 8.957108497619629 33.53906631469727 L 17.99999809265137 26.98312759399414 L 27.04288864135742 33.53906631469727 C 27.23529052734375 33.6771125793457 27.46675491333008 33.75151062011719 27.70312881469727 33.74999618530273 L 27.70312881469727 33.75000762939453 C 28.06518936157227 33.74935913085938 28.40479850769043 33.57449722290039 28.61564826965332 33.28016662597656 C 28.82650947570801 32.98583602905273 28.8828182220459 32.60801696777344 28.76694869995117 32.26499938964844 L 25.24218940734863 21.82148742675781 L 34.38632965087891 15.55663776397705 C 34.79324722290039 15.27789783477783 34.97114944458008 14.76659774780273 34.82513046264648 14.2954683303833 C 34.67916107177734 13.82452011108398 34.24359130859375 13.50351810455322 33.75057601928711 13.50351810455322 C 33.75039291381836 13.50351810455322 33.75017929077148 13.50351810455322 33.75 13.50351810455322 L 22.4732780456543 13.50351810455322 L 19.07015800476074 3.026957988739014 C 18.91975975036621 2.563087940216064 18.48763847351074 2.24892783164978 17.99999809265137 2.24892783164978 C 17.51235961914062 2.24892783164978 17.08023834228516 2.563087940216064 16.92984962463379 3.026957988739014 L 13.52671909332275 13.49999809265137 L 2.249998807907104 13.49999809265137 C 1.757408857345581 13.50129795074463 1.322948813438416 13.82289791107178 1.177858829498291 14.29362773895264 C 1.032768845558167 14.76436805725098 1.210798859596252 15.27474784851074 1.617188811302185 15.55312824249268 L 10.75780868530273 21.82148742675781 L 7.230938911437988 32.26780700683594 C 7.073978900909424 32.73169708251953 7.235138893127441 33.24382781982422 7.62946891784668 33.53423690795898 C 7.827808380126953 33.68030548095703 8.062136650085449 33.75339889526367 8.296599388122559 33.75337982177734 M 8.296769142150879 35.75337600708008 C 8.296689033508301 35.75337600708008 8.296689033508301 35.75337600708008 8.296689033508301 35.75337600708008 C 7.625113487243652 35.75341033935547 6.984255790710449 35.54291534423828 6.443469047546387 35.14463806152344 C 5.343478679656982 34.33453750610352 4.898598670959473 32.92082977294922 5.336448669433594 31.62679862976074 L 8.378915786743164 22.6152229309082 L 0.4860688447952271 17.20254707336426 C -0.6483011245727539 16.42549705505371 -1.138711094856262 15.01951789855957 -0.7334211468696594 13.70453834533691 C -0.3281111419200897 12.38956832885742 0.8687088489532471 11.50363826751709 2.244718790054321 11.50000762939453 C 2.246478796005249 11.49999809265137 2.248238801956177 11.49999809265137 2.249998807907104 11.49999809265137 L 12.07366561889648 11.49999809265137 L 15.02774906158447 2.40888786315918 C 15.44643878936768 1.117457866668701 16.64105796813965 0.2489278763532639 17.99999809265137 0.2489278763532639 C 19.35891914367676 0.2489278763532639 20.55353927612305 1.117437839508057 20.97265815734863 2.410117864608765 L 23.92648315429688 11.50351810455322 L 33.75 11.50351810455322 C 35.12810897827148 11.50351810455322 36.3276481628418 12.3875675201416 36.73546981811523 13.7033576965332 C 37.14350891113281 15.01988792419434 36.65366744995117 16.42773818969727 35.51657867431641 17.2066478729248 L 27.62116813659668 22.6159610748291 L 30.66192817687988 31.62542724609375 C 30.9827880859375 32.57528686523438 30.82566833496094 33.62948608398438 30.24147796630859 34.44492721557617 C 29.65736961364746 35.26030731201172 28.70977973937988 35.74820709228516 27.70671844482422 35.75000762939453 C 27.70551872253418 35.75000762939453 27.69990921020508 35.75000762939453 27.69870948791504 35.75000762939453 C 27.0412483215332 35.75003814697266 26.41126823425293 35.54742813110352 25.87697792053223 35.16407775878906 C 25.87429809570312 35.16215896606445 25.87163925170898 35.16022872924805 25.86896896362305 35.15829849243164 L 17.99999809265137 29.45343017578125 L 10.13102912902832 35.15829849243164 C 9.59443187713623 35.5474739074707 8.960024833679199 35.75332260131836 8.296769142150879 35.75337600708008 L 8.296769142150879 35.75337600708008 Z" stroke="none" fill="#fff"/>
  </g>
</svg>
