<svg xmlns="http://www.w3.org/2000/svg" width="110.617" height="112.343" viewBox="0 0 110.617 112.343">
  <g id="_2606889_6156" data-name="2606889_6156" transform="translate(-47.512 -46.811)">
    <g id="Object" transform="translate(47.512 46.811)">
      <g id="Group_357" data-name="Group 357" transform="translate(0)">
        <path id="Path_928" data-name="Path 928" d="M445.849,471.454l3.9-3.9-3.1-3.1-3.918,3.888Z" transform="translate(-411.476 -427.912)" fill="none" stroke="#c52e08" stroke-width="1"/>
        <path id="Path_929" data-name="Path 929" d="M405.74,521.36a2.234,2.234,0,0,0,3.056.1l0,0-3.142-3.143A2.233,2.233,0,0,0,405.74,521.36Z" transform="translate(-381.492 -470.82)" fill="none" stroke="#c52e08" stroke-width="1"/>
        <path id="Path_930" data-name="Path 930" d="M496.918,410.792l3.075,3.075.759-.758,3.145-3.146-4.019-4.019a4.847,4.847,0,0,1-1.616,3.514Z" transform="translate(-454.641 -381.305)" fill="none" stroke="#c52e08" stroke-width="1"/>
        <path id="Path_931" data-name="Path 931" d="M658.716,471.428l3.136-3.136-3.92-3.891-3.11,3.111,3.126,3.126-.011.013Z" transform="translate(-580.434 -427.874)" fill="none" stroke="#c52e08" stroke-width="1"/>
        <path id="Path_932" data-name="Path 932" d="M603.936,410.492l-3.091,3.094,1.1,1.1,2.807,2.806,3.081-3.084-.163-.164-3.235-3.209A5.049,5.049,0,0,1,603.936,410.492Z" transform="translate(-537.434 -384.928)" fill="none" stroke="#c52e08" stroke-width="1"/>
        <path id="Path_945" data-name="Path 945" d="M335.826,376.9c.453.522.919,1.037,1.415,1.533s1.011.963,1.536,1.414l.616.618.049-.048a28.456,28.456,0,0,0,19.03,6.31c.16-.009.32-.022.477-.022a9.98,9.98,0,0,1,5.788,1.782l2.528,2.528,4.061,4.058,28.322-28.322-4.478-4.474a9.966,9.966,0,0,1-2.912-6.778,33.65,33.65,0,0,0-.277-15.721,33.368,33.368,0,0,0-7.635-14.327c-.417-.464-.812-.94-1.258-1.388l-.054-.052.012-.009-5.724-5.68-3.92-3.888-7.1-7.05-3.432-3.4-.112-.112a4.585,4.585,0,0,0-.407-.342,4.783,4.783,0,0,0-3.094-1.136,4.874,4.874,0,0,0-4.855,4.89,4.816,4.816,0,0,0,1.132,3.062,5.1,5.1,0,0,0,.494.541l3.235,3.209.163.164,7.1,7.049,3.92,3.891,4.919,4.877.057.058a2.235,2.235,0,0,1-3.081,3.235l-.21-.211-4.821-4.823-.779-.777.011-.013-3.126-3.126-7.075-7.076-2.807-2.806-1.1-1.1-7.077-7.075-20.038-20.035-.073-.083-.08-.077A5.009,5.009,0,0,0,318,293.156l.164.179.177.16L329.3,304.452l4.966,4.969,4.019,4.019,4.666,4.663a34.45,34.45,0,0,0-4.739,3.072l-3.831-3.831-3.075-3.075-6.87-6.873-12.464-12.457-.151-.173a5.014,5.014,0,1,0-7.091,7.091l.134.122,12.467,12.467,6.873,6.874,3.1,3.1,3.962,3.961a33.651,33.651,0,0,0-2.912,4.9l-4.954-4.953-3.115-3.117-6.875-6.874-10.063-10.061-.014.02-.163-.18a5,5,0,0,0-7.239,6.9l.16.18.179.163,10.035,10.035,6.886,6.886,3.142,3.143,7.415,7.411a11.119,11.119,0,0,1,20.588-.787,11.128,11.128,0,1,1,18.012,12.445v0l-17.607,17.494-.381.157-.38-.157L327.01,355.116a11.5,11.5,0,0,1-1.243-1.235,11.214,11.214,0,0,1-1.841-3.072l-21.28-21.282-5.015-5.015-.035-.038-.038-.032a5.014,5.014,0,0,0-7.379,6.771l.324.359.355.323,6.8,6.8,25.378,25.375-.021.022Z" transform="translate(-289.031 -284.782)" fill="rgba(197,46,8,0.97)"/>
        <g id="Group_358" data-name="Group 358" transform="translate(0 2.048)">
          <path id="Path_933" data-name="Path 933" d="M355.977,488.589l21.279,21.282c-.068-.166-.164-.317-.224-.49a11.028,11.028,0,0,1,.051-7.494l-7.415-7.411,0,0a2.226,2.226,0,0,1-3.139-3.146l-6.886-6.886-.676.669.01.009-.054.052A34.874,34.874,0,0,0,355.977,488.589Z" transform="translate(-342.361 -445.892)" fill="rgba(255,255,255,0.4)"/>
          <path id="Path_934" data-name="Path 934" d="M289.023,579.988l28.324,28.322,4.059-4.058,2.528-2.528a9.986,9.986,0,0,1,5.788-1.782c.16,0,.32.013.477.022a28.4,28.4,0,0,0,16.115-4.246,28.112,28.112,0,0,1-6.88-4.112l-.049.048-.616-.618c-.525-.451-1.037-.918-1.536-1.414s-.962-1.011-1.415-1.533L323,575.274l.021-.022-25.379-25.376a34.215,34.215,0,0,0-2.026,10.857,33.275,33.275,0,0,0,.794,8,9.965,9.965,0,0,1-2.919,6.778Z" transform="translate(-289.023 -498.016)" fill="rgba(255,255,255,0.4)"/>
          <path id="Path_935" data-name="Path 935" d="M415.8,441.41l3.918-3.888-6.873-6.874-3.92,3.888Z" transform="translate(-384.543 -403.033)" fill="rgba(255,255,255,0.4)"/>
          <path id="Path_936" data-name="Path 936" d="M777.745,484.256l-.038.032-.032.038-3.324,3.325a33.891,33.891,0,0,1,4.256,9.9l5.839-5.84.356-.323.323-.359a5.014,5.014,0,0,0-7.378-6.771Z" transform="translate(-675.656 -444.597)" fill="rgba(255,255,255,0.4)"/>
          <path id="Path_937" data-name="Path 937" d="M728.958,417.764c.446.448.841.924,1.258,1.388l8.057-8.057.179-.163.16-.18a5,5,0,0,0-7.234-6.9l-.161.18-.019-.02-8.006,8.006,5.724,5.68-.012.009Z" transform="translate(-634.9 -380.526)" fill="rgba(255,255,255,0.4)"/>
          <path id="Path_938" data-name="Path 938" d="M677.107,483.534l-3.136,3.136,4.821,4.823.21.211a2.235,2.235,0,0,0,3.081-3.235l-.057-.058Z" transform="translate(-595.689 -445.164)" fill="rgba(255,255,255,0.4)"/>
          <path id="Path_939" data-name="Path 939" d="M579.935,310.416a4.785,4.785,0,0,1,3.094,1.136l7.984-7.987.179-.16.16-.179a5.006,5.006,0,0,0-7.164-6.986l-.083.077-.077.083-17.983,17.987,7.077,7.075,3.091-3.094a4.815,4.815,0,0,1-1.132-3.062A4.874,4.874,0,0,1,579.935,310.416Z" transform="translate(-509.71 -294.851)" fill="rgba(255,255,255,0.4)"/>
          <path id="Path_940" data-name="Path 940" d="M679.548,338.194l-.151.173-10.4,10.4,7.1,7.05,10.412-10.413.132-.122a5.014,5.014,0,1,0-7.091-7.091Z" transform="translate(-591.723 -328.21)" fill="rgba(255,255,255,0.4)"/>
          <path id="Path_941" data-name="Path 941" d="M464.511,383.088l-1.376,1.364,6.87,6.873,1.344-1.334a4.848,4.848,0,0,0,1.616-3.514L468,381.508a4.862,4.862,0,0,0-3.376,1.468Z" transform="translate(-427.728 -363.886)" fill="rgba(255,255,255,0.4)"/>
          <path id="Path_942" data-name="Path 942" d="M512.039,429.611l3.831,3.831a34.459,34.459,0,0,1,4.739-3.072l-4.666-4.663-3.145,3.146Z" transform="translate(-466.687 -399.097)" fill="rgba(255,255,255,0.4)"/>
          <path id="Path_943" data-name="Path 943" d="M463.006,488.555a33.644,33.644,0,0,1,2.912-4.9l-3.962-3.961-3.9,3.9Z" transform="translate(-423.679 -442.108)" fill="rgba(255,255,255,0.4)"/>
          <path id="Path_944" data-name="Path 944" d="M627.106,439.9l3.11-3.111-7.1-7.049-3.081,3.084Z" transform="translate(-552.718 -402.308)" fill="rgba(255,255,255,0.4)"/>
          <path id="Path_946" data-name="Path 946" d="M477.684,540.7a11.119,11.119,0,0,0-20.588.787,11.028,11.028,0,0,0-.051,7.494c.06.173.156.324.224.49a11.217,11.217,0,0,0,1.841,3.072,11.447,11.447,0,0,0,1.243,1.235l16.976,16.864.38.157.381-.157L495.7,553.148v0A11.126,11.126,0,1,0,477.684,540.7Z" transform="translate(-422.374 -485.492)" fill="rgba(255,255,255,0.4)"/>
        </g>
      </g>
    </g>
  </g>
</svg>
