<svg width="17" height="17" viewBox="0 0 17 17" fill="none" xmlns="http://www.w3.org/2000/svg">
<path d="M15.831 8.67103C15.831 8.16528 15.7896 7.65741 15.7025 7.16016H8.64746V10.0236H12.6871C12.6037 10.4818 12.4283 10.9184 12.1713 11.3068C11.9144 11.6953 11.5812 12.0276 11.1921 12.2835V14.1429H13.603C15.0182 12.8467 15.831 10.9342 15.831 8.67103Z" fill="#4285F4"/>
<path d="M8.64895 15.9374C10.6656 15.9374 12.3666 15.2787 13.6055 14.1418L11.1958 12.2835C10.5253 12.7372 9.65938 12.9943 8.65107 12.9943C6.70032 12.9943 5.04601 11.6853 4.45207 9.92578H1.96582V11.8415C2.59227 13.0753 3.5485 14.1113 4.72829 14.8343C5.90807 15.5574 7.26522 15.9392 8.64895 15.9374Z" fill="#34A853"/>
<path d="M4.44875 9.92579C4.13543 9.00247 4.13543 8.0016 4.44875 7.07829V5.1626H1.96462C1.44149 6.19806 1.16895 7.34193 1.16895 8.50203C1.16895 9.66214 1.44149 10.806 1.96462 11.8415L4.44875 9.92579Z" fill="#FBBC04"/>
<path d="M8.64895 4.00561C9.71424 3.98834 10.744 4.38879 11.5177 5.12124L13.6533 2.9973C12.296 1.73299 10.5037 1.04041 8.64895 1.06355C7.26483 1.0618 5.90736 1.44401 4.7275 2.16768C3.54764 2.89136 2.59164 3.92812 1.96582 5.16268L4.44782 7.07624C5.03857 5.31461 6.69607 4.00561 8.64682 4.00561H8.64895Z" fill="#EA4335"/>
</svg>
